<?xml version="1.0" encoding="utf-8"?>
<!-- Generator: Adobe Illustrator 25.0.0, SVG Export Plug-In . SVG Version: 6.00 Build 0)  -->
<svg version="1.1" id="Layer_1" xmlns="http://www.w3.org/2000/svg" xmlns:xlink="http://www.w3.org/1999/xlink" x="0px" y="0px"
	 viewBox="0 0 240 233" style="enable-background:new 0 0 240 233;" xml:space="preserve">
<style type="text/css">
	.st0{clip-path:url(#SVGID_6_);fill:url(#SVGID_8_);}
	.st1{opacity:0.06;clip-path:url(#SVGID_6_);}
	.st2{opacity:0.06;}
	.st3{clip-path:url(#SVGID_25_);}
	.st4{fill:#90C8E2;}
	.st5{fill:#8AC5DF;}
	.st6{fill:#EAEEF0;}
	.st7{fill:#EBEFF0;}
	.st8{fill:#97C9DD;}
	.st9{fill:#E6EEEF;}
	.st10{fill:#B9DCF0;}
	.st11{fill:#B8DAF0;}
	.st12{fill:#56ACCF;}
	.st13{fill:#B8DCF0;}
	.st14{fill:#C7E0EE;}
	.st15{fill:#E8F0F0;}
	.st16{fill:#9CD1EA;}
	.st17{fill:#B8DBF0;}
	.st18{fill:#A1CFFF;}
	.st19{fill:#E8ECED;}
	.st20{fill:#BFDDE8;}
	.st21{fill:#55ACCE;}
	.st22{fill:#55AACB;}
	.st23{fill:#78BAD6;}
	.st24{fill:#74B9D4;}
	.st25{fill:#B8DBEF;}
	.st26{fill:#56ABCE;}
	.st27{fill:#7BB9D4;}
	.st28{fill:#58AACD;}
	.st29{fill:#55ACCF;}
	.st30{fill:#9CD1EB;}
	.st31{fill:#99CFE8;}
	.st32{fill:#A7D4EC;}
	.st33{fill:#E6EAEB;}
	.st34{fill:#EAEFF0;}
	.st35{fill:#BEDFED;}
	.st36{fill:#DEEAF1;}
	.st37{fill:#E9EEF1;}
	.st38{fill:#E8EFED;}
	.st39{fill:#54ABCC;}
	.st40{fill:#CAE4F3;}
	.st41{fill:#C7E3F3;}
	.st42{fill:#F4F4F3;}
	.st43{fill:#F4F4F4;}
	.st44{fill:#BADCF0;}
	.st45{fill:#55AACE;}
	.st46{fill:#56ABCF;}
	.st47{fill:#53ABCF;}
	.st48{fill:#9BD2EB;}
	.st49{fill:#B3DCF0;}
	.st50{fill:#B2D9EF;}
	.st51{fill:#E9EDEE;}
	.st52{fill:#81C0D8;}
	.st53{fill:#EBEEF0;}
	.st54{fill:#54AAD0;}
	.st55{fill:#82BDD6;}
	.st56{fill:#EBEFEF;}
	.st57{fill:#F3F5F2;}
	.st58{fill:#F5F5F4;}
	.st59{fill:#CBE3EF;}
	.st60{fill:#55ABCC;}
	.st61{fill:#B4D8E4;}
	.st62{fill:#54ABCD;}
	.st63{fill:#7EBBD5;}
	.st64{fill:#BEDFEC;}
	.st65{fill:#9BD2EC;}
	.st66{fill:#57A9CE;}
	.st67{fill:#85C2D7;}
	.st68{fill:#BBDAE6;}
	.st69{fill:#F1F2F4;}
	.st70{fill:#E1EDF2;}
	.st71{fill:#E1EBF1;}
	.st72{fill:#9BD1EB;}
	.st73{fill:#8CC6DB;}
	.st74{fill:#A6CFDF;}
	.st75{fill:#E7EEF2;}
	.st76{fill:#9CD2EC;}
	.st77{fill:#95C9DC;}
	.st78{fill:#5AACCC;}
	.st79{fill:#EAEEEF;}
	.st80{fill:#9AD2EC;}
	.st81{fill:#F4F5F5;}
	.st82{fill:#EBEEEF;}
	.st83{fill:#95CADB;}
	.st84{fill:#93C8DC;}
	.st85{fill:#55ABCD;}
	.st86{fill:#D6EAEE;}
	.st87{fill:#54AACE;}
	.st88{fill:#B9DBF0;}
	.st89{fill:#BEDDE8;}
	.st90{fill:#A9D5E8;}
	.st91{fill:#A5CFDF;}
	.st92{fill:#ECF0F1;}
	.st93{fill:#A8D1E2;}
	.st94{fill:#A2D3E9;}
	.st95{fill:#E5EDEE;}
	.st96{fill:#E9EFF1;}
	.st97{fill:#9BD1ED;}
	.st98{fill:#BFDEEC;}
	.st99{fill:#8AC3D7;}
	.st100{fill:#FFFEFE;}
	.st101{fill:#BADBF0;}
	.st102{fill:#53ACCE;}
	.st103{fill:#B8DCEC;}
	.st104{fill:#E2ECF0;}
	.st105{fill:#E9EEEF;}
	.st106{fill:#82BDD4;}
	.st107{fill:#A4D4EB;}
	.st108{fill:#E2EEF3;}
	.st109{fill:#CCE4EF;}
	.st110{fill:#7EC2DD;}
	.st111{fill:#A1E8FF;}
	.st112{fill:#AED8EA;}
	.st113{fill:#E3F0F4;}
	.st114{fill:#58ACCE;}
	.st115{fill:#A9D6EC;}
	.st116{fill:#C2E0EE;}
	.st117{fill:#D7E7EF;}
	.st118{fill:#9BD1EC;}
	.st119{fill:#49C7D0;}
	.st120{fill:#F4F4F2;}
	.st121{fill:#DFEDF3;}
	.st122{fill:#9FD4EA;}
	.st123{fill:#9CD1EC;}
	.st124{fill:#9ED4EE;}
	.st125{fill:#E8F3F7;}
	.st126{fill:#E5F1F4;}
	.st127{fill:#7BBFDC;}
	.st128{fill:#54ABCF;}
	.st129{fill:#F1F7FA;}
	.st130{fill:#B9DBEF;}
	.st131{fill:#EAEEEE;}
	.st132{fill:#A9D5ED;}
	.st133{fill:#94CBE3;}
	.st134{fill:#B8D8EB;}
	.st135{fill:#84C2D7;}
	.st136{fill:#F1F3F3;}
	.st137{fill:#B8D7E8;}
	.st138{fill:#A3D3EC;}
	.st139{fill:#F3F4F4;}
	.st140{fill:#F0F7F9;}
	.st141{fill:#C5E0F0;}
	.st142{fill:#55A9CC;}
	.st143{fill:#B2D9E5;}
	.st144{fill:#56ABCD;}
	.st145{fill:#B7DCEF;}
	.st146{fill:#99C0E5;}
	.st147{fill:#A7D3E9;}
	.st148{fill:#B5D9F1;}
	.st149{fill:#84C1DC;}
	.st150{fill:#80C0DB;}
	.st151{fill:#F0F0F0;}
	.st152{fill:#AED4E6;}
	.st153{fill:#B7DCF0;}
	.st154{fill:#A5D3E7;}
	.st155{fill:#F5F4F5;}
	.st156{fill:#EBEFED;}
	.st157{fill:#BADBEE;}
	.st158{fill:#89C5DD;}
	.st159{fill:#55ABCF;}
	.st160{fill:#53ABCE;}
	.st161{fill:#73BCD9;}
	.st162{fill:#ACD5EC;}
	.st163{fill:#A5D4EA;}
	.st164{fill:#8FC8DF;}
	.st165{fill:#B1D9F2;}
	.st166{fill:#BAD8EB;}
	.st167{fill:#9AD0EB;}
	.st168{fill:#D9EAF1;}
	.st169{fill:#F5F4F2;}
	.st170{fill:#D4E6F1;}
	.st171{fill:#CCE2EF;}
	.st172{fill:#56AACD;}
	.st173{fill:#55ABCE;}
	.st174{fill:#BADAF0;}
	.st175{fill:#B9DAF2;}
	.st176{fill:#C9E2F1;}
	.st177{fill:#DBE9F0;}
	.st178{fill:#C6E1EB;}
	.st179{fill:#B1D9EC;}
	.st180{fill:#A3D2EB;}
	.st181{fill:#9ED2EA;}
	.st182{fill:#9FD3ED;}
	.st183{fill:#E0EAEF;}
	.st184{fill:#BDDCEF;}
	.st185{fill:#E7EDF1;}
	.st186{fill:#57ABCD;}
	.st187{fill:#B8DBF1;}
	.st188{fill:#ACD6EB;}
	.st189{fill:#B7DBEE;}
	.st190{fill:#F3F5F3;}
	.st191{fill:#F5F4F4;}
	.st192{fill:#C4DFEF;}
	.st193{fill:#E9EFEF;}
	.st194{fill:#7BBFD6;}
	.st195{fill:#B9DDED;}
	.st196{fill:#9FD1E9;}
	.st197{fill:#F4F5F4;}
	.st198{fill:#A5D3EA;}
	.st199{fill:#E4EDED;}
	.st200{fill:#E8EFEE;}
	.st201{fill:#EAF0F0;}
	.st202{fill:#ECEEF0;}
	.st203{fill:#85C0D5;}
	.st204{fill:#55ABCB;}
	.st205{fill:#B9DBF1;}
	.st206{fill:#A8D4E8;}
	.st207{fill:#B3DAEF;}
	.st208{fill:#B9DAF1;}
	.st209{fill:#F2F2F3;}
	.st210{fill:#F5F5F5;}
	.st211{fill:#F5F3F7;}
	.st212{fill:#9BCDDB;}
	.st213{fill:#DCEAF1;}
	.st214{fill:#A2D3EB;}
	.st215{fill:#DAEAF0;}
	.st216{fill:#E9EEF0;}
	.st217{fill:#D6E7F1;}
	.st218{fill:#DEE9F0;}
	.st219{fill:#F9F9FA;}
	.st220{fill:#CCE1E9;}
	.st221{fill:#B8DAEF;}
	.st222{fill:#A0D1EB;}
	.st223{fill:#B9DBEE;}
	.st224{fill:#C2E0EF;}
	.st225{fill:#E7EFF1;}
	.st226{fill:#D1E6EF;}
	.st227{fill:#E7EDEF;}
	.st228{fill:#D5E7EE;}
	.st229{fill:#92C7DA;}
	.st230{fill:#EAEEED;}
	.st231{fill:#E3EAF0;}
	.st232{fill:#B4DAEF;}
	.st233{fill:#ECF1F3;}
	.st234{fill:#E8EFF0;}
	.st235{fill:#9ED0E8;}
	.st236{fill:#B8DEEE;}
	.st237{fill:#B8DBEC;}
	.st238{fill:#9FD2EA;}
	.st239{fill:#F2F4F3;}
	.st240{fill:#E0EBF3;}
	.st241{fill:#BCDCF1;}
	.st242{fill:#BDDDEE;}
	.st243{fill:#C6E1EE;}
	.st244{fill:#97CBE3;}
	.st245{fill:#B1D9F0;}
	.st246{fill:#E7EBED;}
	.st247{fill:#F3F4F5;}
	.st248{fill:#99D2ED;}
	.st249{fill:#F1F4F6;}
	.st250{fill:#54ABCE;}
	.st251{fill:#E7EEF1;}
	.st252{fill:#DFECF3;}
	.st253{fill:#ACD9EB;}
	.st254{fill:#9ED1E9;}
	.st255{fill:#E3EBEF;}
	.st256{fill:#86C2D8;}
	.st257{fill:#B8DCEB;}
	.st258{fill:#7EBED8;}
	.st259{fill:#55AACC;}
	.st260{fill:#EAEFEF;}
	.st261{fill:#D5E9F3;}
	.st262{fill:#C8E1EF;}
	.st263{fill:#A0D4EB;}
	.st264{fill:#ABD7EB;}
	.st265{fill:#ECF4F5;}
	.st266{fill:#EEF1F5;}
	.st267{fill:#7CC1DE;}
	.st268{fill:#E3EAEA;}
	.st269{fill:#DDE7EA;}
	.st270{fill:#9AD0EA;}
	.st271{fill:#C9E3EF;}
	.st272{fill:#EBEDEF;}
	.st273{fill:#B7DCF1;}
	.st274{fill:#E5EEF5;}
	.st275{fill:#B7DBEF;}
	.st276{fill:#70BAD5;}
	.st277{fill:#9AD3EC;}
	.st278{fill:#79BFDB;}
	.st279{fill:#E7EBEC;}
	.st280{fill:#8ECAE5;}
	.st281{fill:#AED6ED;}
	.st282{fill:#76BEDA;}
	.st283{fill:#58ACCD;}
	.st284{fill:#CFE4EC;}
	.st285{fill:#E6F1F3;}
	.st286{fill:#A2D2EE;}
	.st287{fill:#91CBE7;}
	.st288{fill:#E1EAEE;}
	.st289{fill:#B6DAED;}
	.st290{fill:#C0DFEE;}
	.st291{fill:#B9DAEE;}
	.st292{fill:#55ABD0;}
	.st293{fill:#7CBFDA;}
	.st294{fill:#87C5E0;}
	.st295{fill:#E9EFEC;}
	.st296{fill:#BBDBF0;}
	.st297{fill:#BADBEF;}
	.st298{fill:#A7D5EE;}
	.st299{fill:#7DC1DF;}
	.st300{fill:#E1ECF2;}
	.st301{fill:#88C6E1;}
	.st302{fill:#DEEFF3;}
	.st303{fill:#86C6E2;}
	.st304{fill:#A6D4EE;}
	.st305{fill:#CDE4EF;}
	.st306{fill:#CEE3F0;}
	.st307{fill:#9BD2EA;}
	.st308{fill:#A2D0E0;}
	.st309{fill:#FDFEFC;}
	.st310{fill:#FEFDFD;}
	.st311{fill:#ABD7EE;}
	.st312{fill:#90CCE9;}
	.st313{fill:#C9E2EF;}
	.st314{fill:#E7EFF2;}
	.st315{fill:#ABD4E4;}
	.st316{fill:#89C2DA;}
	.st317{fill:#71BCD7;}
	.st318{fill:#AFD7ED;}
	.st319{fill:#A5D4E2;}
	.st320{fill:#81C3DC;}
	.st321{fill:#A9D6ED;}
	.st322{fill:#C4DDE7;}
	.st323{fill:#BADBE4;}
	.st324{fill:#D5E5EB;}
	.st325{fill:#85C3DE;}
	.st326{fill:#57AACE;}
	.st327{fill:#BCDDF0;}
	.st328{fill:#C5E1EA;}
	.st329{fill:#9DD0E9;}
	.st330{fill:#AFD9EF;}
	.st331{fill:#B7DBF0;}
	.st332{fill:#C9DFE5;}
	.st333{fill:#BDDDEC;}
	.st334{fill:#A1CDE2;}
	.st335{fill:#57AACD;}
	.st336{fill:#D8E8EE;}
	.st337{fill:#9CD2EB;}
	.st338{fill:#9DCCDF;}
	.st339{fill:#57ABCF;}
	.st340{fill:#8FC9DF;}
	.st341{fill:#B7DAEE;}
	.st342{fill:#FBFDFC;}
	.st343{fill:#BFDCE6;}
	.st344{fill:#A8D5E9;}
	.st345{fill:#E6EDF0;}
	.st346{fill:#D5E6ED;}
	.st347{fill:#BFDDEE;}
	.st348{fill:#B8DCEF;}
	.st349{fill:#9FCEE4;}
	.st350{fill:#AAD6EC;}
	.st351{fill:#8AC6DB;}
	.st352{fill:#89C7E1;}
	.st353{fill:#9BCFE7;}
	.st354{fill:#EBEDF0;}
	.st355{fill:#85C2DE;}
	.st356{fill:#B8D9EC;}
	.st357{fill:#BCDCEC;}
	.st358{fill:#C6E0EE;}
	.st359{fill:#9BD0EE;}
	.st360{fill:#C8DFE6;}
	.st361{clip-path:url(#SVGID_6_);}
	.st362{fill:#D7CCC8;}
	.st363{fill:#BCAAA4;}
	.st364{fill:#A1887F;}
	.st365{clip-path:url(#SVGID_26_);fill:#F2EEED;}
	.st366{fill:#FEFEFE;}
	.st367{fill:#F9F8F7;}
	.st368{fill:#EFEBE9;}
	.st369{fill:#F2EFED;}
	.st370{clip-path:url(#SVGID_27_);fill:#F2EEED;}
	.st371{clip-path:url(#SVGID_28_);fill:#F2EEED;}
	.st372{clip-path:url(#SVGID_29_);fill:#F2EEED;}
	.st373{opacity:0.35;fill:url(#SVGID_30_);}
	.st374{fill:url(#SVGID_31_);}
	.st375{fill:url(#SVGID_32_);}
	.st376{fill:url(#SVGID_40_);}
	.st377{fill:url(#SVGID_42_);}
	.st378{opacity:0.35;fill:url(#SVGID_44_);}
	.st379{fill:url(#SVGID_46_);}
	.st380{opacity:0.35;}
	.st381{filter:url(#Adobe_OpacityMaskFilter);}
	.st382{mask:url(#SVGID_48_);}
	.st383{fill:#231F20;}
	.st384{fill:url(#SVGID_50_);}
	.st385{fill:url(#SVGID_65_);}
	.st386{opacity:0.28;fill:url(#SVGID_66_);}
	.st387{fill:url(#SVGID_67_);}
	.st388{clip-path:url(#SVGID_6_);fill:#E8E8E8;}
	.st389{fill:#E8E8E8;}
	.st390{opacity:0.3;}
	.st391{fill:#FFFFFF;}
	.st392{fill:#FFCC9A;}
	.st393{fill:#FFB100;}
	.st394{fill:#DEDEDE;}
	.st395{fill:#FFE7C8;}
	.st396{fill:#EF4418;}
	.st397{fill:#9DAE5E;}
	.st398{fill:#FFFFFD;}
	.st399{fill:#FFB701;}
	.st400{clip-path:url(#SVGID_68_);}
	.st401{fill:#FABA8C;}
	.st402{fill:#F59687;}
	.st403{fill:#FDD8B8;}
	.st404{fill:#E75025;}
	.st405{fill:#F37B6F;}
	.st406{fill:#161818;}
	.st407{fill:#FFEFE6;}
	.st408{fill:#F47F38;}
	.st409{fill:#F89D4C;}
	.st410{fill:#2C2C2C;}
	.st411{fill:#AB1F27;}
	.st412{fill:#133358;}
	.st413{fill:#26527A;}
	.st414{fill:#052743;}
	.st415{fill:#EBB635;}
	.st416{fill:#FFD354;}
	.st417{fill:#CB922B;}
	.st418{fill:#FF4B00;}
	.st419{fill:#FEFFFF;}
	.st420{fill:#593219;}
	.st421{clip-path:url(#SVGID_74_);}
	.st422{fill:#F6901E;}
	.st423{fill:#414156;}
	.st424{fill:#312F44;}
	.st425{fill:#5F5F74;}
	.st426{fill:#BC202E;}
	.st427{fill:#EA1F27;}
	.st428{fill:#530D2D;}
	.st429{fill:#3C0F27;}
	.st430{fill:#6F0E32;}
	.st431{clip-path:url(#SVGID_76_);}
	.st432{clip-path:url(#SVGID_76_);fill:none;}
	.st433{clip-path:url(#SVGID_77_);}
	.st434{fill:#1E4258;stroke:#1E4258;stroke-width:10;stroke-miterlimit:10;}
	.st435{fill:#FFD13E;}
	.st436{fill:#9A9A87;}
	.st437{fill:#F7F7EE;}
	.st438{fill:#F2B241;}
	.st439{fill:#ADE4EA;}
	.st440{fill:#1E4258;}
	.st441{fill:#A4B3BE;}
	.st442{fill:#E2E2E2;}
	.st443{fill:#FFB352;}
	.st444{fill:url(#SVGID_78_);}
	.st445{fill:url(#SVGID_79_);}
	.st446{fill:url(#SVGID_80_);}
	.st447{fill:url(#SVGID_81_);}
	.st448{fill:url(#SVGID_82_);}
	.st449{fill:url(#SVGID_83_);}
	.st450{fill:url(#SVGID_84_);}
	.st451{fill:url(#SVGID_85_);}
	.st452{fill:#1E4258;stroke:#1E4258;stroke-width:6;stroke-miterlimit:10;}
	.st453{fill:#E6E6E6;}
	.st454{fill:#CB7256;}
	.st455{fill:#B15A47;}
	.st456{fill:#E0826C;}
	.st457{fill:#9F4F39;}
	.st458{fill:#582121;}
	.st459{fill:#F9E8CA;}
	.st460{fill:#E8CCAC;}
	.st461{fill:#F16531;}
	.st462{fill:#007D7F;}
	.st463{fill:#016868;}
	.st464{fill:#181329;}
	.st465{fill:#445D78;}
	.st466{fill:#313233;}
	.st467{fill:#FC636B;}
	.st468{fill:#004D40;}
	.st469{fill:#26C6DA;}
	.st470{fill:#FFA726;}
	.st471{fill:url(#SVGID_86_);}
	.st472{clip-path:url(#SVGID_6_);fill:#FAFAFA;}
	.st473{opacity:0.35;fill:url(#SVGID_87_);}
	.st474{fill:url(#SVGID_88_);}
	.st475{opacity:0.4;fill:url(#SVGID_89_);}
	.st476{fill:url(#SVGID_90_);}
	.st477{opacity:0.35;fill:url(#SVGID_91_);}
	.st478{fill:url(#SVGID_92_);}
	.st479{opacity:0.2;fill:url(#SVGID_93_);}
	.st480{fill:url(#SVGID_94_);}
	.st481{opacity:0.2;fill:url(#SVGID_95_);}
	.st482{fill:url(#SVGID_96_);}
	.st483{opacity:0.35;fill:url(#SVGID_97_);}
	.st484{fill:url(#SVGID_99_);}
	.st485{fill:url(#SVGID_101_);}
	.st486{fill:url(#SVGID_102_);}
	.st487{opacity:0.35;fill:url(#SVGID_103_);}
	.st488{fill:url(#SVGID_104_);}
	.st489{opacity:0.27;}
	.st490{fill:url(#SVGID_105_);}
	.st491{fill:url(#SVGID_106_);}
	.st492{fill:url(#SVGID_107_);}
	.st493{fill:url(#SVGID_108_);}
	.st494{fill:url(#SVGID_109_);}
	.st495{fill:url(#SVGID_110_);}
	.st496{opacity:0.35;fill:url(#SVGID_111_);}
	.st497{opacity:0.25;}
	.st498{fill:url(#SVGID_112_);}
	.st499{fill:url(#SVGID_113_);}
	.st500{fill:url(#SVGID_114_);}
	.st501{fill:url(#SVGID_115_);}
	.st502{fill:url(#SVGID_116_);}
	.st503{fill:#B25A47;}
	.st504{fill:#E1836C;}
	.st505{fill:#A04F39;}
	.st506{fill:#FFEFE7;}
	.st507{fill:#FAE9CB;}
	.st508{fill:#E9CDAD;}
	.st509{fill:#F7B454;}
	.st510{fill:#2B454E;}
	.st511{fill:#1A2E35;}
	.st512{fill:#375A64;}
	.st513{fill:#D268CC;}
	.st514{fill:#DDF9BB;}
	.st515{fill:#99C8E9;}
	.st516{fill:#071B2C;}
	.st517{fill:#575E70;}
	.st518{fill:#4DB596;}
	.st519{fill:#454B55;}
	.st520{fill:#63A945;}
	.st521{fill:#293033;}
	.st522{fill:#F1F1F2;}
	.st523{fill:#192953;}
	.st524{clip-path:url(#SVGID_117_);fill:#071B2C;}
	.st525{fill:#5E5BA8;}
	.st526{fill:#F79678;}
	.st527{opacity:0.2;fill:#293033;}
	.st528{fill:#1A2229;}
	.st529{fill:#4C803B;}
	.st530{fill:#32353D;}
	.st531{fill:#444A56;}
	.st532{fill:#3E8E75;}
	.st533{opacity:0.2;clip-path:url(#SVGID_118_);fill:#293033;}
	.st534{fill:#F05250;}
	.st535{opacity:0.2;clip-path:url(#SVGID_119_);fill:#293033;}
	.st536{fill:#424278;}
	.st537{opacity:0.5;clip-path:url(#SVGID_120_);fill:#071B2C;}
	.st538{fill:#035B87;}
	.st539{opacity:0.2;clip-path:url(#SVGID_121_);fill:#293033;}
	.st540{opacity:0.2;clip-path:url(#SVGID_122_);fill:#293033;}
	.st541{fill:#034761;}
	.st542{fill:#F5BD18;}
	.st543{fill:#010101;}
	.st544{fill:#FB73AA;}
	.st545{fill:#01030A;}
	.st546{fill:#040102;}
	.st547{fill:#030102;}
	.st548{fill:#050203;}
	.st549{fill:#FAE803;}
	.st550{fill:#F8B937;}
	.st551{fill:#2950B8;}
	.st552{fill:#FDFDFD;}
	.st553{fill:#294FB6;}
	.st554{fill:#F89F29;}
	.st555{fill:#FFF9E7;}
	.st556{fill:#99D1D7;}
	.st557{fill:#C1E0DA;}
	.st558{fill:#134F78;}
	.st559{fill:#D94D2E;}
	.st560{fill:#12B6A7;}
	.st561{fill:#313D4D;}
	.st562{fill:#EAB02A;}
	.st563{fill:#FDD5B6;}
	.st564{fill:#B21F2D;}
	.st565{fill:#DB212C;}
	.st566{fill:#85B6BA;}
	.st567{fill:#E4E5E5;}
	.st568{fill:#029C8B;}
	.st569{fill:#B2B1B1;}
	.st570{fill:#0DB2A4;}
	.st571{fill:#DFB559;}
	.st572{fill:#FBD145;}
	.st573{fill:#F2C9A9;}
	.st574{fill:#7B6C53;}
	.st575{fill:#007CFF;}
	.st576{opacity:0.5;fill:#FFFFFF;}
	.st577{fill:#D7656A;}
	.st578{fill:#F0877C;}
	.st579{opacity:0.7;fill:#FFFFFF;}
	.st580{opacity:0.6;fill:#FFFFFF;}
	.st581{opacity:0.1;}
	.st582{opacity:0.2;}
	.st583{fill:#FD5652;}
	.st584{opacity:0.4;}
	.st585{opacity:0.8;}
	.st586{fill:#F8B275;}
	.st587{fill:#FCB373;}
	.st588{opacity:0.7;}
	.st589{opacity:0.5;}
	.st590{fill:#EC873E;}
	.st591{fill:#B84D3C;}
	.st592{opacity:0.4;fill:#FFFFFF;}
	.st593{fill:#FFC19D;}
	.st594{fill:#E1E1E1;}
	.st595{fill:#FF735D;}
	.st596{fill:#ECECEC;}
	.st597{fill:#FF9C6A;}
	.st598{opacity:0.3;fill:#CFC4B8;}
	.st599{enable-background:new    ;}
	.st600{fill:#E4E3EE;}
	.st601{fill:#B7B6E3;}
	.st602{fill:#919DD6;}
	.st603{fill:#12B0F3;}
	.st604{fill:#1393F2;}
	.st605{fill:#05D4F5;}
	.st606{fill:#D4D5F0;}
	.st607{fill:#C4C3EC;}
	.st608{fill:#EEEFF2;}
	.st609{clip-path:url(#SVGID_123_);enable-background:new    ;}
	.st610{clip-path:url(#SVGID_124_);enable-background:new    ;}
	.st611{clip-path:url(#SVGID_125_);enable-background:new    ;}
	.st612{clip-path:url(#SVGID_126_);enable-background:new    ;}
	.st613{clip-path:url(#SVGID_127_);enable-background:new    ;}
	.st614{fill:#DAD9E8;}
	.st615{clip-path:url(#SVGID_128_);enable-background:new    ;}
	.st616{fill:#EBEBF1;}
	.st617{clip-path:url(#SVGID_129_);enable-background:new    ;}
	.st618{clip-path:url(#SVGID_130_);enable-background:new    ;}
	.st619{clip-path:url(#SVGID_131_);enable-background:new    ;}
	.st620{clip-path:url(#SVGID_132_);enable-background:new    ;}
	.st621{fill:#171C29;}
	.st622{fill:#042F8F;}
	.st623{clip-path:url(#SVGID_133_);enable-background:new    ;}
	.st624{clip-path:url(#SVGID_134_);enable-background:new    ;}
	.st625{clip-path:url(#SVGID_135_);enable-background:new    ;}
	.st626{clip-path:url(#SVGID_136_);enable-background:new    ;}
	.st627{clip-path:url(#SVGID_137_);enable-background:new    ;}
	.st628{clip-path:url(#SVGID_138_);enable-background:new    ;}
	.st629{fill:url(#SVGID_139_);}
	.st630{fill:#789CCF;}
	.st631{opacity:0.48;fill:none;stroke:#FFFFFF;stroke-width:0.8689;stroke-miterlimit:10;}
	.st632{opacity:0.48;fill:none;stroke:#FFFFFF;stroke-width:0.7996;stroke-miterlimit:10;}
	.st633{fill:none;stroke:#FFFFFF;stroke-width:4.3598;stroke-linecap:round;stroke-linejoin:round;stroke-miterlimit:10;}
	.st634{fill:#6286D6;}
	.st635{fill:#7798FC;}
	.st636{fill:#FF998B;}
	.st637{fill:#0D0000;}
	.st638{fill:#DDE5F2;}
	.st639{fill:none;stroke:#DDE5F2;stroke-width:1.6024;stroke-miterlimit:10;}
	.st640{fill:#5E757A;}
	.st641{fill:#20120D;}
	.st642{fill:#272727;}
	.st643{fill:#F9796D;}
	.st644{fill:#E87F74;}
	.st645{fill:#F15146;}
	.st646{fill:#D0413B;}
	.st647{fill:#FF604F;}
	.st648{fill:#FD8A77;}
	.st649{fill:#F9FFFC;}
	.st650{fill:none;stroke:#FFFFFF;stroke-width:1.5615;stroke-miterlimit:10;}
	.st651{fill:#FCFBFB;}
	.st652{fill:#2D8584;}
	.st653{fill:#156054;}
	.st654{opacity:0.19;}
	.st655{fill:#97D5D3;}
	.st656{fill:#96CBB9;}
	.st657{fill:url(#SVGID_140_);}
	.st658{fill:#C7DEFD;}
	.st659{fill:#0C0A0A;}
	.st660{fill:#BED9FD;}
	.st661{fill:#FED964;}
	.st662{fill:#8BBBFD;}
	.st663{fill:#25A9E1;}
	.st664{fill:#FF8DA0;}
	.st665{fill:#FD4056;}
	.st666{fill:#000001;}
	.st667{fill:#7F7FFD;}
	.st668{fill:#43BA79;}
	.st669{fill:#FFFFFF;stroke:#1A1A1A;stroke-width:2;stroke-linecap:round;stroke-linejoin:round;stroke-miterlimit:10;}
	.st670{fill:#4E3CDF;}
	.st671{fill:none;}
	.st672{fill:#0B0B0C;}
	.st673{fill:#010102;}
	.st674{clip-path:url(#SVGID_141_);fill:url(#SVGID_142_);}
	.st675{clip-path:url(#SVGID_141_);}
	.st676{fill:#FFA94D;}
	.st677{fill:#FFDBBB;}
	.st678{fill:#FEB07D;}
	.st679{fill:#F87352;}
	.st680{fill:#09293D;}
	.st681{fill:#12B886;}
	.st682{fill:#C37362;}
	.st683{fill:none;stroke:#09293D;stroke-width:1.25;stroke-miterlimit:10;}
	.st684{fill:#C184B0;}
	.st685{fill:#FFDAB2;}
	.st686{clip-path:url(#SVGID_146_);fill:url(#SVGID_147_);}
	.st687{opacity:0.06;clip-path:url(#SVGID_146_);}
	.st688{clip-path:url(#SVGID_148_);}
	.st689{clip-path:url(#SVGID_146_);}
	.st690{clip-path:url(#SVGID_149_);}
	.st691{clip-path:url(#SVGID_150_);}
	.st692{clip-path:url(#SVGID_151_);}
	.st693{clip-path:url(#SVGID_151_);fill:none;}
	.st694{clip-path:url(#SVGID_152_);}
	.st695{fill:url(#SVGID_153_);}
	.st696{fill:url(#SVGID_154_);}
	.st697{fill:url(#SVGID_155_);}
	.st698{fill:url(#SVGID_156_);}
	.st699{fill:url(#SVGID_157_);}
	.st700{fill:url(#SVGID_158_);}
	.st701{fill:url(#SVGID_159_);}
	.st702{fill:url(#SVGID_160_);}
	.st703{fill:url(#SVGID_161_);}
	.st704{clip-path:url(#SVGID_162_);fill:#F2EEED;}
	.st705{clip-path:url(#SVGID_163_);fill:#F2EEED;}
	.st706{clip-path:url(#SVGID_164_);fill:#F2EEED;}
	.st707{clip-path:url(#SVGID_165_);fill:#F2EEED;}
	.st708{clip-path:url(#SVGID_146_);fill:#FAFAFA;}
	.st709{opacity:0.35;fill:url(#SVGID_166_);}
	.st710{fill:url(#SVGID_167_);}
	.st711{fill:url(#SVGID_168_);}
	.st712{fill:url(#SVGID_169_);}
	.st713{fill:url(#SVGID_170_);}
	.st714{opacity:0.35;fill:url(#SVGID_171_);}
	.st715{fill:url(#SVGID_172_);}
	.st716{opacity:0.4;fill:url(#SVGID_173_);}
	.st717{fill:url(#SVGID_174_);}
	.st718{opacity:0.35;fill:url(#SVGID_175_);}
	.st719{fill:url(#SVGID_176_);}
	.st720{opacity:0.2;fill:url(#SVGID_177_);}
	.st721{fill:url(#SVGID_178_);}
	.st722{opacity:0.2;fill:url(#SVGID_179_);}
	.st723{fill:url(#SVGID_180_);}
	.st724{opacity:0.35;fill:url(#SVGID_181_);}
	.st725{fill:url(#SVGID_182_);}
	.st726{fill:url(#SVGID_183_);}
	.st727{fill:url(#SVGID_184_);}
	.st728{opacity:0.35;fill:url(#SVGID_185_);}
	.st729{fill:url(#SVGID_186_);}
	.st730{filter:url(#Adobe_OpacityMaskFilter_1_);}
	.st731{mask:url(#SVGID_187_);}
	.st732{fill:url(#SVGID_188_);}
	.st733{fill:url(#SVGID_189_);}
	.st734{opacity:0.28;fill:url(#SVGID_190_);}
	.st735{fill:url(#SVGID_191_);}
	.st736{opacity:0.35;fill:url(#SVGID_192_);}
	.st737{fill:url(#SVGID_193_);}
	.st738{fill:url(#SVGID_194_);}
	.st739{fill:url(#SVGID_195_);}
	.st740{fill:url(#SVGID_196_);}
	.st741{fill:url(#SVGID_197_);}
	.st742{fill:url(#SVGID_198_);}
	.st743{fill:url(#SVGID_199_);}
	.st744{opacity:0.35;fill:url(#SVGID_200_);}
	.st745{fill:url(#SVGID_201_);}
	.st746{fill:url(#SVGID_202_);}
	.st747{fill:url(#SVGID_203_);}
	.st748{fill:url(#SVGID_204_);}
	.st749{fill:url(#SVGID_205_);}
	.st750{clip-path:url(#SVGID_146_);fill:#E8E8E8;}
	.st751{fill:#FCB619;}
	.st752{fill:#0F141D;}
	.st753{fill:#F0625B;}
	.st754{fill:#088473;}
	.st755{fill:#DD665E;}
	.st756{fill:#3B4450;}
	.st757{fill:#27BDC4;}
	.st758{fill:#C2E1DB;}
	.st759{fill:#99D2D9;}
	.st760{fill:#0F3754;}
	.st761{fill:#154F78;}
	.st762{fill:#68481D;}
	.st763{fill:#C5F4FC;}
	.st764{opacity:0.08;}
	.st765{clip-path:url(#SVGID_206_);}
	.st766{fill-rule:evenodd;clip-rule:evenodd;fill:#7A7A7A;}
	.st767{fill:#7A7A7A;}
	.st768{fill:#585858;}
	.st769{clip-path:url(#SVGID_206_);fill-rule:evenodd;clip-rule:evenodd;fill:#7A7A7A;}
	.st770{clip-path:url(#SVGID_206_);fill:#7A7A7A;}
	.st771{clip-path:url(#SVGID_207_);}
	.st772{clip-path:url(#SVGID_207_);fill-rule:evenodd;clip-rule:evenodd;fill:#7A7A7A;}
	.st773{clip-path:url(#SVGID_207_);fill:#7A7A7A;}
	.st774{clip-path:url(#SVGID_208_);}
	.st775{clip-path:url(#SVGID_208_);fill-rule:evenodd;clip-rule:evenodd;fill:#7A7A7A;}
	.st776{clip-path:url(#SVGID_208_);fill:#7A7A7A;}
	.st777{clip-path:url(#SVGID_209_);}
	.st778{clip-path:url(#SVGID_209_);fill-rule:evenodd;clip-rule:evenodd;fill:#7A7A7A;}
	.st779{clip-path:url(#SVGID_209_);fill:#7A7A7A;}
	.st780{fill:#BED2A4;}
	.st781{opacity:0.18;clip-path:url(#SVGID_210_);}
	.st782{opacity:0.18;}
	.st783{clip-path:url(#SVGID_211_);}
	.st784{fill:#BABABA;}
	.st785{fill:#B6B6B6;}
	.st786{fill:#EDEDED;}
	.st787{fill:#EEEEEE;}
	.st788{fill:#BCBCBC;}
	.st789{fill:#D4D4D4;}
	.st790{fill:#D2D2D2;}
	.st791{fill:#969696;}
	.st792{fill:#D3D3D3;}
	.st793{fill:#DADADA;}
	.st794{fill:#C4C4C4;}
	.st795{fill:#C6C6C6;}
	.st796{fill:#EBEBEB;}
	.st797{fill:#D5D5D5;}
	.st798{fill:#949494;}
	.st799{fill:#A9A9A9;}
	.st800{fill:#A7A7A7;}
	.st801{fill:#959595;}
	.st802{fill:#C2C2C2;}
	.st803{fill:#C9C9C9;}
	.st804{fill:#E9E9E9;}
	.st805{fill:#D7D7D7;}
	.st806{fill:#E7E7E7;}
	.st807{fill:#DCDCDC;}
	.st808{fill:#D0D0D0;}
	.st809{fill:#B0B0B0;}
	.st810{fill:#AEAEAE;}
	.st811{fill:#DDDDDD;}
	.st812{fill:#CFCFCF;}
	.st813{fill:#ACACAC;}
	.st814{fill:#B2B2B2;}
	.st815{fill:#F2F2F2;}
	.st816{fill:#EAEAEA;}
	.st817{fill:#B7B7B7;}
	.st818{fill:#C5C5C5;}
	.st819{fill:#BBBBBB;}
	.st820{fill:#979797;}
	.st821{fill:#E4E4E4;}
	.st822{fill:#CACACA;}
	.st823{fill:#EFEFEF;}
	.st824{fill:#C7C7C7;}
	.st825{fill:#D6D6D6;}
	.st826{fill:#B4B4B4;}
	.st827{fill:#C8C8C8;}
	.st828{fill:#B1B1B1;}
	.st829{fill:#CDCDCD;}
	.st830{fill:#CBCBCB;}
	.st831{fill:#D9D9D9;}
	.st832{fill:#E3E3E3;}
	.st833{fill:#A2A2A2;}
	.st834{fill:#F6F6F6;}
	.st835{fill:#BDBDBD;}
	.st836{fill:#B8B8B8;}
	.st837{fill:#D1D1D1;}
	.st838{fill:#B9B9B9;}
	.st839{fill:#C3C3C3;}
	.st840{fill:#CCCCCC;}
	.st841{fill:#ADADAD;}
	.st842{fill:#C0C0C0;}
	.st843{fill:#F9F9F9;}
	.st844{fill:#F3F3F3;}
	.st845{fill:#BEBEBE;}
	.st846{fill:#DBDBDB;}
	.st847{fill:#F1F1F1;}
	.st848{fill:#AFAFAF;}
	.st849{fill:#ABABAB;}
	.st850{fill:#DFDFDF;}
	.st851{fill:#B5B5B5;}
	.st852{fill:#A8A8A8;}
	.st853{fill:#B3B3B3;}
	.st854{fill:#FCFCFC;}
	.st855{clip-path:url(#SVGID_213_);}
	.st856{fill:#88C9A1;}
	.st857{opacity:0.87;}
	.st858{opacity:0.18;clip-path:url(#SVGID_216_);}
	.st859{clip-path:url(#SVGID_217_);}
	.st860{clip-path:url(#SVGID_219_);}
	.st861{fill:#3169B1;}
	.st862{fill:#9EC96B;}
	.st863{fill:#FFCE6C;}
	.st864{fill:#768B4B;}
	.st865{fill:#BE893D;}
	.st866{fill:#51CDF4;}
</style>
<g>
	<g>
		<path class="st543" d="M99.76,20.75c54.25-10.09,104.62,25.17,114.84,79.55c10.65,56.69-27.62,104.33-77.41,113.91
			c-53.61,10.31-106-24.68-116.06-77.96C11.18,83.55,44.76,31.79,99.76,20.75z"/>
		<path class="st544" d="M25.83,135.74c-5.06-27.3,0.55-52.27,17.06-74.62c8.87-12.01,20.04-21.49,33.56-27.83
			c30.57-14.34,60.79-13.2,90.25,3.28c14.9,8.33,26.54,20.13,34.97,35c6.78,11.96,10.8,24.82,11.63,38.54
			c1.89,31.43-8.91,57.91-32.1,79.07c-15.52,14.16-34.1,22.01-55.05,23.69c-27.85,2.24-52.06-6.35-72.46-25.45
			c-10.26-9.61-17.85-21.09-23.01-34.18c-1.32-3.34-2.53-6.73-3.43-10.2C26.63,140.66,26.3,138.18,25.83,135.74z"/>
	</g>
	<g>
		<path class="st545" d="M58.44,106.69c-3.31-2.6-8.38-2.39-12.45-0.94c-0.25-4.52-2.02-9.25-6.26-11.08
			c-4.09-1.77-9.48,1.03-9.26,5.88c0.01,0.21,0.05,0.39,0.11,0.57c-0.12,1.23,0.09,2.42,0.75,3.52c0.7,1.17,1.94,2.37,3.31,2.37
			l8.08,4.89c3.16,1.91,6.31,4.2,9.7,5.64c2.59,1.1,3.95-2.72,1.97-4.26c-1.82-1.42-3.91-2.58-6.01-3.69
			c0.76-0.18,1.54-0.28,2.35-0.3c2.15-0.05,3.9,0.78,5.95,1.21C59,110.99,60.39,108.22,58.44,106.69z M41.58,105.81
			c-2.13-1.22-4.26-2.44-6.4-3.65c-0.19-0.11-0.38-0.18-0.56-0.23c-0.06-0.24-0.04-0.39,0.03-0.8c0.09-0.55-0.07-1.01-0.37-1.36
			c0.71-2.48,4.36-1.47,5.73,0.37C41.23,101.78,41.49,103.78,41.58,105.81z"/>
		<path class="st545" d="M62.69,88.93c-1.39,1.21-2.41,2.92-3.39,4.57c-2.95-1.35-5.9-2.69-8.85-4.03c0.16-0.28,0.31-0.55,0.47-0.83
			c0.59-1.04,1.32-2.03,1.43-3.25c0.17-1.89-2.01-2.56-3.29-1.61c-0.84,0.62-1.27,1.8-1.77,2.7c-0.23,0.42-0.45,0.83-0.68,1.25
			c-2.41-1.09-4.81-2.18-7.21-3.27c0.36-0.66,0.72-1.32,1.09-1.97c0.58-1.06,1.27-2.11,1.62-3.27c0.32-1.05-0.17-2.22-1.16-2.68
			c-1.06-0.49-2.06-0.1-2.76,0.79c-0.67,0.84-1.08,1.9-1.57,2.87c-0.49,0.98-0.98,1.96-1.47,2.93c-0.53,1.06-0.4,2.37,0.66,3.06
			c0.19,0.12,0.39,0.2,0.61,0.26c0.02,0.85,0.44,1.7,1.37,2.15c7.24,3.43,14.47,6.89,21.73,10.28c0.95,0.44,2.2-0.17,2.73-0.99
			c1.36-2.1,3.17-4.24,3.9-6.66C66.78,89.15,64.29,87.54,62.69,88.93z"/>
		<path class="st545" d="M59.66,74.18c-0.8-0.48-1.76-0.41-2.47,0.2c-0.54,0.46-0.94,1.15-1.36,1.72l-1.09,1.48
			c-0.65,0.88-0.29,2.38,0.63,2.93c1.04,0.62,2.17,0.31,2.87-0.63c0.79-1.05,1.74-2.09,2.27-3.3C60.86,75.78,60.38,74.6,59.66,74.18
			z"/>
		<path class="st545" d="M75.37,65.27c-1.09-2.9-2.44-5.75-4.43-8.14c-3.3-3.95-9.37-6.71-14.22-4.1c-1.25,0.67-1.35,2.29-0.68,3.29
			c-0.01,0.14-0.01,0.27,0,0.42c0.62,6.25,3.19,12.19,7.52,16.72c3.37,3.52,10.49,6.89,12.87,0.35C77.48,70.94,76.4,68,75.37,65.27z
			 M72.15,71.07c-0.37,4.73-6.82-2.6-7.78-3.95c-2.2-3.09-3.56-6.66-4.16-10.4c2.84-0.18,5.34,1.02,7.34,3.5
			c1.08,1.34,1.88,2.87,2.57,4.44C70.89,66.38,72.3,69.14,72.15,71.07z"/>
		<path class="st545" d="M84.06,56.44c4.51-2.95,5.67-10.07,2.68-14.55c-3.39-5.08-10.61-5.74-15.16-2.05
			c-0.69,0.56-0.83,1.25-0.66,1.88c-0.75,0.57-1.1,1.53-0.42,2.6c4.92,7.75,9.57,15.81,14.87,23.3c1.6,2.27,5.42-0.36,4-2.76
			C87.69,62.02,85.9,59.22,84.06,56.44z M83.2,44.73c1.53,2.86,0.26,5.75-1.81,7.73c-2.22-3.28-4.47-6.55-6.65-9.83
			C77.48,40.97,81.62,41.78,83.2,44.73z"/>
		<path class="st545" d="M103.55,56.82c-0.83,0.51-1.55,1.16-2.33,0.33c-0.39-0.42-0.43-1.37-0.55-1.93
			c-0.48-2.2-0.89-4.43-1.33-6.64c1.03-0.14,2.09-0.21,3.03-0.68c0.78-0.39,1.31-1.4,1.09-2.28c-0.24-0.98-0.96-1.49-1.9-1.67
			c-0.98-0.18-2.11,0.09-3.11,0.24c-0.61-2.96-1.23-5.91-1.84-8.87c0.39-0.06,0.78-0.11,1.16-0.17c0.7-0.1,1.44-0.13,2.06-0.52
			c0.7-0.44,1.17-1.11,1.09-1.98c-0.07-0.8-0.59-1.57-1.38-1.81c-1.37-0.41-3.09,0.09-4.49,0.28c-0.68,0.09-1.25,0.63-1.53,1.28
			c-1.03,0.29-1.88,1.22-1.63,2.61c1.28,7.07,2.46,14.18,3.9,21.22c0.5,2.42,1.32,4.83,3.67,5.96c2.34,1.13,4.96,0.39,6.86-1.25
			C108.37,59.15,105.96,55.33,103.55,56.82z"/>
		<path class="st545" d="M123.97,30.39c0.22,6.59,0.89,13.13,1.48,19.69c-4.16-6.59-8.44-13.1-12.67-19.64
			c-0.69-1.07-1.88-1.27-2.83-0.93c-1.09-1.11-3.27-0.36-2.99,1.58c1.34,9.37,3.58,18.61,5.58,27.86c0.59,2.73,4.75,1.88,4.18-0.86
			c-1.38-6.6-2.66-13.24-4.22-19.8c3.95,6.36,7.9,12.73,12.01,18.98c1.51,2.3,5.18,0.75,4.36-1.58c0.22-0.25,0.35-0.58,0.33-0.99
			c-0.43-8.21-0.52-16.4-1.32-24.59C127.65,27.86,123.89,28.12,123.97,30.39z"/>
		<path class="st545" d="M136.52,32.55c-0.49,8.73-0.93,17.47-1.34,26.21c-0.14,2.89,4.29,3.15,4.41,0.26
			c0.37-8.74,0.71-17.48,1-26.23C140.67,30.12,136.67,29.88,136.52,32.55z"/>
		<path class="st545" d="M171.55,47.65c-3.98,5.45-7.85,10.99-11.7,16.54c-0.7-8.8-1.61-17.59-2.51-26.37
			c-0.04-0.41-0.18-0.73-0.36-0.98c0.82-2.09-2.12-4.04-3.18-1.91c-4.17,8.39-7.43,17.1-9.69,26.23c-0.6,2.43,3.05,3.67,3.68,1.21
			c1.59-6.19,3.58-12.29,5.99-18.21c0.62,8.06,1.25,16.12,2.11,24.16c0.2,1.9,2.76,2.16,3.81,1.01c0.48-0.02,0.97-0.23,1.34-0.72
			c4.67-6.23,9.36-12.44,13.89-18.77C176.42,47.74,173.07,45.56,171.55,47.65z"/>
		<path class="st545" d="M189.86,61.69c-1.52-5.23-6.86-7.72-11.88-6.18c-5.87,1.8-9.02,7.63-10.83,13.19
			c-1.64,5.04-1.57,11.9,3.89,14.55c2.21,1.07,4.42,0.94,6.22,0.01c-0.52,0.65-1.04,1.3-1.55,1.96c-1.55,1.99-4.06,4.25-4.64,6.75
			c-0.35,1.49,1.1,3.06,2.58,2.26c2.34-1.26,3.8-4.18,5.37-6.3c1.8-2.44,3.56-4.9,5.32-7.37c0.15-0.21,0.24-0.42,0.3-0.63
			c0.39-0.72,0.39-1.64-0.36-2.46c-2.26-2.48-4.69-4.81-7.04-7.2c-1.96-2-5.16,0.87-3.22,2.93c1.08,1.14,2.14,2.3,3.21,3.45
			c-0.73,3.28-4.71,3.5-6.09,0.24c-1.28-3.02,0.12-6.64,1.28-9.47c1.14-2.79,2.82-5.71,5.53-7.19c2.67-1.46,6.76-1.17,7.79,2.29
			C186.52,65.15,190.63,64.34,189.86,61.69z"/>
	</g>
	<g>
		<path class="st543" d="M139.44,88.11c-3.83-6.1-8.04-11.89-13.52-16.64c-2.41-2.09-5.01-3.97-8.3-4.39
			c-1.9-0.25-3.46,0.28-4.88,1.86c-1.45,1.6-2.09,3.54-3.16,5.28c-11.72,19.02-23.02,38.3-34.21,57.64
			c-0.48,0.83-1.1,1.43-1.92,1.91c-2.35,1.36-4.62,2.85-6.67,4.64c-1.25,1.08-2.01,2.42-1.95,4.09c0.07,1.85,0.46,3.64,1.25,5.34
			c1.77,3.86,4.91,6.33,8.43,8.46c1.42,0.86,2.8,1.01,4.15,0.13c2.44-1.58,5.05-2.98,6.73-5.49c0.18-0.27,0.46-0.27,0.73-0.32
			c2.5-0.43,4.99-0.87,7.48-1.3c0.41-0.07,0.77-0.16,1.11,0.26c2.98,3.67,6.3,7.08,8.65,11.25c1.42,2.53,2.93,5,4.35,7.53
			c0.7,1.24,1.58,1.74,3.05,1.45c2.99-0.58,5.72-1.71,8.26-3.35c1-0.64,1.25-1.59,0.81-2.65c-0.24-0.58-0.62-1.13-1.02-1.62
			c-3.66-4.4-6.73-9.2-9.45-14.23c-0.98-1.82-0.98-1.86,1.09-2.32c12.31-2.76,24.52-5.96,36.89-8.44c3.8-0.76,5.43-3.07,6-6.53
			c0.63-3.81-0.19-7.51-0.79-10.68C150.33,109.48,145.43,97.66,139.44,88.11z M77.81,153.6c-0.73,0.49-1.24,0.43-1.95-0.09
			c-3.44-2.54-6.1-5.58-6.9-9.95c-0.26-1.42,0.06-2.51,1.24-3.39c1.51-1.12,2.98-2.29,4.52-3.48c1.48,5.4,3.4,10.27,8.25,13.4
			C81.14,150.92,79.58,152.41,77.81,153.6z M115.22,163.55c0.67,0.92,0.55,1.42-0.39,1.9c-1.15,0.58-2.29,1.17-3.41,1.8
			c-0.8,0.46-0.96-0.19-1.21-0.64c-1.29-2.28-2.55-4.58-3.83-6.86c-2.14-3.79-4.86-7.13-7.93-10.2c-0.28-0.28-0.7-0.47-0.75-1.34
			c2.48-0.45,5-0.91,7.52-1.38c0.41-0.08,0.68-0.02,0.85,0.44C108.18,153.23,111.55,158.48,115.22,163.55z M139.47,135.33
			c-13.59,3.13-27.19,6.23-40.77,9.4c-4.35,1.01-8.68,2.1-12.91,3.54c-0.68,0.23-1.04,0.06-1.56-0.36c-1.69-1.36-2.86-3.1-3.93-4.94
			c-1.09-1.87-2.22-3.71-2.81-5.82c-0.22-0.8-0.18-1.46,0.26-2.22c6.18-10.51,12.36-21.01,18.47-31.56
			c4.32-7.44,8.54-14.93,12.8-22.4c0.23-0.4,0.36-0.85,0.74-1.09c4.73,21.56,14.14,40.39,30.96,55.13
			C140.48,135.25,139.95,135.22,139.47,135.33z M138.94,115.57c-1.91,1.25-3.87,2.48-5.78,3.8c-0.65,0.45-0.94,0.06-1.22-0.33
			c-2.28-3.14-4.37-6.41-6.3-9.78c-1.27-2.22-2.39-4.53-3.54-6.81c-0.2-0.4-0.65-0.93,0.11-1.26c2.56-1.13,4.2-3.17,5.51-5.54
			c0.04-0.07,0.13-0.11,0.27-0.21C129.72,103.2,132.61,110.31,138.94,115.57z M130.98,92.36c-0.05-0.22-0.03-0.52,0.24-0.56
			c0.35-0.05,0.56,0.23,0.78,0.48c1.67,1.95,3.12,4.05,4.34,6.3c1.86,3.44,3.37,7.01,4.26,10.93c0.06,0.64,0.18,1.37,0.19,2.1
			c0.01,0.33,0.17,0.83-0.26,0.97c-0.38,0.13-0.67-0.27-0.88-0.53c-1.47-1.76-2.76-3.65-3.86-5.67c-1.74-3.18-3.14-6.51-4.26-9.96
			C131.1,95.09,131.27,93.71,130.98,92.36z M151.17,126.28c-0.02,1.39-0.14,2.76-0.56,4.09c-0.78,2.48-2.28,3.18-4.66,2.15
			c-1.45-0.62-2.75-1.49-3.96-2.49c-2.46-2.02-4.64-4.32-6.74-6.72c-0.71-0.81-0.62-1.29,0.25-1.83c1.68-1.05,3.48-1.99,4.83-3.43
			c1.85-1.98,3.39-4.23,3-7.15c-0.97-7.27-3.72-13.82-8.13-19.68c-0.86-1.14-1.94-2.11-3.25-2.73c-1.61-0.77-2.97-0.31-3.87,1.23
			c-1.33,2.27-2.83,4.44-4.56,6.4c-2.42,2.74-3.27,2.55-4.56-0.73c-1.63-4.16-3.05-8.39-3.97-13.39c-0.57-2.64-0.7-5.89-0.19-9.16
			c0.26-1.62,0.98-2.18,2.64-2.08c1.57,0.09,2.92,0.79,4.19,1.64c3.98,2.68,7.2,6.14,10.1,9.92c7.26,9.45,12.97,19.76,16.91,31.01
			C150.11,117.51,151.25,121.78,151.17,126.28z"/>
		<path class="st546" d="M163.87,112.78c-2.09-0.55-4.23-0.82-6.39-0.9c-0.73-0.03-1.48,0.06-2.18,0.23
			c-0.77,0.19-1.53,0.55-1.51,1.53c0.02,0.89,0.69,1.24,1.43,1.46c1.8,0.54,3.61,1.08,5.42,1.58c0.93,0.26,1.89,0.39,2.61,0.29
			c1.34-0.21,2.22-0.69,2.36-1.87C165.76,113.83,164.98,113.07,163.87,112.78z"/>
		<path class="st547" d="M150.44,74.88c-0.26-1.32-1.79-1.82-3.09-0.8c-2.26,1.76-4.12,3.92-5.61,6.37
			c-0.41,0.68-0.64,1.48,0.09,2.15c0.72,0.66,1.47,0.39,2.14-0.08c2.25-1.61,4.27-3.47,5.93-5.69
			C150.32,76.25,150.55,75.6,150.44,74.88z"/>
		<path class="st548" d="M159.56,94.91c0.72-0.52,1.51-1.1,1.03-2.12c-0.43-0.92-1.35-0.85-2.17-0.63
			c-2.14,0.56-4.17,1.38-5.99,2.67c-0.19,0.13-0.38,0.26-0.53,0.43c-0.37,0.42-0.72,0.87-0.45,1.48c0.29,0.64,0.87,0.61,1.42,0.52
			c0.59-0.1,1.16-0.28,1.74-0.42C156.35,96.45,158.08,95.99,159.56,94.91z"/>
		<path class="st549" d="M109.02,80.98c-4.26,7.47-8.48,14.96-12.8,22.4c-6.12,10.54-12.29,21.05-18.47,31.56
			c-0.44,0.75-0.48,1.41-0.26,2.22c0.59,2.12,1.72,3.96,2.81,5.82c1.07,1.84,2.24,3.58,3.93,4.94c0.52,0.42,0.88,0.59,1.56,0.36
			c4.23-1.44,8.57-2.53,12.91-3.54c13.58-3.17,27.18-6.27,40.77-9.4c0.47-0.11,1-0.08,1.25-0.31
			c-16.82-14.74-26.23-33.57-30.96-55.13C109.39,80.12,109.25,80.58,109.02,80.98z"/>
		<path class="st550" d="M131.74,82.32c-2.9-3.77-6.13-7.23-10.1-9.92c-1.27-0.86-2.62-1.55-4.19-1.64
			c-1.66-0.1-2.38,0.46-2.64,2.08c-0.51,3.26-0.38,6.51,0.19,9.16c0.92,5,2.34,9.23,3.97,13.39c1.28,3.28,2.14,3.47,4.56,0.73
			c1.73-1.96,3.24-4.12,4.56-6.4c0.9-1.55,2.26-2,3.87-1.23c1.31,0.63,2.39,1.59,3.25,2.73c4.4,5.85,7.16,12.41,8.13,19.68
			c0.39,2.92-1.16,5.18-3,7.15c-1.35,1.44-3.15,2.38-4.83,3.43c-0.87,0.54-0.96,1.02-0.25,1.83c2.1,2.39,4.28,4.69,6.74,6.72
			c1.21,1,2.51,1.87,3.96,2.49c2.38,1.03,3.89,0.33,4.66-2.15c0.42-1.33,0.54-2.7,0.56-4.09c0.07-4.5-1.06-8.76-2.52-12.94
			C144.71,102.07,139,91.77,131.74,82.32z"/>
		<path class="st551" d="M127.73,95.64c-1.32,2.37-2.95,4.41-5.51,5.54c-0.76,0.34-0.31,0.86-0.11,1.26
			c1.16,2.28,2.28,4.59,3.54,6.81c1.92,3.37,4.02,6.63,6.3,9.78c0.29,0.4,0.57,0.79,1.22,0.33c1.9-1.32,3.87-2.55,5.78-3.8
			c-6.33-5.26-9.22-12.37-10.95-20.13C127.86,95.54,127.77,95.57,127.73,95.64z"/>
		<path class="st552" d="M105.21,146.84c-2.52,0.47-5.04,0.92-7.52,1.38c0.05,0.87,0.47,1.06,0.75,1.34c3.07,3.07,5.8,6.4,7.93,10.2
			c1.28,2.28,2.54,4.58,3.83,6.86c0.25,0.44,0.41,1.09,1.21,0.64c1.12-0.64,2.26-1.22,3.41-1.8c0.94-0.48,1.06-0.97,0.39-1.9
			c-3.67-5.07-7.04-10.32-9.16-16.27C105.89,146.82,105.63,146.77,105.21,146.84z"/>
		<path class="st552" d="M70.2,140.17c-1.18,0.87-1.5,1.96-1.24,3.39c0.81,4.37,3.46,7.41,6.9,9.95c0.71,0.52,1.22,0.59,1.95,0.09
			c1.77-1.19,3.32-2.68,5.15-3.5c-4.85-3.13-6.77-8-8.25-13.4C73.18,137.89,71.71,139.06,70.2,140.17z"/>
		<path class="st553" d="M139.65,112.06c0.22,0.26,0.5,0.66,0.88,0.53c0.44-0.15,0.27-0.65,0.26-0.97c-0.01-0.73-0.13-1.46-0.19-2.1
			c-0.9-3.92-2.4-7.49-4.26-10.93c-1.22-2.26-2.67-4.36-4.34-6.3c-0.21-0.25-0.42-0.54-0.78-0.48c-0.27,0.04-0.29,0.33-0.24,0.56
			c0.28,1.34,0.11,2.73,0.55,4.07c1.12,3.45,2.51,6.78,4.26,9.96C136.89,108.41,138.18,110.3,139.65,112.06z"/>
	</g>
	<g>
		<path class="st545" d="M98.81,188.57c-1.43-1.65-3.04-3.22-4.01-5.27c-0.7-1.49-1.23-5.94,1.53-5.32
			c2.73,0.62,3.82-3.84,1.04-4.59c-6.17-1.67-9.41,5.67-7.32,11.3c1.31,3.52,3.87,5.96,6.11,8.77c1.19,1.49,2.7,3.64,2.33,5.72
			c-0.4,2.19-1.62,1.76-2.52,0.25c-1.08-1.82-3.73-1.71-4.22,0.51c-0.86,3.89,2.73,7.01,6.09,6.74c3.24-0.26,5.53-3.5,5.8-6.89
			C104.01,195.37,101.48,191.67,98.81,188.57z"/>
		<path class="st545" d="M113.55,174.13c-0.65-0.07-1.16,0.14-1.52,0.51c-0.57,0.11-1.11,0.43-1.52,1.02
			c-4,5.79-5.7,12.95-4.68,19.92c0.8,5.48,4.56,12.48,11.21,10.89c7.52-1.79,8.07-10.23,7.28-16.48
			C123.48,183.35,121.51,175.02,113.55,174.13z M119.69,190.56c0.27,2.43,0.59,5.1-0.21,7.45c-0.66,1.94-2.51,4.18-4.81,3.64
			c-3.78-0.9-4.3-7.23-4.3-10.24c0-4.5,1.33-8.77,3.7-12.55C118.53,180.67,119.2,186.15,119.69,190.56z"/>
		<path class="st545" d="M142.52,176.13c-2.76-3.84-9.04-7.23-13.44-3.61c-4.06,3.34-3.09,11.96-2.57,16.48
			c0.49,4.23,1.23,8.9,3.22,12.71c1.65,3.16,5.06,5.79,8.8,4.97c3.73-0.81,5.94-4.27,7.16-7.62
			C148.39,191.62,147.15,182.56,142.52,176.13z M140.68,198.64c-1.04,2.1-3.02,4.37-5.38,2.46c-2.18-1.78-2.79-5.46-3.38-8.05
			c-0.67-2.93-2.53-22.86,5.26-16.15c1.81,1.56,3.04,3.91,3.88,6.11C142.92,187.91,143.03,193.88,140.68,198.64z"/>
		<path class="st545" d="M174.69,182.95c-0.08-0.34-0.18-0.7-0.3-1.08c-2.38-7.35-7.51-14.76-11-21.69
			c-1.18-2.34-4.73-0.33-3.54,1.99l9.52,18.51c-6.54-4.49-13.12-8.92-19.68-13.37c-0.23-0.16-0.47-0.26-0.69-0.32
			c-0.03-0.05-0.05-0.1-0.08-0.15c-1.21-2.21-4.64-0.79-4.06,1.63c1.11,4.55,3.39,9.08,5.13,13.43c1.79,4.46,3.57,8.91,5.36,13.37
			c0.98,2.45,5.01,1.5,4.06-1.05c-1.73-4.64-3.47-9.28-5.2-13.92c-0.74-1.99-1.43-4.07-2.17-6.14c0,0,0.01,0.01,0.01,0.01
			c5.68,4.02,11.44,10.68,18.35,12.51C174.03,187.65,175.43,186.24,174.69,182.95z"/>
	</g>
	<path class="st552" d="M81.42,185.32c-21.76-7.93-37.83-29.74-38.97-52.87c-0.15-3-4.79-3.05-4.69-0.02
		c0.89,25.86,17.94,49.34,42.23,58.24C83.34,191.9,84.76,186.54,81.42,185.32z"/>
	<path class="st552" d="M189.81,92.61c-1.23-2.73-5.2-0.43-4.03,2.27c5.73,13.2,9.29,27.93,7.36,42.37
		c-0.8,5.96-2.54,11.86-5.27,17.22c-1.34,2.64-2.91,5.18-4.71,7.54c-1.88,2.46-4.29,4.44-6.14,6.88c-1.53,2.01,1.39,4.51,3.35,3.38
		c2.79-1.61,5.05-4.51,7-7.03c2.04-2.64,3.81-5.48,5.28-8.48c2.91-5.93,4.75-12.29,5.6-18.83
		C200.25,122.33,196.22,106.76,189.81,92.61z"/>
</g>
</svg>
