<?xml version="1.0" encoding="utf-8"?>
<!-- Generator: Adobe Illustrator 25.0.0, SVG Export Plug-In . SVG Version: 6.00 Build 0)  -->
<svg version="1.1" id="Layer_1" xmlns="http://www.w3.org/2000/svg" xmlns:xlink="http://www.w3.org/1999/xlink" x="0px" y="0px"
	 viewBox="0 0 384 260" style="enable-background:new 0 0 384 260;" xml:space="preserve">
<style type="text/css">
	.st0{clip-path:url(#SVGID_6_);fill:url(#SVGID_8_);}
	.st1{opacity:0.06;clip-path:url(#SVGID_6_);}
	.st2{opacity:0.06;}
	.st3{clip-path:url(#SVGID_25_);}
	.st4{fill:#90C8E2;}
	.st5{fill:#8AC5DF;}
	.st6{fill:#EAEEF0;}
	.st7{fill:#EBEFF0;}
	.st8{fill:#97C9DD;}
	.st9{fill:#E6EEEF;}
	.st10{fill:#B9DCF0;}
	.st11{fill:#B8DAF0;}
	.st12{fill:#56ACCF;}
	.st13{fill:#B8DCF0;}
	.st14{fill:#C7E0EE;}
	.st15{fill:#E8F0F0;}
	.st16{fill:#9CD1EA;}
	.st17{fill:#B8DBF0;}
	.st18{fill:#A1CFFF;}
	.st19{fill:#E8ECED;}
	.st20{fill:#BFDDE8;}
	.st21{fill:#55ACCE;}
	.st22{fill:#55AACB;}
	.st23{fill:#78BAD6;}
	.st24{fill:#74B9D4;}
	.st25{fill:#B8DBEF;}
	.st26{fill:#56ABCE;}
	.st27{fill:#7BB9D4;}
	.st28{fill:#58AACD;}
	.st29{fill:#55ACCF;}
	.st30{fill:#9CD1EB;}
	.st31{fill:#99CFE8;}
	.st32{fill:#A7D4EC;}
	.st33{fill:#E6EAEB;}
	.st34{fill:#EAEFF0;}
	.st35{fill:#BEDFED;}
	.st36{fill:#DEEAF1;}
	.st37{fill:#E9EEF1;}
	.st38{fill:#E8EFED;}
	.st39{fill:#54ABCC;}
	.st40{fill:#CAE4F3;}
	.st41{fill:#C7E3F3;}
	.st42{fill:#F4F4F3;}
	.st43{fill:#F4F4F4;}
	.st44{fill:#BADCF0;}
	.st45{fill:#55AACE;}
	.st46{fill:#56ABCF;}
	.st47{fill:#53ABCF;}
	.st48{fill:#9BD2EB;}
	.st49{fill:#B3DCF0;}
	.st50{fill:#B2D9EF;}
	.st51{fill:#E9EDEE;}
	.st52{fill:#81C0D8;}
	.st53{fill:#EBEEF0;}
	.st54{fill:#54AAD0;}
	.st55{fill:#82BDD6;}
	.st56{fill:#EBEFEF;}
	.st57{fill:#F3F5F2;}
	.st58{fill:#F5F5F4;}
	.st59{fill:#CBE3EF;}
	.st60{fill:#55ABCC;}
	.st61{fill:#B4D8E4;}
	.st62{fill:#54ABCD;}
	.st63{fill:#7EBBD5;}
	.st64{fill:#BEDFEC;}
	.st65{fill:#9BD2EC;}
	.st66{fill:#57A9CE;}
	.st67{fill:#85C2D7;}
	.st68{fill:#BBDAE6;}
	.st69{fill:#F1F2F4;}
	.st70{fill:#E1EDF2;}
	.st71{fill:#E1EBF1;}
	.st72{fill:#9BD1EB;}
	.st73{fill:#8CC6DB;}
	.st74{fill:#A6CFDF;}
	.st75{fill:#E7EEF2;}
	.st76{fill:#9CD2EC;}
	.st77{fill:#95C9DC;}
	.st78{fill:#5AACCC;}
	.st79{fill:#EAEEEF;}
	.st80{fill:#9AD2EC;}
	.st81{fill:#F4F5F5;}
	.st82{fill:#EBEEEF;}
	.st83{fill:#95CADB;}
	.st84{fill:#93C8DC;}
	.st85{fill:#55ABCD;}
	.st86{fill:#D6EAEE;}
	.st87{fill:#54AACE;}
	.st88{fill:#B9DBF0;}
	.st89{fill:#BEDDE8;}
	.st90{fill:#A9D5E8;}
	.st91{fill:#A5CFDF;}
	.st92{fill:#ECF0F1;}
	.st93{fill:#A8D1E2;}
	.st94{fill:#A2D3E9;}
	.st95{fill:#E5EDEE;}
	.st96{fill:#E9EFF1;}
	.st97{fill:#9BD1ED;}
	.st98{fill:#BFDEEC;}
	.st99{fill:#8AC3D7;}
	.st100{fill:#FFFEFE;}
	.st101{fill:#BADBF0;}
	.st102{fill:#53ACCE;}
	.st103{fill:#B8DCEC;}
	.st104{fill:#E2ECF0;}
	.st105{fill:#E9EEEF;}
	.st106{fill:#82BDD4;}
	.st107{fill:#A4D4EB;}
	.st108{fill:#E2EEF3;}
	.st109{fill:#CCE4EF;}
	.st110{fill:#7EC2DD;}
	.st111{fill:#A1E8FF;}
	.st112{fill:#AED8EA;}
	.st113{fill:#E3F0F4;}
	.st114{fill:#58ACCE;}
	.st115{fill:#A9D6EC;}
	.st116{fill:#C2E0EE;}
	.st117{fill:#D7E7EF;}
	.st118{fill:#9BD1EC;}
	.st119{fill:#49C7D0;}
	.st120{fill:#F4F4F2;}
	.st121{fill:#DFEDF3;}
	.st122{fill:#9FD4EA;}
	.st123{fill:#9CD1EC;}
	.st124{fill:#9ED4EE;}
	.st125{fill:#E8F3F7;}
	.st126{fill:#E5F1F4;}
	.st127{fill:#7BBFDC;}
	.st128{fill:#54ABCF;}
	.st129{fill:#F1F7FA;}
	.st130{fill:#B9DBEF;}
	.st131{fill:#EAEEEE;}
	.st132{fill:#A9D5ED;}
	.st133{fill:#94CBE3;}
	.st134{fill:#B8D8EB;}
	.st135{fill:#84C2D7;}
	.st136{fill:#F1F3F3;}
	.st137{fill:#B8D7E8;}
	.st138{fill:#A3D3EC;}
	.st139{fill:#F3F4F4;}
	.st140{fill:#F0F7F9;}
	.st141{fill:#C5E0F0;}
	.st142{fill:#55A9CC;}
	.st143{fill:#B2D9E5;}
	.st144{fill:#56ABCD;}
	.st145{fill:#B7DCEF;}
	.st146{fill:#99C0E5;}
	.st147{fill:#A7D3E9;}
	.st148{fill:#B5D9F1;}
	.st149{fill:#84C1DC;}
	.st150{fill:#80C0DB;}
	.st151{fill:#F0F0F0;}
	.st152{fill:#AED4E6;}
	.st153{fill:#B7DCF0;}
	.st154{fill:#A5D3E7;}
	.st155{fill:#F5F4F5;}
	.st156{fill:#EBEFED;}
	.st157{fill:#BADBEE;}
	.st158{fill:#89C5DD;}
	.st159{fill:#55ABCF;}
	.st160{fill:#53ABCE;}
	.st161{fill:#73BCD9;}
	.st162{fill:#ACD5EC;}
	.st163{fill:#A5D4EA;}
	.st164{fill:#8FC8DF;}
	.st165{fill:#B1D9F2;}
	.st166{fill:#BAD8EB;}
	.st167{fill:#9AD0EB;}
	.st168{fill:#D9EAF1;}
	.st169{fill:#F5F4F2;}
	.st170{fill:#D4E6F1;}
	.st171{fill:#CCE2EF;}
	.st172{fill:#56AACD;}
	.st173{fill:#55ABCE;}
	.st174{fill:#BADAF0;}
	.st175{fill:#B9DAF2;}
	.st176{fill:#C9E2F1;}
	.st177{fill:#DBE9F0;}
	.st178{fill:#C6E1EB;}
	.st179{fill:#B1D9EC;}
	.st180{fill:#A3D2EB;}
	.st181{fill:#9ED2EA;}
	.st182{fill:#9FD3ED;}
	.st183{fill:#E0EAEF;}
	.st184{fill:#BDDCEF;}
	.st185{fill:#E7EDF1;}
	.st186{fill:#57ABCD;}
	.st187{fill:#B8DBF1;}
	.st188{fill:#ACD6EB;}
	.st189{fill:#B7DBEE;}
	.st190{fill:#F3F5F3;}
	.st191{fill:#F5F4F4;}
	.st192{fill:#C4DFEF;}
	.st193{fill:#E9EFEF;}
	.st194{fill:#7BBFD6;}
	.st195{fill:#B9DDED;}
	.st196{fill:#9FD1E9;}
	.st197{fill:#F4F5F4;}
	.st198{fill:#A5D3EA;}
	.st199{fill:#E4EDED;}
	.st200{fill:#E8EFEE;}
	.st201{fill:#EAF0F0;}
	.st202{fill:#ECEEF0;}
	.st203{fill:#85C0D5;}
	.st204{fill:#55ABCB;}
	.st205{fill:#B9DBF1;}
	.st206{fill:#A8D4E8;}
	.st207{fill:#B3DAEF;}
	.st208{fill:#B9DAF1;}
	.st209{fill:#F2F2F3;}
	.st210{fill:#F5F5F5;}
	.st211{fill:#F5F3F7;}
	.st212{fill:#9BCDDB;}
	.st213{fill:#DCEAF1;}
	.st214{fill:#A2D3EB;}
	.st215{fill:#DAEAF0;}
	.st216{fill:#E9EEF0;}
	.st217{fill:#D6E7F1;}
	.st218{fill:#DEE9F0;}
	.st219{fill:#F9F9FA;}
	.st220{fill:#CCE1E9;}
	.st221{fill:#B8DAEF;}
	.st222{fill:#A0D1EB;}
	.st223{fill:#B9DBEE;}
	.st224{fill:#C2E0EF;}
	.st225{fill:#E7EFF1;}
	.st226{fill:#D1E6EF;}
	.st227{fill:#E7EDEF;}
	.st228{fill:#D5E7EE;}
	.st229{fill:#92C7DA;}
	.st230{fill:#EAEEED;}
	.st231{fill:#E3EAF0;}
	.st232{fill:#B4DAEF;}
	.st233{fill:#ECF1F3;}
	.st234{fill:#E8EFF0;}
	.st235{fill:#9ED0E8;}
	.st236{fill:#B8DEEE;}
	.st237{fill:#B8DBEC;}
	.st238{fill:#9FD2EA;}
	.st239{fill:#F2F4F3;}
	.st240{fill:#E0EBF3;}
	.st241{fill:#BCDCF1;}
	.st242{fill:#BDDDEE;}
	.st243{fill:#C6E1EE;}
	.st244{fill:#97CBE3;}
	.st245{fill:#B1D9F0;}
	.st246{fill:#E7EBED;}
	.st247{fill:#F3F4F5;}
	.st248{fill:#99D2ED;}
	.st249{fill:#F1F4F6;}
	.st250{fill:#54ABCE;}
	.st251{fill:#E7EEF1;}
	.st252{fill:#DFECF3;}
	.st253{fill:#ACD9EB;}
	.st254{fill:#9ED1E9;}
	.st255{fill:#E3EBEF;}
	.st256{fill:#86C2D8;}
	.st257{fill:#B8DCEB;}
	.st258{fill:#7EBED8;}
	.st259{fill:#55AACC;}
	.st260{fill:#EAEFEF;}
	.st261{fill:#D5E9F3;}
	.st262{fill:#C8E1EF;}
	.st263{fill:#A0D4EB;}
	.st264{fill:#ABD7EB;}
	.st265{fill:#ECF4F5;}
	.st266{fill:#EEF1F5;}
	.st267{fill:#7CC1DE;}
	.st268{fill:#E3EAEA;}
	.st269{fill:#DDE7EA;}
	.st270{fill:#9AD0EA;}
	.st271{fill:#C9E3EF;}
	.st272{fill:#EBEDEF;}
	.st273{fill:#B7DCF1;}
	.st274{fill:#E5EEF5;}
	.st275{fill:#B7DBEF;}
	.st276{fill:#70BAD5;}
	.st277{fill:#9AD3EC;}
	.st278{fill:#79BFDB;}
	.st279{fill:#E7EBEC;}
	.st280{fill:#8ECAE5;}
	.st281{fill:#AED6ED;}
	.st282{fill:#76BEDA;}
	.st283{fill:#58ACCD;}
	.st284{fill:#CFE4EC;}
	.st285{fill:#E6F1F3;}
	.st286{fill:#A2D2EE;}
	.st287{fill:#91CBE7;}
	.st288{fill:#E1EAEE;}
	.st289{fill:#B6DAED;}
	.st290{fill:#C0DFEE;}
	.st291{fill:#B9DAEE;}
	.st292{fill:#55ABD0;}
	.st293{fill:#7CBFDA;}
	.st294{fill:#87C5E0;}
	.st295{fill:#E9EFEC;}
	.st296{fill:#BBDBF0;}
	.st297{fill:#BADBEF;}
	.st298{fill:#A7D5EE;}
	.st299{fill:#7DC1DF;}
	.st300{fill:#E1ECF2;}
	.st301{fill:#88C6E1;}
	.st302{fill:#DEEFF3;}
	.st303{fill:#86C6E2;}
	.st304{fill:#A6D4EE;}
	.st305{fill:#CDE4EF;}
	.st306{fill:#CEE3F0;}
	.st307{fill:#9BD2EA;}
	.st308{fill:#A2D0E0;}
	.st309{fill:#FDFEFC;}
	.st310{fill:#FEFDFD;}
	.st311{fill:#ABD7EE;}
	.st312{fill:#90CCE9;}
	.st313{fill:#C9E2EF;}
	.st314{fill:#E7EFF2;}
	.st315{fill:#ABD4E4;}
	.st316{fill:#89C2DA;}
	.st317{fill:#71BCD7;}
	.st318{fill:#AFD7ED;}
	.st319{fill:#A5D4E2;}
	.st320{fill:#81C3DC;}
	.st321{fill:#A9D6ED;}
	.st322{fill:#C4DDE7;}
	.st323{fill:#BADBE4;}
	.st324{fill:#D5E5EB;}
	.st325{fill:#85C3DE;}
	.st326{fill:#57AACE;}
	.st327{fill:#BCDDF0;}
	.st328{fill:#C5E1EA;}
	.st329{fill:#9DD0E9;}
	.st330{fill:#AFD9EF;}
	.st331{fill:#B7DBF0;}
	.st332{fill:#C9DFE5;}
	.st333{fill:#BDDDEC;}
	.st334{fill:#A1CDE2;}
	.st335{fill:#57AACD;}
	.st336{fill:#D8E8EE;}
	.st337{fill:#9CD2EB;}
	.st338{fill:#9DCCDF;}
	.st339{fill:#57ABCF;}
	.st340{fill:#8FC9DF;}
	.st341{fill:#B7DAEE;}
	.st342{fill:#FBFDFC;}
	.st343{fill:#BFDCE6;}
	.st344{fill:#A8D5E9;}
	.st345{fill:#E6EDF0;}
	.st346{fill:#D5E6ED;}
	.st347{fill:#BFDDEE;}
	.st348{fill:#B8DCEF;}
	.st349{fill:#9FCEE4;}
	.st350{fill:#AAD6EC;}
	.st351{fill:#8AC6DB;}
	.st352{fill:#89C7E1;}
	.st353{fill:#9BCFE7;}
	.st354{fill:#EBEDF0;}
	.st355{fill:#85C2DE;}
	.st356{fill:#B8D9EC;}
	.st357{fill:#BCDCEC;}
	.st358{fill:#C6E0EE;}
	.st359{fill:#9BD0EE;}
	.st360{fill:#C8DFE6;}
	.st361{clip-path:url(#SVGID_6_);}
	.st362{fill:#D7CCC8;}
	.st363{fill:#BCAAA4;}
	.st364{fill:#A1887F;}
	.st365{clip-path:url(#SVGID_26_);fill:#F2EEED;}
	.st366{fill:#FEFEFE;}
	.st367{fill:#F9F8F7;}
	.st368{fill:#EFEBE9;}
	.st369{fill:#F2EFED;}
	.st370{clip-path:url(#SVGID_27_);fill:#F2EEED;}
	.st371{clip-path:url(#SVGID_28_);fill:#F2EEED;}
	.st372{clip-path:url(#SVGID_29_);fill:#F2EEED;}
	.st373{opacity:0.35;fill:url(#SVGID_30_);}
	.st374{fill:url(#SVGID_31_);}
	.st375{fill:url(#SVGID_32_);}
	.st376{fill:url(#SVGID_40_);}
	.st377{fill:url(#SVGID_42_);}
	.st378{opacity:0.35;fill:url(#SVGID_44_);}
	.st379{fill:url(#SVGID_46_);}
	.st380{opacity:0.35;}
	.st381{filter:url(#Adobe_OpacityMaskFilter);}
	.st382{mask:url(#SVGID_48_);}
	.st383{fill:#231F20;}
	.st384{fill:url(#SVGID_50_);}
	.st385{fill:url(#SVGID_65_);}
	.st386{opacity:0.28;fill:url(#SVGID_66_);}
	.st387{fill:url(#SVGID_67_);}
	.st388{clip-path:url(#SVGID_6_);fill:#E8E8E8;}
	.st389{fill:#E8E8E8;}
	.st390{opacity:0.3;}
	.st391{fill:#FFFFFF;}
	.st392{fill:#FFCC9A;}
	.st393{fill:#FFB100;}
	.st394{fill:#DEDEDE;}
	.st395{fill:#FFE7C8;}
	.st396{fill:#EF4418;}
	.st397{fill:#9DAE5E;}
	.st398{fill:#FFFFFD;}
	.st399{fill:#FFB701;}
	.st400{clip-path:url(#SVGID_68_);}
	.st401{fill:#FABA8C;}
	.st402{fill:#F59687;}
	.st403{fill:#FDD8B8;}
	.st404{fill:#E75025;}
	.st405{fill:#F37B6F;}
	.st406{fill:#161818;}
	.st407{fill:#FFEFE6;}
	.st408{fill:#F47F38;}
	.st409{fill:#F89D4C;}
	.st410{fill:#2C2C2C;}
	.st411{fill:#AB1F27;}
	.st412{fill:#133358;}
	.st413{fill:#26527A;}
	.st414{fill:#052743;}
	.st415{fill:#EBB635;}
	.st416{fill:#FFD354;}
	.st417{fill:#CB922B;}
	.st418{fill:#FF4B00;}
	.st419{fill:#FEFFFF;}
	.st420{fill:#593219;}
	.st421{clip-path:url(#SVGID_74_);}
	.st422{fill:#F6901E;}
	.st423{fill:#414156;}
	.st424{fill:#312F44;}
	.st425{fill:#5F5F74;}
	.st426{fill:#BC202E;}
	.st427{fill:#EA1F27;}
	.st428{fill:#530D2D;}
	.st429{fill:#3C0F27;}
	.st430{fill:#6F0E32;}
	.st431{clip-path:url(#SVGID_76_);}
	.st432{clip-path:url(#SVGID_76_);fill:none;}
	.st433{clip-path:url(#SVGID_77_);}
	.st434{fill:#1E4258;stroke:#1E4258;stroke-width:10;stroke-miterlimit:10;}
	.st435{fill:#FFD13E;}
	.st436{fill:#9A9A87;}
	.st437{fill:#F7F7EE;}
	.st438{fill:#F2B241;}
	.st439{fill:#ADE4EA;}
	.st440{fill:#1E4258;}
	.st441{fill:#A4B3BE;}
	.st442{fill:#E2E2E2;}
	.st443{fill:#FFB352;}
	.st444{fill:url(#SVGID_78_);}
	.st445{fill:url(#SVGID_79_);}
	.st446{fill:url(#SVGID_80_);}
	.st447{fill:url(#SVGID_81_);}
	.st448{fill:url(#SVGID_82_);}
	.st449{fill:url(#SVGID_83_);}
	.st450{fill:url(#SVGID_84_);}
	.st451{fill:url(#SVGID_85_);}
	.st452{fill:#1E4258;stroke:#1E4258;stroke-width:6;stroke-miterlimit:10;}
	.st453{fill:#E6E6E6;}
	.st454{fill:#CB7256;}
	.st455{fill:#B15A47;}
	.st456{fill:#E0826C;}
	.st457{fill:#9F4F39;}
	.st458{fill:#582121;}
	.st459{fill:#F9E8CA;}
	.st460{fill:#E8CCAC;}
	.st461{fill:#F16531;}
	.st462{fill:#007D7F;}
	.st463{fill:#016868;}
	.st464{fill:#181329;}
	.st465{fill:#445D78;}
	.st466{fill:#313233;}
	.st467{fill:#FC636B;}
	.st468{fill:#004D40;}
	.st469{fill:#26C6DA;}
	.st470{fill:#FFA726;}
	.st471{fill:url(#SVGID_86_);}
	.st472{clip-path:url(#SVGID_6_);fill:#FAFAFA;}
	.st473{opacity:0.35;fill:url(#SVGID_87_);}
	.st474{fill:url(#SVGID_88_);}
	.st475{opacity:0.4;fill:url(#SVGID_89_);}
	.st476{fill:url(#SVGID_90_);}
	.st477{opacity:0.35;fill:url(#SVGID_91_);}
	.st478{fill:url(#SVGID_92_);}
	.st479{opacity:0.2;fill:url(#SVGID_93_);}
	.st480{fill:url(#SVGID_94_);}
	.st481{opacity:0.2;fill:url(#SVGID_95_);}
	.st482{fill:url(#SVGID_96_);}
	.st483{opacity:0.35;fill:url(#SVGID_97_);}
	.st484{fill:url(#SVGID_99_);}
	.st485{fill:url(#SVGID_101_);}
	.st486{fill:url(#SVGID_102_);}
	.st487{opacity:0.35;fill:url(#SVGID_103_);}
	.st488{fill:url(#SVGID_104_);}
	.st489{opacity:0.27;}
	.st490{fill:url(#SVGID_105_);}
	.st491{fill:url(#SVGID_106_);}
	.st492{fill:url(#SVGID_107_);}
	.st493{fill:url(#SVGID_108_);}
	.st494{fill:url(#SVGID_109_);}
	.st495{fill:url(#SVGID_110_);}
	.st496{opacity:0.35;fill:url(#SVGID_111_);}
	.st497{opacity:0.25;}
	.st498{fill:url(#SVGID_112_);}
	.st499{fill:url(#SVGID_113_);}
	.st500{fill:url(#SVGID_114_);}
	.st501{fill:url(#SVGID_115_);}
	.st502{fill:url(#SVGID_116_);}
	.st503{fill:#B25A47;}
	.st504{fill:#E1836C;}
	.st505{fill:#A04F39;}
	.st506{fill:#FFEFE7;}
	.st507{fill:#FAE9CB;}
	.st508{fill:#E9CDAD;}
	.st509{fill:#F7B454;}
	.st510{fill:#2B454E;}
	.st511{fill:#1A2E35;}
	.st512{fill:#375A64;}
	.st513{fill:#D268CC;}
	.st514{fill:#DDF9BB;}
	.st515{fill:#99C8E9;}
	.st516{fill:#071B2C;}
	.st517{fill:#575E70;}
	.st518{fill:#4DB596;}
	.st519{fill:#454B55;}
	.st520{fill:#63A945;}
	.st521{fill:#293033;}
	.st522{fill:#F1F1F2;}
	.st523{fill:#192953;}
	.st524{clip-path:url(#SVGID_117_);fill:#071B2C;}
	.st525{fill:#5E5BA8;}
	.st526{fill:#F79678;}
	.st527{opacity:0.2;fill:#293033;}
	.st528{fill:#1A2229;}
	.st529{fill:#4C803B;}
	.st530{fill:#32353D;}
	.st531{fill:#444A56;}
	.st532{fill:#3E8E75;}
	.st533{opacity:0.2;clip-path:url(#SVGID_118_);fill:#293033;}
	.st534{fill:#F05250;}
	.st535{opacity:0.2;clip-path:url(#SVGID_119_);fill:#293033;}
	.st536{fill:#424278;}
	.st537{opacity:0.5;clip-path:url(#SVGID_120_);fill:#071B2C;}
	.st538{fill:#035B87;}
	.st539{opacity:0.2;clip-path:url(#SVGID_121_);fill:#293033;}
	.st540{opacity:0.2;clip-path:url(#SVGID_122_);fill:#293033;}
	.st541{fill:#034761;}
	.st542{fill:#F5BD18;}
	.st543{fill:#010101;}
	.st544{fill:#FB73AA;}
	.st545{fill:#01030A;}
	.st546{fill:#040102;}
	.st547{fill:#030102;}
	.st548{fill:#050203;}
	.st549{fill:#FAE803;}
	.st550{fill:#F8B937;}
	.st551{fill:#2950B8;}
	.st552{fill:#FDFDFD;}
	.st553{fill:#294FB6;}
	.st554{fill:#F89F29;}
	.st555{fill:#FFF9E7;}
	.st556{fill:#99D1D7;}
	.st557{fill:#C1E0DA;}
	.st558{fill:#134F78;}
	.st559{fill:#D94D2E;}
	.st560{fill:#12B6A7;}
	.st561{fill:#313D4D;}
	.st562{fill:#EAB02A;}
	.st563{fill:#FDD5B6;}
	.st564{fill:#B21F2D;}
	.st565{fill:#DB212C;}
	.st566{fill:#85B6BA;}
	.st567{fill:#E4E5E5;}
	.st568{fill:#029C8B;}
	.st569{fill:#B2B1B1;}
	.st570{fill:#0DB2A4;}
	.st571{fill:#DFB559;}
	.st572{fill:#FBD145;}
	.st573{fill:#F2C9A9;}
	.st574{fill:#7B6C53;}
	.st575{fill:#007CFF;}
	.st576{opacity:0.5;fill:#FFFFFF;}
	.st577{fill:#D7656A;}
	.st578{fill:#F0877C;}
	.st579{opacity:0.7;fill:#FFFFFF;}
	.st580{opacity:0.6;fill:#FFFFFF;}
	.st581{opacity:0.1;}
	.st582{opacity:0.2;}
	.st583{fill:#FD5652;}
	.st584{opacity:0.4;}
	.st585{opacity:0.8;}
	.st586{fill:#F8B275;}
	.st587{fill:#FCB373;}
	.st588{opacity:0.7;}
	.st589{opacity:0.5;}
	.st590{fill:#EC873E;}
	.st591{fill:#B84D3C;}
	.st592{opacity:0.4;fill:#FFFFFF;}
	.st593{fill:#FFC19D;}
	.st594{fill:#E1E1E1;}
	.st595{fill:#FF735D;}
	.st596{fill:#ECECEC;}
	.st597{fill:#FF9C6A;}
	.st598{opacity:0.3;fill:#CFC4B8;}
	.st599{enable-background:new    ;}
	.st600{fill:#E4E3EE;}
	.st601{fill:#B7B6E3;}
	.st602{fill:#919DD6;}
	.st603{fill:#12B0F3;}
	.st604{fill:#1393F2;}
	.st605{fill:#05D4F5;}
	.st606{fill:#D4D5F0;}
	.st607{fill:#C4C3EC;}
	.st608{fill:#EEEFF2;}
	.st609{clip-path:url(#SVGID_123_);enable-background:new    ;}
	.st610{clip-path:url(#SVGID_124_);enable-background:new    ;}
	.st611{clip-path:url(#SVGID_125_);enable-background:new    ;}
	.st612{clip-path:url(#SVGID_126_);enable-background:new    ;}
	.st613{clip-path:url(#SVGID_127_);enable-background:new    ;}
	.st614{fill:#DAD9E8;}
	.st615{clip-path:url(#SVGID_128_);enable-background:new    ;}
	.st616{fill:#EBEBF1;}
	.st617{clip-path:url(#SVGID_129_);enable-background:new    ;}
	.st618{clip-path:url(#SVGID_130_);enable-background:new    ;}
	.st619{clip-path:url(#SVGID_131_);enable-background:new    ;}
	.st620{clip-path:url(#SVGID_132_);enable-background:new    ;}
	.st621{fill:#171C29;}
	.st622{fill:#042F8F;}
	.st623{clip-path:url(#SVGID_133_);enable-background:new    ;}
	.st624{clip-path:url(#SVGID_134_);enable-background:new    ;}
	.st625{clip-path:url(#SVGID_135_);enable-background:new    ;}
	.st626{clip-path:url(#SVGID_136_);enable-background:new    ;}
	.st627{clip-path:url(#SVGID_137_);enable-background:new    ;}
	.st628{clip-path:url(#SVGID_138_);enable-background:new    ;}
	.st629{fill:url(#SVGID_139_);}
	.st630{fill:#789CCF;}
	.st631{opacity:0.48;fill:none;stroke:#FFFFFF;stroke-width:0.8689;stroke-miterlimit:10;}
	.st632{opacity:0.48;fill:none;stroke:#FFFFFF;stroke-width:0.7996;stroke-miterlimit:10;}
	.st633{fill:none;stroke:#FFFFFF;stroke-width:4.3598;stroke-linecap:round;stroke-linejoin:round;stroke-miterlimit:10;}
	.st634{fill:#6286D6;}
	.st635{fill:#7798FC;}
	.st636{fill:#FF998B;}
	.st637{fill:#0D0000;}
	.st638{fill:#DDE5F2;}
	.st639{fill:none;stroke:#DDE5F2;stroke-width:1.6024;stroke-miterlimit:10;}
	.st640{fill:#5E757A;}
	.st641{fill:#20120D;}
	.st642{fill:#272727;}
	.st643{fill:#F9796D;}
	.st644{fill:#E87F74;}
	.st645{fill:#F15146;}
	.st646{fill:#D0413B;}
	.st647{fill:#FF604F;}
	.st648{fill:#FD8A77;}
	.st649{fill:#F9FFFC;}
	.st650{fill:none;stroke:#FFFFFF;stroke-width:1.5615;stroke-miterlimit:10;}
	.st651{fill:#FCFBFB;}
	.st652{fill:#2D8584;}
	.st653{fill:#156054;}
	.st654{opacity:0.19;}
	.st655{fill:#97D5D3;}
	.st656{fill:#96CBB9;}
	.st657{fill:url(#SVGID_140_);}
	.st658{fill:#C7DEFD;}
	.st659{fill:#0C0A0A;}
	.st660{fill:#BED9FD;}
	.st661{fill:#FED964;}
	.st662{fill:#8BBBFD;}
	.st663{fill:#25A9E1;}
	.st664{fill:#FF8DA0;}
	.st665{fill:#FD4056;}
	.st666{fill:#000001;}
	.st667{fill:#7F7FFD;}
	.st668{fill:#43BA79;}
	.st669{fill:#FFFFFF;stroke:#1A1A1A;stroke-width:2;stroke-linecap:round;stroke-linejoin:round;stroke-miterlimit:10;}
	.st670{fill:#4E3CDF;}
	.st671{fill:none;}
	.st672{fill:#0B0B0C;}
	.st673{fill:#010102;}
	.st674{clip-path:url(#SVGID_141_);fill:url(#SVGID_142_);}
	.st675{clip-path:url(#SVGID_141_);}
	.st676{fill:#FFA94D;}
	.st677{fill:#FFDBBB;}
	.st678{fill:#FEB07D;}
	.st679{fill:#F87352;}
	.st680{fill:#09293D;}
	.st681{fill:#12B886;}
	.st682{fill:#C37362;}
	.st683{fill:none;stroke:#09293D;stroke-width:1.25;stroke-miterlimit:10;}
	.st684{fill:#C184B0;}
	.st685{fill:#FFDAB2;}
	.st686{clip-path:url(#SVGID_146_);fill:url(#SVGID_147_);}
	.st687{opacity:0.06;clip-path:url(#SVGID_146_);}
	.st688{clip-path:url(#SVGID_148_);}
	.st689{clip-path:url(#SVGID_146_);}
	.st690{clip-path:url(#SVGID_149_);}
	.st691{clip-path:url(#SVGID_150_);}
	.st692{clip-path:url(#SVGID_151_);}
	.st693{clip-path:url(#SVGID_151_);fill:none;}
	.st694{clip-path:url(#SVGID_152_);}
	.st695{fill:url(#SVGID_153_);}
	.st696{fill:url(#SVGID_154_);}
	.st697{fill:url(#SVGID_155_);}
	.st698{fill:url(#SVGID_156_);}
	.st699{fill:url(#SVGID_157_);}
	.st700{fill:url(#SVGID_158_);}
	.st701{fill:url(#SVGID_159_);}
	.st702{fill:url(#SVGID_160_);}
	.st703{fill:url(#SVGID_161_);}
	.st704{clip-path:url(#SVGID_162_);fill:#F2EEED;}
	.st705{clip-path:url(#SVGID_163_);fill:#F2EEED;}
	.st706{clip-path:url(#SVGID_164_);fill:#F2EEED;}
	.st707{clip-path:url(#SVGID_165_);fill:#F2EEED;}
	.st708{clip-path:url(#SVGID_146_);fill:#FAFAFA;}
	.st709{opacity:0.35;fill:url(#SVGID_166_);}
	.st710{fill:url(#SVGID_167_);}
	.st711{fill:url(#SVGID_168_);}
	.st712{fill:url(#SVGID_169_);}
	.st713{fill:url(#SVGID_170_);}
	.st714{opacity:0.35;fill:url(#SVGID_171_);}
	.st715{fill:url(#SVGID_172_);}
	.st716{opacity:0.4;fill:url(#SVGID_173_);}
	.st717{fill:url(#SVGID_174_);}
	.st718{opacity:0.35;fill:url(#SVGID_175_);}
	.st719{fill:url(#SVGID_176_);}
	.st720{opacity:0.2;fill:url(#SVGID_177_);}
	.st721{fill:url(#SVGID_178_);}
	.st722{opacity:0.2;fill:url(#SVGID_179_);}
	.st723{fill:url(#SVGID_180_);}
	.st724{opacity:0.35;fill:url(#SVGID_181_);}
	.st725{fill:url(#SVGID_182_);}
	.st726{fill:url(#SVGID_183_);}
	.st727{fill:url(#SVGID_184_);}
	.st728{opacity:0.35;fill:url(#SVGID_185_);}
	.st729{fill:url(#SVGID_186_);}
	.st730{filter:url(#Adobe_OpacityMaskFilter_1_);}
	.st731{mask:url(#SVGID_187_);}
	.st732{fill:url(#SVGID_188_);}
	.st733{fill:url(#SVGID_189_);}
	.st734{opacity:0.28;fill:url(#SVGID_190_);}
	.st735{fill:url(#SVGID_191_);}
	.st736{opacity:0.35;fill:url(#SVGID_192_);}
	.st737{fill:url(#SVGID_193_);}
	.st738{fill:url(#SVGID_194_);}
	.st739{fill:url(#SVGID_195_);}
	.st740{fill:url(#SVGID_196_);}
	.st741{fill:url(#SVGID_197_);}
	.st742{fill:url(#SVGID_198_);}
	.st743{fill:url(#SVGID_199_);}
	.st744{opacity:0.35;fill:url(#SVGID_200_);}
	.st745{fill:url(#SVGID_201_);}
	.st746{fill:url(#SVGID_202_);}
	.st747{fill:url(#SVGID_203_);}
	.st748{fill:url(#SVGID_204_);}
	.st749{fill:url(#SVGID_205_);}
	.st750{clip-path:url(#SVGID_146_);fill:#E8E8E8;}
	.st751{fill:#FCB619;}
	.st752{fill:#0F141D;}
	.st753{fill:#F0625B;}
	.st754{fill:#088473;}
	.st755{fill:#DD665E;}
	.st756{fill:#3B4450;}
	.st757{fill:#27BDC4;}
	.st758{fill:#C2E1DB;}
	.st759{fill:#99D2D9;}
	.st760{fill:#0F3754;}
	.st761{fill:#154F78;}
	.st762{fill:#68481D;}
	.st763{fill:#C5F4FC;}
	.st764{opacity:0.08;}
	.st765{clip-path:url(#SVGID_206_);}
	.st766{fill-rule:evenodd;clip-rule:evenodd;fill:#7A7A7A;}
	.st767{fill:#7A7A7A;}
	.st768{fill:#585858;}
	.st769{clip-path:url(#SVGID_206_);fill-rule:evenodd;clip-rule:evenodd;fill:#7A7A7A;}
	.st770{clip-path:url(#SVGID_206_);fill:#7A7A7A;}
	.st771{clip-path:url(#SVGID_207_);}
	.st772{clip-path:url(#SVGID_207_);fill-rule:evenodd;clip-rule:evenodd;fill:#7A7A7A;}
	.st773{clip-path:url(#SVGID_207_);fill:#7A7A7A;}
	.st774{clip-path:url(#SVGID_208_);}
	.st775{clip-path:url(#SVGID_208_);fill-rule:evenodd;clip-rule:evenodd;fill:#7A7A7A;}
	.st776{clip-path:url(#SVGID_208_);fill:#7A7A7A;}
	.st777{clip-path:url(#SVGID_209_);}
	.st778{clip-path:url(#SVGID_209_);fill-rule:evenodd;clip-rule:evenodd;fill:#7A7A7A;}
	.st779{clip-path:url(#SVGID_209_);fill:#7A7A7A;}
	.st780{fill:#BED2A4;}
	.st781{opacity:0.18;clip-path:url(#SVGID_210_);}
	.st782{opacity:0.18;}
	.st783{clip-path:url(#SVGID_211_);}
	.st784{fill:#BABABA;}
	.st785{fill:#B6B6B6;}
	.st786{fill:#EDEDED;}
	.st787{fill:#EEEEEE;}
	.st788{fill:#BCBCBC;}
	.st789{fill:#D4D4D4;}
	.st790{fill:#D2D2D2;}
	.st791{fill:#969696;}
	.st792{fill:#D3D3D3;}
	.st793{fill:#DADADA;}
	.st794{fill:#C4C4C4;}
	.st795{fill:#C6C6C6;}
	.st796{fill:#EBEBEB;}
	.st797{fill:#D5D5D5;}
	.st798{fill:#949494;}
	.st799{fill:#A9A9A9;}
	.st800{fill:#A7A7A7;}
	.st801{fill:#959595;}
	.st802{fill:#C2C2C2;}
	.st803{fill:#C9C9C9;}
	.st804{fill:#E9E9E9;}
	.st805{fill:#D7D7D7;}
	.st806{fill:#E7E7E7;}
	.st807{fill:#DCDCDC;}
	.st808{fill:#D0D0D0;}
	.st809{fill:#B0B0B0;}
	.st810{fill:#AEAEAE;}
	.st811{fill:#DDDDDD;}
	.st812{fill:#CFCFCF;}
	.st813{fill:#ACACAC;}
	.st814{fill:#B2B2B2;}
	.st815{fill:#F2F2F2;}
	.st816{fill:#EAEAEA;}
	.st817{fill:#B7B7B7;}
	.st818{fill:#C5C5C5;}
	.st819{fill:#BBBBBB;}
	.st820{fill:#979797;}
	.st821{fill:#E4E4E4;}
	.st822{fill:#CACACA;}
	.st823{fill:#EFEFEF;}
	.st824{fill:#C7C7C7;}
	.st825{fill:#D6D6D6;}
	.st826{fill:#B4B4B4;}
	.st827{fill:#C8C8C8;}
	.st828{fill:#B1B1B1;}
	.st829{fill:#CDCDCD;}
	.st830{fill:#CBCBCB;}
	.st831{fill:#D9D9D9;}
	.st832{fill:#E3E3E3;}
	.st833{fill:#A2A2A2;}
	.st834{fill:#F6F6F6;}
	.st835{fill:#BDBDBD;}
	.st836{fill:#B8B8B8;}
	.st837{fill:#D1D1D1;}
	.st838{fill:#B9B9B9;}
	.st839{fill:#C3C3C3;}
	.st840{fill:#CCCCCC;}
	.st841{fill:#ADADAD;}
	.st842{fill:#C0C0C0;}
	.st843{fill:#F9F9F9;}
	.st844{fill:#F3F3F3;}
	.st845{fill:#BEBEBE;}
	.st846{fill:#DBDBDB;}
	.st847{fill:#F1F1F1;}
	.st848{fill:#AFAFAF;}
	.st849{fill:#ABABAB;}
	.st850{fill:#DFDFDF;}
	.st851{fill:#B5B5B5;}
	.st852{fill:#A8A8A8;}
	.st853{fill:#B3B3B3;}
	.st854{fill:#FCFCFC;}
	.st855{clip-path:url(#SVGID_213_);}
	.st856{fill:#88C9A1;}
	.st857{opacity:0.87;}
	.st858{opacity:0.18;clip-path:url(#SVGID_216_);}
	.st859{clip-path:url(#SVGID_217_);}
	.st860{clip-path:url(#SVGID_219_);}
	.st861{fill:#3169B1;}
	.st862{fill:#9EC96B;}
	.st863{fill:#FFCE6C;}
	.st864{fill:#768B4B;}
	.st865{fill:#BE893D;}
	.st866{fill:#51CDF4;}
</style>
<g>
	<defs>
		<rect id="SVGID_1_" x="10.22" y="7.09" width="361.78" height="245.76"/>
	</defs>
	<clipPath id="SVGID_6_">
		<use xlink:href="#SVGID_1_"  style="overflow:visible;"/>
	</clipPath>
	<linearGradient id="SVGID_8_" gradientUnits="userSpaceOnUse" x1="10.2239" y1="109.4257" x2="372" y2="109.4257">
		<stop  offset="2.663895e-07" style="stop-color:#A1CDA4"/>
		<stop  offset="0.8391" style="stop-color:#9EC96B"/>
	</linearGradient>
	<rect x="10.22" y="7.09" class="st0" width="361.78" height="204.66"/>
	<g class="st361">
		<g>
			<path class="st676" d="M395.8,218.41v89.48H-30.7v-84.21c9.14-6.7,58.29-12.8,68.46-18.28c53.87-29.07,120.54-40.9,184.02-34.21
				c22.43,2.36,44.42,6.9,65.68,13.3c7.04,2.12,14,4.45,20.87,6.97c15.37,5.64,30.29,12.25,44.64,19.72
				C357.45,213.51,391.45,215.92,395.8,218.41z"/>
		</g>
		<g class="st589">
			<path class="st677" d="M352.98,211.19c-8.14,19.26-23.67,35.49-42.98,43.63c-27.19,11.46-60.61,6.38-83.16-12.64
				c-8.77-7.39-17.28-17.25-28.75-17.43c-7.89-0.13-15.1,4.63-20.51,10.38c-5.4,5.75-9.52,12.59-14.8,18.47
				c-12.2,13.59-30.63,21.33-48.87,20.53c-18.24-0.8-35.92-10.14-46.87-24.74c-7.68-10.24-12.03-22.62-19.28-33.17
				c-2.74-3.99-6.14-7.76-10-10.82c53.87-29.07,120.54-40.9,184.02-34.21c22.43,2.36,44.42,6.9,65.68,13.3
				c7.04,2.12,27.04,10.91,20.87,6.97C293.23,181.8,180.91,124.56,352.98,211.19z"/>
		</g>
	</g>
	<g class="st361">
		<g>
			<g>
				<path class="st678" d="M205.39,100.2c-0.15,0.33-0.42,0.53-0.68,0.71c-3.85,2.73-8.44,3.88-13.02,3.28
					c-1.55-0.21-3.12-0.62-4.54-1.55c-1.42-0.93-4.29-2.26-4.29-2.26s0.19-13.74,0.18-14.54c-0.02-0.9-0.04-1.8-0.07-2.7
					c-0.01-0.55-0.03-1.1-0.04-1.65v0c-0.03-1.07-0.05-2.13-0.08-3.2c-0.01-0.39-0.03-0.78-0.05-1.18c-0.05-0.88-0.1-1.78-0.04-2.62
					c0.06-0.83,0.36-1.21,0.77-1.67c0.12-0.13,0.24-0.27,0.38-0.42c0.68-0.78,1.39-1.55,2.14-2.23c0.69-0.62,1.41-1.18,2.19-1.62
					c0.06-0.03,0.13-0.07,0.21-0.1c0.96-0.4,2.86-0.43,4.81-0.33c2.92,0.15,5.12-0.95,5.12-0.95l3.14,13.21l0.55,2.32l0.3,1.45
					l2.83,13.68C205.2,97.83,205.71,99.53,205.39,100.2z"/>
			</g>
			<g>
				<path class="st678" d="M191.58,72.68c-0.45,0.69-0.91,1.38-1.4,2.05c-1.3,1.82-2.75,3.53-4.51,4.89
					c-2.42,1.87-5.53,3.03-8.54,2.53c-0.31-0.05-0.61-0.12-0.91-0.2c-3.11-0.88-5.5-3.49-6.81-6.43c-0.24-0.52-0.44-1.06-0.6-1.6
					c-0.03-0.1-0.06-0.2-0.09-0.3c-0.42-1.46-0.68-3.05-0.78-4.68c-0.04-0.64-0.05-1.28-0.05-1.93c0.05-3.87,0.95-7.85,2.61-10.96
					c3.16-5.93,10.53-8.97,16.52-5.92c8.84,4.5,11.04,14.85,13.43,25.58C202.02,82.68,191.58,72.68,191.58,72.68z"/>
			</g>
			<g>
				<path class="st676" d="M205.39,100.2c-0.15,0.33-0.42,0.53-0.68,0.71c-3.85,2.73-8.44,3.88-13.02,3.28
					c-1.55-0.21-3.12-0.62-4.54-1.55c-1.42-0.93-4.29-2.26-4.29-2.26s0.19-13.74,0.18-14.54c-0.02-0.9-0.04-1.8-0.07-2.7
					c6.27,1.05,12.87,0.08,18.54-2.77l0.55,2.32l0.3,1.45l2.83,13.68C205.2,97.83,205.71,99.53,205.39,100.2z"/>
			</g>
			<g>
				<path class="st679" d="M182.82,70.41c0.21,1.76,1.82,3.02,3.58,2.81c1.77-0.21,3.02-1.82,2.81-3.58
					c-0.21-1.76-1.82-3.02-3.58-2.81C183.87,67.04,182.61,68.64,182.82,70.41z"/>
			</g>
			<g>
				<path class="st679" d="M169.41,75.52c-0.24-0.52-0.44-1.06-0.6-1.6c-0.03-0.1-0.06-0.2-0.09-0.3c-0.42-1.46-0.68-3.05-0.78-4.68
					c0.16-0.04,0.32-0.08,0.49-0.1c1.85-0.22,3.53,1.09,3.75,2.94C172.4,73.58,171.17,75.22,169.41,75.52z"/>
			</g>
			<g>
				<path class="st680" d="M177.72,69.05c-0.61,0-1.19-0.27-1.59-0.74c-0.46-0.54-0.61-1.28-0.4-1.96c0.23-0.75,0.48-1.64,0.65-2.8
					l0.88,0.12c-0.17,1.22-0.44,2.15-0.67,2.93c-0.12,0.4-0.04,0.81,0.23,1.13c0.27,0.32,0.66,0.47,1.07,0.42l0.11,0.88
					C177.9,69.04,177.81,69.05,177.72,69.05z"/>
			</g>
			<g>
				<path class="st680" d="M179.95,64.18c0.05,0.42,0.43,0.72,0.85,0.67c0.42-0.05,0.72-0.43,0.67-0.85
					c-0.05-0.42-0.43-0.72-0.85-0.67C180.2,63.37,179.9,63.75,179.95,64.18z"/>
			</g>
			<g>
				<path class="st680" d="M172.17,63.72c0.05,0.42,0.43,0.72,0.85,0.67c0.42-0.05,0.72-0.43,0.67-0.85
					c-0.05-0.42-0.43-0.72-0.85-0.67C172.42,62.92,172.12,63.3,172.17,63.72z"/>
			</g>
			<g>
				<path class="st678" d="M131.34,98.4c0.01-3.39-0.77-6.78-2.26-9.83c-0.22-0.44-0.86-0.38-0.99,0.09
					c-0.16,0.58-0.13,0.98-0.01,1.79c-0.71-2.22-1.36-3.73-3.76-6.98c-0.44-0.6-1.2-0.92-1.93-0.74c-1.06,0.25-1.13,1.32-1.08,2.21
					c0.37,5.93,2.57,11.74,6.23,16.43L131.34,98.4z"/>
			</g>
			<g>
				<path class="st679" d="M174.37,70.95c0,0.01,0,0.02,0,0.03c0.05,1,0.34,1.88,1.18,2.49c0.71,0.52,1.69,0.55,2.52,0.24
					c0.79-0.3,1.42-1.04,1.64-1.82c0.08-0.27,0.1-0.56,0.1-0.84c0-0.08,0-0.16-0.01-0.25c-0.02-0.27-0.29-0.46-0.56-0.37
					c-1.39,0.48-2.93,0.52-4.34,0.11C174.63,70.45,174.36,70.66,174.37,70.95z"/>
			</g>
			<g>
				<path class="st681" d="M182.61,120.02c0.01,1.08-0.07,2.16-0.21,3.2c-0.93,6.65-2.98,13.98-7.8,18.65
					c-2.91,2.81-6.65,4.5-10.63,5.16c-1.65,0.28-3.35,0.37-5.04,0.3c-3.05-0.13-6.1-0.83-8.88-2.04
					c-8.03-3.51-14.01-10.68-17.82-18.57c-3.53-7.3-5.85-15.14-6.59-23.83c-0.06-0.7-0.11-1.41-0.15-2.12
					c0.43-0.24,0.81-0.45,1.14-0.63c1.93-1.07,2.47-1.38,4.7-2.62c0.16-0.09,0.33-0.18,0.52-0.28c6.45,5.1,14.31,13.39,19.19,20.48
					c0.87,1.26,1.64,2.47,2.29,3.63l26.02-9.5c0.83,0.68,1.48,1.5,1.97,2.42C182.22,115.94,182.58,117.97,182.61,120.02z"/>
			</g>
			<g>
				<path class="st680" d="M187.38,38.95c-1.5,1.81-2.35,4.2-2.26,6.51c0.06,1.49,0.51,3,1.45,4.16c1.02,1.25,2.56,2.01,4.14,2.36
					c3.53,0.79,7.54-0.51,9.64-3.46c1.31-1.84,1.71-4.27,1.18-6.46c-0.97-3.99-5.59-6.75-9.56-5.95
					C190.14,36.48,188.56,37.53,187.38,38.95z"/>
			</g>
			<g>
				<path class="st680" d="M171.63,61.23c1.34-0.39,4.6-1.34,7.33-4.12c2.44,2.83,6.18,4.58,9.9,4.24c1.83,3.35,6.08,4.86,8.19,4.23
					c1.77-0.53,2.65-2.12,2.57-3.94c-0.09-2.2-0.76-4.33-1.74-6.3c-2.45-4.9-6.5-9.33-11.8-10.71c-3.65-0.95-7.62-0.36-10.98,1.35
					c-3.36,1.72-6.11,4.51-8.04,7.74c-0.56,0.94-1.05,2.26-1.16,3.36C165.67,59.59,166.92,62.61,171.63,61.23z"/>
			</g>
			<g>
				<path class="st678" d="M191.06,64.49c0.42-1.03,1.33-1.86,2.41-2.11c1.08-0.26,2.3,0.09,3.04,0.91c0.74,0.83,0.94,2.11,0.44,3.1
					c-0.5,0.99-1.7,1.59-2.78,1.36L191.06,64.49z"/>
			</g>
			<g>
				<path class="st680" d="M193.97,66.85l-0.01-0.88c0.38,0,0.72-0.16,0.9-0.41c0.17-0.24,0.16-0.59-0.01-0.77
					c-0.12-0.13-0.34-0.19-0.57-0.16c-0.22,0.03-0.46,0.13-0.75,0.31l-0.48-0.74c0.4-0.25,0.76-0.4,1.12-0.44
					c0.5-0.06,0.98,0.1,1.3,0.42c0.47,0.48,0.52,1.31,0.11,1.89C195.24,66.55,194.64,66.84,193.97,66.85z"/>
			</g>
			<g>
				<path class="st681" d="M221.87,176.49c-0.19,0.17-0.39,0.34-0.58,0.51c-14.28,11.9-41.77,1.24-57.81-6.26
					c-0.45-7.28-0.34-14.54,0.3-21.73c0-0.02,0-0.03,0-0.05c0.03-0.33,0.06-0.65,0.09-0.98c0.03-0.28,0.05-0.57,0.08-0.85
					c0-0.03,0.01-0.07,0.01-0.1c0.06-0.59,0.13-1.19,0.19-1.78c0.02-0.17,0.04-0.35,0.06-0.52c0.03-0.28,0.07-0.56,0.1-0.84
					c0.04-0.3,0.08-0.6,0.11-0.9c0.03-0.21,0.05-0.41,0.08-0.62c0.05-0.39,0.11-0.78,0.16-1.17c0.02-0.14,0.04-0.28,0.06-0.42
					c0.04-0.26,0.08-0.51,0.11-0.77c0.11-0.75,0.24-1.5,0.36-2.24c0.06-0.34,0.11-0.68,0.17-1.01c0.06-0.34,0.12-0.68,0.18-1.01
					c0.03-0.19,0.07-0.37,0.1-0.56c-6.3-2.92-13.43-9.13-16-14.96c0.44-0.86,0.89-1.71,1.36-2.54c5.36-9.62,12.75-17.97,21.85-23.96
					c1.95-1.29,3.98-2.47,6.09-3.52c0.43-0.22,0.87-0.43,1.3-0.64c0.35-0.17,0.7-0.33,1.06-0.49c0.55-0.25,1.12-0.47,1.69-0.68
					c1.73-0.61,3.55-1.04,5.41-1.28c4.25-0.56,8.71-0.22,12.72,0.83c0.73,0.19,1.45,0.42,2.15,0.69c0.13,0.05,0.26,0.1,0.39,0.15
					c4.13,1.67,7.74,4.62,10.63,8.05c3.47,4.11,6,8.92,8.37,13.75c5.21,10.61,9.8,21.81,10.62,33.6
					C234.12,155.99,230.65,168.58,221.87,176.49z"/>
			</g>
			<g>
				<path class="st680" d="M164.21,149.04l-0.88-0.08c0.97-10.91,3.21-21.8,6.64-32.37l0.84,0.27
					C167.4,127.37,165.18,138.19,164.21,149.04z"/>
			</g>
			<g>
				<path class="st680" d="M149.87,145.68c-7.33-3.2-13.73-9.87-18.04-18.79l0.8-0.38c4.21,8.72,10.46,15.24,17.6,18.36
					L149.87,145.68z"/>
			</g>
			<g>
				<path class="st680" d="M152.94,121.54c-4.06-7.18-13.44-17.71-21.37-23.98l0.55-0.69c8.13,6.43,17.42,16.85,21.59,24.24
					L152.94,121.54z"/>
			</g>
			<g>
				<path class="st680" d="M216.83,162.43c-0.13-11.73-1.9-23.38-5.26-34.62l0.85-0.25c3.39,11.32,5.17,23.05,5.3,34.86
					L216.83,162.43z"/>
			</g>
			<g>
				<g>
					<path class="st676" d="M180.27,86.87c-0.46,1.23-0.25,2.69,0.56,3.73c1.32,1.71,3.7,1.83,5.54,0.93
						c1.83-0.89,2.6-2.95,1.93-4.86c-0.28-0.79-0.8-1.46-1.54-1.86c-0.54-0.29-1.15-0.44-1.76-0.5
						C183.05,84.13,181.01,84.92,180.27,86.87z"/>
				</g>
				<g>
					<path class="st676" d="M183.55,90.81c0.29,4.58-0.66,9.23-2.73,13.33c-0.96,1.9-2.31,3.81-4.35,4.43
						c-1.95,0.59-4.18-0.22-5.52-1.76c-1.34-1.54-1.84-3.7-1.63-5.73c0.21-2.03,1.09-3.94,2.24-5.63c2.35-3.47,5.9-6.12,9.89-7.4
						c-3.46,2.81-7.12,6.42-8.29,10.73c-0.19,0.68-0.3,1.4-0.18,2.09c0.13,0.69,0.53,1.37,1.17,1.67c1.23,0.58,2.63-0.37,3.52-1.39
						c2.35-2.69,3.57-6.15,4.7-9.54L183.55,90.81z"/>
				</g>
				<g>
					<path class="st676" d="M184.01,88.43c-1.11,0.55-1.66,2.44-1.56,4.12c0.09,1.68,0.67,3.21,1.17,4.74
						c0.5,1.52,0.95,3.19,0.77,4.85c-0.21,1.91-1.2,3.42-1.89,5.09c-1.01,2.42-1.41,5.36-1.1,8.14c0.3,2.79,1.3,5.41,2.77,7.28
						c1.09-2.2,2.61-3.95,4.31-5.11c-1.38-0.95-1.96-3.52-1.92-5.71c0.04-2.19,0.61-4.28,1.08-6.37c0.46-2.09,0.82-4.35,0.4-6.46
						c-0.38-1.96-1.38-3.54-2.18-5.23C185.05,92.1,183.55,90.37,184.01,88.43z"/>
				</g>
			</g>
			<g class="st582">
				<path class="st680" d="M221.87,176.49c-0.19,0.17-0.39,0.34-0.58,0.51c-1.7-3.97-1.89-8.61-0.06-12.54
					c1.98-4.26,6-8.03,5.49-12.69c-0.45-4.1-4.37-7.19-4.79-11.29c-0.45-4.38,3.26-8.69,1.92-12.89c-1.34-4.21-6.87-5.55-9.15-9.34
					c-1.88-3.13-1.12-7.16-2.11-10.67c-1.16-4.1-4.56-7.11-6.88-10.68c-0.43-0.66-0.81-1.38-1.13-2.13
					c-0.65-1.54-1.03-3.21-0.99-4.79c0.01-0.4,0.05-0.79,0.11-1.18c4.13,1.67,7.74,4.62,10.63,8.05c3.47,4.11,6,8.92,8.37,13.75
					c5.21,10.61,9.8,21.81,10.62,33.6C234.12,155.99,230.65,168.58,221.87,176.49z"/>
			</g>
			<g class="st582">
				<path class="st680" d="M158.92,147.32c-3.05-0.13-6.1-0.83-8.88-2.04c-8.03-3.51-14.01-10.68-17.82-18.57
					c-3.53-7.3-5.85-15.14-6.59-23.83c2.23-0.47,4.84,1.2,5.87,3.41c1.23,2.66,0.93,5.73,0.94,8.67c0.01,2.93,0.53,6.18,2.82,8.01
					c1.86,1.48,4.65,1.83,5.88,3.86c1.37,2.26-0.02,5.27,0.77,7.79c0.65,2.05,2.63,3.4,4.64,4.15c2.01,0.75,4.18,1.08,6.14,1.95
					C155.54,141.98,157.82,144.42,158.92,147.32z"/>
			</g>
		</g>
		<g>
			<g>
				<path class="st676" d="M134.31,190.83c0.29-1.3,0.4-2.54,0.71-3.84c0.19-0.79-0.19-1.61-0.91-1.99
					c-8.69-4.44-17.41-9.22-23.85-16.52c-5.28-5.99-8.73-13.33-12.87-20.16c-4.14-6.83-11.3-15.7-16.68-16.66
					c-2.93-0.52-6.48,0.86-7.97,3.43c-1.49,2.57-1.75,5.67-1.65,8.64c0.52,14.55,9.28,28.05,21.17,36.45
					c11.5,8.13,26.09,11.06,40.19,12.01C133.33,192.27,134.12,191.68,134.31,190.83z"/>
			</g>
			<g>
				<path class="st682" d="M77.71,135c0,0-2.61,1.5-3.89,2.49c-1.28,1-2.74,1.51-4.19,1.83c-4.3,0.94-8.75,0.21-12.63-2.07
					c-0.26-0.16-0.53-0.33-0.7-0.62c-0.36-0.62-0.01-2.27-0.01-2.27l0.08-0.7l0.07-0.57l1.22-10.08l0.16-1.28l0.07-0.6l0.17-1.4
					l2.27-15.05c0,0,2.18,0.87,4.94,0.49c1.84-0.25,3.65-0.37,4.6-0.07c0.07,0.02,0.14,0.05,0.2,0.08c0.78,0.36,1.51,0.83,2.21,1.36
					c0.77,0.59,1.5,1.26,2.21,1.95c0.14,0.13,0.27,0.25,0.39,0.37c0.43,0.4,0.75,0.74,0.87,1.52c0.12,0.79,0.15,1.65,0.17,2.5
					c0.01,0.38,0.02,0.76,0.05,1.13c0.06,1.02,0.12,2.03,0.18,3.04v0c0.04,0.75,0.09,1.51,0.13,2.26c0.04,0.63,0.08,1.26,0.11,1.89
					c0.01,0.09,0.03,0.36,0.07,0.77c0.09,1.03,0.28,2.92,0.48,4.96c0.02,0.22,0.04,0.44,0.07,0.66C77.33,131.2,77.71,135,77.71,135z
					"/>
			</g>
			<g>
				<path class="st682" d="M89,108.44c-0.02,0.1-0.04,0.19-0.06,0.29c-0.08,0.38-0.18,0.76-0.3,1.14c-0.96,3.06-3.07,5.94-6.1,7.08
					c-0.28,0.1-0.56,0.19-0.85,0.27c-2.82,0.72-5.87-0.14-8.32-1.72c-1.79-1.15-3.3-2.66-4.68-4.29c-0.51-0.6-1.01-1.22-1.49-1.84
					c0,0-9.12,10.34-8.2,3.59c1.42-10.39,2.68-20.4,10.72-25.38c5.45-3.38,12.69-1.08,16.17,4.3c1.83,2.83,3,6.53,3.36,10.21
					c0.05,0.47,0.08,0.93,0.1,1.4C89.42,105.2,89.31,106.88,89,108.44z"/>
			</g>
			<g>
				<path class="st679" d="M76.92,126.93c-1.17,1.64-2.67,3.1-4.36,4.26c-4.06,2.79-9.58,3.73-14.42,2.47
					c-0.58-0.15-1.15-0.34-1.71-0.57l1.22-10.08l0.16-1.28c6.01-1.56,12.24-2.38,18.46-2.42c0.04,0.63,0.08,1.26,0.11,1.89
					c0.01,0.09,0.03,0.36,0.07,0.77C76.53,123,76.72,124.89,76.92,126.93z"/>
			</g>
			<g>
				<path class="st679" d="M73.17,106.09c-0.06,1.69-1.48,3.02-3.18,2.96c-1.69-0.06-3.02-1.48-2.96-3.18
					c0.06-1.69,1.48-3.02,3.18-2.96C71.91,102.97,73.23,104.39,73.17,106.09z"/>
			</g>
			<g>
				<path class="st679" d="M89,108.44c-0.02,0.1-0.04,0.19-0.06,0.29c-0.08,0.38-0.18,0.76-0.3,1.14c-1.75-0.08-3.12-1.56-3.06-3.33
					c0.06-1.77,1.56-3.16,3.33-3.1c0.15,0.01,0.29,0.02,0.43,0.05C89.42,105.2,89.31,106.88,89,108.44z"/>
			</g>
			<g>
				<path class="st680" d="M80.2,104.9c-0.02,0-0.03,0-0.05,0l-1.46-0.06l0.04-0.88l1.46,0.06c0.08,0,0.12-0.04,0.14-0.07
					c0.02-0.03,0.04-0.08,0.01-0.15c-0.12-0.27-0.25-0.54-0.39-0.82c-0.48-0.96-0.97-1.95-1.01-3.39l0.88-0.03
					c0.04,1.25,0.47,2.12,0.92,3.03c0.14,0.28,0.28,0.56,0.41,0.85c0.14,0.33,0.11,0.7-0.1,1C80.86,104.73,80.54,104.9,80.2,104.9z"
					/>
			</g>
			<g>
				<path class="st679" d="M81.57,107.5c0,0.01-0.01,0.02-0.01,0.03c-0.34,1.02-0.9,1.84-1.94,2.22c-0.89,0.33-1.9,0.08-2.67-0.48
					c-0.73-0.53-1.16-1.48-1.17-2.35c0-0.3,0.06-0.6,0.14-0.9c0.02-0.09,0.05-0.17,0.08-0.25c0.1-0.28,0.43-0.39,0.68-0.22
					c1.29,0.9,2.88,1.38,4.45,1.37C81.44,106.91,81.67,107.21,81.57,107.5z"/>
			</g>
			<g>
				<path class="st680" d="M78.48,93.15c-0.35,2.12-2.13,3.74-4.24,4.42c-2.12,0.68-5.16,0.65-6.76-0.89c-0.48,2.31-4.1,4-5.43,4.07
					c-2.44,0.13-4.87-0.94-5.27-3.35c-0.41-2.41,0.54-4.86,1.86-6.91c2.37-3.68,6.05-6.5,10.21-7.84c4.17-1.34,8.8-1.2,12.87,0.39
					c1.85-0.6,4.17-1.35,6.12-1.45c1.94-0.1,3.99,0.35,5.45,1.65c1.45,1.29,2.14,3.53,1.28,5.28c-0.64,1.3-1.96,2.11-3.27,2.72
					C87.61,92.95,82.51,93.65,78.48,93.15z"/>
			</g>
			<g>
				<path class="st682" d="M66.08,99.72c-0.48-0.94-1.41-1.66-2.46-1.82c-1.05-0.16-2.17,0.27-2.81,1.11
					c-0.64,0.84-0.73,2.08-0.17,2.98c0.55,0.9,1.74,1.38,2.75,1.07L66.08,99.72z"/>
			</g>
			<g>
				<path class="st680" d="M63.35,102.22c-0.58,0-1.11-0.23-1.45-0.64c-0.44-0.53-0.46-1.34-0.05-1.83
					c0.28-0.33,0.73-0.52,1.22-0.51c0.35,0.01,0.71,0.12,1.11,0.33l-0.41,0.78c-0.28-0.15-0.52-0.22-0.72-0.23
					c-0.21-0.01-0.41,0.07-0.51,0.19c-0.14,0.17-0.12,0.5,0.05,0.7c0.18,0.22,0.51,0.34,0.87,0.31l0.07,0.88
					C63.46,102.22,63.4,102.22,63.35,102.22z"/>
			</g>
			<g>
				<path class="st680" d="M75.47,101.11c-0.46,0-0.92-0.15-1.29-0.42l0.53-0.71c0.28,0.21,0.66,0.3,1.01,0.22
					c0.35-0.07,0.66-0.3,0.84-0.6l0.76,0.44c-0.3,0.52-0.83,0.9-1.43,1.03C75.75,101.09,75.61,101.11,75.47,101.11z"/>
			</g>
			<g>
				<path class="st680" d="M82.89,100.05c-0.46,0-0.92-0.15-1.29-0.42l0.53-0.71c0.28,0.21,0.66,0.3,1.01,0.22
					c0.35-0.07,0.66-0.3,0.84-0.6l0.76,0.44c-0.3,0.52-0.83,0.9-1.43,1.03C83.17,100.03,83.03,100.05,82.89,100.05z"/>
			</g>
			<g>
				<path class="st676" d="M114.88,183.72l-11.2,2.6h0l-42.43,12.06l-5.31,1.82l-7.59,2.6c-2.16-14.48-4.97-32.61-3.48-47.17
					c0.9-8.76,3.35-17.8,9.57-24.25c0.68-0.71,1.42-1.37,2.21-1.99c0.01-0.01,0.03-0.02,0.04-0.03c0.07-0.05,0.13-0.11,0.2-0.16
					c5.6-4.3,13.41-6.2,19.87-3.81c0.86,0.32,1.7,0.71,2.5,1.19c3.43,2.02,5.92,5.22,7.72,8.72v0c0.29,0.56,0.56,1.12,0.81,1.69
					c1.83,4.13,2.87,8.54,4.3,12.81C96.43,162.78,104.38,174.6,114.88,183.72z"/>
			</g>
			<g>
				<path class="st680" d="M114.59,184.06c-10.61-9.21-18.54-21.01-22.92-34.1l0.84-0.28c4.33,12.95,12.16,24.61,22.66,33.72
					L114.59,184.06z"/>
			</g>
			<g class="st582">
				<path class="st680" d="M60.12,134.05c-0.47-1.74-1.6-3.38-3.26-4.57c-0.05-0.04-0.11-0.08-0.17-0.12
					c-0.01,0.01-0.03,0.02-0.04,0.03c-0.78,0.62-1.52,1.28-2.21,1.99c-6.23,6.45-8.67,15.49-9.57,24.25
					c-1.49,14.56,1.31,32.68,3.48,47.17l7.59-2.6c0.12-0.71,0.28-1.41,0.44-2.09c0.84-3.42,1.9-7.03,1.67-10.44
					c-0.12-1.8-0.6-3.54-1.65-5.18c-1.75-2.72-3.98-4.79-4.86-8.5c-1.44-6.05,2.85-11.01,2.48-16.84c-0.03-0.44-0.08-0.88-0.17-1.33
					c-0.53-2.76-2.65-5.42-1.97-8.16c0.81-3.25,5.15-5.15,7.26-8.02c0.25-0.34,0.46-0.7,0.63-1.06
					C60.44,137.14,60.53,135.56,60.12,134.05z"/>
			</g>
		</g>
		<g>
			<g>
				<path class="st680" d="M265.92,157.53c-3.18-1.69-4.66-5.69-4.54-9.37c0.12-3.68,1.54-7.17,2.83-10.6
					c1.29-3.44,2.49-7.05,2.17-10.72c-0.35-3.89-2.4-7.54-2.26-11.44c0.2-5.51,4.63-9.85,6.19-15.13c1.34-4.5,1.58-9.64,2.75-14.19
					c2.01-7.84,8.66-14.67,16.89-10.89c3.26-2.22,8.12-2.53,11.4-0.34c4.72,3.16,6.15,9.76,10.47,13.47
					c2.97,2.55,7.12,3.57,9.57,6.65c2.24,2.82,2.54,6.75,2.45,10.39c-0.09,3.64-0.46,7.4,0.76,10.82c1.3,3.65,4.22,6.39,6.23,9.68
					c3.54,5.8,3.95,13.7,0.34,19.44c-3.61,5.75-11.39,8.57-17.45,5.73"/>
			</g>
			<g>
				<path class="st679" d="M234.37,197.89c-0.45-1.25-0.72-2.47-1.18-3.72c-0.28-0.76-0.02-1.63,0.66-2.08
					c8.07-5.48,16.14-11.31,21.62-19.35c4.5-6.6,7.01-14.31,10.27-21.6c3.26-7.29,9.27-16.98,14.48-18.6
					c2.84-0.88,6.53,0.05,8.33,2.42c1.8,2.37,2.44,5.41,2.71,8.37c1.29,14.5-5.73,28.98-16.49,38.8
					c-10.41,9.49-24.52,14.21-38.39,16.9C235.52,199.2,234.67,198.71,234.37,197.89z"/>
			</g>
			<g>
				<path class="st678" d="M313.08,128.67c-0.13,0.31-0.38,0.52-0.62,0.7c-3.57,2.74-7.9,4.02-12.28,3.62
					c-1.48-0.14-3-0.47-4.39-1.3c-1.39-0.83-4.17-1.99-4.17-1.99s-0.34-13.1-0.39-13.86c-0.09-1.38-0.18-2.76-0.27-4.15l0,0
					c-0.07-1.02-0.13-2.03-0.19-3.04c-0.02-0.37-0.06-0.74-0.09-1.12c-0.08-0.84-0.16-1.7-0.14-2.5c0.03-0.79,0.29-1.16,0.67-1.62
					c0.11-0.13,0.22-0.26,0.34-0.41c0.62-0.77,1.26-1.53,1.95-2.21c0.63-0.62,1.3-1.18,2.02-1.63c0.06-0.04,0.12-0.07,0.19-0.1
					c0.9-0.42,2.71-0.52,4.57-0.5c2.79,0.03,4.84-1.1,4.84-1.1l4.11,14.66l0.34,1.37l3.23,12.93
					C312.81,126.42,313.36,128.02,313.08,128.67z"/>
			</g>
			<g>
				<path class="st678" d="M277.11,104.76c0.03,0.09,0.06,0.19,0.09,0.28c1.17,3.34,3.84,6.51,7.37,7.36
					c0.29,0.07,0.58,0.12,0.88,0.16c2.89,0.36,5.81-0.86,8.04-2.74c1.63-1.37,2.94-3.05,4.11-4.83c0.43-0.66,0.85-1.33,1.25-2.01
					c0,0,10.33,9.13,8.58,2.55c-2.7-10.14-5.19-19.91-13.78-23.86c-5.83-2.68-12.73,0.5-15.52,6.27c-1.46,3.03-2.17,6.86-2.07,10.55
					C276.14,100.69,276.48,102.84,277.11,104.76z"/>
			</g>
			<g>
				<path class="st679" d="M292.54,99.04c0.27,1.67,1.85,2.81,3.52,2.54s2.81-1.85,2.54-3.52c-0.27-1.67-1.85-2.81-3.52-2.54
					C293.4,95.79,292.27,97.37,292.54,99.04z"/>
			</g>
			<g>
				<path class="st679" d="M277.11,104.76c0.16,0,0.33-0.02,0.49-0.04c1.75-0.28,2.95-1.94,2.66-3.69
					c-0.28-1.75-1.94-2.94-3.69-2.66c-0.17,0.03-0.34,0.07-0.5,0.12C276.14,100.69,276.48,102.84,277.11,104.76z"/>
			</g>
			<g>
				<path class="st680" d="M285.74,98.65c-0.39,0-0.76-0.16-1.04-0.44c-0.33-0.34-0.48-0.82-0.39-1.29
					c0.21-1.11,0.47-2.19,0.81-3.68l0.86,0.2l0,0c-0.35,1.48-0.6,2.55-0.81,3.65c-0.04,0.19,0.02,0.37,0.15,0.5
					c0.13,0.14,0.31,0.19,0.5,0.16l0.91-0.15l0.15,0.87l-0.91,0.15C285.9,98.65,285.82,98.65,285.74,98.65z"/>
			</g>
			<g>
				<path class="st680" d="M288.57,93.76c0.06,0.4,0.44,0.67,0.84,0.6c0.4-0.06,0.67-0.44,0.6-0.84c-0.06-0.4-0.44-0.67-0.84-0.6
					C288.78,92.99,288.51,93.36,288.57,93.76z"/>
			</g>
			<g>
				<path class="st680" d="M281.14,93.63c0.06,0.4,0.44,0.67,0.84,0.6s0.67-0.44,0.6-0.84c-0.06-0.4-0.44-0.67-0.84-0.6
					C281.35,92.85,281.08,93.23,281.14,93.63z"/>
			</g>
			<g>
				<path class="st679" d="M283.46,101.28c0,0.01,0,0.02,0.01,0.03c0.31,1.15,0.86,2.1,1.99,2.6c0.96,0.42,2.1,0.23,2.99-0.34
					c0.84-0.54,1.39-1.56,1.46-2.52c0.02-0.33-0.02-0.67-0.09-1c-0.02-0.1-0.05-0.19-0.07-0.28c-0.09-0.31-0.45-0.46-0.74-0.29
					c-1.49,0.9-3.28,1.33-5.02,1.2C283.64,100.63,283.37,100.95,283.46,101.28z"/>
			</g>
			<g>
				<path class="st684" d="M300.16,92.92c0.36-1,1.19-1.82,2.21-2.11c1.02-0.29,2.19-0.01,2.93,0.75c0.74,0.76,0.98,1.97,0.54,2.94
					c-0.44,0.96-1.55,1.58-2.6,1.4L300.16,92.92z"/>
			</g>
			<g>
				<path class="st680" d="M303.02,95.08l-0.04-0.88c0.35-0.02,0.67-0.18,0.82-0.42c0.14-0.22,0.12-0.55-0.04-0.7
					c-0.12-0.11-0.32-0.16-0.53-0.13c-0.21,0.03-0.43,0.14-0.69,0.32l-0.51-0.72c0.37-0.26,0.72-0.41,1.06-0.47
					c0.48-0.07,0.95,0.06,1.27,0.35c0.47,0.44,0.55,1.24,0.18,1.83C304.23,94.74,303.66,95.04,303.02,95.08z"/>
			</g>
			<g>
				<path class="st679" d="M315.37,202.52c-0.29,0.82-0.58,1.65-0.87,2.46c-1.62,4.46-3.38,8.79-5.2,12.94l-55.34-26.13
					c8.29-14.95,14.85-30.86,19.49-47.32c1.14-4.06,2.81-8.16,4.74-11.91c3.46-6.71,9.19-10.02,16.49-11.19
					c3.76-0.6,7.26,0.04,10.39,1.52c1.23,0.58,2.41,1.3,3.52,2.12c4.3,3.16,7.65,7.91,9.71,12.85
					C326.54,157.64,322.74,181.29,315.37,202.52z"/>
			</g>
			<g>
				<path class="st680" d="M254.34,192l-0.77-0.43c8.27-14.91,14.82-30.8,19.45-47.23l0.85,0.24
					C269.21,161.08,262.64,177.03,254.34,192z"/>
			</g>
			<g class="st582">
				<path class="st680" d="M315.37,202.52c-2.65-2.9-4.5-6.5-5.46-10.33c-1.43-5.71-0.87-11.93,2.01-17.08
					c1.34-2.4,3.11-4.56,4.32-7.03c0.81-1.66,1.35-3.55,1.28-5.38c-0.04-0.89-0.22-1.77-0.59-2.59c-1.22-2.73-4.29-4.55-4.73-7.51
					c-0.54-3.62,3.13-6.5,3.89-10.09c0.63-2.99-0.85-6.01-2.6-8.53c-1.74-2.51-3.84-4.89-4.68-7.83c-0.11-0.37-0.18-0.76-0.23-1.15
					c4.3,3.16,7.65,7.91,9.71,12.85C326.54,157.64,322.74,181.29,315.37,202.52z"/>
			</g>
			<g>
				<path class="st680" d="M308.29,99.69c-0.02-8.25-5.47-16.03-12.91-19.59c-2.35-1.12-4.92-1.87-7.52-1.74
					c-3.5,0.18-6.8,1.98-9.2,4.53c-2.4,2.55-3.56,6.15-4.54,9.51c4.81,0.1,9.59-2.53,12.07-6.66c1.54,4.4,8.6,6.22,10.08,6.64
					c1.48,0.42,2.97,1.11,3.89,2.35c1.39,1.88,1.11,4.53,0.3,6.72c-1.74,4.72-5.55,8.55-6.74,13.43c-1.04,4.26,0.15,8.96,2.96,12.33
					c2.2,2.64,5.73,3.22,9.11,3.81c3.39,0.59,6.93,1.09,9.77,3.04c1.42,0.97,2.59,2.26,3.99,3.27c1.39,1,3.15,1.72,4.82,1.31"/>
			</g>
		</g>
		<g>
			<g>
				<g>
					<defs>
						<path id="SVGID_4_" d="M205.1,205.1l4.13,1.56l35.17,13.29l3.37,1.27l20.74-6.18c1.19-0.36,1.25-2.03,0.09-2.47l-39.66-14.87
							c-0.28-0.1-0.57-0.11-0.86-0.02L205.1,205.1z"/>
					</defs>
					<use xlink:href="#SVGID_4_"  style="overflow:visible;fill:#09293D;"/>
					<clipPath id="SVGID_25_">
						<use xlink:href="#SVGID_4_"  style="overflow:visible;"/>
					</clipPath>
				</g>
				<g>
					<path class="st680" d="M247.77,221.23l-5.53-29.17c-0.12-0.62-0.56-1.14-1.17-1.34l-39.48-13.48c-1.31-0.45-2.6,0.71-2.3,2.06
						l5.81,25.8L247.77,221.23z"/>
				</g>
				<g>
					<path class="st685" d="M221.59,196.32c-0.45-0.11-0.89-0.17-1.31-0.17c-0.57,0-1.16,0.19-1.53,0.62
						c-0.35,0.4-0.46,0.98-0.36,1.51c0.31,1.75,2.36,3.1,4.04,3.19c1.1,0.06,2.69-0.43,2.94-1.67c0.17-0.84-0.36-1.69-1.05-2.2
						C223.56,197.04,222.57,196.56,221.59,196.32z"/>
				</g>
			</g>
			<g>
				<g>
					<path class="st680" d="M98.3,213.27l15.53-11.73c0.67-0.5,1.59-0.47,2.22,0.08l23.06,20.04c0.79,0.69,0.81,1.91,0.04,2.63
						l-20.04,18.65c-0.79,0.74-2.05,0.6-2.66-0.29l-18.56-26.96C97.37,214.9,97.55,213.84,98.3,213.27z"/>
				</g>
				<g>
					<g>
						<path class="st680" d="M112.9,211.91l18.81-13.72c0.57-0.42,1.34-0.45,1.95-0.09l37.56,22.37c1.03,0.61,1.16,2.05,0.27,2.84
							l-22.66,20c-0.66,0.58-1.64,0.59-2.31,0.02l-33.71-28.66C111.93,213.94,111.98,212.58,112.9,211.91z"/>
					</g>
					<g>
						<path class="st685" d="M143.4,229.15l-11.11-9.45l6.81-4.97l12.32,7.34L143.4,229.15z M133.72,219.75l9.67,8.23l6.54-5.77
							l-10.78-6.42L133.72,219.75z"/>
					</g>
					<g>
						<path class="st685" d="M142.31,220.95l-7.94-6.75l4.95-3.61l8.8,5.24L142.31,220.95z M135.79,214.25l6.5,5.53l4.32-3.81
							l-7.26-4.32L135.79,214.25z"/>
					</g>
				</g>
			</g>
			<g>
				<g>
					<path class="st680" d="M280.46,226.88c0.15,1.5,1.05,2.86,2.2,3.85c1.15,0.99,2.53,1.65,3.91,2.26l0.48-1.1
						c-0.35-0.15-0.72-0.32-1.09-0.5c-0.88-0.42-1.78-0.93-2.52-1.57c-0.92-0.79-1.97-1.96-1.79-3.28c0.03-0.26,0.22-0.34,0.45-0.25
						c0.37,0.15,0.74,0.53,1.1,0.89l0.86-0.84c-0.45-0.46-0.92-0.93-1.51-1.17c-0.6-0.24-1.36-0.18-1.78,0.31
						C280.46,225.84,280.41,226.38,280.46,226.88z"/>
				</g>
				<g>
					<path class="st680" d="M299.74,225.79c-1.7,1.69-4.86,2.29-7.55,2.25c-2.54-0.04-5.61-0.45-7.82-1.78
						c-0.89-0.54-1.58-1.34-1.7-2.4c-0.14-1.2,0.62-2.36,1.62-3.03c1.55-1.04,3.67-1.34,5.49-1.53c2.41-0.25,5.09-0.21,7.38,0.64
						C299.62,220.84,302.11,223.43,299.74,225.79z"/>
				</g>
				<g>
					<path class="st680" d="M282.63,223.73c0.05,2.59,0.43,4.99,1.36,7.41c0.6,1.58,1.44,3.17,2.85,4.12
						c1.49,1.01,3.4,1.16,5.21,1.12h-0.74c1.8,0.04,3.71-0.11,5.21-1.12c1.4-0.95,2.25-2.53,2.85-4.12
						c0.92-2.42,1.31-4.82,1.36-7.41"/>
				</g>
				<g>
					<path class="st685" d="M284.43,223.8c0.1,0.85,0.64,1.49,1.34,1.92c0.01,0.01,0.02,0.01,0.03,0.02
						c1.78,1.07,4.25,1.41,6.29,1.44c1.97,0.03,4.24-0.36,5.67-1.46c0.15-0.11,0.28-0.23,0.41-0.35c1.91-1.9-0.1-3.98-2.08-4.71
						c-1.85-0.68-4-0.72-5.94-0.52c-1.47,0.15-3.17,0.39-4.42,1.23C284.93,221.9,284.32,222.84,284.43,223.8z"/>
				</g>
				<g>
					<path class="st679" d="M285.77,225.72c0.01,0.01,0.02,0.01,0.03,0.02c1.78,1.07,4.25,1.41,6.29,1.44
						c1.97,0.03,4.24-0.36,5.67-1.46c-2.12-1.5-4.86-2.08-7.44-1.7C288.7,224.26,287.16,224.86,285.77,225.72z"/>
				</g>
				<g class="st390">
					<defs>
						<path id="SVGID_3_" class="st390" d="M282.63,223.73c0.05,2.59,0.43,4.99,1.36,7.41c0.6,1.58,1.44,3.17,2.85,4.12
							c1.49,1.01,3.4,1.16,5.21,1.12h-0.74c1.8,0.04,3.71-0.11,5.21-1.12c1.4-0.95,2.25-2.53,2.85-4.12
							c0.92-2.42,1.31-4.82,1.36-7.41"/>
					</defs>
					<clipPath id="SVGID_26_">
						<use xlink:href="#SVGID_3_"  style="overflow:visible;"/>
					</clipPath>
				</g>
			</g>
			<g>
				<g>
					<path class="st680" d="M153.31,186.93l21.61,4.54c1.36,0.28,2.69-0.58,2.97-1.94l0,0l-26.52-5.57l0,0
						C151.09,185.31,151.96,186.64,153.31,186.93z"/>
				</g>
				<g>
					<path class="st680" d="M169.64,186.43l7.22,1.52c0.72,0.15,1.18,0.86,1.03,1.58l0,0l-9.83-2.06l0,0
						C168.22,186.74,168.92,186.28,169.64,186.43z"/>
				</g>
			</g>
			<g>
				<g>
					<path class="st680" d="M185.92,194.16l-21.46,5.2c-1.35,0.33-2.18,1.68-1.85,3.03l0,0l26.34-6.39l0,0
						C188.63,194.66,187.27,193.83,185.92,194.16z"/>
				</g>
				<g>
					<path class="st680" d="M171.4,201.63l-7.17,1.74c-0.72,0.17-1.44-0.27-1.61-0.98l0,0l9.76-2.37l0,0
						C172.55,200.74,172.11,201.46,171.4,201.63z"/>
				</g>
			</g>
		</g>
		<g class="st585">
			<defs>
				<path id="SVGID_2_" class="st585" d="M247.77,221.23l-5.58-29.43c-0.09-0.46-0.41-0.84-0.86-0.99l-40.53-13.83
					c-0.96-0.33-1.91,0.52-1.69,1.52l5.99,26.61L247.77,221.23z"/>
			</defs>
			<clipPath id="SVGID_27_">
				<use xlink:href="#SVGID_2_"  style="overflow:visible;"/>
			</clipPath>
		</g>
		<g>
			<g>
				<path class="st678" d="M264.41,208.14c-3.34-0.56-6.8-0.34-10.05,0.62c-0.47,0.14-0.53,0.79-0.08,1
					c0.55,0.26,0.95,0.28,1.77,0.3c-2.3,0.34-3.9,0.73-7.51,2.57c-0.63,0.32-1.06,0.97-1.05,1.68c0.01,1.18,1.1,1.44,2.01,1.53
					c5.91,0.61,12.01-0.62,17.23-3.47L264.41,208.14z"/>
			</g>
			<g>
				<path class="st679" d="M308.52,190.35c-0.48,0.44-0.97,0.88-1.48,1.3c-12.37,10.19-25.65,16.57-39.22,21.6
					c-0.89,0.33-1.88-0.09-2.24-0.96c-0.68-1.63-1.34-2.61-2.02-4.32c-0.29-0.73-0.06-1.57,0.56-2.05
					c7.35-5.65,14.45-12.22,20.98-19.15c0.99-1.05,1.92-2.15,2.79-3.3C294.85,185.56,301.73,187.86,308.52,190.35z"/>
			</g>
			<g>
				<path class="st680" d="M271.79,212.21l-0.32-0.82c4.62-1.82,8.79-3.65,12.75-5.62c8.43-4.18,15.81-8.91,22.54-14.46
					c4.61-3.79,8.21-8.81,11.34-15.79l0.81,0.36c-3.19,7.11-6.87,12.23-11.58,16.11c-6.79,5.59-14.22,10.36-22.71,14.57
					C280.63,208.54,276.44,210.38,271.79,212.21z"/>
			</g>
			<g>
				<path class="st680" d="M282.87,189.72l-0.63-0.62c0.83-0.85,1.65-1.71,2.46-2.56c6.37-6.76,10.33-15.56,11.15-24.8l0.15-1.65
					l0.88,0.08l-0.15,1.65c-0.84,9.43-4.88,18.42-11.38,25.32C284.53,188,283.7,188.87,282.87,189.72z"/>
			</g>
		</g>
		<g>
			<g>
				<path class="st682" d="M95.23,210.59c3.38,0.22,6.71,1.22,9.66,2.89c0.43,0.24,0.32,0.88-0.16,0.99
					c-0.59,0.13-0.99,0.06-1.79-0.11c2.16,0.86,3.63,1.6,6.72,4.21c0.57,0.48,0.83,1.26,0.61,1.98c-0.32,1.05-1.4,1.04-2.28,0.93
					c-5.9-0.75-11.55-3.33-15.98-7.3L95.23,210.59z"/>
			</g>
			<g>
				<path class="st676" d="M96.07,210.79c-0.91,1.78-1.67,2.72-2.56,4.33c-0.48,0.88-1.6,1.18-2.46,0.66
					c-1.43-0.86-2.84-1.74-4.25-2.64c-10.1-6.48-19.75-14.26-28.34-24.95c-0.14-0.17-0.28-0.35-0.41-0.52
					c-0.12-1.8-0.6-3.54-1.65-5.18c-1.75-2.72-3.98-4.79-4.86-8.5c-1.44-6.05,2.85-11.01,2.48-16.84l18.95-0.4l-0.15,2.33
					c-0.62,9.45,1.59,18.75,6.25,26.41c4.13,6.78,8.66,13.36,13.49,19.38c1.08,1.35,2.18,2.67,3.29,3.96
					C96.3,209.37,96.4,210.15,96.07,210.79z"/>
			</g>
			<g>
				<path class="st680" d="M72.41,203.13c-5.34-4.53-10.02-9.32-14.3-14.66c-4.06-5.06-6.83-11.58-8.72-20.53l0.86-0.18
					c1.85,8.81,4.57,15.21,8.54,20.16c4.25,5.29,8.89,10.04,14.18,14.54L72.41,203.13z"/>
			</g>
			<g>
				<path class="st680" d="M78.68,185.72c-4.69-7.71-6.93-17.18-6.31-26.67l0.15-2.33l0.88,0.06l-0.15,2.33
					c-0.61,9.31,1.59,18.6,6.19,26.15L78.68,185.72z"/>
			</g>
			<g>
				<path class="st679" d="M96.07,210.79c-0.91,1.78-1.67,2.72-2.56,4.33c-0.48,0.88-1.6,1.18-2.46,0.66
					c-1.43-0.86-2.84-1.74-4.25-2.64c1.68-2.91,3.61-5.68,5.74-8.28c1.08,1.35,2.18,2.67,3.29,3.96
					C96.3,209.37,96.4,210.15,96.07,210.79z"/>
			</g>
		</g>
	</g>
</g>
</svg>
