<?xml version="1.0" encoding="utf-8"?>
<!-- Generator: Adobe Illustrator 25.0.0, SVG Export Plug-In . SVG Version: 6.00 Build 0)  -->
<svg version="1.1" id="Layer_1" xmlns="http://www.w3.org/2000/svg" xmlns:xlink="http://www.w3.org/1999/xlink" x="0px" y="0px"
	 viewBox="0 0 240 233" style="enable-background:new 0 0 240 233;" xml:space="preserve">
<style type="text/css">
	.st0{clip-path:url(#SVGID_6_);fill:url(#SVGID_8_);}
	.st1{opacity:0.06;clip-path:url(#SVGID_6_);}
	.st2{opacity:0.06;}
	.st3{clip-path:url(#SVGID_25_);}
	.st4{fill:#90C8E2;}
	.st5{fill:#8AC5DF;}
	.st6{fill:#EAEEF0;}
	.st7{fill:#EBEFF0;}
	.st8{fill:#97C9DD;}
	.st9{fill:#E6EEEF;}
	.st10{fill:#B9DCF0;}
	.st11{fill:#B8DAF0;}
	.st12{fill:#56ACCF;}
	.st13{fill:#B8DCF0;}
	.st14{fill:#C7E0EE;}
	.st15{fill:#E8F0F0;}
	.st16{fill:#9CD1EA;}
	.st17{fill:#B8DBF0;}
	.st18{fill:#A1CFFF;}
	.st19{fill:#E8ECED;}
	.st20{fill:#BFDDE8;}
	.st21{fill:#55ACCE;}
	.st22{fill:#55AACB;}
	.st23{fill:#78BAD6;}
	.st24{fill:#74B9D4;}
	.st25{fill:#B8DBEF;}
	.st26{fill:#56ABCE;}
	.st27{fill:#7BB9D4;}
	.st28{fill:#58AACD;}
	.st29{fill:#55ACCF;}
	.st30{fill:#9CD1EB;}
	.st31{fill:#99CFE8;}
	.st32{fill:#A7D4EC;}
	.st33{fill:#E6EAEB;}
	.st34{fill:#EAEFF0;}
	.st35{fill:#BEDFED;}
	.st36{fill:#DEEAF1;}
	.st37{fill:#E9EEF1;}
	.st38{fill:#E8EFED;}
	.st39{fill:#54ABCC;}
	.st40{fill:#CAE4F3;}
	.st41{fill:#C7E3F3;}
	.st42{fill:#F4F4F3;}
	.st43{fill:#F4F4F4;}
	.st44{fill:#BADCF0;}
	.st45{fill:#55AACE;}
	.st46{fill:#56ABCF;}
	.st47{fill:#53ABCF;}
	.st48{fill:#9BD2EB;}
	.st49{fill:#B3DCF0;}
	.st50{fill:#B2D9EF;}
	.st51{fill:#E9EDEE;}
	.st52{fill:#81C0D8;}
	.st53{fill:#EBEEF0;}
	.st54{fill:#54AAD0;}
	.st55{fill:#82BDD6;}
	.st56{fill:#EBEFEF;}
	.st57{fill:#F3F5F2;}
	.st58{fill:#F5F5F4;}
	.st59{fill:#CBE3EF;}
	.st60{fill:#55ABCC;}
	.st61{fill:#B4D8E4;}
	.st62{fill:#54ABCD;}
	.st63{fill:#7EBBD5;}
	.st64{fill:#BEDFEC;}
	.st65{fill:#9BD2EC;}
	.st66{fill:#57A9CE;}
	.st67{fill:#85C2D7;}
	.st68{fill:#BBDAE6;}
	.st69{fill:#F1F2F4;}
	.st70{fill:#E1EDF2;}
	.st71{fill:#E1EBF1;}
	.st72{fill:#9BD1EB;}
	.st73{fill:#8CC6DB;}
	.st74{fill:#A6CFDF;}
	.st75{fill:#E7EEF2;}
	.st76{fill:#9CD2EC;}
	.st77{fill:#95C9DC;}
	.st78{fill:#5AACCC;}
	.st79{fill:#EAEEEF;}
	.st80{fill:#9AD2EC;}
	.st81{fill:#F4F5F5;}
	.st82{fill:#EBEEEF;}
	.st83{fill:#95CADB;}
	.st84{fill:#93C8DC;}
	.st85{fill:#55ABCD;}
	.st86{fill:#D6EAEE;}
	.st87{fill:#54AACE;}
	.st88{fill:#B9DBF0;}
	.st89{fill:#BEDDE8;}
	.st90{fill:#A9D5E8;}
	.st91{fill:#A5CFDF;}
	.st92{fill:#ECF0F1;}
	.st93{fill:#A8D1E2;}
	.st94{fill:#A2D3E9;}
	.st95{fill:#E5EDEE;}
	.st96{fill:#E9EFF1;}
	.st97{fill:#9BD1ED;}
	.st98{fill:#BFDEEC;}
	.st99{fill:#8AC3D7;}
	.st100{fill:#FFFEFE;}
	.st101{fill:#BADBF0;}
	.st102{fill:#53ACCE;}
	.st103{fill:#B8DCEC;}
	.st104{fill:#E2ECF0;}
	.st105{fill:#E9EEEF;}
	.st106{fill:#82BDD4;}
	.st107{fill:#A4D4EB;}
	.st108{fill:#E2EEF3;}
	.st109{fill:#CCE4EF;}
	.st110{fill:#7EC2DD;}
	.st111{fill:#A1E8FF;}
	.st112{fill:#AED8EA;}
	.st113{fill:#E3F0F4;}
	.st114{fill:#58ACCE;}
	.st115{fill:#A9D6EC;}
	.st116{fill:#C2E0EE;}
	.st117{fill:#D7E7EF;}
	.st118{fill:#9BD1EC;}
	.st119{fill:#49C7D0;}
	.st120{fill:#F4F4F2;}
	.st121{fill:#DFEDF3;}
	.st122{fill:#9FD4EA;}
	.st123{fill:#9CD1EC;}
	.st124{fill:#9ED4EE;}
	.st125{fill:#E8F3F7;}
	.st126{fill:#E5F1F4;}
	.st127{fill:#7BBFDC;}
	.st128{fill:#54ABCF;}
	.st129{fill:#F1F7FA;}
	.st130{fill:#B9DBEF;}
	.st131{fill:#EAEEEE;}
	.st132{fill:#A9D5ED;}
	.st133{fill:#94CBE3;}
	.st134{fill:#B8D8EB;}
	.st135{fill:#84C2D7;}
	.st136{fill:#F1F3F3;}
	.st137{fill:#B8D7E8;}
	.st138{fill:#A3D3EC;}
	.st139{fill:#F3F4F4;}
	.st140{fill:#F0F7F9;}
	.st141{fill:#C5E0F0;}
	.st142{fill:#55A9CC;}
	.st143{fill:#B2D9E5;}
	.st144{fill:#56ABCD;}
	.st145{fill:#B7DCEF;}
	.st146{fill:#99C0E5;}
	.st147{fill:#A7D3E9;}
	.st148{fill:#B5D9F1;}
	.st149{fill:#84C1DC;}
	.st150{fill:#80C0DB;}
	.st151{fill:#F0F0F0;}
	.st152{fill:#AED4E6;}
	.st153{fill:#B7DCF0;}
	.st154{fill:#A5D3E7;}
	.st155{fill:#F5F4F5;}
	.st156{fill:#EBEFED;}
	.st157{fill:#BADBEE;}
	.st158{fill:#89C5DD;}
	.st159{fill:#55ABCF;}
	.st160{fill:#53ABCE;}
	.st161{fill:#73BCD9;}
	.st162{fill:#ACD5EC;}
	.st163{fill:#A5D4EA;}
	.st164{fill:#8FC8DF;}
	.st165{fill:#B1D9F2;}
	.st166{fill:#BAD8EB;}
	.st167{fill:#9AD0EB;}
	.st168{fill:#D9EAF1;}
	.st169{fill:#F5F4F2;}
	.st170{fill:#D4E6F1;}
	.st171{fill:#CCE2EF;}
	.st172{fill:#56AACD;}
	.st173{fill:#55ABCE;}
	.st174{fill:#BADAF0;}
	.st175{fill:#B9DAF2;}
	.st176{fill:#C9E2F1;}
	.st177{fill:#DBE9F0;}
	.st178{fill:#C6E1EB;}
	.st179{fill:#B1D9EC;}
	.st180{fill:#A3D2EB;}
	.st181{fill:#9ED2EA;}
	.st182{fill:#9FD3ED;}
	.st183{fill:#E0EAEF;}
	.st184{fill:#BDDCEF;}
	.st185{fill:#E7EDF1;}
	.st186{fill:#57ABCD;}
	.st187{fill:#B8DBF1;}
	.st188{fill:#ACD6EB;}
	.st189{fill:#B7DBEE;}
	.st190{fill:#F3F5F3;}
	.st191{fill:#F5F4F4;}
	.st192{fill:#C4DFEF;}
	.st193{fill:#E9EFEF;}
	.st194{fill:#7BBFD6;}
	.st195{fill:#B9DDED;}
	.st196{fill:#9FD1E9;}
	.st197{fill:#F4F5F4;}
	.st198{fill:#A5D3EA;}
	.st199{fill:#E4EDED;}
	.st200{fill:#E8EFEE;}
	.st201{fill:#EAF0F0;}
	.st202{fill:#ECEEF0;}
	.st203{fill:#85C0D5;}
	.st204{fill:#55ABCB;}
	.st205{fill:#B9DBF1;}
	.st206{fill:#A8D4E8;}
	.st207{fill:#B3DAEF;}
	.st208{fill:#B9DAF1;}
	.st209{fill:#F2F2F3;}
	.st210{fill:#F5F5F5;}
	.st211{fill:#F5F3F7;}
	.st212{fill:#9BCDDB;}
	.st213{fill:#DCEAF1;}
	.st214{fill:#A2D3EB;}
	.st215{fill:#DAEAF0;}
	.st216{fill:#E9EEF0;}
	.st217{fill:#D6E7F1;}
	.st218{fill:#DEE9F0;}
	.st219{fill:#F9F9FA;}
	.st220{fill:#CCE1E9;}
	.st221{fill:#B8DAEF;}
	.st222{fill:#A0D1EB;}
	.st223{fill:#B9DBEE;}
	.st224{fill:#C2E0EF;}
	.st225{fill:#E7EFF1;}
	.st226{fill:#D1E6EF;}
	.st227{fill:#E7EDEF;}
	.st228{fill:#D5E7EE;}
	.st229{fill:#92C7DA;}
	.st230{fill:#EAEEED;}
	.st231{fill:#E3EAF0;}
	.st232{fill:#B4DAEF;}
	.st233{fill:#ECF1F3;}
	.st234{fill:#E8EFF0;}
	.st235{fill:#9ED0E8;}
	.st236{fill:#B8DEEE;}
	.st237{fill:#B8DBEC;}
	.st238{fill:#9FD2EA;}
	.st239{fill:#F2F4F3;}
	.st240{fill:#E0EBF3;}
	.st241{fill:#BCDCF1;}
	.st242{fill:#BDDDEE;}
	.st243{fill:#C6E1EE;}
	.st244{fill:#97CBE3;}
	.st245{fill:#B1D9F0;}
	.st246{fill:#E7EBED;}
	.st247{fill:#F3F4F5;}
	.st248{fill:#99D2ED;}
	.st249{fill:#F1F4F6;}
	.st250{fill:#54ABCE;}
	.st251{fill:#E7EEF1;}
	.st252{fill:#DFECF3;}
	.st253{fill:#ACD9EB;}
	.st254{fill:#9ED1E9;}
	.st255{fill:#E3EBEF;}
	.st256{fill:#86C2D8;}
	.st257{fill:#B8DCEB;}
	.st258{fill:#7EBED8;}
	.st259{fill:#55AACC;}
	.st260{fill:#EAEFEF;}
	.st261{fill:#D5E9F3;}
	.st262{fill:#C8E1EF;}
	.st263{fill:#A0D4EB;}
	.st264{fill:#ABD7EB;}
	.st265{fill:#ECF4F5;}
	.st266{fill:#EEF1F5;}
	.st267{fill:#7CC1DE;}
	.st268{fill:#E3EAEA;}
	.st269{fill:#DDE7EA;}
	.st270{fill:#9AD0EA;}
	.st271{fill:#C9E3EF;}
	.st272{fill:#EBEDEF;}
	.st273{fill:#B7DCF1;}
	.st274{fill:#E5EEF5;}
	.st275{fill:#B7DBEF;}
	.st276{fill:#70BAD5;}
	.st277{fill:#9AD3EC;}
	.st278{fill:#79BFDB;}
	.st279{fill:#E7EBEC;}
	.st280{fill:#8ECAE5;}
	.st281{fill:#AED6ED;}
	.st282{fill:#76BEDA;}
	.st283{fill:#58ACCD;}
	.st284{fill:#CFE4EC;}
	.st285{fill:#E6F1F3;}
	.st286{fill:#A2D2EE;}
	.st287{fill:#91CBE7;}
	.st288{fill:#E1EAEE;}
	.st289{fill:#B6DAED;}
	.st290{fill:#C0DFEE;}
	.st291{fill:#B9DAEE;}
	.st292{fill:#55ABD0;}
	.st293{fill:#7CBFDA;}
	.st294{fill:#87C5E0;}
	.st295{fill:#E9EFEC;}
	.st296{fill:#BBDBF0;}
	.st297{fill:#BADBEF;}
	.st298{fill:#A7D5EE;}
	.st299{fill:#7DC1DF;}
	.st300{fill:#E1ECF2;}
	.st301{fill:#88C6E1;}
	.st302{fill:#DEEFF3;}
	.st303{fill:#86C6E2;}
	.st304{fill:#A6D4EE;}
	.st305{fill:#CDE4EF;}
	.st306{fill:#CEE3F0;}
	.st307{fill:#9BD2EA;}
	.st308{fill:#A2D0E0;}
	.st309{fill:#FDFEFC;}
	.st310{fill:#FEFDFD;}
	.st311{fill:#ABD7EE;}
	.st312{fill:#90CCE9;}
	.st313{fill:#C9E2EF;}
	.st314{fill:#E7EFF2;}
	.st315{fill:#ABD4E4;}
	.st316{fill:#89C2DA;}
	.st317{fill:#71BCD7;}
	.st318{fill:#AFD7ED;}
	.st319{fill:#A5D4E2;}
	.st320{fill:#81C3DC;}
	.st321{fill:#A9D6ED;}
	.st322{fill:#C4DDE7;}
	.st323{fill:#BADBE4;}
	.st324{fill:#D5E5EB;}
	.st325{fill:#85C3DE;}
	.st326{fill:#57AACE;}
	.st327{fill:#BCDDF0;}
	.st328{fill:#C5E1EA;}
	.st329{fill:#9DD0E9;}
	.st330{fill:#AFD9EF;}
	.st331{fill:#B7DBF0;}
	.st332{fill:#C9DFE5;}
	.st333{fill:#BDDDEC;}
	.st334{fill:#A1CDE2;}
	.st335{fill:#57AACD;}
	.st336{fill:#D8E8EE;}
	.st337{fill:#9CD2EB;}
	.st338{fill:#9DCCDF;}
	.st339{fill:#57ABCF;}
	.st340{fill:#8FC9DF;}
	.st341{fill:#B7DAEE;}
	.st342{fill:#FBFDFC;}
	.st343{fill:#BFDCE6;}
	.st344{fill:#A8D5E9;}
	.st345{fill:#E6EDF0;}
	.st346{fill:#D5E6ED;}
	.st347{fill:#BFDDEE;}
	.st348{fill:#B8DCEF;}
	.st349{fill:#9FCEE4;}
	.st350{fill:#AAD6EC;}
	.st351{fill:#8AC6DB;}
	.st352{fill:#89C7E1;}
	.st353{fill:#9BCFE7;}
	.st354{fill:#EBEDF0;}
	.st355{fill:#85C2DE;}
	.st356{fill:#B8D9EC;}
	.st357{fill:#BCDCEC;}
	.st358{fill:#C6E0EE;}
	.st359{fill:#9BD0EE;}
	.st360{fill:#C8DFE6;}
	.st361{clip-path:url(#SVGID_6_);}
	.st362{fill:#D7CCC8;}
	.st363{fill:#BCAAA4;}
	.st364{fill:#A1887F;}
	.st365{clip-path:url(#SVGID_26_);fill:#F2EEED;}
	.st366{fill:#FEFEFE;}
	.st367{fill:#F9F8F7;}
	.st368{fill:#EFEBE9;}
	.st369{fill:#F2EFED;}
	.st370{clip-path:url(#SVGID_27_);fill:#F2EEED;}
	.st371{clip-path:url(#SVGID_28_);fill:#F2EEED;}
	.st372{clip-path:url(#SVGID_29_);fill:#F2EEED;}
	.st373{opacity:0.35;fill:url(#SVGID_30_);}
	.st374{fill:url(#SVGID_31_);}
	.st375{fill:url(#SVGID_32_);}
	.st376{fill:url(#SVGID_40_);}
	.st377{fill:url(#SVGID_42_);}
	.st378{opacity:0.35;fill:url(#SVGID_44_);}
	.st379{fill:url(#SVGID_46_);}
	.st380{opacity:0.35;}
	.st381{filter:url(#Adobe_OpacityMaskFilter);}
	.st382{mask:url(#SVGID_48_);}
	.st383{fill:#231F20;}
	.st384{fill:url(#SVGID_50_);}
	.st385{fill:url(#SVGID_65_);}
	.st386{opacity:0.28;fill:url(#SVGID_66_);}
	.st387{fill:url(#SVGID_67_);}
	.st388{clip-path:url(#SVGID_6_);fill:#E8E8E8;}
	.st389{fill:#E8E8E8;}
	.st390{opacity:0.3;}
	.st391{fill:#FFFFFF;}
	.st392{fill:#FFCC9A;}
	.st393{fill:#FFB100;}
	.st394{fill:#DEDEDE;}
	.st395{fill:#FFE7C8;}
	.st396{fill:#EF4418;}
	.st397{fill:#9DAE5E;}
	.st398{fill:#FFFFFD;}
	.st399{fill:#FFB701;}
	.st400{clip-path:url(#SVGID_68_);}
	.st401{fill:#FABA8C;}
	.st402{fill:#F59687;}
	.st403{fill:#FDD8B8;}
	.st404{fill:#E75025;}
	.st405{fill:#F37B6F;}
	.st406{fill:#161818;}
	.st407{fill:#FFEFE6;}
	.st408{fill:#F47F38;}
	.st409{fill:#F89D4C;}
	.st410{fill:#2C2C2C;}
	.st411{fill:#AB1F27;}
	.st412{fill:#133358;}
	.st413{fill:#26527A;}
	.st414{fill:#052743;}
	.st415{fill:#EBB635;}
	.st416{fill:#FFD354;}
	.st417{fill:#CB922B;}
	.st418{fill:#FF4B00;}
	.st419{fill:#FEFFFF;}
	.st420{fill:#593219;}
	.st421{clip-path:url(#SVGID_74_);}
	.st422{fill:#F6901E;}
	.st423{fill:#414156;}
	.st424{fill:#312F44;}
	.st425{fill:#5F5F74;}
	.st426{fill:#BC202E;}
	.st427{fill:#EA1F27;}
	.st428{fill:#530D2D;}
	.st429{fill:#3C0F27;}
	.st430{fill:#6F0E32;}
	.st431{clip-path:url(#SVGID_76_);}
	.st432{clip-path:url(#SVGID_76_);fill:none;}
	.st433{clip-path:url(#SVGID_77_);}
	.st434{fill:#1E4258;stroke:#1E4258;stroke-width:10;stroke-miterlimit:10;}
	.st435{fill:#FFD13E;}
	.st436{fill:#9A9A87;}
	.st437{fill:#F7F7EE;}
	.st438{fill:#F2B241;}
	.st439{fill:#ADE4EA;}
	.st440{fill:#1E4258;}
	.st441{fill:#A4B3BE;}
	.st442{fill:#E2E2E2;}
	.st443{fill:#FFB352;}
	.st444{fill:url(#SVGID_78_);}
	.st445{fill:url(#SVGID_79_);}
	.st446{fill:url(#SVGID_80_);}
	.st447{fill:url(#SVGID_81_);}
	.st448{fill:url(#SVGID_82_);}
	.st449{fill:url(#SVGID_83_);}
	.st450{fill:url(#SVGID_84_);}
	.st451{fill:url(#SVGID_85_);}
	.st452{fill:#1E4258;stroke:#1E4258;stroke-width:6;stroke-miterlimit:10;}
	.st453{fill:#E6E6E6;}
	.st454{fill:#CB7256;}
	.st455{fill:#B15A47;}
	.st456{fill:#E0826C;}
	.st457{fill:#9F4F39;}
	.st458{fill:#582121;}
	.st459{fill:#F9E8CA;}
	.st460{fill:#E8CCAC;}
	.st461{fill:#F16531;}
	.st462{fill:#007D7F;}
	.st463{fill:#016868;}
	.st464{fill:#181329;}
	.st465{fill:#445D78;}
	.st466{fill:#313233;}
	.st467{fill:#FC636B;}
	.st468{fill:#004D40;}
	.st469{fill:#26C6DA;}
	.st470{fill:#FFA726;}
	.st471{fill:url(#SVGID_86_);}
	.st472{clip-path:url(#SVGID_6_);fill:#FAFAFA;}
	.st473{opacity:0.35;fill:url(#SVGID_87_);}
	.st474{fill:url(#SVGID_88_);}
	.st475{opacity:0.4;fill:url(#SVGID_89_);}
	.st476{fill:url(#SVGID_90_);}
	.st477{opacity:0.35;fill:url(#SVGID_91_);}
	.st478{fill:url(#SVGID_92_);}
	.st479{opacity:0.2;fill:url(#SVGID_93_);}
	.st480{fill:url(#SVGID_94_);}
	.st481{opacity:0.2;fill:url(#SVGID_95_);}
	.st482{fill:url(#SVGID_96_);}
	.st483{opacity:0.35;fill:url(#SVGID_97_);}
	.st484{fill:url(#SVGID_99_);}
	.st485{fill:url(#SVGID_101_);}
	.st486{fill:url(#SVGID_102_);}
	.st487{opacity:0.35;fill:url(#SVGID_103_);}
	.st488{fill:url(#SVGID_104_);}
	.st489{opacity:0.27;}
	.st490{fill:url(#SVGID_105_);}
	.st491{fill:url(#SVGID_106_);}
	.st492{fill:url(#SVGID_107_);}
	.st493{fill:url(#SVGID_108_);}
	.st494{fill:url(#SVGID_109_);}
	.st495{fill:url(#SVGID_110_);}
	.st496{opacity:0.35;fill:url(#SVGID_111_);}
	.st497{opacity:0.25;}
	.st498{fill:url(#SVGID_112_);}
	.st499{fill:url(#SVGID_113_);}
	.st500{fill:url(#SVGID_114_);}
	.st501{fill:url(#SVGID_115_);}
	.st502{fill:url(#SVGID_116_);}
	.st503{fill:#B25A47;}
	.st504{fill:#E1836C;}
	.st505{fill:#A04F39;}
	.st506{fill:#FFEFE7;}
	.st507{fill:#FAE9CB;}
	.st508{fill:#E9CDAD;}
	.st509{fill:#F7B454;}
	.st510{fill:#2B454E;}
	.st511{fill:#1A2E35;}
	.st512{fill:#375A64;}
	.st513{fill:#D268CC;}
	.st514{fill:#DDF9BB;}
	.st515{fill:#99C8E9;}
	.st516{fill:#071B2C;}
	.st517{fill:#575E70;}
	.st518{fill:#4DB596;}
	.st519{fill:#454B55;}
	.st520{fill:#63A945;}
	.st521{fill:#293033;}
	.st522{fill:#F1F1F2;}
	.st523{fill:#192953;}
	.st524{clip-path:url(#SVGID_117_);fill:#071B2C;}
	.st525{fill:#5E5BA8;}
	.st526{fill:#F79678;}
	.st527{opacity:0.2;fill:#293033;}
	.st528{fill:#1A2229;}
	.st529{fill:#4C803B;}
	.st530{fill:#32353D;}
	.st531{fill:#444A56;}
	.st532{fill:#3E8E75;}
	.st533{opacity:0.2;clip-path:url(#SVGID_118_);fill:#293033;}
	.st534{fill:#F05250;}
	.st535{opacity:0.2;clip-path:url(#SVGID_119_);fill:#293033;}
	.st536{fill:#424278;}
	.st537{opacity:0.5;clip-path:url(#SVGID_120_);fill:#071B2C;}
	.st538{fill:#035B87;}
	.st539{opacity:0.2;clip-path:url(#SVGID_121_);fill:#293033;}
	.st540{opacity:0.2;clip-path:url(#SVGID_122_);fill:#293033;}
	.st541{fill:#034761;}
	.st542{fill:#F5BD18;}
	.st543{fill:#010101;}
	.st544{fill:#FB73AA;}
	.st545{fill:#01030A;}
	.st546{fill:#040102;}
	.st547{fill:#030102;}
	.st548{fill:#050203;}
	.st549{fill:#FAE803;}
	.st550{fill:#F8B937;}
	.st551{fill:#2950B8;}
	.st552{fill:#FDFDFD;}
	.st553{fill:#294FB6;}
	.st554{fill:#F89F29;}
	.st555{fill:#FFF9E7;}
	.st556{fill:#99D1D7;}
	.st557{fill:#C1E0DA;}
	.st558{fill:#134F78;}
	.st559{fill:#D94D2E;}
	.st560{fill:#12B6A7;}
	.st561{fill:#313D4D;}
	.st562{fill:#EAB02A;}
	.st563{fill:#FDD5B6;}
	.st564{fill:#B21F2D;}
	.st565{fill:#DB212C;}
	.st566{fill:#85B6BA;}
	.st567{fill:#E4E5E5;}
	.st568{fill:#029C8B;}
	.st569{fill:#B2B1B1;}
	.st570{fill:#0DB2A4;}
	.st571{fill:#DFB559;}
	.st572{fill:#FBD145;}
	.st573{fill:#F2C9A9;}
	.st574{fill:#7B6C53;}
	.st575{fill:#007CFF;}
	.st576{opacity:0.5;fill:#FFFFFF;}
	.st577{fill:#D7656A;}
	.st578{fill:#F0877C;}
	.st579{opacity:0.7;fill:#FFFFFF;}
	.st580{opacity:0.6;fill:#FFFFFF;}
	.st581{opacity:0.1;}
	.st582{opacity:0.2;}
	.st583{fill:#FD5652;}
	.st584{opacity:0.4;}
	.st585{opacity:0.8;}
	.st586{fill:#F8B275;}
	.st587{fill:#FCB373;}
	.st588{opacity:0.7;}
	.st589{opacity:0.5;}
	.st590{fill:#EC873E;}
	.st591{fill:#B84D3C;}
	.st592{opacity:0.4;fill:#FFFFFF;}
	.st593{fill:#FFC19D;}
	.st594{fill:#E1E1E1;}
	.st595{fill:#FF735D;}
	.st596{fill:#ECECEC;}
	.st597{fill:#FF9C6A;}
	.st598{font-family:'Aspekta-600';}
	.st599{font-size:6.5828px;}
	.st600{opacity:0.3;fill:#CFC4B8;}
	.st601{enable-background:new    ;}
	.st602{fill:#E4E3EE;}
	.st603{fill:#B7B6E3;}
	.st604{fill:#919DD6;}
	.st605{fill:#12B0F3;}
	.st606{fill:#1393F2;}
	.st607{fill:#05D4F5;}
	.st608{fill:#D4D5F0;}
	.st609{fill:#C4C3EC;}
	.st610{fill:#EEEFF2;}
	.st611{clip-path:url(#SVGID_123_);enable-background:new    ;}
	.st612{clip-path:url(#SVGID_124_);enable-background:new    ;}
	.st613{clip-path:url(#SVGID_125_);enable-background:new    ;}
	.st614{clip-path:url(#SVGID_126_);enable-background:new    ;}
	.st615{clip-path:url(#SVGID_127_);enable-background:new    ;}
	.st616{fill:#DAD9E8;}
	.st617{clip-path:url(#SVGID_128_);enable-background:new    ;}
	.st618{fill:#EBEBF1;}
	.st619{clip-path:url(#SVGID_129_);enable-background:new    ;}
	.st620{clip-path:url(#SVGID_130_);enable-background:new    ;}
	.st621{clip-path:url(#SVGID_131_);enable-background:new    ;}
	.st622{clip-path:url(#SVGID_132_);enable-background:new    ;}
	.st623{fill:#171C29;}
	.st624{fill:#042F8F;}
	.st625{clip-path:url(#SVGID_133_);enable-background:new    ;}
	.st626{clip-path:url(#SVGID_134_);enable-background:new    ;}
	.st627{clip-path:url(#SVGID_135_);enable-background:new    ;}
	.st628{clip-path:url(#SVGID_136_);enable-background:new    ;}
	.st629{clip-path:url(#SVGID_137_);enable-background:new    ;}
	.st630{clip-path:url(#SVGID_138_);enable-background:new    ;}
	.st631{fill:url(#SVGID_139_);}
	.st632{fill:#789CCF;}
	.st633{opacity:0.48;fill:none;stroke:#FFFFFF;stroke-width:0.8689;stroke-miterlimit:10;}
	.st634{opacity:0.48;fill:none;stroke:#FFFFFF;stroke-width:0.7996;stroke-miterlimit:10;}
	.st635{fill:none;stroke:#FFFFFF;stroke-width:4.3598;stroke-linecap:round;stroke-linejoin:round;stroke-miterlimit:10;}
	.st636{fill:#6286D6;}
	.st637{fill:#7798FC;}
	.st638{fill:#FF998B;}
	.st639{fill:#0D0000;}
	.st640{fill:#DDE5F2;}
	.st641{fill:none;stroke:#DDE5F2;stroke-width:1.6024;stroke-miterlimit:10;}
	.st642{fill:#5E757A;}
	.st643{fill:#20120D;}
	.st644{fill:#272727;}
	.st645{fill:#F9796D;}
	.st646{fill:#E87F74;}
	.st647{fill:#F15146;}
	.st648{fill:#D0413B;}
	.st649{fill:#FF604F;}
	.st650{fill:#FD8A77;}
	.st651{fill:#F9FFFC;}
	.st652{fill:none;stroke:#FFFFFF;stroke-width:1.5615;stroke-miterlimit:10;}
	.st653{fill:#FCFBFB;}
	.st654{fill:#2D8584;}
	.st655{fill:#156054;}
	.st656{opacity:0.19;}
	.st657{fill:#97D5D3;}
	.st658{fill:#96CBB9;}
	.st659{fill:url(#SVGID_140_);}
	.st660{fill:#C7DEFD;}
	.st661{fill:#0C0A0A;}
	.st662{fill:#BED9FD;}
	.st663{fill:#FED964;}
	.st664{fill:#8BBBFD;}
	.st665{fill:#25A9E1;}
	.st666{fill:#FF8DA0;}
	.st667{fill:#FD4056;}
	.st668{fill:#000001;}
	.st669{fill:#7F7FFD;}
	.st670{fill:#43BA79;}
	.st671{fill:#FFFFFF;stroke:#1A1A1A;stroke-width:2;stroke-linecap:round;stroke-linejoin:round;stroke-miterlimit:10;}
	.st672{fill:#4E3CDF;}
	.st673{fill:none;}
	.st674{fill:#0B0B0C;}
	.st675{fill:#010102;}
	.st676{clip-path:url(#SVGID_141_);fill:url(#SVGID_142_);}
	.st677{clip-path:url(#SVGID_141_);}
	.st678{fill:#FFA94D;}
	.st679{fill:#FFDBBB;}
	.st680{fill:#FEB07D;}
	.st681{fill:#F87352;}
	.st682{fill:#09293D;}
	.st683{fill:#12B886;}
	.st684{fill:#C37362;}
	.st685{fill:none;stroke:#09293D;stroke-width:1.25;stroke-miterlimit:10;}
	.st686{fill:#C184B0;}
	.st687{fill:#FFDAB2;}
	.st688{clip-path:url(#SVGID_146_);fill:url(#SVGID_147_);}
	.st689{opacity:0.06;clip-path:url(#SVGID_146_);}
	.st690{clip-path:url(#SVGID_148_);}
	.st691{clip-path:url(#SVGID_146_);}
	.st692{clip-path:url(#SVGID_149_);}
	.st693{clip-path:url(#SVGID_150_);}
	.st694{clip-path:url(#SVGID_151_);}
	.st695{clip-path:url(#SVGID_151_);fill:none;}
	.st696{clip-path:url(#SVGID_152_);}
	.st697{fill:url(#SVGID_153_);}
	.st698{fill:url(#SVGID_154_);}
	.st699{fill:url(#SVGID_155_);}
	.st700{fill:url(#SVGID_156_);}
	.st701{fill:url(#SVGID_157_);}
	.st702{fill:url(#SVGID_158_);}
	.st703{fill:url(#SVGID_159_);}
	.st704{fill:url(#SVGID_160_);}
	.st705{fill:url(#SVGID_161_);}
	.st706{clip-path:url(#SVGID_162_);fill:#F2EEED;}
	.st707{clip-path:url(#SVGID_163_);fill:#F2EEED;}
	.st708{clip-path:url(#SVGID_164_);fill:#F2EEED;}
	.st709{clip-path:url(#SVGID_165_);fill:#F2EEED;}
	.st710{clip-path:url(#SVGID_146_);fill:#FAFAFA;}
	.st711{opacity:0.35;fill:url(#SVGID_166_);}
	.st712{fill:url(#SVGID_167_);}
	.st713{fill:url(#SVGID_168_);}
	.st714{fill:url(#SVGID_169_);}
	.st715{fill:url(#SVGID_170_);}
	.st716{opacity:0.35;fill:url(#SVGID_171_);}
	.st717{fill:url(#SVGID_172_);}
	.st718{opacity:0.4;fill:url(#SVGID_173_);}
	.st719{fill:url(#SVGID_174_);}
	.st720{opacity:0.35;fill:url(#SVGID_175_);}
	.st721{fill:url(#SVGID_176_);}
	.st722{opacity:0.2;fill:url(#SVGID_177_);}
	.st723{fill:url(#SVGID_178_);}
	.st724{opacity:0.2;fill:url(#SVGID_179_);}
	.st725{fill:url(#SVGID_180_);}
	.st726{opacity:0.35;fill:url(#SVGID_181_);}
	.st727{fill:url(#SVGID_182_);}
	.st728{fill:url(#SVGID_183_);}
	.st729{fill:url(#SVGID_184_);}
	.st730{opacity:0.35;fill:url(#SVGID_185_);}
	.st731{fill:url(#SVGID_186_);}
	.st732{filter:url(#Adobe_OpacityMaskFilter_1_);}
	.st733{mask:url(#SVGID_187_);}
	.st734{fill:url(#SVGID_188_);}
	.st735{fill:url(#SVGID_189_);}
	.st736{opacity:0.28;fill:url(#SVGID_190_);}
	.st737{fill:url(#SVGID_191_);}
	.st738{opacity:0.35;fill:url(#SVGID_192_);}
	.st739{fill:url(#SVGID_193_);}
	.st740{fill:url(#SVGID_194_);}
	.st741{fill:url(#SVGID_195_);}
	.st742{fill:url(#SVGID_196_);}
	.st743{fill:url(#SVGID_197_);}
	.st744{fill:url(#SVGID_198_);}
	.st745{fill:url(#SVGID_199_);}
	.st746{opacity:0.35;fill:url(#SVGID_200_);}
	.st747{fill:url(#SVGID_201_);}
	.st748{fill:url(#SVGID_202_);}
	.st749{fill:url(#SVGID_203_);}
	.st750{fill:url(#SVGID_204_);}
	.st751{fill:url(#SVGID_205_);}
	.st752{clip-path:url(#SVGID_146_);fill:#E8E8E8;}
	.st753{fill:#FCB619;}
	.st754{fill:#0F141D;}
	.st755{fill:#F0625B;}
	.st756{fill:#088473;}
	.st757{fill:#DD665E;}
	.st758{fill:#3B4450;}
	.st759{fill:#27BDC4;}
	.st760{fill:#C2E1DB;}
	.st761{fill:#99D2D9;}
	.st762{fill:#0F3754;}
	.st763{fill:#154F78;}
	.st764{fill:#68481D;}
	.st765{fill:#C5F4FC;}
	.st766{opacity:0.08;}
	.st767{clip-path:url(#SVGID_206_);}
	.st768{fill-rule:evenodd;clip-rule:evenodd;fill:#7A7A7A;}
	.st769{fill:#7A7A7A;}
	.st770{fill:#585858;}
	.st771{clip-path:url(#SVGID_206_);fill-rule:evenodd;clip-rule:evenodd;fill:#7A7A7A;}
	.st772{clip-path:url(#SVGID_206_);fill:#7A7A7A;}
	.st773{clip-path:url(#SVGID_207_);}
	.st774{clip-path:url(#SVGID_207_);fill-rule:evenodd;clip-rule:evenodd;fill:#7A7A7A;}
	.st775{clip-path:url(#SVGID_207_);fill:#7A7A7A;}
	.st776{clip-path:url(#SVGID_208_);}
	.st777{clip-path:url(#SVGID_208_);fill-rule:evenodd;clip-rule:evenodd;fill:#7A7A7A;}
	.st778{clip-path:url(#SVGID_208_);fill:#7A7A7A;}
	.st779{clip-path:url(#SVGID_209_);}
	.st780{clip-path:url(#SVGID_209_);fill-rule:evenodd;clip-rule:evenodd;fill:#7A7A7A;}
	.st781{clip-path:url(#SVGID_209_);fill:#7A7A7A;}
	.st782{fill:#BED2A4;}
	.st783{opacity:0.18;clip-path:url(#SVGID_210_);}
	.st784{opacity:0.18;}
	.st785{clip-path:url(#SVGID_211_);}
	.st786{fill:#BABABA;}
	.st787{fill:#B6B6B6;}
	.st788{fill:#EDEDED;}
	.st789{fill:#EEEEEE;}
	.st790{fill:#BCBCBC;}
	.st791{fill:#D4D4D4;}
	.st792{fill:#D2D2D2;}
	.st793{fill:#969696;}
	.st794{fill:#D3D3D3;}
	.st795{fill:#DADADA;}
	.st796{fill:#C4C4C4;}
	.st797{fill:#C6C6C6;}
	.st798{fill:#EBEBEB;}
	.st799{fill:#D5D5D5;}
	.st800{fill:#949494;}
	.st801{fill:#A9A9A9;}
	.st802{fill:#A7A7A7;}
	.st803{fill:#959595;}
	.st804{fill:#C2C2C2;}
	.st805{fill:#C9C9C9;}
	.st806{fill:#E9E9E9;}
	.st807{fill:#D7D7D7;}
	.st808{fill:#E7E7E7;}
	.st809{fill:#DCDCDC;}
	.st810{fill:#D0D0D0;}
	.st811{fill:#B0B0B0;}
	.st812{fill:#AEAEAE;}
	.st813{fill:#DDDDDD;}
	.st814{fill:#CFCFCF;}
	.st815{fill:#ACACAC;}
	.st816{fill:#B2B2B2;}
	.st817{fill:#F2F2F2;}
	.st818{fill:#EAEAEA;}
	.st819{fill:#B7B7B7;}
	.st820{fill:#C5C5C5;}
	.st821{fill:#BBBBBB;}
	.st822{fill:#979797;}
	.st823{fill:#E4E4E4;}
	.st824{fill:#CACACA;}
	.st825{fill:#EFEFEF;}
	.st826{fill:#C7C7C7;}
	.st827{fill:#D6D6D6;}
	.st828{fill:#B4B4B4;}
	.st829{fill:#C8C8C8;}
	.st830{fill:#B1B1B1;}
	.st831{fill:#CDCDCD;}
	.st832{fill:#CBCBCB;}
	.st833{fill:#D9D9D9;}
	.st834{fill:#E3E3E3;}
	.st835{fill:#A2A2A2;}
	.st836{fill:#F6F6F6;}
	.st837{fill:#BDBDBD;}
	.st838{fill:#B8B8B8;}
	.st839{fill:#D1D1D1;}
	.st840{fill:#B9B9B9;}
	.st841{fill:#C3C3C3;}
	.st842{fill:#CCCCCC;}
	.st843{fill:#ADADAD;}
	.st844{fill:#C0C0C0;}
	.st845{fill:#F9F9F9;}
	.st846{fill:#F3F3F3;}
	.st847{fill:#BEBEBE;}
	.st848{fill:#DBDBDB;}
	.st849{fill:#F1F1F1;}
	.st850{fill:#AFAFAF;}
	.st851{fill:#ABABAB;}
	.st852{fill:#DFDFDF;}
	.st853{fill:#B5B5B5;}
	.st854{fill:#A8A8A8;}
	.st855{fill:#B3B3B3;}
	.st856{fill:#FCFCFC;}
	.st857{clip-path:url(#SVGID_213_);}
	.st858{fill:#88C9A1;}
	.st859{opacity:0.87;}
	.st860{opacity:0.18;clip-path:url(#SVGID_216_);}
	.st861{clip-path:url(#SVGID_217_);}
	.st862{clip-path:url(#SVGID_219_);}
	.st863{fill:#3169B1;}
	.st864{fill:#9EC96B;}
	.st865{fill:#FFCE6C;}
	.st866{fill:#768B4B;}
	.st867{fill:#BE893D;}
	.st868{fill:#51CDF4;}
</style>
<g>
	<g>
		<g>
			<g>
				<g>
					<g>
						<g>
							<path class="st391" d="M111.65,21.33h-7.09c-2.17,0-3.93-1.76-3.93-3.93v-7.09c0-2.17,1.76-3.93,3.93-3.93h7.09
								c2.17,0,3.93,1.76,3.93,3.93v7.09C115.58,19.57,113.82,21.33,111.65,21.33z"/>
						</g>
						<g>
							<g>
								<path class="st511" d="M111.65,21.33c0-0.01,0.19-0.01,0.53-0.06c0.35-0.05,0.86-0.17,1.43-0.52
									c0.56-0.34,1.2-0.91,1.57-1.78c0.19-0.43,0.31-0.93,0.32-1.46c0.01-0.54,0-1.11,0-1.71c0-1.2-0.01-2.51-0.01-3.92
									c0-0.35,0-0.71,0-1.08c0-0.37,0.01-0.73-0.05-1.09c-0.05-0.36-0.17-0.72-0.33-1.06c-0.16-0.34-0.38-0.66-0.65-0.94
									c-0.52-0.57-1.25-0.98-2.04-1.15c-0.4-0.08-0.81-0.08-1.23-0.08c-0.42,0-0.85,0-1.28,0c-1.73,0-3.51,0-5.34,0
									c-0.89,0-1.77,0.32-2.44,0.88c-0.67,0.56-1.13,1.33-1.31,2.15c-0.09,0.41-0.09,0.83-0.09,1.26c0,0.42,0,0.84,0,1.26
									c0,0.83,0,1.64,0,2.44c0,0.79,0,1.57,0,2.32c0,0.38-0.01,0.75,0.03,1.1c0.04,0.36,0.14,0.69,0.27,1.02
									c0.54,1.28,1.72,2.12,2.88,2.3c0.58,0.1,1.16,0.05,1.7,0.07c0.54,0,1.05,0.01,1.53,0.01c0.95,0.01,1.77,0.01,2.44,0.02
									c0.66,0.01,1.18,0.01,1.54,0.02c0.17,0,0.3,0.01,0.4,0.01C111.61,21.32,111.65,21.33,111.65,21.33s-0.05,0.01-0.14,0.01
									c-0.1,0-0.23,0.01-0.4,0.01c-0.36,0-0.88,0.01-1.54,0.02c-0.67,0-1.49,0.01-2.44,0.02c-0.48,0-0.99,0-1.53,0.01
									c-0.54-0.01-1.11,0.04-1.72-0.06c-1.2-0.18-2.44-1.04-3.01-2.38c-0.13-0.33-0.24-0.69-0.28-1.06
									c-0.05-0.37-0.04-0.75-0.04-1.12c0-0.75,0-1.52,0-2.32c0-0.79,0-1.61,0-2.44c0-0.42,0-0.83,0-1.26c0-0.42,0-0.86,0.09-1.3
									c0.18-0.87,0.67-1.68,1.37-2.27c0.71-0.58,1.62-0.92,2.56-0.92c1.83,0,3.62,0,5.34,0c0.43,0,0.86,0,1.28,0
									c0.42,0,0.85,0,1.27,0.08c0.83,0.18,1.59,0.61,2.13,1.21c0.28,0.29,0.5,0.63,0.67,0.99c0.17,0.35,0.29,0.73,0.34,1.11
									c0.07,0.38,0.05,0.76,0.05,1.12c0,0.36,0,0.72,0,1.08c0,1.41-0.01,2.72-0.01,3.92c0,0.6,0,1.17-0.01,1.71
									c-0.02,0.55-0.15,1.06-0.35,1.5c-0.4,0.89-1.05,1.47-1.63,1.8c-0.59,0.34-1.12,0.45-1.47,0.49
									C111.84,21.35,111.65,21.33,111.65,21.33z"/>
							</g>
						</g>
					</g>
				</g>
			</g>
		</g>
		<g>
			<g>
				<g>
					<g>
						<g>
							<path class="st512" d="M108.76,13.78c0.64-0.27,1.09-0.92,1.09-1.7c0-1.01-0.76-1.84-1.71-1.84c-0.95,0-1.72,0.81-1.73,1.83
								c0,0.78,0.45,1.45,1.1,1.71c-2.65,0.4-2.53,3.28-2.53,3.28l6.26,0.03C111.24,17.09,111.38,14.18,108.76,13.78z"/>
							<path class="st511" d="M111.25,17.1L111.25,17.1l-6.28-0.03l0-0.01c0-0.01-0.03-0.73,0.27-1.49
								c0.18-0.45,0.43-0.82,0.75-1.11c0.39-0.36,0.89-0.58,1.48-0.68c-0.66-0.29-1.08-0.95-1.07-1.71c0-0.49,0.18-0.96,0.51-1.3
								c0.33-0.35,0.76-0.53,1.22-0.53c0,0,0.01,0,0.01,0c0.95,0,1.73,0.84,1.72,1.85c0,0.75-0.42,1.41-1.07,1.69
								c0.59,0.09,1.08,0.32,1.47,0.68c0.32,0.29,0.56,0.67,0.73,1.12C111.28,16.35,111.25,17.08,111.25,17.1L111.25,17.1z
								 M104.99,17.05l6.24,0.03c0-0.09,0.01-0.77-0.26-1.49c-0.17-0.45-0.41-0.82-0.73-1.11c-0.39-0.36-0.89-0.59-1.49-0.68
								l-0.03-0.01l0.03-0.01c0.66-0.28,1.08-0.94,1.09-1.69c0-1.01-0.76-1.83-1.7-1.83c0,0-0.01,0-0.01,0
								c-0.45,0-0.88,0.19-1.2,0.53c-0.32,0.34-0.5,0.8-0.51,1.29c0,0.76,0.43,1.43,1.09,1.71l0.03,0.01l-0.03,0.01
								c-0.6,0.09-1.11,0.32-1.51,0.68c-0.32,0.29-0.57,0.66-0.74,1.1C104.98,16.29,104.99,16.96,104.99,17.05z"/>
						</g>
					</g>
				</g>
			</g>
		</g>
	</g>
	<g>
		<g>
			<g>
				<g>
					<g>
						<path class="st594" d="M121.55,150.35h-14.34c-2.7,0-4.89-2.19-4.89-4.89v-14.34c0-2.7,2.19-4.89,4.89-4.89h14.34
							c2.7,0,4.89,2.19,4.89,4.89v14.34C126.44,148.16,124.25,150.35,121.55,150.35z"/>
					</g>
				</g>
			</g>
		</g>
		<g>
			<g>
				<g>
					<g>
						<path class="st391" d="M109.05,144.16c-0.14,0-0.28-0.06-0.38-0.16c-0.21-0.21-0.21-0.55,0-0.76l2.87-2.87
							c-1.55-1.93-1.4-4.78,0.36-6.53c0.93-0.93,2.16-1.44,3.47-1.44c1.31,0,2.54,0.51,3.47,1.44c1.91,1.91,1.91,5.02,0,6.93
							c-0.93,0.93-2.16,1.44-3.47,1.44c-1.13,0-2.19-0.37-3.07-1.08l-2.87,2.87C109.32,144.1,109.19,144.16,109.05,144.16z
							 M115.36,133.48c-1.02,0-1.99,0.4-2.71,1.12c-0.72,0.72-1.12,1.68-1.12,2.71s0.4,1.99,1.12,2.71
							c0.72,0.72,1.69,1.12,2.71,1.12s1.99-0.4,2.71-1.12c0.72-0.72,1.12-1.68,1.12-2.71s-0.4-1.99-1.12-2.71
							C117.34,133.88,116.38,133.48,115.36,133.48z"/>
					</g>
				</g>
			</g>
		</g>
	</g>
	<g>
		<g>
			<path class="st511" d="M184.35,120c0.07,0,0.13,2.56,0.13,5.73c0,3.16-0.06,5.73-0.13,5.73c-0.07,0-0.13-2.56-0.13-5.73
				C184.22,122.56,184.28,120,184.35,120z"/>
		</g>
	</g>
	<g>
		<g>
			<path class="st511" d="M141.25,58.87c-0.07,0-0.13-4.27-0.13-9.55c0-5.27,0.06-9.55,0.13-9.55c0.07,0,0.13,4.27,0.13,9.55
				C141.38,54.59,141.32,58.87,141.25,58.87z"/>
		</g>
	</g>
	<g>
		<g>
			<path class="st511" d="M126.49,81.5c0,0.01-0.12,0.02-0.35,0.03c-0.26,0.01-0.59,0.01-1.01,0.02c-0.91,0.01-2.17,0.02-3.72,0.04
				c-3.16,0.01-7.48,0.02-12.26,0.04c-0.6,0-1.19,0-1.77,0c-0.29,0-0.58,0.01-0.88-0.03c-0.29-0.05-0.59-0.12-0.85-0.25
				c-1.09-0.48-1.79-1.49-2.1-2.49c-0.16-0.51-0.22-1.03-0.22-1.53c0.01-0.49,0.01-0.97,0.02-1.43c0.01-0.92,0.02-1.78,0.03-2.57
				c0.03-1.55,0.05-2.81,0.07-3.71c0.01-0.42,0.02-0.75,0.03-1.01c0.01-0.23,0.02-0.35,0.03-0.35c0.01,0,0.02,0.12,0.02,0.35
				c0,0.26,0.01,0.59,0.02,1.01c0,0.91,0.01,2.17,0.02,3.71c0,0.79,0,1.65,0,2.57c0.03,0.92-0.11,1.92,0.22,2.88
				c0.3,0.95,0.97,1.89,1.98,2.33c0.24,0.12,0.51,0.18,0.78,0.22c0.27,0.03,0.55,0.03,0.85,0.03c0.58,0,1.17,0,1.77,0
				c4.77,0.02,9.09,0.03,12.26,0.04c1.55,0.02,2.81,0.03,3.72,0.04c0.42,0.01,0.75,0.02,1.01,0.02
				C126.37,81.48,126.49,81.49,126.49,81.5z"/>
		</g>
	</g>
	<g>
		<g>
			<g>
				<g>
					<g>
						<g>
							<path class="st391" d="M150.59,39.67h-20.44c-2.92,0-5.28-2.37-5.28-5.28V13.94c0-2.92,2.37-5.28,5.28-5.28h20.44
								c2.92,0,5.28,2.37,5.28,5.28v20.44C155.87,37.31,153.51,39.67,150.59,39.67z"/>
						</g>
						<g>
							<g>
								<path class="st511" d="M150.59,39.67c0-0.03,0.41,0.01,1.15-0.16c0.73-0.17,1.84-0.59,2.79-1.7c0.47-0.54,0.89-1.25,1.1-2.1
									c0.24-0.84,0.15-1.81,0.17-2.85c-0.01-2.07-0.01-4.42-0.02-7.02c0-2.6-0.01-5.45-0.02-8.51c0-0.76,0-1.54,0-2.33
									c-0.01-0.79,0.04-1.59-0.17-2.36c-0.38-1.55-1.58-2.93-3.15-3.52c-0.39-0.16-0.81-0.25-1.23-0.3
									c-0.42-0.05-0.85-0.04-1.3-0.04c-0.88,0-1.77,0-2.67,0c-1.8,0-3.64,0-5.51,0c-3.74,0-7.62,0-11.58,0
									c-0.97,0.01-1.93,0.27-2.73,0.79c-0.4,0.25-0.78,0.56-1.09,0.92c-0.32,0.35-0.59,0.75-0.79,1.17
									c-0.22,0.42-0.35,0.87-0.45,1.33c-0.09,0.46-0.09,0.92-0.09,1.4c0,0.95,0,1.9,0,2.83c0,3.74-0.01,7.35-0.01,10.79
									c0,1.72,0,3.4-0.01,5.02c0.01,0.82-0.05,1.62,0.1,2.38c0.16,0.76,0.48,1.46,0.93,2.06c0.89,1.21,2.28,1.95,3.67,2.06
									c1.4,0.05,2.78,0.02,4.07,0.03c5.19,0.02,9.4,0.03,12.32,0.04c1.45,0.01,2.57,0.02,3.35,0.02c0.38,0.01,0.66,0.01,0.87,0.01
									C150.49,39.66,150.59,39.67,150.59,39.67s-0.1,0.01-0.3,0.01c-0.21,0-0.5,0.01-0.87,0.01c-0.78,0.01-1.9,0.01-3.35,0.02
									c-2.92,0.01-7.12,0.02-12.32,0.04c-1.3-0.01-2.65,0.03-4.09-0.02c-1.44-0.11-2.89-0.87-3.83-2.13
									c-0.47-0.62-0.81-1.36-0.98-2.15c-0.16-0.8-0.09-1.61-0.11-2.42c0-1.63,0-3.31-0.01-5.02c0-3.44-0.01-7.05-0.01-10.79
									c0-0.94,0-1.88,0-2.83c0-0.47,0-0.97,0.1-1.45c0.1-0.48,0.24-0.96,0.47-1.4c0.22-0.45,0.5-0.86,0.83-1.23
									c0.33-0.38,0.72-0.7,1.14-0.96c0.85-0.54,1.86-0.82,2.88-0.83c3.97,0,7.84,0,11.58,0c1.87,0,3.71,0,5.51,0
									c0.9,0,1.79,0,2.67,0c0.44,0,0.88-0.01,1.33,0.04c0.44,0.06,0.88,0.15,1.28,0.32c1.65,0.62,2.89,2.07,3.29,3.69
									c0.22,0.81,0.17,1.64,0.18,2.42c0,0.79,0,1.57,0,2.33c-0.01,3.06-0.01,5.91-0.02,8.51c-0.01,2.6-0.01,4.95-0.02,7.02
									c-0.02,1.02,0.06,2.01-0.19,2.88c-0.23,0.87-0.66,1.59-1.14,2.14c-0.98,1.11-2.12,1.52-2.86,1.68
									c-0.38,0.07-0.67,0.11-0.87,0.1C150.69,39.68,150.59,39.67,150.59,39.67z"/>
							</g>
						</g>
					</g>
				</g>
			</g>
		</g>
	</g>
	<g>
		<g>
			<g>
				<g>
					<g>
						<g>
							<path class="st391" d="M188.88,50.31h-20.44c-2.92,0-5.28-2.37-5.28-5.28V24.59c0-2.92,2.37-5.28,5.28-5.28h20.44
								c2.92,0,5.28,2.37,5.28,5.28v20.44C194.16,47.95,191.79,50.31,188.88,50.31z"/>
						</g>
						<g>
							<g>
								<path class="st511" d="M188.88,50.31c0-0.02,0.41,0.01,1.15-0.16c0.73-0.17,1.84-0.59,2.79-1.7c0.47-0.54,0.89-1.25,1.1-2.1
									c0.24-0.84,0.15-1.81,0.17-2.85c-0.01-2.07-0.01-4.42-0.02-7.02c0-2.6-0.01-5.45-0.02-8.51c0-0.76,0-1.54,0-2.33
									c-0.01-0.79,0.04-1.59-0.17-2.36c-0.38-1.55-1.58-2.93-3.15-3.52c-0.39-0.16-0.81-0.25-1.23-0.3
									c-0.42-0.05-0.85-0.04-1.3-0.04c-0.88,0-1.77,0-2.67,0c-1.8,0-3.64,0-5.51,0c-3.74,0-7.62,0-11.58,0
									c-0.97,0.01-1.93,0.27-2.73,0.79c-0.4,0.25-0.78,0.56-1.09,0.92c-0.32,0.35-0.59,0.75-0.79,1.17
									c-0.22,0.42-0.35,0.87-0.45,1.33c-0.09,0.46-0.09,0.92-0.09,1.4c0,0.95,0,1.9,0,2.83c0,3.74-0.01,7.35-0.01,10.79
									c0,1.72,0,3.4-0.01,5.02c0.01,0.82-0.05,1.62,0.1,2.38c0.16,0.76,0.48,1.46,0.93,2.06c0.89,1.21,2.28,1.95,3.67,2.06
									c1.4,0.05,2.78,0.02,4.07,0.03c5.19,0.02,9.4,0.03,12.32,0.04c1.45,0.01,2.57,0.02,3.35,0.02c0.38,0.01,0.66,0.01,0.87,0.01
									C188.78,50.31,188.88,50.31,188.88,50.31s-0.1,0.01-0.3,0.01c-0.21,0-0.5,0.01-0.87,0.01c-0.78,0.01-1.9,0.01-3.35,0.02
									c-2.92,0.01-7.12,0.02-12.32,0.04c-1.3-0.01-2.65,0.03-4.09-0.02c-1.44-0.11-2.89-0.87-3.83-2.13
									c-0.47-0.62-0.81-1.36-0.98-2.15c-0.16-0.8-0.09-1.61-0.11-2.42c0-1.63,0-3.31-0.01-5.02c0-3.44-0.01-7.05-0.01-10.79
									c0-0.94,0-1.88,0-2.83c0-0.47,0-0.97,0.1-1.45c0.1-0.48,0.24-0.96,0.47-1.4c0.22-0.45,0.5-0.86,0.83-1.23
									c0.33-0.38,0.72-0.7,1.14-0.96c0.85-0.54,1.86-0.82,2.88-0.83c3.97,0,7.84,0,11.58,0c1.87,0,3.71,0,5.51,0
									c0.9,0,1.79,0,2.67,0c0.44,0,0.88-0.01,1.33,0.04c0.44,0.06,0.88,0.15,1.28,0.32c1.65,0.62,2.89,2.07,3.29,3.69
									c0.22,0.81,0.17,1.64,0.18,2.42c0,0.79,0,1.57,0,2.33c-0.01,3.06-0.01,5.91-0.02,8.51c-0.01,2.6-0.01,4.95-0.02,7.02
									c-0.02,1.02,0.06,2.01-0.19,2.88c-0.23,0.87-0.66,1.59-1.14,2.14c-0.98,1.11-2.12,1.52-2.86,1.68
									c-0.38,0.07-0.67,0.11-0.87,0.1C188.98,50.32,188.88,50.31,188.88,50.31z"/>
							</g>
						</g>
					</g>
				</g>
			</g>
		</g>
	</g>
	<g>
		<g>
			<g>
				<g>
					<g>
						<g>
							<path class="st391" d="M222.6,87.76h-20.44c-2.92,0-5.28-2.37-5.28-5.28V62.03c0-2.92,2.37-5.28,5.28-5.28h20.44
								c2.92,0,5.28,2.37,5.28,5.28v20.44C227.88,85.39,225.52,87.76,222.6,87.76z"/>
						</g>
						<g>
							<g>
								<path class="st511" d="M222.6,87.76c0-0.02,0.41,0.01,1.15-0.16c0.73-0.17,1.84-0.59,2.79-1.7c0.47-0.54,0.89-1.25,1.1-2.1
									c0.24-0.84,0.15-1.81,0.17-2.85c-0.01-2.07-0.01-4.42-0.02-7.02c0-2.6-0.01-5.45-0.02-8.51c0-0.76,0-1.54,0-2.33
									c-0.01-0.79,0.04-1.59-0.17-2.36c-0.38-1.55-1.58-2.93-3.15-3.52c-0.39-0.16-0.81-0.25-1.23-0.3
									c-0.42-0.05-0.85-0.04-1.3-0.04c-0.88,0-1.77,0-2.67,0c-1.8,0-3.64,0-5.51,0c-3.74,0-7.62,0-11.58,0
									c-0.97,0.01-1.93,0.27-2.73,0.79c-0.4,0.25-0.78,0.56-1.09,0.92c-0.32,0.35-0.59,0.74-0.79,1.17
									c-0.22,0.42-0.35,0.87-0.45,1.33c-0.09,0.46-0.09,0.92-0.09,1.4c0,0.95,0,1.9,0,2.83c0,3.74-0.01,7.35-0.01,10.79
									c0,1.72,0,3.4-0.01,5.02c0.01,0.82-0.05,1.62,0.1,2.38c0.16,0.76,0.48,1.46,0.93,2.06c0.89,1.21,2.28,1.95,3.67,2.06
									c1.4,0.05,2.78,0.02,4.07,0.03c5.19,0.02,9.4,0.03,12.32,0.04c1.45,0.01,2.57,0.02,3.35,0.02c0.38,0.01,0.66,0.01,0.87,0.01
									C222.5,87.75,222.6,87.76,222.6,87.76s-0.1,0.01-0.3,0.01c-0.21,0-0.5,0.01-0.87,0.01c-0.78,0.01-1.9,0.01-3.35,0.02
									c-2.92,0.01-7.12,0.02-12.32,0.04c-1.3-0.01-2.65,0.03-4.09-0.02c-1.44-0.11-2.89-0.87-3.83-2.13
									c-0.47-0.62-0.81-1.36-0.98-2.15c-0.16-0.8-0.09-1.61-0.11-2.42c0-1.63,0-3.31-0.01-5.02c0-3.44-0.01-7.05-0.01-10.79
									c0-0.94,0-1.88,0-2.83c0-0.47,0-0.97,0.1-1.45c0.1-0.48,0.24-0.96,0.47-1.4c0.22-0.45,0.5-0.86,0.83-1.23
									c0.33-0.38,0.72-0.7,1.14-0.96c0.85-0.54,1.86-0.82,2.88-0.83c3.97,0,7.84,0,11.58,0c1.87,0,3.71,0,5.51,0
									c0.9,0,1.79,0,2.67,0c0.44,0,0.88-0.01,1.33,0.04c0.44,0.06,0.88,0.15,1.28,0.32c1.65,0.62,2.89,2.07,3.29,3.69
									c0.22,0.81,0.17,1.64,0.18,2.42c0,0.79,0,1.57,0,2.33c-0.01,3.06-0.01,5.91-0.02,8.51c-0.01,2.6-0.01,4.95-0.02,7.02
									c-0.02,1.02,0.07,2.01-0.19,2.88c-0.23,0.87-0.66,1.59-1.14,2.14c-0.98,1.11-2.12,1.52-2.86,1.68
									c-0.38,0.07-0.67,0.11-0.87,0.1C222.7,87.76,222.6,87.76,222.6,87.76z"/>
							</g>
						</g>
					</g>
				</g>
			</g>
		</g>
	</g>
	<g>
		<g>
			<g>
				<g>
					<g>
						<g>
							<path class="st391" d="M108.26,65.82H87.82c-2.92,0-5.28-2.37-5.28-5.28V40.09c0-2.92,2.37-5.28,5.28-5.28h20.44
								c2.92,0,5.28,2.37,5.28,5.28v20.44C113.54,63.45,111.18,65.82,108.26,65.82z"/>
						</g>
						<g>
							<g>
								<path class="st511" d="M108.26,65.82c0-0.03,0.41,0.01,1.15-0.16c0.73-0.17,1.84-0.59,2.79-1.7c0.47-0.54,0.89-1.25,1.1-2.1
									c0.24-0.84,0.15-1.81,0.17-2.85c-0.01-2.07-0.01-4.42-0.02-7.02c0-2.6-0.01-5.45-0.02-8.51c0-0.76,0-1.54,0-2.33
									c-0.01-0.79,0.04-1.59-0.17-2.36c-0.38-1.55-1.58-2.93-3.15-3.52c-0.39-0.16-0.81-0.25-1.23-0.3
									c-0.42-0.05-0.85-0.04-1.3-0.04c-0.88,0-1.77,0-2.67,0c-1.8,0-3.64,0-5.51,0c-3.74,0-7.62,0-11.58,0
									c-0.97,0.01-1.93,0.27-2.73,0.79c-0.4,0.25-0.78,0.56-1.09,0.92c-0.32,0.35-0.59,0.75-0.79,1.17
									c-0.22,0.42-0.35,0.87-0.45,1.33c-0.09,0.46-0.09,0.92-0.09,1.4c0,0.95,0,1.9,0,2.83c0,3.74-0.01,7.35-0.01,10.79
									c0,1.72,0,3.4-0.01,5.02c0.01,0.82-0.05,1.62,0.1,2.38c0.16,0.76,0.48,1.46,0.93,2.06c0.89,1.21,2.28,1.95,3.67,2.06
									c1.4,0.05,2.78,0.02,4.07,0.03c5.19,0.02,9.4,0.03,12.32,0.04c1.45,0.01,2.57,0.02,3.35,0.02c0.38,0.01,0.66,0.01,0.87,0.01
									C108.16,65.81,108.26,65.82,108.26,65.82s-0.1,0.01-0.3,0.01c-0.21,0-0.5,0.01-0.87,0.01c-0.78,0.01-1.9,0.01-3.35,0.02
									c-2.92,0.01-7.12,0.02-12.32,0.04c-1.3-0.01-2.65,0.03-4.09-0.02c-1.44-0.11-2.89-0.87-3.83-2.13
									c-0.47-0.62-0.81-1.36-0.98-2.15c-0.16-0.8-0.09-1.61-0.11-2.42c0-1.63,0-3.31-0.01-5.02c0-3.44-0.01-7.05-0.01-10.79
									c0-0.94,0-1.88,0-2.83c0-0.47,0-0.97,0.09-1.45c0.1-0.48,0.24-0.96,0.47-1.4c0.22-0.45,0.5-0.86,0.83-1.23
									c0.33-0.38,0.72-0.7,1.14-0.96c0.85-0.54,1.86-0.82,2.88-0.83c3.97,0,7.84,0,11.58,0c1.87,0,3.71,0,5.51,0
									c0.9,0,1.79,0,2.67,0c0.44,0,0.88-0.01,1.33,0.04c0.44,0.06,0.88,0.15,1.28,0.32c1.65,0.62,2.89,2.07,3.29,3.69
									c0.22,0.81,0.17,1.64,0.18,2.42c0,0.79,0,1.57,0,2.33c-0.01,3.06-0.01,5.91-0.02,8.51c-0.01,2.6-0.01,4.95-0.02,7.02
									c-0.02,1.02,0.07,2.01-0.19,2.88c-0.23,0.87-0.66,1.59-1.14,2.14c-0.98,1.11-2.12,1.52-2.86,1.68
									c-0.38,0.07-0.67,0.11-0.87,0.1C108.36,65.82,108.26,65.82,108.26,65.82z"/>
							</g>
						</g>
					</g>
				</g>
			</g>
		</g>
	</g>
	<g>
		<g>
			<path class="st511" d="M197.6,72.88c0,0.07-3.52,0.13-7.86,0.13c-4.34,0-7.86-0.06-7.86-0.13c0-0.07,3.52-0.13,7.86-0.13
				C194.08,72.75,197.6,72.81,197.6,72.88z"/>
		</g>
	</g>
	<g>
		<g>
			<rect x="87.48" y="56.49" class="st595" width="3.91" height="3"/>
		</g>
		<g>
			<rect x="92.43" y="49.58" class="st595" width="3.91" height="9.9"/>
		</g>
		<g>
			<rect x="97.87" y="53.85" class="st595" width="3.91" height="5.64"/>
		</g>
		<g>
			<rect x="103.07" y="46.71" class="st595" width="3.91" height="12.78"/>
		</g>
		<g>
			<path class="st595" d="M89.17,53.41c-1.07,0-1.95-0.87-1.95-1.95c0-1.07,0.87-1.95,1.95-1.95c1.07,0,1.95,0.87,1.95,1.95
				C91.12,52.53,90.24,53.41,89.17,53.41z M89.17,50.02c-0.79,0-1.44,0.65-1.44,1.44c0,0.79,0.65,1.44,1.44,1.44
				c0.79,0,1.44-0.65,1.44-1.44C90.61,50.66,89.96,50.02,89.17,50.02z"/>
		</g>
		<g>
			<path class="st595" d="M94.77,45.99c-1.07,0-1.95-0.87-1.95-1.95c0-1.07,0.87-1.95,1.95-1.95c1.07,0,1.95,0.87,1.95,1.95
				C96.71,45.12,95.84,45.99,94.77,45.99z M94.77,42.61c-0.79,0-1.44,0.65-1.44,1.44c0,0.79,0.65,1.44,1.44,1.44
				c0.79,0,1.44-0.65,1.44-1.44C96.21,43.25,95.56,42.61,94.77,42.61z"/>
		</g>
		<g>
			<path class="st595" d="M99.83,50.69c-1.07,0-1.95-0.87-1.95-1.95c0-1.07,0.87-1.95,1.95-1.95c1.07,0,1.95,0.87,1.95,1.95
				C101.78,49.81,100.9,50.69,99.83,50.69z M99.83,47.3c-0.79,0-1.44,0.65-1.44,1.44c0,0.79,0.65,1.44,1.44,1.44
				c0.79,0,1.44-0.65,1.44-1.44C101.27,47.95,100.62,47.3,99.83,47.3z"/>
		</g>
		<g>
			<path class="st595" d="M105.24,43.88c-1.07,0-1.95-0.87-1.95-1.95c0-1.07,0.87-1.95,1.95-1.95c1.07,0,1.95,0.87,1.95,1.95
				C107.19,43.01,106.31,43.88,105.24,43.88z M105.24,40.5c-0.79,0-1.44,0.65-1.44,1.44c0,0.79,0.65,1.44,1.44,1.44
				c0.79,0,1.44-0.65,1.44-1.44C106.68,41.14,106.03,40.5,105.24,40.5z"/>
		</g>
		<g>
			
				<rect x="99.78" y="45.15" transform="matrix(0.575 -0.8181 0.8181 0.575 6.4174 103.1711)" class="st595" width="5.47" height="0.51"/>
		</g>
		<g>
			
				<rect x="97.01" y="44.93" transform="matrix(0.7227 -0.6912 0.6912 0.7227 -5.2767 80.167)" class="st595" width="0.51" height="3.46"/>
		</g>
		<g>
			
				<rect x="88.99" y="47.52" transform="matrix(0.6132 -0.7899 0.7899 0.6132 -2.2056 91.0471)" class="st595" width="5.75" height="0.51"/>
		</g>
	</g>
	<g>
		<path class="st511" d="M105.57,66.19c0,0.82-0.66,1.48-1.48,1.48c-0.82,0-1.48-0.66-1.48-1.48c0-0.82,0.66-1.48,1.48-1.48
			C104.91,64.7,105.57,65.37,105.57,66.19z"/>
	</g>
	<g>
		<path class="st511" d="M142.71,39.67c0,0.82-0.66,1.48-1.48,1.48c-0.82,0-1.48-0.66-1.48-1.48c0-0.82,0.66-1.48,1.48-1.48
			C142.04,38.19,142.71,38.85,142.71,39.67z"/>
	</g>
	<g>
		<path class="st511" d="M198.25,72.88c0,0.82-0.66,1.48-1.48,1.48c-0.82,0-1.48-0.66-1.48-1.48c0-0.82,0.66-1.48,1.48-1.48
			C197.58,71.4,198.25,72.07,198.25,72.88z"/>
	</g>
	<g>
		<path class="st511" d="M180.52,50.54c0,0.82-0.66,1.48-1.48,1.48c-0.82,0-1.48-0.66-1.48-1.48c0-0.82,0.66-1.48,1.48-1.48
			C179.86,49.05,180.52,49.72,180.52,50.54z"/>
	</g>
	<g>
		<g>
			<g>
				<g>
					<g>
						<g>
							<path class="st391" d="M216.54,120h-12.32c-2.92,0-5.28-2.37-5.28-5.28v-12.32c0-2.92,2.37-5.28,5.28-5.28h12.32
								c2.92,0,5.28,2.37,5.28,5.28v12.32C221.82,117.63,219.45,120,216.54,120z"/>
						</g>
						<g>
							<g>
								<path class="st511" d="M216.54,120c0-0.02,0.29,0,0.83-0.1c0.53-0.1,1.34-0.31,2.18-0.91c0.84-0.59,1.71-1.62,2.05-3.05
									c0.19-0.71,0.14-1.5,0.14-2.34c0-0.84-0.01-1.73-0.01-2.66c0-1.87-0.01-3.91-0.02-6.1c0-0.55,0-1.11,0-1.67
									c-0.01-0.57,0.03-1.14-0.09-1.7c-0.21-1.12-0.8-2.21-1.73-2.99c-0.92-0.78-2.14-1.24-3.41-1.23c-1.29,0-2.61,0-3.95,0
									c-2.68,0-5.46,0-8.31,0c-1.39-0.01-2.75,0.58-3.69,1.56c-0.95,0.97-1.47,2.3-1.47,3.61c0,2.68-0.01,5.27-0.01,7.74
									c0,1.23,0,2.44-0.01,3.61c0,0.59-0.02,1.16,0.06,1.71c0.07,0.55,0.24,1.08,0.48,1.56c0.47,0.97,1.24,1.73,2.11,2.22
									c0.88,0.49,1.84,0.69,2.76,0.66c3.72,0.02,6.74,0.03,8.84,0.04c1.03,0.01,1.84,0.02,2.4,0.02c0.26,0.01,0.47,0.01,0.62,0.01
									C216.46,119.99,216.54,119.99,216.54,120c0,0-0.07,0.01-0.21,0.01c-0.15,0-0.36,0.01-0.62,0.01
									c-0.56,0.01-1.37,0.01-2.4,0.02c-2.1,0.01-5.12,0.02-8.84,0.04c-0.94,0.03-1.95-0.17-2.86-0.67c-0.9-0.51-1.71-1.3-2.2-2.3
									c-0.26-0.5-0.43-1.05-0.51-1.62c-0.09-0.58-0.06-1.16-0.07-1.74c0-1.17,0-2.37-0.01-3.61c0-2.47-0.01-5.06-0.01-7.74
									c-0.01-1.38,0.54-2.78,1.54-3.79c0.99-1.02,2.41-1.65,3.88-1.64c2.85,0,5.63,0,8.31,0c1.34,0,2.66,0,3.95,0
									c1.32-0.01,2.61,0.48,3.56,1.3c0.97,0.81,1.58,1.96,1.8,3.13c0.12,0.59,0.08,1.18,0.09,1.74c0,0.57,0,1.12,0,1.67
									c-0.01,2.19-0.01,4.24-0.02,6.1c0,0.93-0.01,1.82-0.01,2.66c-0.01,0.83,0.03,1.65-0.17,2.38c-0.37,1.47-1.27,2.51-2.13,3.1
									c-0.87,0.6-1.69,0.8-2.23,0.88c-0.27,0.05-0.48,0.05-0.62,0.05C216.61,120,216.54,120,216.54,120z"/>
							</g>
						</g>
					</g>
				</g>
			</g>
		</g>
	</g>
	<g>
		<g>
			<g>
				<g>
					<g>
						<g>
							<path class="st391" d="M112.06,114.87H99.73c-2.92,0-5.28-2.37-5.28-5.28V97.26c0-2.92,2.37-5.28,5.28-5.28h12.32
								c2.92,0,5.28,2.37,5.28,5.28v12.32C117.34,112.5,114.97,114.87,112.06,114.87z"/>
						</g>
						<g>
							<g>
								<path class="st511" d="M112.06,114.87c0-0.02,0.29,0,0.83-0.1c0.53-0.1,1.34-0.31,2.18-0.91c0.84-0.59,1.71-1.62,2.05-3.05
									c0.19-0.71,0.14-1.5,0.14-2.34c0-0.84-0.01-1.73-0.01-2.66c0-1.87-0.01-3.91-0.02-6.1c0-0.55,0-1.11,0-1.67
									c-0.01-0.57,0.03-1.14-0.09-1.7c-0.21-1.12-0.8-2.21-1.73-2.99c-0.92-0.78-2.14-1.24-3.41-1.23c-1.29,0-2.61,0-3.95,0
									c-2.68,0-5.46,0-8.31,0c-1.39-0.01-2.75,0.58-3.69,1.56c-0.95,0.97-1.47,2.3-1.47,3.61c0,2.68-0.01,5.27-0.01,7.74
									c0,1.23,0,2.44-0.01,3.61c0,0.59-0.02,1.16,0.06,1.71c0.07,0.55,0.24,1.08,0.48,1.56c0.47,0.97,1.24,1.73,2.11,2.22
									c0.88,0.49,1.84,0.69,2.76,0.66c3.72,0.02,6.74,0.03,8.84,0.04c1.03,0.01,1.84,0.02,2.4,0.02c0.26,0.01,0.47,0.01,0.62,0.01
									C111.98,114.86,112.06,114.86,112.06,114.87c0,0-0.07,0.01-0.21,0.01c-0.15,0-0.36,0.01-0.62,0.01
									c-0.56,0.01-1.37,0.01-2.4,0.02c-2.1,0.01-5.12,0.02-8.84,0.04c-0.94,0.03-1.95-0.17-2.86-0.67c-0.9-0.51-1.71-1.3-2.2-2.3
									c-0.26-0.5-0.43-1.05-0.51-1.62c-0.09-0.58-0.06-1.16-0.07-1.74c0-1.17,0-2.37-0.01-3.61c0-2.47-0.01-5.06-0.01-7.74
									c-0.01-1.38,0.54-2.78,1.54-3.79c0.99-1.02,2.41-1.65,3.88-1.64c2.85,0,5.63,0,8.31,0c1.34,0,2.66,0,3.95,0
									c1.32-0.01,2.61,0.48,3.56,1.3c0.97,0.81,1.58,1.96,1.8,3.13c0.12,0.59,0.08,1.18,0.09,1.74c0,0.57,0,1.12,0,1.67
									c-0.01,2.19-0.01,4.24-0.02,6.1c0,0.93-0.01,1.82-0.01,2.66c-0.01,0.83,0.03,1.65-0.17,2.38c-0.37,1.47-1.27,2.51-2.13,3.1
									c-0.87,0.6-1.69,0.8-2.23,0.88c-0.27,0.05-0.48,0.05-0.62,0.05C112.13,114.87,112.06,114.87,112.06,114.87z"/>
							</g>
						</g>
					</g>
				</g>
			</g>
		</g>
		<g>
			<g>
				<g>
					<g>
						<g>
							<path class="st595" d="M106.89,103.31c0.98-0.41,1.67-1.42,1.67-2.6c0.01-1.55-1.17-2.82-2.63-2.82
								c-1.46-0.01-2.64,1.25-2.65,2.8c0,1.2,0.69,2.21,1.68,2.63c-4.06,0.61-3.87,5.02-3.87,5.02l9.59,0.04
								C110.69,108.37,110.91,103.91,106.89,103.31z"/>
						</g>
					</g>
				</g>
			</g>
		</g>
	</g>
	<g>
		<g>
			<path class="st511" d="M139.2,28.12c-0.57,0-1.16-0.09-1.73-0.27c-2.97-0.96-4.6-4.15-3.64-7.12c0.96-2.97,4.15-4.6,7.12-3.64
				c1.44,0.46,2.61,1.46,3.3,2.8c0.69,1.34,0.81,2.88,0.35,4.31l0,0C143.81,26.6,141.58,28.12,139.2,28.12z M139.2,17.83
				c-1.96,0-3.78,1.25-4.42,3.21c-0.79,2.43,0.56,5.05,2.99,5.84c2.43,0.79,5.05-0.56,5.84-2.99l0,0c0.79-2.43-0.56-5.05-2.99-5.84
				C140.15,17.9,139.67,17.83,139.2,17.83z"/>
		</g>
		<g>
			<path class="st511" d="M146.68,31.52c-0.14,0-0.27-0.06-0.37-0.16l-4.2-4.58c-0.19-0.21-0.18-0.53,0.03-0.72
				c0.21-0.19,0.53-0.18,0.72,0.03l4.2,4.58c0.19,0.21,0.18,0.53-0.03,0.72C146.93,31.47,146.8,31.52,146.68,31.52z"/>
		</g>
	</g>
	<g>
		<g>
			<path class="st595" d="M212.78,81.67c-5.2,0-9.43-4.23-9.43-9.43c0-5.2,4.23-9.43,9.43-9.43s9.43,4.23,9.43,9.43
				C222.21,77.44,217.98,81.67,212.78,81.67z M212.78,63.32c-4.92,0-8.92,4-8.92,8.92c0,4.92,4,8.92,8.92,8.92s8.92-4,8.92-8.92
				C221.7,67.32,217.7,63.32,212.78,63.32z"/>
		</g>
		<g>
			<path class="st595" d="M212.49,81.64c-0.05-0.03-1.24-0.7-2.42-2.23c-1.08-1.4-2.34-3.82-2.21-7.37
				c0.13-3.55,1.48-5.86,2.58-7.17c1.2-1.43,2.37-2.02,2.42-2.04l0.23,0.46c-0.04,0.02-4.48,2.29-4.72,8.77
				c-0.24,6.48,4.32,9.1,4.36,9.13L212.49,81.64z"/>
		</g>
		<g>
			<path class="st595" d="M212.91,81.64l-0.27-0.43c0.04-0.03,4.46-2.84,4.22-9.33c-0.24-6.48-4.49-8.56-4.53-8.58l0.22-0.46
				c0.19,0.09,4.57,2.22,4.82,9.02C217.62,78.65,212.96,81.61,212.91,81.64z"/>
		</g>
		<g>
			<path class="st595" d="M212.9,69.25c-3.82,0-6.28-1.3-7.67-2.38l0.31-0.4c1.33,1.04,3.69,2.28,7.36,2.28
				c3.56,0,5.81-1.23,7.07-2.27l0.32,0.39C218.97,67.96,216.61,69.25,212.9,69.25z"/>
		</g>
		<g>
			<path class="st595" d="M220,77.74c-1.33-1.01-3.69-2.21-7.36-2.21c-3.56,0-5.81,1.2-7.08,2.2l-0.32-0.4
				c1.33-1.05,3.69-2.31,7.39-2.31c3.82,0,6.28,1.26,7.67,2.31L220,77.74z"/>
		</g>
		<g>
			<rect x="203.83" y="72.02" class="st595" width="18.14" height="0.51"/>
		</g>
	</g>
	<g>
		<g>
			<g>
				<rect x="169.68" y="143.81" class="st594" width="12.9" height="12.9"/>
			</g>
			<g>
				<rect x="185.84" y="144.6" class="st594" width="13.29" height="1.1"/>
			</g>
			<g>
				<rect x="185.84" y="147.15" class="st594" width="13.29" height="1.1"/>
			</g>
			<g>
				<rect x="185.84" y="149.7" class="st594" width="13.29" height="1.1"/>
			</g>
			<g>
				<rect x="185.84" y="152.25" class="st594" width="13.29" height="1.1"/>
			</g>
			<g>
				<rect x="185.84" y="154.81" class="st594" width="13.29" height="1.1"/>
			</g>
		</g>
		<g>
			<path class="st594" d="M201.53,140.32h-35.24v-5.09c0-1.95,1.58-3.54,3.54-3.54h28.12c1.98,0,3.59,1.61,3.59,3.59V140.32z"/>
		</g>
		<g>
			<g>
				<g>
					<g>
						<g>
							<g>
								<path class="st511" d="M198.24,162.7c-0.01-0.03,0.46,0.04,1.25-0.27c0.39-0.16,0.83-0.45,1.23-0.91
									c0.39-0.46,0.72-1.13,0.75-1.92c-0.01-3.22-0.02-7.86-0.03-13.59c0-2.87-0.01-6.01-0.02-9.38c0-0.42,0-0.85,0-1.28
									c0.01-0.43-0.01-0.84-0.14-1.25c-0.24-0.81-0.82-1.52-1.6-1.92c-0.38-0.2-0.81-0.32-1.25-0.35
									c-0.44-0.02-0.91-0.01-1.37-0.01c-0.92,0-1.86,0-2.81,0c-7.59,0-15.93,0.01-24.68,0.01c-0.53,0-1.05,0.13-1.51,0.37
									c-0.46,0.25-0.85,0.61-1.14,1.05c-0.28,0.44-0.46,0.94-0.49,1.45c-0.03,0.52-0.01,1.07-0.01,1.59c0,2.13,0,4.23,0,6.3
									c0,4.13-0.01,8.11-0.01,11.9c0,0.95,0,1.88,0,2.81c0,0.46,0,0.92,0,1.38c0.01,0.46-0.03,0.91,0.06,1.33
									c0.17,0.85,0.7,1.61,1.41,2.06c0.35,0.23,0.75,0.39,1.15,0.47c0.4,0.08,0.83,0.05,1.25,0.06c3.37,0.01,6.52,0.01,9.38,0.02
									c5.73,0.02,10.37,0.03,13.59,0.04c1.6,0.01,2.84,0.02,3.69,0.02c0.42,0.01,0.74,0.01,0.96,0.01
									C198.13,162.69,198.24,162.7,198.24,162.7s-0.11,0.01-0.33,0.01c-0.23,0-0.55,0.01-0.96,0.01c-0.85,0.01-2.1,0.01-3.69,0.02
									c-3.22,0.01-7.86,0.02-13.59,0.04c-2.87,0-6.01,0.01-9.38,0.02c-0.42-0.01-0.85,0.03-1.29-0.06
									c-0.44-0.08-0.86-0.25-1.24-0.49c-0.76-0.49-1.33-1.29-1.51-2.21c-0.1-0.46-0.06-0.93-0.07-1.38c0-0.46,0-0.91,0-1.38
									c0-0.92,0-1.86,0-2.81c0-3.79-0.01-7.78-0.01-11.9c0-2.06,0-4.17,0-6.3c0.01-0.54-0.01-1.06,0.01-1.61
									c0.03-0.56,0.23-1.1,0.53-1.58c0.31-0.47,0.74-0.86,1.23-1.14c0.5-0.26,1.07-0.41,1.64-0.4c8.75,0,17.09,0.01,24.68,0.01
									c0.95,0,1.88,0,2.81,0c0.47,0.01,0.91-0.01,1.38,0.01c0.47,0.03,0.93,0.17,1.34,0.38c0.83,0.43,1.45,1.19,1.71,2.06
									c0.14,0.43,0.16,0.89,0.15,1.32c0,0.43,0,0.85,0,1.28c-0.01,3.37-0.01,6.51-0.02,9.38c-0.02,5.74-0.02,10.38-0.05,13.59
									c-0.04,0.82-0.39,1.5-0.79,1.97c-0.41,0.47-0.87,0.76-1.27,0.91c-0.4,0.16-0.72,0.19-0.94,0.22
									C198.35,162.7,198.24,162.7,198.24,162.7z"/>
							</g>
						</g>
					</g>
				</g>
			</g>
		</g>
	</g>
	<g>
		<path class="st511" d="M185.84,131.69c0,0.82-0.66,1.48-1.48,1.48c-0.82,0-1.48-0.66-1.48-1.48c0-0.82,0.66-1.48,1.48-1.48
			C185.17,130.2,185.84,130.87,185.84,131.69z"/>
	</g>
	<g id="XMLID_00000126299447121899767360000014931297739666043554_">
		<path class="st512" d="M204.76,112.52c1.15,0.74,2.51,1.16,3.97,1.16c4.81,0,7.53-4.06,7.36-7.71c0.51-0.36,0.95-0.82,1.29-1.34
			c-0.46,0.21-0.96,0.35-1.49,0.41c0.53-0.32,0.95-0.83,1.14-1.43c-0.5,0.3-1.06,0.51-1.64,0.63c-0.47-0.5-1.15-0.82-1.89-0.82
			c-1.67,0-2.9,1.56-2.52,3.18c-2.15-0.11-4.06-1.14-5.34-2.71c-0.68,1.16-0.35,2.69,0.8,3.46c-0.42-0.01-0.82-0.13-1.17-0.32
			c-0.03,1.2,0.83,2.32,2.08,2.57c-0.36,0.1-0.76,0.12-1.17,0.04c0.33,1.03,1.29,1.78,2.42,1.8
			C207.51,112.3,206.14,112.68,204.76,112.52z"/>
	</g>
	<g>
		<g>
			<path class="st595" d="M190.38,36.03c0.78,2.73-0.99,5.39-3.79,5.39h-14.7c-2.38,0-4.24-2.3-3.56-4.62
				c0.04-0.12,0.08-0.24,0.13-0.36c0.66-1.62,2.52-2.63,4.22-2.29c0.4-2.98,2.97-5.51,5.91-5.83c2.94-0.32,5.98,1.59,7,4.41
				C185.59,32.74,189.38,32.54,190.38,36.03z"/>
		</g>
		<g>
			<path class="st391" d="M177.95,44.03v-5.64h-2.21c-0.26,0-0.41-0.29-0.26-0.5l3.64-5.13c0.13-0.18,0.39-0.18,0.52,0l3.63,5.09
				c0.15,0.21,0,0.5-0.26,0.5h-2.15v5.68H177.95z"/>
		</g>
	</g>
	<g>
		<g>
			<g>
				<path class="st594" d="M191.06,119.43l-6.64-23.38c0,0,0,0,0,0h-58.06l-7.56,23.3c-0.46,1.41,0.58,2.87,2.05,2.87h26.52
					l1.07-1.07h12.52l1.07,1.07h26.95C190.42,122.22,191.46,120.83,191.06,119.43z"/>
			</g>
			<g class="st390">
				<path d="M191.06,119.43l-6.64-23.38c0,0,0,0,0,0h-58.06l-7.56,23.3c-0.46,1.41,0.58,2.87,2.05,2.87h26.52l1.07-1.07h12.52
					l1.07,1.07h26.95C190.42,122.22,191.46,120.83,191.06,119.43z"/>
			</g>
			<g>
				<g>
					<path class="st594" d="M126.34,95.45v-34.3c0-1.36,1.1-2.46,2.45-2.46h53.35c1.35,0,2.45,1.1,2.45,2.46v34.3H126.34z"/>
				</g>
				<g>
					<g>
						<rect x="129.86" y="62.08" class="st391" width="51.2" height="30.5"/>
					</g>
					<g>
						<g>
							<path class="st511" d="M181.06,92.58c0,0-0.01-0.19-0.01-0.55c0-0.37-0.01-0.9-0.01-1.6c-0.01-1.41-0.01-3.47-0.03-6.11
								c-0.01-5.29-0.03-12.9-0.05-22.23l0.1,0.1c-13.81,0.01-31.7,0.02-51.2,0.03h0l0.13-0.13c0,10.8-0.01,21.11-0.01,30.5
								l-0.12-0.12c15,0.02,27.78,0.05,36.83,0.06c4.52,0.01,8.11,0.03,10.57,0.03c1.23,0.01,2.17,0.01,2.82,0.02
								c0.32,0,0.56,0.01,0.73,0.01C180.98,92.58,181.06,92.58,181.06,92.58s-0.08,0-0.24,0.01c-0.17,0-0.41,0-0.72,0.01
								c-0.64,0-1.58,0.01-2.8,0.02c-2.46,0.01-6.03,0.02-10.55,0.03c-9.06,0.01-21.87,0.04-36.91,0.06l-0.12,0v-0.12
								c0-9.39-0.01-19.7-0.01-30.5l0-0.13h0.13h0c19.49,0.01,37.39,0.02,51.2,0.03l0.1,0l0,0.1c-0.02,9.36-0.04,16.99-0.05,22.3
								c-0.01,2.63-0.02,4.69-0.03,6.09c0,0.69-0.01,1.22-0.01,1.58C181.07,92.41,181.06,92.58,181.06,92.58z"/>
						</g>
					</g>
				</g>
				<g>
					<path class="st511" d="M156.41,60.47c0,0.51-0.42,0.93-0.94,0.93c-0.52,0-0.94-0.41-0.94-0.93c0-0.51,0.42-0.93,0.94-0.93
						C155.98,59.55,156.41,59.96,156.41,60.47z"/>
				</g>
			</g>
			<g>
				<path class="st594" d="M191.06,118.57l-6.64-23.38c0,0,0,0,0,0h-58.06l-7.56,23.3c-0.46,1.41,0.58,2.87,2.05,2.87h26.52
					l1.07-1.07h12.52l1.07,1.07h26.95C190.42,121.35,191.46,119.96,191.06,118.57z"/>
			</g>
			<g>
				<path class="st596" d="M180.3,96.69l-50.6-0.17c-0.53,0-1,0.29-1.14,0.7l-4.06,11.51c-0.22,0.63,0.35,1.25,1.14,1.25h58.55
					c0.79,0,1.35-0.62,1.14-1.24l-3.9-11.34C181.29,96.98,180.83,96.69,180.3,96.69z"/>
			</g>
			<g class="st581">
				<path d="M164.59,118.77h-19.97c-0.82,0-1.42-0.85-1.21-1.71l1.13-4.72c0.14-0.6,0.64-1.02,1.21-1.02h17.84
					c0.58,0,1.09,0.44,1.22,1.06l1,4.72C165.99,117.95,165.39,118.77,164.59,118.77z"/>
			</g>
			<g>
				<g>
					<path class="st511" d="M164.52,100.33L164,97.92c-0.04-0.17-0.18-0.28-0.35-0.28h-3.11c-0.22,0-0.39,0.19-0.36,0.41l0.34,2.41
						c0.03,0.18,0.18,0.31,0.36,0.31l3.29,0C164.4,100.76,164.57,100.55,164.52,100.33z"/>
				</g>
				<g>
					<path class="st511" d="M155.13,100.38l-0.22-2.42c-0.02-0.18-0.17-0.33-0.36-0.33h-3.18c-0.2,0-0.37,0.17-0.36,0.37l0.09,2.43
						c0.01,0.19,0.17,0.35,0.36,0.35l3.32,0C154.99,100.77,155.15,100.59,155.13,100.38z"/>
				</g>
				<g>
					<path class="st511" d="M160.07,100.36l-0.34-2.41c-0.03-0.18-0.18-0.31-0.36-0.31h-3.66c-0.21,0-0.38,0.18-0.36,0.39l0.22,2.42
						c0.02,0.19,0.17,0.33,0.36,0.33l3.79-0.01C159.94,100.77,160.1,100.57,160.07,100.36z"/>
				</g>
				<g>
					<path class="st511" d="M136.84,100.42l0.49-2.2c0.07-0.3-0.16-0.59-0.47-0.59h-3.02c-0.22,0-0.41,0.14-0.46,0.35l-0.63,2.2
						c-0.09,0.31,0.14,0.62,0.47,0.62l3.15,0C136.6,100.8,136.79,100.64,136.84,100.42z"/>
				</g>
				<g>
					<path class="st511" d="M180.8,100.25l-0.92-2.38c-0.05-0.14-0.19-0.23-0.34-0.23h-5.92c-0.25,0-0.42,0.25-0.34,0.48l0.89,2.39
						c0.05,0.14,0.19,0.23,0.34,0.23l5.95-0.01C180.71,100.74,180.89,100.49,180.8,100.25z"/>
				</g>
				<g>
					<path class="st511" d="M150.22,97.64h-3.44c-0.19,0-0.35,0.15-0.36,0.34l-0.12,2.43c-0.01,0.21,0.15,0.38,0.36,0.38l3.65-0.01
						c0.2,0,0.37-0.17,0.36-0.37l-0.09-2.43C150.57,97.79,150.41,97.64,150.22,97.64z"/>
				</g>
				<g>
					<path class="st511" d="M132.39,97.64h-2.4c-0.2,0-0.39,0.13-0.45,0.32l-0.79,2.21c-0.11,0.31,0.12,0.65,0.46,0.65l2.56,0
						c0.22,0,0.4-0.14,0.46-0.35l0.63-2.2C132.94,97.94,132.71,97.64,132.39,97.64z"/>
				</g>
				<g>
					<path class="st511" d="M141.3,100.48l0.32-2.44c0.03-0.22-0.14-0.41-0.36-0.41h-3.06c-0.17,0-0.31,0.12-0.35,0.28l-0.55,2.44
						c-0.05,0.22,0.12,0.44,0.35,0.44l3.29,0C141.12,100.79,141.27,100.66,141.3,100.48z"/>
				</g>
				<g>
					<path class="st511" d="M142.06,97.95l-0.32,2.44c-0.03,0.22,0.14,0.41,0.36,0.41l3.41,0c0.19,0,0.35-0.15,0.36-0.34l0.12-2.43
						c0.01-0.2-0.15-0.38-0.36-0.38h-3.21C142.24,97.64,142.09,97.77,142.06,97.95z"/>
				</g>
				<g>
					<path class="st511" d="M169.2,100.29l-0.71-2.4c-0.05-0.15-0.19-0.26-0.34-0.26h-3.32c-0.23,0-0.4,0.21-0.35,0.43l0.52,2.41
						c0.04,0.17,0.18,0.28,0.35,0.28l3.51,0C169.1,100.75,169.27,100.52,169.2,100.29z"/>
				</g>
				<g>
					<path class="st511" d="M173.62,100.26l-0.89-2.39c-0.05-0.14-0.19-0.23-0.34-0.23h-3.05c-0.24,0-0.41,0.23-0.34,0.46l0.71,2.4
						c0.05,0.15,0.19,0.26,0.34,0.26l3.23,0C173.54,100.75,173.71,100.5,173.62,100.26z"/>
				</g>
				<g>
					<path class="st511" d="M150.36,101.33l-3.76,0c-0.19,0-0.35,0.15-0.36,0.34l-0.12,2.51c-0.01,0.21,0.15,0.38,0.36,0.38
						l3.97-0.01c0.2,0,0.37-0.17,0.36-0.37l-0.09-2.5C150.71,101.48,150.55,101.33,150.36,101.33z"/>
				</g>
				<g>
					<path class="st511" d="M175.03,104.03l-0.92-2.47c-0.05-0.14-0.19-0.23-0.34-0.23l-3.33,0c-0.24,0-0.41,0.23-0.34,0.46
						l0.73,2.47c0.05,0.15,0.19,0.26,0.34,0.26l3.51,0C174.94,104.52,175.11,104.27,175.03,104.03z"/>
				</g>
				<g>
					<path class="st511" d="M170.32,104.06l-0.73-2.48c-0.05-0.15-0.19-0.26-0.34-0.26l-3.62,0c-0.23,0-0.4,0.21-0.35,0.44
						l0.54,2.48c0.04,0.17,0.18,0.28,0.35,0.28l3.82,0C170.22,104.52,170.39,104.29,170.32,104.06z"/>
				</g>
				<g>
					<path class="st511" d="M141.61,104.56l3.72,0c0.19,0,0.35-0.15,0.36-0.34l0.12-2.51c0.01-0.2-0.15-0.38-0.36-0.38l-3.51,0
						c-0.18,0-0.33,0.13-0.36,0.31l-0.33,2.52C141.22,104.37,141.39,104.56,141.61,104.56z"/>
				</g>
				<g>
					<path class="st511" d="M151.6,104.55l3.52,0c0.21,0,0.38-0.18,0.36-0.39l-0.23-2.5c-0.02-0.18-0.17-0.33-0.36-0.33l-3.39,0
						c-0.2,0-0.37,0.17-0.36,0.37l0.09,2.5C151.25,104.4,151.41,104.55,151.6,104.55z"/>
				</g>
				<g>
					<path class="st511" d="M155.69,101.72l0.23,2.5c0.02,0.19,0.17,0.33,0.36,0.33l3.98-0.01c0.22,0,0.39-0.19,0.36-0.41
						l-0.36-2.49c-0.03-0.18-0.18-0.31-0.36-0.31l-3.85,0C155.84,101.33,155.67,101.51,155.69,101.72z"/>
				</g>
				<g>
					<path class="st511" d="M165.33,104.1l-0.54-2.48c-0.04-0.17-0.18-0.28-0.35-0.28l-3.39,0c-0.22,0-0.39,0.19-0.36,0.41
						l0.36,2.49c0.03,0.18,0.18,0.31,0.36,0.31l3.57,0C165.21,104.53,165.38,104.32,165.33,104.1z"/>
				</g>
				<g>
					<path class="st511" d="M136.19,101.33l-7.5,0c-0.15,0-0.28,0.09-0.34,0.23l-0.98,2.54c-0.09,0.24,0.08,0.49,0.34,0.49
						l7.91-0.01c0.17,0,0.31-0.12,0.35-0.28l0.57-2.53C136.59,101.54,136.42,101.33,136.19,101.33z"/>
				</g>
				<g>
					<path class="st511" d="M136.81,104.57l3.64,0c0.18,0,0.33-0.13,0.36-0.31l0.33-2.52c0.03-0.21-0.14-0.41-0.36-0.41l-3.41,0
						c-0.17,0-0.31,0.12-0.35,0.28l-0.56,2.52C136.4,104.36,136.58,104.57,136.81,104.57z"/>
				</g>
				<g>
					<path class="st511" d="M179.5,104.51l2.34,0c0.25,0,0.43-0.26,0.33-0.49l-0.99-2.46c-0.05-0.14-0.19-0.23-0.33-0.23l-2.16,0
						c-0.24,0-0.42,0.24-0.34,0.47l0.8,2.46C179.21,104.41,179.35,104.51,179.5,104.51z"/>
				</g>
				<g>
					<path class="st511" d="M178.64,104.04l-0.8-2.46c-0.05-0.15-0.19-0.25-0.34-0.25l-2.5,0c-0.25,0-0.42,0.25-0.34,0.48l0.92,2.47
						c0.05,0.14,0.19,0.23,0.34,0.23l2.38,0C178.54,104.51,178.71,104.28,178.64,104.04z"/>
				</g>
				<g>
					<path class="st511" d="M141.26,108.79l3.69,0.01c0.29,0,0.53-0.23,0.54-0.51l0.13-2.62c0.01-0.31-0.23-0.57-0.54-0.57h-3.47
						c-0.27,0-0.5,0.2-0.54,0.47l-0.34,2.61C140.68,108.5,140.94,108.79,141.26,108.79z"/>
				</g>
				<g>
					<path class="st511" d="M182.32,105.09h-5.66c-0.38,0-0.64,0.38-0.51,0.73l1,2.67c0.08,0.21,0.28,0.35,0.51,0.35l5.71,0.01
						c0.38,0,0.64-0.38,0.5-0.74l-1.05-2.68C182.75,105.23,182.55,105.09,182.32,105.09z"/>
				</g>
				<g>
					<path class="st511" d="M136.14,105.52l-0.58,2.61c-0.08,0.34,0.18,0.66,0.53,0.66l3.65,0.01c0.27,0,0.5-0.2,0.54-0.47
						l0.34-2.61c0.04-0.32-0.21-0.61-0.54-0.61h-3.41C136.42,105.09,136.2,105.27,136.14,105.52z"/>
				</g>
				<g>
					<path class="st511" d="M131.19,105.49l-0.77,2.69c-0.09,0.3,0.14,0.59,0.45,0.59l3.72,0.01c0.22,0,0.41-0.15,0.46-0.36
						l0.61-2.74c0.07-0.29-0.16-0.57-0.46-0.57l-3.57,0.05C131.43,105.15,131.25,105.29,131.19,105.49z"/>
				</g>
				<g>
					<path class="st511" d="M166.13,105.75l0.57,2.66c0.05,0.25,0.27,0.43,0.53,0.43l3.78,0.01c0.36,0,0.62-0.35,0.52-0.69
						l-0.79-2.66c-0.07-0.23-0.28-0.39-0.52-0.39h-3.56C166.32,105.09,166.06,105.41,166.13,105.75z"/>
				</g>
				<g>
					<path class="st511" d="M146.05,105.61l-0.13,2.62c-0.01,0.31,0.23,0.57,0.54,0.57l19.22,0.03c0.35,0,0.6-0.32,0.53-0.66
						l-0.57-2.65c-0.05-0.25-0.27-0.43-0.53-0.43h-18.52C146.3,105.09,146.06,105.32,146.05,105.61z"/>
				</g>
				<g>
					<path class="st511" d="M126.99,105.38l-1.04,2.81c-0.1,0.28,0.1,0.58,0.4,0.58l3.12,0.01c0.19,0,0.36-0.13,0.41-0.31l0.81-2.82
						c0.08-0.27-0.13-0.55-0.41-0.55h-2.89C127.22,105.09,127.05,105.21,126.99,105.38z"/>
				</g>
				<g>
					<path class="st511" d="M171.28,105.79l0.79,2.67c0.07,0.23,0.28,0.39,0.52,0.39l3.45,0.01c0.38,0,0.64-0.38,0.51-0.73
						l-0.99-2.67c-0.08-0.21-0.28-0.35-0.51-0.35h-3.24C171.44,105.09,171.18,105.44,171.28,105.79z"/>
				</g>
			</g>
			<g>
				<g>
					<path class="st511" d="M184.63,95.28c0,0.07-13.02,0.13-29.07,0.13c-16.06,0-29.07-0.06-29.07-0.13
						c0-0.07,13.01-0.13,29.07-0.13C171.61,95.14,184.63,95.2,184.63,95.28z"/>
				</g>
			</g>
		</g>
		<g>
			<g>
				<g>
					<g>
						<g>
							<g>
								<g>
									<path class="st210" d="M144.2,70.84c0.54-0.45,1.13-0.81,1.75-1.1l0.11-1.91l3.13-0.52l0.73,1.77
										c0.68,0.06,1.36,0.22,2.02,0.46l1.43-1.28l2.58,1.84l-0.74,1.77c0.45,0.54,0.81,1.13,1.1,1.75l1.91,0.11l0.52,3.13
										l-1.77,0.73c-0.06,0.68-0.22,1.36-0.46,2.02l1.28,1.43l-1.84,2.58l-1.77-0.74c-0.54,0.45-1.13,0.81-1.75,1.1l-0.11,1.91
										l-3.13,0.52l-0.73-1.77c-0.68-0.06-1.36-0.22-2.02-0.46l-1.43,1.28l-2.58-1.84l0.74-1.77c-0.45-0.54-0.81-1.13-1.1-1.75
										l-1.91-0.11l-0.52-3.13l1.77-0.73c0.06-0.68,0.22-1.36,0.46-2.02l-1.28-1.43l1.84-2.58L144.2,70.84L144.2,70.84z
										 M146.5,74.77c-1.09,1.53-0.74,3.66,0.8,4.75c1.53,1.09,3.66,0.74,4.75-0.8c1.09-1.53,0.74-3.66-0.8-4.75
										C149.72,72.89,147.59,73.24,146.5,74.77z"/>
								</g>
							</g>
						</g>
					</g>
				</g>
			</g>
			<g>
				<g>
					<g>
						<g>
							<g>
								<g>
									<path class="st210" d="M161.45,78.81c0.37-0.3,0.77-0.55,1.19-0.74l0.07-1.3l2.12-0.35l0.49,1.2
										c0.46,0.04,0.92,0.15,1.36,0.31l0.97-0.86l1.75,1.25l-0.5,1.2c0.3,0.37,0.55,0.77,0.74,1.19l1.3,0.07l0.35,2.12l-1.2,0.49
										c-0.04,0.46-0.15,0.92-0.31,1.36l0.86,0.97l-1.25,1.75l-1.2-0.5c-0.37,0.3-0.77,0.55-1.19,0.74l-0.07,1.3l-2.12,0.35
										l-0.49-1.2c-0.46-0.04-0.92-0.15-1.36-0.31l-0.97,0.86l-1.75-1.25l0.5-1.2c-0.3-0.37-0.55-0.77-0.74-1.19l-1.3-0.07
										l-0.35-2.12l1.2-0.49c0.04-0.46,0.15-0.92,0.31-1.36L159,80.06l1.25-1.75L161.45,78.81L161.45,78.81z M163,81.47
										c-0.74,1.04-0.5,2.48,0.54,3.21c1.04,0.74,2.48,0.5,3.21-0.54s0.5-2.48-0.54-3.21C165.18,80.2,163.74,80.44,163,81.47z"/>
								</g>
							</g>
						</g>
					</g>
				</g>
			</g>
			<g>
				<g>
					<g>
						<g>
							<g>
								<g>
									<path class="st210" d="M160.45,66.42c0.32-0.27,0.68-0.49,1.05-0.66l0.07-1.15l1.88-0.31l0.44,1.06
										c0.41,0.04,0.81,0.13,1.21,0.28l0.86-0.77l1.55,1.1l-0.44,1.06c0.27,0.32,0.49,0.68,0.66,1.05l1.15,0.07l0.31,1.88
										l-1.06,0.44c-0.04,0.41-0.13,0.81-0.28,1.21l0.76,0.86l-1.1,1.55l-1.06-0.44c-0.32,0.27-0.68,0.49-1.05,0.66l-0.07,1.15
										l-1.88,0.31L163,74.7c-0.41-0.04-0.81-0.13-1.21-0.28l-0.86,0.76l-1.55-1.1l0.44-1.06c-0.27-0.32-0.49-0.68-0.66-1.05
										l-1.15-0.07l-0.31-1.88l1.06-0.44c0.04-0.41,0.13-0.81,0.28-1.21l-0.76-0.86l1.1-1.55L160.45,66.42L160.45,66.42z
										 M161.83,68.78c-0.65,0.92-0.44,2.19,0.48,2.85c0.92,0.65,2.19,0.44,2.85-0.48c0.65-0.92,0.44-2.19-0.48-2.85
										C163.76,67.65,162.48,67.86,161.83,68.78z"/>
								</g>
							</g>
						</g>
					</g>
				</g>
			</g>
		</g>
	</g>
	<g>
		<g>
			<g>
				<g>
					<g>
						<g>
							<g>
								<g>
									<g>
										<g>
											<path class="st511" d="M45.71,68.49c-2.33-1.43-2.93-4.81-1.72-7.26c1.21-2.45,3.84-3.96,6.53-4.43
												c3.89-0.69,8.08,0.63,10.88,3.43c1.51,1.51,2.74,3.49,4.77,4.16c1.78,0.59,3.73,0.01,5.6,0.22
												c2.5,0.29,4.66,2.03,5.98,4.18c1.31,2.15,1.88,4.67,2.21,7.16c0.3,2.29,0.52,4.8,2.14,6.45
												c1.58,1.61,4.03,1.92,5.98,3.05c3.66,2.13,4.92,7.52,2.57,11.05c-0.75,1.13-1.83,2.16-1.9,3.51
												c-0.06,1.23,0.75,2.32,1.14,3.49c1,3.01-1.42,6.64-4.59,6.87c-1.6,0.12-3.32-0.48-4.75,0.25
												c-1.41,0.73-1.92,2.46-2.81,3.78c-1.76,2.59-5.49,3.62-8.32,2.28c-1.19-0.56-2.31-1.5-3.62-1.39
												c-1.3,0.11-2.32,1.24-3.6,1.5c-1.68,0.35-3.29-0.87-4.31-2.24c-1.02-1.38-1.74-3-3.04-4.12c-1.7-1.47-4.06-1.8-6.19-2.5
												c-4.7-1.54-8.67-5.2-10.59-9.76c-1.92-4.56-1.76-9.95,0.43-14.39"/>
										</g>
									</g>
								</g>
							</g>
						</g>
					</g>
				</g>
			</g>
		</g>
		<g>
			<g>
				<g>
					<g>
						<g>
							<g>
								<g>
									<g>
										<g>
											<path class="st512" d="M70.53,98.26c0.47-0.52,1.15-1.01,1.85-1.26L72.24,97c0.13-0.04,0.27-0.06,0.4-0.07
												c0.51-0.13,1.03-0.11,1.46,0.16l-0.01,0c0.8,0.28,1.52,0.86,1.92,1.62c0.69,1.32,0.47,3.03-0.42,4.23
												c-0.77,1.04-2.11,1.74-3.38,1.45c-1.16-0.26-2.04-1.3-2.38-2.44C69.45,100.69,69.66,99.23,70.53,98.26z"/>
										</g>
									</g>
								</g>
							</g>
						</g>
					</g>
				</g>
			</g>
		</g>
		<g>
			<g>
				<g>
					<g>
						<g>
							<path class="st593" d="M40.55,123.95l-3.11-44.92c-0.12-1.98,1.29-3.72,3.24-4.01l20.01-5.99
								c6.45-0.96,11.1,6.83,11.79,13.32c0.77,7.21,1.42,16.03,0.79,21.46c-1.25,10.91-10.16,12.69-10.16,12.69
								c0-0.04,0.1,11.09,0.22,15.04L66,143.72L40.55,123.95z"/>
						</g>
					</g>
				</g>
			</g>
			<g>
				<g>
					<g>
						<g>
							<path class="st511" d="M68.56,91.68c0.06,0.73-0.52,1.39-1.28,1.46c-0.76,0.07-1.43-0.46-1.49-1.19
								c-0.06-0.73,0.52-1.39,1.28-1.46C67.83,90.41,68.5,90.95,68.56,91.68z"/>
						</g>
					</g>
				</g>
			</g>
			<g>
				<g>
					<g>
						<g>
							<path class="st511" d="M70.71,86.3c-0.16,0.19-1.25-0.55-2.75-0.48c-1.5,0.05-2.56,0.86-2.73,0.69
								c-0.08-0.08,0.08-0.41,0.54-0.78c0.46-0.37,1.24-0.74,2.18-0.77c0.93-0.03,1.73,0.27,2.2,0.61
								C70.62,85.89,70.79,86.21,70.71,86.3z"/>
						</g>
					</g>
				</g>
			</g>
			<g>
				<g>
					<g>
						<g>
							<path class="st511" d="M55.09,92.14c0.06,0.73-0.52,1.39-1.28,1.46c-0.76,0.07-1.43-0.46-1.49-1.19
								c-0.06-0.73,0.52-1.39,1.28-1.46C54.36,90.87,55.03,91.41,55.09,92.14z"/>
						</g>
					</g>
				</g>
			</g>
			<g>
				<g>
					<g>
						<g>
							<path class="st511" d="M56.02,87.21c-0.17,0.19-1.25-0.55-2.75-0.48c-1.49,0.05-2.56,0.86-2.73,0.69
								c-0.08-0.08,0.08-0.41,0.54-0.78c0.46-0.37,1.24-0.74,2.18-0.77c0.93-0.03,1.73,0.27,2.2,0.61
								C55.92,86.8,56.1,87.12,56.02,87.21z"/>
						</g>
					</g>
				</g>
			</g>
			<g>
				<g>
					<g>
						<g>
							<path class="st511" d="M61.92,98.07c-0.01-0.08,0.91-0.29,2.41-0.54c0.38-0.06,0.74-0.15,0.79-0.41
								c0.08-0.28-0.1-0.68-0.3-1.12c-0.4-0.91-0.82-1.86-1.26-2.86c-1.75-4.07-3.03-7.43-2.86-7.5c0.16-0.07,1.71,3.18,3.46,7.25
								c0.42,1.01,0.82,1.96,1.21,2.88c0.16,0.43,0.43,0.91,0.26,1.49c-0.09,0.29-0.36,0.51-0.6,0.59c-0.24,0.09-0.46,0.1-0.64,0.12
								C62.87,98.11,61.93,98.15,61.92,98.07z"/>
						</g>
					</g>
				</g>
			</g>
			<g>
				<g>
					<g>
						<g>
							<path class="st597" d="M63.07,115.77c0,0-6.62,0.74-14.03-3.29c0,0,3.26,8.02,14.06,6.54L63.07,115.77z"/>
						</g>
					</g>
				</g>
			</g>
			<g>
				<g>
					<g>
						<g>
							<path class="st597" d="M61.85,101.64c-0.77-0.99-1.98-1.57-3.1-1.48c-0.78,0.06-1.53,0.46-1.92,1.16
								c-0.4,0.7-0.38,1.71,0.14,2.42c0.58,0.79,1.63,1.01,2.47,0.77c0.84-0.24,1.51-0.85,2.14-1.46c0.18-0.17,0.35-0.34,0.45-0.58
								c0.09-0.24,0.08-0.55-0.09-0.76"/>
						</g>
					</g>
				</g>
			</g>
			<g>
				<g>
					<g>
						<g>
							<path class="st511" d="M57.56,99.29c0.24-0.02,0.32,1.6,1.76,2.69c1.44,1.1,3.16,0.84,3.18,1.07c0.03,0.1-0.37,0.33-1.1,0.38
								c-0.72,0.06-1.77-0.13-2.65-0.8c-0.88-0.67-1.28-1.6-1.37-2.26C57.29,99.7,57.45,99.29,57.56,99.29z"/>
						</g>
					</g>
				</g>
			</g>
			<g>
				<g>
					<g>
						<g>
							<path class="st511" d="M56.41,81.02c-0.13,0.41-1.63,0.28-3.38,0.57c-1.75,0.25-3.15,0.83-3.39,0.47
								c-0.11-0.17,0.12-0.56,0.67-0.98c0.55-0.42,1.44-0.83,2.49-0.99c1.05-0.16,2.02-0.03,2.67,0.2
								C56.13,80.52,56.47,80.82,56.41,81.02z"/>
						</g>
					</g>
				</g>
			</g>
			<g>
				<g>
					<g>
						<g>
							<path class="st511" d="M69.96,81.17c-0.25,0.35-1.29,0.04-2.53,0.08c-1.24-0.01-2.28,0.33-2.54-0.02
								c-0.11-0.17,0.04-0.52,0.48-0.86c0.44-0.34,1.18-0.63,2.04-0.65c0.85-0.01,1.6,0.27,2.05,0.6
								C69.91,80.66,70.07,81,69.96,81.17z"/>
						</g>
					</g>
				</g>
			</g>
		</g>
		<g>
			<g>
				<g>
					<g>
						<g>
							<g>
								<path class="st511" d="M79.71,79.23c-0.53-1.62-1.48-3.15-2.92-4.06c-0.79-0.5-1.7-0.79-2.43-1.37
									c-1.59-1.24-1.98-3.44-2.97-5.19c-1.28-2.26-3.71-3.82-6.3-4.05c-2.15-0.19-4.36,0.49-6.46-0.01
									c-1.55-0.37-2.92-1.35-4.49-1.63c-3.06-0.54-5.87,1.7-8.05,3.91c0.02,2.19,1.79,3.62,3.48,5c1.7,1.38,4.02,1.96,6.16,1.53
									c1.66-0.33,3.48-1.2,4.94-0.33c1.53,0.91,1.63,3.2,2.99,4.35c1.95,1.64,4.99,0.03,7.44,0.72c1.9,0.53,3.1,2.32,4.38,3.82
									c1.28,1.5,3.18,2.92,5.06,2.33C80.38,82.56,80.23,80.85,79.71,79.23z"/>
							</g>
						</g>
					</g>
				</g>
			</g>
		</g>
		<g>
			<g>
				<g>
					<g>
						<g>
							<g>
								<path class="st511" d="M56.63,70.32c-1.38-0.37-4.19-1.22-4.94-2.39c-1.63-2.56-4.47-4.28-7.34-4.08
									c-2.87,0.2-5.6,2.51-6.14,5.55c-3.48,0.08-6.84,2.31-8.46,5.62c-0.2,0.41-0.38,0.84-0.52,1.28
									c-1.06,1.92-1.23,4.31-0.41,6.35c0.49,1.23,1.32,2.59,0.7,3.77c-0.63,1.19-2.27,1.25-3.53,1.71
									c-2.21,0.8-3.61,3.37-3.08,5.65c0.19,0.82,0.59,1.64,0.44,2.46c-0.17,0.86-0.89,1.48-1.45,2.16
									c-1.38,1.69-1.77,4.12-1.01,6.15c0.77,2.04,2.67,3.6,4.82,3.96c0.98,0.16,2.03,0.11,2.88,0.61
									c0.98,0.58,1.42,1.74,2.11,2.64c1.33,1.72,3.81,2.46,5.86,1.74c0.42-0.14,0.8-0.36,1.16-0.61c0.67,0.9,1.7,1.49,3.45,1.47
									l-0.74-22.86c0.22,0.48,0.65,0.91,1.4,1.07c3.68,0.78,4.11-6.79,3.26-8.83c1.31-1.2,2.64-2.41,3.63-3.93
									c0.99-1.51,1.82-5.61,1.58-7.44C51.63,72.43,57.24,70.49,56.63,70.32z"/>
							</g>
						</g>
					</g>
				</g>
			</g>
		</g>
		<g>
			<g>
				<g>
					<g>
						<g>
							<g>
								<g>
									<g>
										<g>
											<g>
												<g>
													<g>
														<g>
															<g>
																<g>
																	<g>
																		<g>
																			<g>
																				<path class="st593" d="M41.47,93.35c-0.15-2.32-3-2.78-5-1.58c-1.1,0.66-1.92,1.95-1.79,4.42
																					c0.37,6.58,6.89,4.85,6.89,4.66C41.58,100.73,41.65,96.07,41.47,93.35z"/>
																			</g>
																		</g>
																	</g>
																</g>
															</g>
														</g>
													</g>
												</g>
											</g>
										</g>
									</g>
								</g>
							</g>
						</g>
					</g>
				</g>
			</g>
		</g>
		<g>
			<g>
				<g>
					<g>
						<g>
							<g>
								<g>
									<g>
										<g>
											<g>
												<g>
													<g>
														<g>
															<g>
																<g>
																	<g>
																		<g>
																			<g>
																				<g>
																					<path class="st597" d="M39.44,98.47c-0.03-0.02-0.11,0.09-0.3,0.19c-0.18,0.1-0.51,0.17-0.86,0.07
																						c-0.71-0.22-1.36-1.29-1.45-2.47c-0.05-0.6,0.04-1.17,0.23-1.66c0.17-0.49,0.47-0.85,0.81-0.93
																						c0.34-0.1,0.6,0.1,0.69,0.28c0.1,0.18,0.06,0.31,0.1,0.32c0.02,0.02,0.13-0.12,0.07-0.39
																						c-0.03-0.13-0.12-0.28-0.28-0.4c-0.16-0.12-0.4-0.17-0.64-0.13c-0.51,0.06-0.94,0.56-1.14,1.09
																						c-0.23,0.54-0.35,1.18-0.29,1.86c0.12,1.32,0.86,2.52,1.83,2.75c0.47,0.09,0.85-0.07,1.04-0.23
																						C39.43,98.63,39.46,98.48,39.44,98.47z"/>
																				</g>
																			</g>
																		</g>
																	</g>
																</g>
															</g>
														</g>
													</g>
												</g>
											</g>
										</g>
									</g>
								</g>
							</g>
						</g>
					</g>
				</g>
			</g>
		</g>
		<g>
			<g>
				<g>
					<g>
						<g>
							<g>
								<g>
									<g>
										<g>
											<path class="st512" d="M47.55,68.68c0.05,0.07-0.66,0.2-1.3,1.12c-0.64,0.91-0.86,2.63-0.42,4.56l0.04,0.17l-0.16,0.04
												c-1.62,0.43-3.4,1.75-4.18,3.8c-0.19,0.51-0.31,1.06-0.32,1.61c0.01,0.56,0.11,1.14,0.23,1.74
												c0.12,0.6,0.25,1.21,0.28,1.87c0.05,0.64-0.11,1.39-0.49,1.95c-0.8,1.26-2.11,1.89-3.23,2.5
												c-1.15,0.59-2.22,1.2-3.03,2.05c-1.64,1.67-2.35,3.8-2.38,5.55c-0.04,1.78,0.48,3.17,0.93,4.05
												c0.45,0.89,0.82,1.32,0.79,1.34c-0.01,0.01-0.11-0.09-0.29-0.29c-0.17-0.21-0.41-0.52-0.66-0.97
												c-0.5-0.87-1.09-2.29-1.1-4.14c-0.02-1.83,0.69-4.08,2.4-5.84c0.84-0.9,1.98-1.56,3.12-2.15
												c1.12-0.61,2.35-1.24,3.05-2.35c0.71-1.01,0.37-2.31,0.16-3.49c-0.11-0.6-0.23-1.2-0.23-1.82
												c0.01-0.63,0.15-1.21,0.36-1.76c0.87-2.2,2.77-3.55,4.5-3.98l-0.12,0.21c-0.42-2.02-0.14-3.81,0.59-4.75
												c0.35-0.47,0.74-0.73,1.02-0.85C47.39,68.71,47.54,68.66,47.55,68.68z"/>
										</g>
									</g>
								</g>
							</g>
						</g>
					</g>
				</g>
			</g>
		</g>
		<g>
			<g>
				<g>
					<g>
						<g>
							<g>
								<g>
									<path class="st512" d="M37.01,100.97c0.47-0.52,1.15-1.01,1.85-1.26l-0.14-0.01c0.13-0.04,0.27-0.06,0.4-0.07
										c0.51-0.13,1.03-0.11,1.46,0.16l-0.01,0c0.8,0.28,1.52,0.86,1.92,1.62c0.69,1.32,0.47,3.03-0.42,4.23
										c-0.77,1.04-2.11,1.74-3.38,1.45c-1.16-0.26-2.04-1.3-2.38-2.44C35.93,103.4,36.14,101.94,37.01,100.97z"/>
								</g>
							</g>
						</g>
					</g>
				</g>
			</g>
		</g>
	</g>
	<g>
		<g>
			<g>
				<g>
					<g>
						<g>
							<path class="st593" d="M132.38,150.58l4.48-1.72c0,0,1.22-3.91,2.04-5.06c0.81-1.15,5.14-4.66,5.4-4.76
								c0.25-0.1,3.1-6.47,4.39-6.27c1.3,0.21,2.19,1.12,1.83,2.85c-0.36,1.73-3.23,5.18-2.44,5.76c0.79,0.57,2.09,0.78,2.09,0.78
								s0.35-1.99,1.44-2.63c1.09-0.64,2.33,0.42,2.33,0.42l0.03,0.86l1.08-0.99c0,0,1.13-3.99,2.85-3.97c0,0,0.67-1.48,1.69-2.28
								c0.78-0.61,1.93-0.26,2.28,0.67l0,0l-3.08,9.05l-8.48,9.34c0,0-3.98,1.53-4.99,2c-1.01,0.47-5.61,3.65-7.64,4.33
								c-2.03,0.68-4.4,1.72-4.4,1.72L132.38,150.58z"/>
						</g>
					</g>
				</g>
			</g>
			<g>
				<g>
					<g>
						<g>
							<g>
								<path class="st597" d="M144.28,147.8c0-0.06-0.61-0.14-1.61-0.16c-0.98-0.01-2.45,0.05-3.84,0.84
									c-0.69,0.39-1.23,0.96-1.59,1.53c-0.37,0.57-0.59,1.14-0.76,1.61c-0.32,0.95-0.42,1.56-0.37,1.58
									c0.06,0.02,0.27-0.56,0.66-1.47c0.39-0.88,1-2.15,2.28-2.88c1.27-0.73,2.66-0.84,3.63-0.91
									C143.66,147.88,144.27,147.86,144.28,147.8z"/>
							</g>
						</g>
					</g>
				</g>
			</g>
			<g>
				<g>
					<g>
						<g>
							<g>
								<path class="st597" d="M148.19,141.61c0.07-0.1-0.4-0.52-1.12-0.73c-0.72-0.22-1.34-0.12-1.33-0.01
									c0,0.12,0.56,0.22,1.21,0.42C147.6,141.49,148.13,141.72,148.19,141.61z"/>
							</g>
						</g>
					</g>
				</g>
			</g>
		</g>
		<g>
			<g>
				<g>
					<path class="st597" d="M157.8,143.31c-0.06-0.01,0.02-0.74,0.2-1.96c0.18-1.22,0.45-2.93,0.79-4.89l0.13,0.26
						c-0.3-0.14-0.66-0.35-0.93-0.44c-0.29-0.09-0.61-0.04-0.9,0.12c-0.48,0.25-0.81,0.76-1.05,1.27c-0.23,0.52-0.43,1.06-0.56,1.56
						c-0.25,1.05-0.41,2.02-0.56,2.83c-0.29,1.62-0.48,2.62-0.55,2.62c-0.07-0.01,0-1.03,0.2-2.67c0.11-0.82,0.23-1.79,0.46-2.88
						c0.12-0.56,0.32-1.1,0.56-1.66c0.25-0.55,0.61-1.16,1.26-1.5c0.37-0.2,0.85-0.28,1.27-0.15c0.43,0.15,0.68,0.33,1.01,0.48
						l0.16,0.08l-0.03,0.18c-0.37,1.95-0.7,3.65-0.96,4.86C158.04,142.6,157.86,143.32,157.8,143.31z"/>
				</g>
			</g>
		</g>
		<g>
			<g>
				<g>
					<path class="st597" d="M146.66,151.03c-0.02,0-0.01-0.14,0.04-0.39c0.06-0.25,0.16-0.61,0.37-1.04
						c0.39-0.87,1.12-2.02,2.23-3.24l-0.05,0.08c0.59-1.74,0.05-4.25,1.63-6.5c0.4-0.46,1.03-0.77,1.63-0.73
						c0.6,0.03,1.12,0.24,1.58,0.55l0.11,0.08l-0.02,0.14c-0.32,2.54-0.61,4.74-0.83,6.29c-0.05,0.78-0.36,1.41-0.57,1.77
						c-0.22,0.38-0.38,0.55-0.4,0.54c-0.02-0.02,0.09-0.22,0.26-0.61c0.17-0.4,0.4-0.95,0.42-1.75c0.14-1.57,0.37-3.76,0.66-6.29
						l0.1,0.22c-0.37-0.25-0.85-0.44-1.32-0.45c-0.47-0.02-0.92,0.19-1.25,0.57c-0.38,0.41-0.57,0.97-0.73,1.52
						c-0.16,0.56-0.27,1.12-0.35,1.66c-0.09,0.55-0.12,1.06-0.18,1.61c-0.07,0.53-0.19,1.03-0.33,1.5l-0.01,0.05l-0.03,0.04
						c-1.1,1.15-1.87,2.26-2.31,3.06C146.82,150.51,146.72,151.04,146.66,151.03z"/>
				</g>
			</g>
		</g>
	</g>
	<g>
		<g>
			<path class="st391" d="M37.66,122.85c0.27-0.39,2.07-3.86,2.07-3.86l10.21,8.8c0,0,10,8.38,10,7.84l1.6-8.06l1.97-7.33l3.67,5.55
				c0,0,11.53,22.61,11.53,22.88c0,0.27,7.14,23.67,7.14,23.67l-1.54,9.49l-0.18,33.61l-21.5-0.9l-4.25-6.78l-7.32-43.09
				L37.66,122.85z"/>
		</g>
		<g>
			<polygon class="st511" points="64.48,208.77 87.39,208.77 91.02,224.16 55.79,224.16 			"/>
		</g>
		<g>
			<g>
				<path class="st577" d="M63.76,202.27c-0.72-11.04-0.42-31.86-4.64-42.73s-21.19-37.56-21.19-37.56l-4.16,6.47l-10.92,4.1
					l14.81,60.03c0,0-5.7,13.43-8.42,21.28c-0.81,2.34-1.91,6.33-3.11,10.3h37.48C63.94,215.43,64.1,207.48,63.76,202.27z"/>
			</g>
		</g>
		<g>
			<g>
				<path class="st577" d="M135.52,147.28l-28.89,16.06l-20.02-28.57c-0.05-0.07-0.11-0.15-0.17-0.23c-2.28-3.02-4.52-6.33-8.2-7.16
					l-0.56-0.13l1.07,34.2c0,0,14.24,15.69,22.22,22.18c2.38,1.93,8.4,0.73,11.27-0.86c11.5-6.35,31.14-22.61,31.14-22.61
					L135.52,147.28z"/>
			</g>
		</g>
		<g>
			<g>
				<path class="st577" d="M87.18,192.85c0,0,2.1-16.32,2.8-20.42c3.61-21.45-12.3-45.17-12.3-45.17l-7.28-1.2l-6.28-5.18l2.77,7.74
					c0,0,9.12,25.51,10.93,33.65c1.81,8.15,2.72,33.2,3,32.59c0.17-0.36,1.26,15.12,2.64,29.31h15.44L87.18,192.85z"/>
			</g>
		</g>
		<g>
			<path class="st511" d="M85.84,174.67c-0.01,0-0.01-0.18,0-0.53c0.02-0.38,0.05-0.88,0.08-1.52c0.02-0.33,0.04-0.7,0.07-1.09
				c0-0.4,0-0.84,0-1.3c0-0.93,0.02-2-0.07-3.17c-0.22-4.69-1.22-11.18-3.57-17.97c-0.88-2.55-1.84-4.99-2.9-7.13l0-0.01l0-0.01
				c-1.03-2.44-2.25-4.6-3.35-6.52c-1.1-1.92-2.12-3.59-2.98-4.98c-0.85-1.35-1.53-2.44-2.02-3.23c-0.22-0.36-0.4-0.64-0.54-0.86
				c-0.12-0.2-0.18-0.3-0.17-0.31c0.01-0.01,0.08,0.09,0.22,0.28c0.15,0.21,0.34,0.49,0.58,0.83c0.5,0.73,1.22,1.81,2.1,3.18
				c0.88,1.37,1.92,3.03,3.05,4.94c1.12,1.92,2.35,4.07,3.41,6.54l-0.01-0.01c1.08,2.17,2.05,4.6,2.93,7.17
				c2.36,6.83,3.34,13.35,3.49,18.07c0.08,1.18,0.04,2.25,0.02,3.19c-0.01,0.47-0.02,0.9-0.03,1.31c-0.04,0.4-0.07,0.76-0.1,1.1
				c-0.06,0.63-0.11,1.13-0.15,1.51C85.87,174.49,85.85,174.67,85.84,174.67z"/>
		</g>
		<g>
			<path class="st511" d="M59.75,135.74c-0.01,0.01-0.15-0.05-0.41-0.18c-0.3-0.16-0.67-0.35-1.1-0.58c-1-0.55-2.32-1.29-3.88-2.15
				l0.23-0.11c-0.19,1.75-0.51,3.79-0.83,5.96c-0.13,0.89-0.25,1.75-0.35,2.57l-0.04,0.32l-0.24-0.21
				c-2.08-1.77-3.89-3.32-5.17-4.45c-0.6-0.53-1.1-0.98-1.49-1.33c-0.35-0.32-0.53-0.5-0.51-0.51c0.01-0.02,0.22,0.13,0.59,0.42
				c0.41,0.33,0.94,0.75,1.56,1.25c1.32,1.08,3.15,2.6,5.24,4.35l-0.28,0.11c0.1-0.83,0.21-1.7,0.34-2.58
				c0.32-2.18,0.66-4.21,0.88-5.94l0.03-0.23l0.2,0.12c1.54,0.91,2.84,1.68,3.82,2.26c0.42,0.26,0.77,0.48,1.06,0.66
				C59.63,135.64,59.75,135.73,59.75,135.74z"/>
		</g>
		<g>
			<path class="st511" d="M65.68,125.77c0.02,0,0.03,0.33,0.03,0.92c-0.01,0.66-0.03,1.5-0.05,2.5c-0.05,2.11-0.15,5.03-0.28,8.25
				c0,0.08-0.01,0.16-0.01,0.23l-0.02,0.56l-0.3-0.48c-1.46-2.31-2.8-4.42-3.86-6.09l0.24-0.03c-0.43,1.17-0.78,2.15-1.06,2.91
				c-0.26,0.69-0.42,1.06-0.44,1.06c-0.03-0.01,0.08-0.4,0.3-1.11c0.25-0.77,0.56-1.76,0.95-2.95l0.09-0.27l0.16,0.24
				c1.08,1.66,2.44,3.75,3.93,6.04l-0.32,0.09c0-0.08,0.01-0.16,0.01-0.23c0.13-3.22,0.27-6.14,0.38-8.25c0.06-1,0.12-1.84,0.16-2.5
				C65.62,126.1,65.66,125.77,65.68,125.77z"/>
		</g>
		<g>
			<g>
				<path class="st577" d="M22.85,132.56c-0.89,0.55-1.74,1.2-2.53,1.95c-2.03,1.9-3.5,4.33-4.41,6.95
					c-1.03,2.94-2.05,6.57-2.64,8.85l-2.76,41.9c-0.25,3.72,0.36,7.45,1.76,10.91l8.56,21.05h18.45L29.3,196l3.41-31.07
					L22.85,132.56z"/>
			</g>
		</g>
		<g>
			<g>
				<polyline class="st577" points="34.21,127.76 38.27,139.93 42.59,139.93 39.79,141.72 61.97,184.12 				"/>
			</g>
			<g>
				<g>
					<path class="st511" d="M61.97,184.12c-0.01,0-0.04-0.05-0.1-0.15c-0.07-0.12-0.15-0.27-0.26-0.45
						c-0.23-0.42-0.55-1.01-0.95-1.75c-0.83-1.55-2-3.75-3.44-6.46c-2.89-5.49-6.86-13.04-11.25-21.38
						c-2.26-4.33-4.4-8.44-6.33-12.14l-0.07-0.13l0.13-0.08c0.97-0.61,1.91-1.21,2.81-1.78l0.08,0.28
						c-1.53-0.01-2.97-0.01-4.32-0.02l-0.1,0l-0.03-0.09c-1.21-3.72-2.21-6.76-2.9-8.9c-0.33-1.04-0.59-1.86-0.78-2.45
						c-0.08-0.26-0.14-0.48-0.19-0.64c-0.04-0.15-0.06-0.22-0.05-0.22c0.01,0,0.04,0.07,0.09,0.21c0.06,0.16,0.14,0.37,0.23,0.63
						c0.2,0.58,0.49,1.39,0.85,2.42c0.73,2.13,1.76,5.16,3.02,8.86l-0.13-0.09c1.35,0,2.79-0.01,4.32-0.02l0.53,0l-0.45,0.29
						c-0.9,0.58-1.83,1.17-2.8,1.79l0.06-0.21c1.94,3.69,4.09,7.8,6.36,12.12c4.35,8.36,8.29,15.92,11.15,21.43
						c1.4,2.73,2.54,4.95,3.34,6.51c0.38,0.75,0.68,1.35,0.89,1.78c0.09,0.19,0.16,0.34,0.22,0.47
						C61.96,184.06,61.98,184.12,61.97,184.12z"/>
				</g>
			</g>
		</g>
		<g>
			<g>
				<path class="st577" d="M26.03,138.49c5.41,6.19,7.69,14.98,5.99,23.03"/>
			</g>
			<g>
				<g>
					<path class="st511" d="M32.01,161.51c-0.07-0.01,0.23-1.36,0.36-3.58c0.07-1.11,0.06-2.43-0.06-3.89
						c-0.14-1.46-0.38-3.05-0.8-4.69c-0.43-1.63-0.99-3.15-1.59-4.49c-0.61-1.33-1.24-2.49-1.85-3.43
						c-1.19-1.87-2.11-2.91-2.06-2.95c0.02-0.02,0.25,0.24,0.67,0.71c0.21,0.23,0.46,0.52,0.72,0.88c0.26,0.36,0.58,0.75,0.88,1.23
						c0.63,0.92,1.3,2.09,1.93,3.43c0.61,1.35,1.19,2.88,1.63,4.53c0.42,1.66,0.66,3.28,0.78,4.75c0.1,1.48,0.09,2.82-0.02,3.93
						c-0.03,0.56-0.12,1.06-0.17,1.5c-0.05,0.44-0.13,0.82-0.2,1.12C32.12,161.19,32.04,161.52,32.01,161.51z"/>
				</g>
			</g>
		</g>
	</g>
	<g>
		<g>
			<path class="st511" d="M39.26,224.16c0,0-0.03-0.05-0.06-0.14c-0.04-0.11-0.1-0.25-0.16-0.42c-0.14-0.39-0.34-0.93-0.6-1.63
				c-0.52-1.43-1.26-3.48-2.17-6.01c-1.81-5.1-4.31-12.13-7.09-19.92l-0.01-0.03l0-0.03c0.02-0.22,0.05-0.45,0.08-0.69
				c0.94-8.38,1.78-15.97,2.4-21.48c0.32-2.73,0.58-4.95,0.76-6.51c0.09-0.75,0.17-1.35,0.22-1.77c0.03-0.19,0.05-0.34,0.06-0.46
				c0.02-0.1,0.03-0.16,0.03-0.16c0,0,0,0.05,0,0.16c-0.01,0.12-0.02,0.27-0.04,0.46c-0.04,0.42-0.1,1.02-0.17,1.77
				c-0.16,1.56-0.39,3.78-0.67,6.51c-0.6,5.51-1.41,13.1-2.32,21.49c-0.03,0.24-0.05,0.47-0.08,0.69l-0.01-0.06
				c2.74,7.81,5.22,14.85,7.01,19.95c0.88,2.54,1.59,4.59,2.09,6.03c0.24,0.7,0.42,1.25,0.55,1.64c0.06,0.18,0.1,0.32,0.14,0.43
				C39.25,224.11,39.26,224.16,39.26,224.16z"/>
		</g>
	</g>
	<g>
		<g>
			<path class="st511" d="M82.53,138.13c0,0,1.38,2.05,2.99,5.7c0.43,0.9,0.79,1.93,1.22,3.02c0.37,1.11,0.81,2.29,1.14,3.56
				c0.38,1.26,0.68,2.61,0.99,4.01c0.13,0.7,0.26,1.42,0.39,2.15c0.14,0.73,0.21,1.48,0.32,2.23c0.77,6.04,0.57,11.57,0.21,15.53
				c-0.11,0.99-0.21,1.88-0.3,2.67c-0.08,0.79-0.21,1.46-0.29,2.01c-0.09,0.53-0.15,0.95-0.2,1.26c-0.05,0.29-0.08,0.44-0.09,0.44
				c-0.01,0,0-0.15,0.04-0.45c0.04-0.31,0.09-0.74,0.15-1.27c0.06-0.55,0.17-1.22,0.24-2.01c0.08-0.79,0.16-1.68,0.26-2.67
				c0.32-3.95,0.49-9.47-0.28-15.48c-0.11-0.75-0.19-1.49-0.32-2.22c-0.13-0.72-0.26-1.44-0.39-2.14c-0.31-1.39-0.6-2.74-0.97-4
				c-0.32-1.27-0.75-2.44-1.11-3.55c-0.43-1.09-0.77-2.12-1.19-3.02c-0.2-0.45-0.38-0.89-0.56-1.3c-0.18-0.41-0.38-0.78-0.55-1.14
				c-0.35-0.71-0.64-1.32-0.91-1.8c-0.25-0.47-0.46-0.85-0.6-1.13C82.59,138.27,82.52,138.13,82.53,138.13z"/>
		</g>
	</g>
	<g>
		<g>
			<path class="st511" d="M106.91,172.25c-0.03,0.01-0.27-0.45-0.53-1.25c-0.26-0.8-0.52-1.95-0.57-3.24
				c-0.06-1.29,0.1-2.46,0.29-3.28c0.19-0.82,0.39-1.31,0.42-1.3c0.04,0.01-0.09,0.51-0.23,1.33c-0.14,0.82-0.26,1.96-0.21,3.23
				c0.06,1.26,0.28,2.39,0.49,3.2C106.77,171.75,106.95,172.24,106.91,172.25z"/>
		</g>
	</g>
	<g>
		<text transform="matrix(1 0 0 1 135.6533 79.0635)" class="st574 st598 st599">SCALEABLE</text>
	</g>
</g>
</svg>
