<?xml version="1.0" encoding="utf-8"?>
<!-- Generator: Adobe Illustrator 25.0.0, SVG Export Plug-In . SVG Version: 6.00 Build 0)  -->
<svg version="1.1" id="Layer_1" xmlns="http://www.w3.org/2000/svg" xmlns:xlink="http://www.w3.org/1999/xlink" x="0px" y="0px"
	 viewBox="0 0 240 233" style="enable-background:new 0 0 240 233;" xml:space="preserve">
<style type="text/css">
	.st0{clip-path:url(#SVGID_6_);fill:url(#SVGID_8_);}
	.st1{opacity:0.06;clip-path:url(#SVGID_6_);}
	.st2{opacity:0.06;}
	.st3{clip-path:url(#SVGID_25_);}
	.st4{fill:#90C8E2;}
	.st5{fill:#8AC5DF;}
	.st6{fill:#EAEEF0;}
	.st7{fill:#EBEFF0;}
	.st8{fill:#97C9DD;}
	.st9{fill:#E6EEEF;}
	.st10{fill:#B9DCF0;}
	.st11{fill:#B8DAF0;}
	.st12{fill:#56ACCF;}
	.st13{fill:#B8DCF0;}
	.st14{fill:#C7E0EE;}
	.st15{fill:#E8F0F0;}
	.st16{fill:#9CD1EA;}
	.st17{fill:#B8DBF0;}
	.st18{fill:#A1CFFF;}
	.st19{fill:#E8ECED;}
	.st20{fill:#BFDDE8;}
	.st21{fill:#55ACCE;}
	.st22{fill:#55AACB;}
	.st23{fill:#78BAD6;}
	.st24{fill:#74B9D4;}
	.st25{fill:#B8DBEF;}
	.st26{fill:#56ABCE;}
	.st27{fill:#7BB9D4;}
	.st28{fill:#58AACD;}
	.st29{fill:#55ACCF;}
	.st30{fill:#9CD1EB;}
	.st31{fill:#99CFE8;}
	.st32{fill:#A7D4EC;}
	.st33{fill:#E6EAEB;}
	.st34{fill:#EAEFF0;}
	.st35{fill:#BEDFED;}
	.st36{fill:#DEEAF1;}
	.st37{fill:#E9EEF1;}
	.st38{fill:#E8EFED;}
	.st39{fill:#54ABCC;}
	.st40{fill:#CAE4F3;}
	.st41{fill:#C7E3F3;}
	.st42{fill:#F4F4F3;}
	.st43{fill:#F4F4F4;}
	.st44{fill:#BADCF0;}
	.st45{fill:#55AACE;}
	.st46{fill:#56ABCF;}
	.st47{fill:#53ABCF;}
	.st48{fill:#9BD2EB;}
	.st49{fill:#B3DCF0;}
	.st50{fill:#B2D9EF;}
	.st51{fill:#E9EDEE;}
	.st52{fill:#81C0D8;}
	.st53{fill:#EBEEF0;}
	.st54{fill:#54AAD0;}
	.st55{fill:#82BDD6;}
	.st56{fill:#EBEFEF;}
	.st57{fill:#F3F5F2;}
	.st58{fill:#F5F5F4;}
	.st59{fill:#CBE3EF;}
	.st60{fill:#55ABCC;}
	.st61{fill:#B4D8E4;}
	.st62{fill:#54ABCD;}
	.st63{fill:#7EBBD5;}
	.st64{fill:#BEDFEC;}
	.st65{fill:#9BD2EC;}
	.st66{fill:#57A9CE;}
	.st67{fill:#85C2D7;}
	.st68{fill:#BBDAE6;}
	.st69{fill:#F1F2F4;}
	.st70{fill:#E1EDF2;}
	.st71{fill:#E1EBF1;}
	.st72{fill:#9BD1EB;}
	.st73{fill:#8CC6DB;}
	.st74{fill:#A6CFDF;}
	.st75{fill:#E7EEF2;}
	.st76{fill:#9CD2EC;}
	.st77{fill:#95C9DC;}
	.st78{fill:#5AACCC;}
	.st79{fill:#EAEEEF;}
	.st80{fill:#9AD2EC;}
	.st81{fill:#F4F5F5;}
	.st82{fill:#EBEEEF;}
	.st83{fill:#95CADB;}
	.st84{fill:#93C8DC;}
	.st85{fill:#55ABCD;}
	.st86{fill:#D6EAEE;}
	.st87{fill:#54AACE;}
	.st88{fill:#B9DBF0;}
	.st89{fill:#BEDDE8;}
	.st90{fill:#A9D5E8;}
	.st91{fill:#A5CFDF;}
	.st92{fill:#ECF0F1;}
	.st93{fill:#A8D1E2;}
	.st94{fill:#A2D3E9;}
	.st95{fill:#E5EDEE;}
	.st96{fill:#E9EFF1;}
	.st97{fill:#9BD1ED;}
	.st98{fill:#BFDEEC;}
	.st99{fill:#8AC3D7;}
	.st100{fill:#FFFEFE;}
	.st101{fill:#BADBF0;}
	.st102{fill:#53ACCE;}
	.st103{fill:#B8DCEC;}
	.st104{fill:#E2ECF0;}
	.st105{fill:#E9EEEF;}
	.st106{fill:#82BDD4;}
	.st107{fill:#A4D4EB;}
	.st108{fill:#E2EEF3;}
	.st109{fill:#CCE4EF;}
	.st110{fill:#7EC2DD;}
	.st111{fill:#A1E8FF;}
	.st112{fill:#AED8EA;}
	.st113{fill:#E3F0F4;}
	.st114{fill:#58ACCE;}
	.st115{fill:#A9D6EC;}
	.st116{fill:#C2E0EE;}
	.st117{fill:#D7E7EF;}
	.st118{fill:#9BD1EC;}
	.st119{fill:#49C7D0;}
	.st120{fill:#F4F4F2;}
	.st121{fill:#DFEDF3;}
	.st122{fill:#9FD4EA;}
	.st123{fill:#9CD1EC;}
	.st124{fill:#9ED4EE;}
	.st125{fill:#E8F3F7;}
	.st126{fill:#E5F1F4;}
	.st127{fill:#7BBFDC;}
	.st128{fill:#54ABCF;}
	.st129{fill:#F1F7FA;}
	.st130{fill:#B9DBEF;}
	.st131{fill:#EAEEEE;}
	.st132{fill:#A9D5ED;}
	.st133{fill:#94CBE3;}
	.st134{fill:#B8D8EB;}
	.st135{fill:#84C2D7;}
	.st136{fill:#F1F3F3;}
	.st137{fill:#B8D7E8;}
	.st138{fill:#A3D3EC;}
	.st139{fill:#F3F4F4;}
	.st140{fill:#F0F7F9;}
	.st141{fill:#C5E0F0;}
	.st142{fill:#55A9CC;}
	.st143{fill:#B2D9E5;}
	.st144{fill:#56ABCD;}
	.st145{fill:#B7DCEF;}
	.st146{fill:#99C0E5;}
	.st147{fill:#A7D3E9;}
	.st148{fill:#B5D9F1;}
	.st149{fill:#84C1DC;}
	.st150{fill:#80C0DB;}
	.st151{fill:#F0F0F0;}
	.st152{fill:#AED4E6;}
	.st153{fill:#B7DCF0;}
	.st154{fill:#A5D3E7;}
	.st155{fill:#F5F4F5;}
	.st156{fill:#EBEFED;}
	.st157{fill:#BADBEE;}
	.st158{fill:#89C5DD;}
	.st159{fill:#55ABCF;}
	.st160{fill:#53ABCE;}
	.st161{fill:#73BCD9;}
	.st162{fill:#ACD5EC;}
	.st163{fill:#A5D4EA;}
	.st164{fill:#8FC8DF;}
	.st165{fill:#B1D9F2;}
	.st166{fill:#BAD8EB;}
	.st167{fill:#9AD0EB;}
	.st168{fill:#D9EAF1;}
	.st169{fill:#F5F4F2;}
	.st170{fill:#D4E6F1;}
	.st171{fill:#CCE2EF;}
	.st172{fill:#56AACD;}
	.st173{fill:#55ABCE;}
	.st174{fill:#BADAF0;}
	.st175{fill:#B9DAF2;}
	.st176{fill:#C9E2F1;}
	.st177{fill:#DBE9F0;}
	.st178{fill:#C6E1EB;}
	.st179{fill:#B1D9EC;}
	.st180{fill:#A3D2EB;}
	.st181{fill:#9ED2EA;}
	.st182{fill:#9FD3ED;}
	.st183{fill:#E0EAEF;}
	.st184{fill:#BDDCEF;}
	.st185{fill:#E7EDF1;}
	.st186{fill:#57ABCD;}
	.st187{fill:#B8DBF1;}
	.st188{fill:#ACD6EB;}
	.st189{fill:#B7DBEE;}
	.st190{fill:#F3F5F3;}
	.st191{fill:#F5F4F4;}
	.st192{fill:#C4DFEF;}
	.st193{fill:#E9EFEF;}
	.st194{fill:#7BBFD6;}
	.st195{fill:#B9DDED;}
	.st196{fill:#9FD1E9;}
	.st197{fill:#F4F5F4;}
	.st198{fill:#A5D3EA;}
	.st199{fill:#E4EDED;}
	.st200{fill:#E8EFEE;}
	.st201{fill:#EAF0F0;}
	.st202{fill:#ECEEF0;}
	.st203{fill:#85C0D5;}
	.st204{fill:#55ABCB;}
	.st205{fill:#B9DBF1;}
	.st206{fill:#A8D4E8;}
	.st207{fill:#B3DAEF;}
	.st208{fill:#B9DAF1;}
	.st209{fill:#F2F2F3;}
	.st210{fill:#F5F5F5;}
	.st211{fill:#F5F3F7;}
	.st212{fill:#9BCDDB;}
	.st213{fill:#DCEAF1;}
	.st214{fill:#A2D3EB;}
	.st215{fill:#DAEAF0;}
	.st216{fill:#E9EEF0;}
	.st217{fill:#D6E7F1;}
	.st218{fill:#DEE9F0;}
	.st219{fill:#F9F9FA;}
	.st220{fill:#CCE1E9;}
	.st221{fill:#B8DAEF;}
	.st222{fill:#A0D1EB;}
	.st223{fill:#B9DBEE;}
	.st224{fill:#C2E0EF;}
	.st225{fill:#E7EFF1;}
	.st226{fill:#D1E6EF;}
	.st227{fill:#E7EDEF;}
	.st228{fill:#D5E7EE;}
	.st229{fill:#92C7DA;}
	.st230{fill:#EAEEED;}
	.st231{fill:#E3EAF0;}
	.st232{fill:#B4DAEF;}
	.st233{fill:#ECF1F3;}
	.st234{fill:#E8EFF0;}
	.st235{fill:#9ED0E8;}
	.st236{fill:#B8DEEE;}
	.st237{fill:#B8DBEC;}
	.st238{fill:#9FD2EA;}
	.st239{fill:#F2F4F3;}
	.st240{fill:#E0EBF3;}
	.st241{fill:#BCDCF1;}
	.st242{fill:#BDDDEE;}
	.st243{fill:#C6E1EE;}
	.st244{fill:#97CBE3;}
	.st245{fill:#B1D9F0;}
	.st246{fill:#E7EBED;}
	.st247{fill:#F3F4F5;}
	.st248{fill:#99D2ED;}
	.st249{fill:#F1F4F6;}
	.st250{fill:#54ABCE;}
	.st251{fill:#E7EEF1;}
	.st252{fill:#DFECF3;}
	.st253{fill:#ACD9EB;}
	.st254{fill:#9ED1E9;}
	.st255{fill:#E3EBEF;}
	.st256{fill:#86C2D8;}
	.st257{fill:#B8DCEB;}
	.st258{fill:#7EBED8;}
	.st259{fill:#55AACC;}
	.st260{fill:#EAEFEF;}
	.st261{fill:#D5E9F3;}
	.st262{fill:#C8E1EF;}
	.st263{fill:#A0D4EB;}
	.st264{fill:#ABD7EB;}
	.st265{fill:#ECF4F5;}
	.st266{fill:#EEF1F5;}
	.st267{fill:#7CC1DE;}
	.st268{fill:#E3EAEA;}
	.st269{fill:#DDE7EA;}
	.st270{fill:#9AD0EA;}
	.st271{fill:#C9E3EF;}
	.st272{fill:#EBEDEF;}
	.st273{fill:#B7DCF1;}
	.st274{fill:#E5EEF5;}
	.st275{fill:#B7DBEF;}
	.st276{fill:#70BAD5;}
	.st277{fill:#9AD3EC;}
	.st278{fill:#79BFDB;}
	.st279{fill:#E7EBEC;}
	.st280{fill:#8ECAE5;}
	.st281{fill:#AED6ED;}
	.st282{fill:#76BEDA;}
	.st283{fill:#58ACCD;}
	.st284{fill:#CFE4EC;}
	.st285{fill:#E6F1F3;}
	.st286{fill:#A2D2EE;}
	.st287{fill:#91CBE7;}
	.st288{fill:#E1EAEE;}
	.st289{fill:#B6DAED;}
	.st290{fill:#C0DFEE;}
	.st291{fill:#B9DAEE;}
	.st292{fill:#55ABD0;}
	.st293{fill:#7CBFDA;}
	.st294{fill:#87C5E0;}
	.st295{fill:#E9EFEC;}
	.st296{fill:#BBDBF0;}
	.st297{fill:#BADBEF;}
	.st298{fill:#A7D5EE;}
	.st299{fill:#7DC1DF;}
	.st300{fill:#E1ECF2;}
	.st301{fill:#88C6E1;}
	.st302{fill:#DEEFF3;}
	.st303{fill:#86C6E2;}
	.st304{fill:#A6D4EE;}
	.st305{fill:#CDE4EF;}
	.st306{fill:#CEE3F0;}
	.st307{fill:#9BD2EA;}
	.st308{fill:#A2D0E0;}
	.st309{fill:#FDFEFC;}
	.st310{fill:#FEFDFD;}
	.st311{fill:#ABD7EE;}
	.st312{fill:#90CCE9;}
	.st313{fill:#C9E2EF;}
	.st314{fill:#E7EFF2;}
	.st315{fill:#ABD4E4;}
	.st316{fill:#89C2DA;}
	.st317{fill:#71BCD7;}
	.st318{fill:#AFD7ED;}
	.st319{fill:#A5D4E2;}
	.st320{fill:#81C3DC;}
	.st321{fill:#A9D6ED;}
	.st322{fill:#C4DDE7;}
	.st323{fill:#BADBE4;}
	.st324{fill:#D5E5EB;}
	.st325{fill:#85C3DE;}
	.st326{fill:#57AACE;}
	.st327{fill:#BCDDF0;}
	.st328{fill:#C5E1EA;}
	.st329{fill:#9DD0E9;}
	.st330{fill:#AFD9EF;}
	.st331{fill:#B7DBF0;}
	.st332{fill:#C9DFE5;}
	.st333{fill:#BDDDEC;}
	.st334{fill:#A1CDE2;}
	.st335{fill:#57AACD;}
	.st336{fill:#D8E8EE;}
	.st337{fill:#9CD2EB;}
	.st338{fill:#9DCCDF;}
	.st339{fill:#57ABCF;}
	.st340{fill:#8FC9DF;}
	.st341{fill:#B7DAEE;}
	.st342{fill:#FBFDFC;}
	.st343{fill:#BFDCE6;}
	.st344{fill:#A8D5E9;}
	.st345{fill:#E6EDF0;}
	.st346{fill:#D5E6ED;}
	.st347{fill:#BFDDEE;}
	.st348{fill:#B8DCEF;}
	.st349{fill:#9FCEE4;}
	.st350{fill:#AAD6EC;}
	.st351{fill:#8AC6DB;}
	.st352{fill:#89C7E1;}
	.st353{fill:#9BCFE7;}
	.st354{fill:#EBEDF0;}
	.st355{fill:#85C2DE;}
	.st356{fill:#B8D9EC;}
	.st357{fill:#BCDCEC;}
	.st358{fill:#C6E0EE;}
	.st359{fill:#9BD0EE;}
	.st360{fill:#C8DFE6;}
	.st361{clip-path:url(#SVGID_6_);}
	.st362{fill:#D7CCC8;}
	.st363{fill:#BCAAA4;}
	.st364{fill:#A1887F;}
	.st365{clip-path:url(#SVGID_26_);fill:#F2EEED;}
	.st366{fill:#FEFEFE;}
	.st367{fill:#F9F8F7;}
	.st368{fill:#EFEBE9;}
	.st369{fill:#F2EFED;}
	.st370{clip-path:url(#SVGID_27_);fill:#F2EEED;}
	.st371{clip-path:url(#SVGID_28_);fill:#F2EEED;}
	.st372{clip-path:url(#SVGID_29_);fill:#F2EEED;}
	.st373{opacity:0.35;fill:url(#SVGID_30_);}
	.st374{fill:url(#SVGID_31_);}
	.st375{fill:url(#SVGID_32_);}
	.st376{fill:url(#SVGID_40_);}
	.st377{fill:url(#SVGID_42_);}
	.st378{opacity:0.35;fill:url(#SVGID_44_);}
	.st379{fill:url(#SVGID_46_);}
	.st380{opacity:0.35;}
	.st381{filter:url(#Adobe_OpacityMaskFilter);}
	.st382{mask:url(#SVGID_48_);}
	.st383{fill:#231F20;}
	.st384{fill:url(#SVGID_50_);}
	.st385{fill:url(#SVGID_65_);}
	.st386{opacity:0.28;fill:url(#SVGID_66_);}
	.st387{fill:url(#SVGID_67_);}
	.st388{clip-path:url(#SVGID_6_);fill:#E8E8E8;}
	.st389{fill:#E8E8E8;}
	.st390{opacity:0.3;}
	.st391{fill:#FFFFFF;}
	.st392{fill:#FFCC9A;}
	.st393{fill:#FFB100;}
	.st394{fill:#DEDEDE;}
	.st395{fill:#FFE7C8;}
	.st396{fill:#EF4418;}
	.st397{fill:#9DAE5E;}
	.st398{fill:#FFFFFD;}
	.st399{fill:#FFB701;}
	.st400{clip-path:url(#SVGID_68_);}
	.st401{fill:#FABA8C;}
	.st402{fill:#F59687;}
	.st403{fill:#FDD8B8;}
	.st404{fill:#E75025;}
	.st405{fill:#F37B6F;}
	.st406{fill:#161818;}
	.st407{fill:#FFEFE6;}
	.st408{fill:#F47F38;}
	.st409{fill:#F89D4C;}
	.st410{fill:#2C2C2C;}
	.st411{fill:#AB1F27;}
	.st412{fill:#133358;}
	.st413{fill:#26527A;}
	.st414{fill:#052743;}
	.st415{fill:#EBB635;}
	.st416{fill:#FFD354;}
	.st417{fill:#CB922B;}
	.st418{fill:#FF4B00;}
	.st419{fill:#FEFFFF;}
	.st420{fill:#593219;}
	.st421{clip-path:url(#SVGID_74_);}
	.st422{fill:#F6901E;}
	.st423{fill:#414156;}
	.st424{fill:#312F44;}
	.st425{fill:#5F5F74;}
	.st426{fill:#BC202E;}
	.st427{fill:#EA1F27;}
	.st428{fill:#530D2D;}
	.st429{fill:#3C0F27;}
	.st430{fill:#6F0E32;}
	.st431{clip-path:url(#SVGID_76_);}
	.st432{clip-path:url(#SVGID_76_);fill:none;}
	.st433{clip-path:url(#SVGID_77_);}
	.st434{fill:#1E4258;stroke:#1E4258;stroke-width:10;stroke-miterlimit:10;}
	.st435{fill:#FFD13E;}
	.st436{fill:#9A9A87;}
	.st437{fill:#F7F7EE;}
	.st438{fill:#F2B241;}
	.st439{fill:#ADE4EA;}
	.st440{fill:#1E4258;}
	.st441{fill:#A4B3BE;}
	.st442{fill:#E2E2E2;}
	.st443{fill:#FFB352;}
	.st444{fill:url(#SVGID_78_);}
	.st445{fill:url(#SVGID_79_);}
	.st446{fill:url(#SVGID_80_);}
	.st447{fill:url(#SVGID_81_);}
	.st448{fill:url(#SVGID_82_);}
	.st449{fill:url(#SVGID_83_);}
	.st450{fill:url(#SVGID_84_);}
	.st451{fill:url(#SVGID_85_);}
	.st452{fill:#1E4258;stroke:#1E4258;stroke-width:6;stroke-miterlimit:10;}
	.st453{fill:#E6E6E6;}
	.st454{fill:#CB7256;}
	.st455{fill:#B15A47;}
	.st456{fill:#E0826C;}
	.st457{fill:#9F4F39;}
	.st458{fill:#582121;}
	.st459{fill:#F9E8CA;}
	.st460{fill:#E8CCAC;}
	.st461{fill:#F16531;}
	.st462{fill:#007D7F;}
	.st463{fill:#016868;}
	.st464{fill:#181329;}
	.st465{fill:#445D78;}
	.st466{fill:#313233;}
	.st467{fill:#FC636B;}
	.st468{fill:#004D40;}
	.st469{fill:#26C6DA;}
	.st470{fill:#FFA726;}
	.st471{fill:url(#SVGID_86_);}
	.st472{clip-path:url(#SVGID_6_);fill:#FAFAFA;}
	.st473{opacity:0.35;fill:url(#SVGID_87_);}
	.st474{fill:url(#SVGID_88_);}
	.st475{opacity:0.4;fill:url(#SVGID_89_);}
	.st476{fill:url(#SVGID_90_);}
	.st477{opacity:0.35;fill:url(#SVGID_91_);}
	.st478{fill:url(#SVGID_92_);}
	.st479{opacity:0.2;fill:url(#SVGID_93_);}
	.st480{fill:url(#SVGID_94_);}
	.st481{opacity:0.2;fill:url(#SVGID_95_);}
	.st482{fill:url(#SVGID_96_);}
	.st483{opacity:0.35;fill:url(#SVGID_97_);}
	.st484{fill:url(#SVGID_99_);}
	.st485{fill:url(#SVGID_101_);}
	.st486{fill:url(#SVGID_102_);}
	.st487{opacity:0.35;fill:url(#SVGID_103_);}
	.st488{fill:url(#SVGID_104_);}
	.st489{opacity:0.27;}
	.st490{fill:url(#SVGID_105_);}
	.st491{fill:url(#SVGID_106_);}
	.st492{fill:url(#SVGID_107_);}
	.st493{fill:url(#SVGID_108_);}
	.st494{fill:url(#SVGID_109_);}
	.st495{fill:url(#SVGID_110_);}
	.st496{opacity:0.35;fill:url(#SVGID_111_);}
	.st497{opacity:0.25;}
	.st498{fill:url(#SVGID_112_);}
	.st499{fill:url(#SVGID_113_);}
	.st500{fill:url(#SVGID_114_);}
	.st501{fill:url(#SVGID_115_);}
	.st502{fill:url(#SVGID_116_);}
	.st503{fill:#B25A47;}
	.st504{fill:#E1836C;}
	.st505{fill:#A04F39;}
	.st506{fill:#FFEFE7;}
	.st507{fill:#FAE9CB;}
	.st508{fill:#E9CDAD;}
	.st509{fill:#F7B454;}
	.st510{fill:#2B454E;}
	.st511{fill:#1A2E35;}
	.st512{fill:#375A64;}
	.st513{fill:#D268CC;}
	.st514{fill:#DDF9BB;}
	.st515{fill:#99C8E9;}
	.st516{fill:#071B2C;}
	.st517{fill:#575E70;}
	.st518{fill:#4DB596;}
	.st519{fill:#454B55;}
	.st520{fill:#63A945;}
	.st521{fill:#293033;}
	.st522{fill:#F1F1F2;}
	.st523{fill:#192953;}
	.st524{clip-path:url(#SVGID_117_);fill:#071B2C;}
	.st525{fill:#5E5BA8;}
	.st526{fill:#F79678;}
	.st527{opacity:0.2;fill:#293033;}
	.st528{fill:#1A2229;}
	.st529{fill:#4C803B;}
	.st530{fill:#32353D;}
	.st531{fill:#444A56;}
	.st532{fill:#3E8E75;}
	.st533{opacity:0.2;clip-path:url(#SVGID_118_);fill:#293033;}
	.st534{fill:#F05250;}
	.st535{opacity:0.2;clip-path:url(#SVGID_119_);fill:#293033;}
	.st536{fill:#424278;}
	.st537{opacity:0.5;clip-path:url(#SVGID_120_);fill:#071B2C;}
	.st538{fill:#035B87;}
	.st539{opacity:0.2;clip-path:url(#SVGID_121_);fill:#293033;}
	.st540{opacity:0.2;clip-path:url(#SVGID_122_);fill:#293033;}
	.st541{fill:#034761;}
	.st542{fill:#F5BD18;}
	.st543{fill:#010101;}
	.st544{fill:#FB73AA;}
	.st545{fill:#01030A;}
	.st546{fill:#040102;}
	.st547{fill:#030102;}
	.st548{fill:#050203;}
	.st549{fill:#FAE803;}
	.st550{fill:#F8B937;}
	.st551{fill:#2950B8;}
	.st552{fill:#FDFDFD;}
	.st553{fill:#294FB6;}
	.st554{fill:#F89F29;}
	.st555{fill:#FFF9E7;}
	.st556{fill:#99D1D7;}
	.st557{fill:#C1E0DA;}
	.st558{fill:#134F78;}
	.st559{fill:#D94D2E;}
	.st560{fill:#12B6A7;}
	.st561{fill:#313D4D;}
	.st562{fill:#EAB02A;}
	.st563{fill:#FDD5B6;}
	.st564{fill:#B21F2D;}
	.st565{fill:#DB212C;}
	.st566{fill:#85B6BA;}
	.st567{fill:#E4E5E5;}
	.st568{fill:#029C8B;}
	.st569{fill:#B2B1B1;}
	.st570{fill:#0DB2A4;}
	.st571{fill:#DFB559;}
	.st572{fill:#FBD145;}
	.st573{fill:#F2C9A9;}
	.st574{fill:#7B6C53;}
	.st575{fill:#007CFF;}
	.st576{opacity:0.5;fill:#FFFFFF;}
	.st577{fill:#D7656A;}
	.st578{fill:#F0877C;}
	.st579{opacity:0.7;fill:#FFFFFF;}
	.st580{opacity:0.6;fill:#FFFFFF;}
	.st581{opacity:0.1;}
	.st582{opacity:0.2;}
	.st583{fill:#FD5652;}
	.st584{opacity:0.4;}
	.st585{opacity:0.8;}
	.st586{fill:#F8B275;}
	.st587{fill:#FCB373;}
	.st588{opacity:0.7;}
	.st589{opacity:0.5;}
	.st590{fill:#EC873E;}
	.st591{fill:#B84D3C;}
	.st592{opacity:0.4;fill:#FFFFFF;}
	.st593{fill:#FFC19D;}
	.st594{fill:#E1E1E1;}
	.st595{fill:#FF735D;}
	.st596{fill:#ECECEC;}
	.st597{fill:#FF9C6A;}
	.st598{opacity:0.3;fill:#CFC4B8;}
	.st599{enable-background:new    ;}
	.st600{fill:#E4E3EE;}
	.st601{fill:#B7B6E3;}
	.st602{fill:#919DD6;}
	.st603{fill:#12B0F3;}
	.st604{fill:#1393F2;}
	.st605{fill:#05D4F5;}
	.st606{fill:#D4D5F0;}
	.st607{fill:#C4C3EC;}
	.st608{fill:#EEEFF2;}
	.st609{clip-path:url(#SVGID_123_);enable-background:new    ;}
	.st610{clip-path:url(#SVGID_124_);enable-background:new    ;}
	.st611{clip-path:url(#SVGID_125_);enable-background:new    ;}
	.st612{clip-path:url(#SVGID_126_);enable-background:new    ;}
	.st613{clip-path:url(#SVGID_127_);enable-background:new    ;}
	.st614{fill:#DAD9E8;}
	.st615{clip-path:url(#SVGID_128_);enable-background:new    ;}
	.st616{fill:#EBEBF1;}
	.st617{clip-path:url(#SVGID_129_);enable-background:new    ;}
	.st618{clip-path:url(#SVGID_130_);enable-background:new    ;}
	.st619{clip-path:url(#SVGID_131_);enable-background:new    ;}
	.st620{clip-path:url(#SVGID_132_);enable-background:new    ;}
	.st621{fill:#171C29;}
	.st622{fill:#042F8F;}
	.st623{clip-path:url(#SVGID_133_);enable-background:new    ;}
	.st624{clip-path:url(#SVGID_134_);enable-background:new    ;}
	.st625{clip-path:url(#SVGID_135_);enable-background:new    ;}
	.st626{clip-path:url(#SVGID_136_);enable-background:new    ;}
	.st627{clip-path:url(#SVGID_137_);enable-background:new    ;}
	.st628{clip-path:url(#SVGID_138_);enable-background:new    ;}
	.st629{fill:url(#SVGID_139_);}
	.st630{fill:#789CCF;}
	.st631{opacity:0.48;fill:none;stroke:#FFFFFF;stroke-width:0.8689;stroke-miterlimit:10;}
	.st632{opacity:0.48;fill:none;stroke:#FFFFFF;stroke-width:0.7996;stroke-miterlimit:10;}
	.st633{fill:none;stroke:#FFFFFF;stroke-width:4.3598;stroke-linecap:round;stroke-linejoin:round;stroke-miterlimit:10;}
	.st634{fill:#6286D6;}
	.st635{fill:#7798FC;}
	.st636{fill:#FF998B;}
	.st637{fill:#0D0000;}
	.st638{fill:#DDE5F2;}
	.st639{fill:none;stroke:#DDE5F2;stroke-width:1.6024;stroke-miterlimit:10;}
	.st640{fill:#5E757A;}
	.st641{fill:#20120D;}
	.st642{fill:#272727;}
	.st643{fill:#F9796D;}
	.st644{fill:#E87F74;}
	.st645{fill:#F15146;}
	.st646{fill:#D0413B;}
	.st647{fill:#FF604F;}
	.st648{fill:#FD8A77;}
	.st649{fill:#F9FFFC;}
	.st650{fill:none;stroke:#FFFFFF;stroke-width:1.5615;stroke-miterlimit:10;}
	.st651{fill:#FCFBFB;}
	.st652{fill:#2D8584;}
	.st653{fill:#156054;}
	.st654{opacity:0.19;}
	.st655{fill:#97D5D3;}
	.st656{fill:#96CBB9;}
	.st657{fill:url(#SVGID_140_);}
	.st658{fill:#C7DEFD;}
	.st659{fill:#0C0A0A;}
	.st660{fill:#BED9FD;}
	.st661{fill:#FED964;}
	.st662{fill:#8BBBFD;}
	.st663{fill:#25A9E1;}
	.st664{fill:#FF8DA0;}
	.st665{fill:#FD4056;}
	.st666{fill:#000001;}
	.st667{fill:#7F7FFD;}
	.st668{fill:#43BA79;}
	.st669{fill:#FFFFFF;stroke:#1A1A1A;stroke-width:2;stroke-linecap:round;stroke-linejoin:round;stroke-miterlimit:10;}
	.st670{fill:#4E3CDF;}
	.st671{fill:none;}
	.st672{fill:#0B0B0C;}
	.st673{fill:#010102;}
	.st674{clip-path:url(#SVGID_141_);fill:url(#SVGID_142_);}
	.st675{clip-path:url(#SVGID_141_);}
	.st676{fill:#FFA94D;}
	.st677{fill:#FFDBBB;}
	.st678{fill:#FEB07D;}
	.st679{fill:#F87352;}
	.st680{fill:#09293D;}
	.st681{fill:#12B886;}
	.st682{fill:#C37362;}
	.st683{fill:none;stroke:#09293D;stroke-width:1.25;stroke-miterlimit:10;}
	.st684{fill:#C184B0;}
	.st685{fill:#FFDAB2;}
	.st686{clip-path:url(#SVGID_146_);fill:url(#SVGID_147_);}
	.st687{opacity:0.06;clip-path:url(#SVGID_146_);}
	.st688{clip-path:url(#SVGID_148_);}
	.st689{clip-path:url(#SVGID_146_);}
	.st690{clip-path:url(#SVGID_149_);}
	.st691{clip-path:url(#SVGID_150_);}
	.st692{clip-path:url(#SVGID_151_);}
	.st693{clip-path:url(#SVGID_151_);fill:none;}
	.st694{clip-path:url(#SVGID_152_);}
	.st695{fill:url(#SVGID_153_);}
	.st696{fill:url(#SVGID_154_);}
	.st697{fill:url(#SVGID_155_);}
	.st698{fill:url(#SVGID_156_);}
	.st699{fill:url(#SVGID_157_);}
	.st700{fill:url(#SVGID_158_);}
	.st701{fill:url(#SVGID_159_);}
	.st702{fill:url(#SVGID_160_);}
	.st703{fill:url(#SVGID_161_);}
	.st704{clip-path:url(#SVGID_162_);fill:#F2EEED;}
	.st705{clip-path:url(#SVGID_163_);fill:#F2EEED;}
	.st706{clip-path:url(#SVGID_164_);fill:#F2EEED;}
	.st707{clip-path:url(#SVGID_165_);fill:#F2EEED;}
	.st708{clip-path:url(#SVGID_146_);fill:#FAFAFA;}
	.st709{opacity:0.35;fill:url(#SVGID_166_);}
	.st710{fill:url(#SVGID_167_);}
	.st711{fill:url(#SVGID_168_);}
	.st712{fill:url(#SVGID_169_);}
	.st713{fill:url(#SVGID_170_);}
	.st714{opacity:0.35;fill:url(#SVGID_171_);}
	.st715{fill:url(#SVGID_172_);}
	.st716{opacity:0.4;fill:url(#SVGID_173_);}
	.st717{fill:url(#SVGID_174_);}
	.st718{opacity:0.35;fill:url(#SVGID_175_);}
	.st719{fill:url(#SVGID_176_);}
	.st720{opacity:0.2;fill:url(#SVGID_177_);}
	.st721{fill:url(#SVGID_178_);}
	.st722{opacity:0.2;fill:url(#SVGID_179_);}
	.st723{fill:url(#SVGID_180_);}
	.st724{opacity:0.35;fill:url(#SVGID_181_);}
	.st725{fill:url(#SVGID_182_);}
	.st726{fill:url(#SVGID_183_);}
	.st727{fill:url(#SVGID_184_);}
	.st728{opacity:0.35;fill:url(#SVGID_185_);}
	.st729{fill:url(#SVGID_186_);}
	.st730{filter:url(#Adobe_OpacityMaskFilter_1_);}
	.st731{mask:url(#SVGID_187_);}
	.st732{fill:url(#SVGID_188_);}
	.st733{fill:url(#SVGID_189_);}
	.st734{opacity:0.28;fill:url(#SVGID_190_);}
	.st735{fill:url(#SVGID_191_);}
	.st736{opacity:0.35;fill:url(#SVGID_192_);}
	.st737{fill:url(#SVGID_193_);}
	.st738{fill:url(#SVGID_194_);}
	.st739{fill:url(#SVGID_195_);}
	.st740{fill:url(#SVGID_196_);}
	.st741{fill:url(#SVGID_197_);}
	.st742{fill:url(#SVGID_198_);}
	.st743{fill:url(#SVGID_199_);}
	.st744{opacity:0.35;fill:url(#SVGID_200_);}
	.st745{fill:url(#SVGID_201_);}
	.st746{fill:url(#SVGID_202_);}
	.st747{fill:url(#SVGID_203_);}
	.st748{fill:url(#SVGID_204_);}
	.st749{fill:url(#SVGID_205_);}
	.st750{clip-path:url(#SVGID_146_);fill:#E8E8E8;}
	.st751{fill:#FCB619;}
	.st752{fill:#0F141D;}
	.st753{fill:#F0625B;}
	.st754{fill:#088473;}
	.st755{fill:#DD665E;}
	.st756{fill:#3B4450;}
	.st757{fill:#27BDC4;}
	.st758{fill:#C2E1DB;}
	.st759{fill:#99D2D9;}
	.st760{fill:#0F3754;}
	.st761{fill:#154F78;}
	.st762{fill:#68481D;}
	.st763{fill:#C5F4FC;}
	.st764{opacity:0.08;}
	.st765{clip-path:url(#SVGID_206_);}
	.st766{fill-rule:evenodd;clip-rule:evenodd;fill:#7A7A7A;}
	.st767{fill:#7A7A7A;}
	.st768{fill:#585858;}
	.st769{clip-path:url(#SVGID_206_);fill-rule:evenodd;clip-rule:evenodd;fill:#7A7A7A;}
	.st770{clip-path:url(#SVGID_206_);fill:#7A7A7A;}
	.st771{clip-path:url(#SVGID_207_);}
	.st772{clip-path:url(#SVGID_207_);fill-rule:evenodd;clip-rule:evenodd;fill:#7A7A7A;}
	.st773{clip-path:url(#SVGID_207_);fill:#7A7A7A;}
	.st774{clip-path:url(#SVGID_208_);}
	.st775{clip-path:url(#SVGID_208_);fill-rule:evenodd;clip-rule:evenodd;fill:#7A7A7A;}
	.st776{clip-path:url(#SVGID_208_);fill:#7A7A7A;}
	.st777{clip-path:url(#SVGID_209_);}
	.st778{clip-path:url(#SVGID_209_);fill-rule:evenodd;clip-rule:evenodd;fill:#7A7A7A;}
	.st779{clip-path:url(#SVGID_209_);fill:#7A7A7A;}
	.st780{fill:#BED2A4;}
	.st781{opacity:0.18;clip-path:url(#SVGID_210_);}
	.st782{opacity:0.18;}
	.st783{clip-path:url(#SVGID_211_);}
	.st784{fill:#BABABA;}
	.st785{fill:#B6B6B6;}
	.st786{fill:#EDEDED;}
	.st787{fill:#EEEEEE;}
	.st788{fill:#BCBCBC;}
	.st789{fill:#D4D4D4;}
	.st790{fill:#D2D2D2;}
	.st791{fill:#969696;}
	.st792{fill:#D3D3D3;}
	.st793{fill:#DADADA;}
	.st794{fill:#C4C4C4;}
	.st795{fill:#C6C6C6;}
	.st796{fill:#EBEBEB;}
	.st797{fill:#D5D5D5;}
	.st798{fill:#949494;}
	.st799{fill:#A9A9A9;}
	.st800{fill:#A7A7A7;}
	.st801{fill:#959595;}
	.st802{fill:#C2C2C2;}
	.st803{fill:#C9C9C9;}
	.st804{fill:#E9E9E9;}
	.st805{fill:#D7D7D7;}
	.st806{fill:#E7E7E7;}
	.st807{fill:#DCDCDC;}
	.st808{fill:#D0D0D0;}
	.st809{fill:#B0B0B0;}
	.st810{fill:#AEAEAE;}
	.st811{fill:#DDDDDD;}
	.st812{fill:#CFCFCF;}
	.st813{fill:#ACACAC;}
	.st814{fill:#B2B2B2;}
	.st815{fill:#F2F2F2;}
	.st816{fill:#EAEAEA;}
	.st817{fill:#B7B7B7;}
	.st818{fill:#C5C5C5;}
	.st819{fill:#BBBBBB;}
	.st820{fill:#979797;}
	.st821{fill:#E4E4E4;}
	.st822{fill:#CACACA;}
	.st823{fill:#EFEFEF;}
	.st824{fill:#C7C7C7;}
	.st825{fill:#D6D6D6;}
	.st826{fill:#B4B4B4;}
	.st827{fill:#C8C8C8;}
	.st828{fill:#B1B1B1;}
	.st829{fill:#CDCDCD;}
	.st830{fill:#CBCBCB;}
	.st831{fill:#D9D9D9;}
	.st832{fill:#E3E3E3;}
	.st833{fill:#A2A2A2;}
	.st834{fill:#F6F6F6;}
	.st835{fill:#BDBDBD;}
	.st836{fill:#B8B8B8;}
	.st837{fill:#D1D1D1;}
	.st838{fill:#B9B9B9;}
	.st839{fill:#C3C3C3;}
	.st840{fill:#CCCCCC;}
	.st841{fill:#ADADAD;}
	.st842{fill:#C0C0C0;}
	.st843{fill:#F9F9F9;}
	.st844{fill:#F3F3F3;}
	.st845{fill:#BEBEBE;}
	.st846{fill:#DBDBDB;}
	.st847{fill:#F1F1F1;}
	.st848{fill:#AFAFAF;}
	.st849{fill:#ABABAB;}
	.st850{fill:#DFDFDF;}
	.st851{fill:#B5B5B5;}
	.st852{fill:#A8A8A8;}
	.st853{fill:#B3B3B3;}
	.st854{fill:#FCFCFC;}
	.st855{clip-path:url(#SVGID_213_);}
	.st856{fill:#88C9A1;}
	.st857{opacity:0.87;}
	.st858{opacity:0.18;clip-path:url(#SVGID_216_);}
	.st859{clip-path:url(#SVGID_217_);}
	.st860{clip-path:url(#SVGID_219_);}
	.st861{fill:#3169B1;}
	.st862{fill:#9EC96B;}
	.st863{fill:#FFCE6C;}
	.st864{fill:#768B4B;}
	.st865{fill:#BE893D;}
	.st866{fill:#51CDF4;}
</style>
<g>
	<g>
		<g>
			<path class="st556" d="M163.18,164.04l-14.54-0.23c-1.53-0.02-2.79,1.27-2.81,2.89l-0.16,11.72c-0.02,1.62,1.2,2.96,2.73,2.98
				l14.54,0.23l0.06-4L163.18,164.04z"/>
			<path class="st566" d="M177.73,164.26l-14.54-0.23L163,177.63l-0.06,4l14.54,0.23c1.53,0.02,2.79-1.27,2.81-2.89l0.16-11.72
				C180.48,165.62,179.26,164.29,177.73,164.26z"/>
		</g>
		<ellipse class="st391" cx="177.59" cy="180.23" rx="2.69" ry="2.85"/>
	</g>
	<g>
		<path class="st567" d="M191.93,143.8c-0.01,0.89-0.64,1.6-1.4,1.59l-142.76-2.21c-0.76-0.01-1.37-0.74-1.36-1.64l0.8-58.06
			c0.01-0.89,0.64-1.6,1.4-1.59l142.76,2.21c0.76,0.01,1.37,0.74,1.36,1.63L191.93,143.8z"/>
		<g>
			<g>
				<path class="st568" d="M59.55,93.95c-0.01,1.02-0.81,1.84-1.77,1.82l-4.45-0.07c-0.96-0.01-1.73-0.86-1.72-1.88l0.07-4.71
					c0.01-1.02,0.81-1.84,1.77-1.82l4.45,0.07c0.96,0.01,1.73,0.86,1.72,1.88L59.55,93.95z"/>
				<path class="st568" d="M186.08,95.92c-0.01,1.02-0.81,1.84-1.77,1.82l-4.45-0.07c-0.96-0.01-1.73-0.86-1.72-1.88l0.07-4.71
					c0.01-1.02,0.81-1.84,1.77-1.82l4.45,0.07c0.96,0.01,1.73,0.86,1.72,1.88L186.08,95.92z"/>
				<path class="st568" d="M137.41,95.16c-0.01,1.02-0.81,1.84-1.77,1.82l-4.45-0.07c-0.96-0.01-1.73-0.86-1.72-1.88l0.07-4.71
					c0.01-1.02,0.81-1.84,1.77-1.82l4.45,0.07c0.96,0.01,1.73,0.86,1.72,1.88L137.41,95.16z"/>
				<path class="st568" d="M156.88,95.46c-0.01,1.02-0.81,1.84-1.77,1.82l-4.45-0.07c-0.96-0.01-1.73-0.86-1.72-1.88l0.07-4.71
					c0.01-1.02,0.81-1.84,1.77-1.82l4.45,0.07c0.97,0.01,1.74,0.86,1.72,1.88L156.88,95.46z"/>
				<path class="st568" d="M176.35,95.77c-0.01,1.02-0.81,1.84-1.77,1.82l-4.45-0.07c-0.96-0.01-1.74-0.86-1.72-1.88l0.07-4.71
					c0.01-1.02,0.81-1.84,1.77-1.82l4.45,0.07c0.96,0.01,1.73,0.86,1.72,1.88L176.35,95.77z"/>
				<path class="st568" d="M79.02,94.26c-0.01,1.02-0.81,1.84-1.77,1.82l-4.45-0.07c-0.96-0.01-1.73-0.86-1.72-1.88l0.07-4.71
					c0.01-1.02,0.81-1.84,1.77-1.82l4.45,0.07c0.96,0.01,1.73,0.86,1.72,1.88L79.02,94.26z"/>
				<path class="st568" d="M69.28,94.11c-0.01,1.02-0.81,1.84-1.77,1.82l-4.45-0.07c-0.96-0.01-1.73-0.86-1.72-1.88l0.07-4.71
					c0.01-1.02,0.81-1.84,1.77-1.82l4.45,0.07c0.96,0.01,1.73,0.86,1.72,1.88L69.28,94.11z"/>
				<path class="st568" d="M88.75,94.41c-0.01,1.02-0.81,1.84-1.77,1.82l-4.45-0.07c-0.96-0.01-1.73-0.86-1.72-1.88l0.07-4.71
					c0.01-1.02,0.81-1.84,1.77-1.82l4.45,0.07c0.96,0.01,1.73,0.86,1.72,1.88L88.75,94.41z"/>
				<path class="st568" d="M117.95,94.86c-0.01,1.02-0.81,1.84-1.77,1.82l-4.45-0.07c-0.96-0.01-1.73-0.86-1.72-1.88l0.07-4.71
					c0.01-1.02,0.81-1.84,1.77-1.82l4.45,0.07c0.96,0.01,1.73,0.86,1.72,1.88L117.95,94.86z"/>
				<path class="st568" d="M147.15,95.31c-0.01,1.02-0.81,1.84-1.77,1.82l-4.45-0.07c-0.96-0.01-1.73-0.86-1.72-1.88l0.07-4.71
					c0.01-1.02,0.81-1.84,1.77-1.82l4.45,0.07c0.96,0.01,1.73,0.86,1.72,1.88L147.15,95.31z"/>
				<path class="st568" d="M166.61,95.61c-0.01,1.02-0.81,1.84-1.77,1.82l-4.45-0.07c-0.96-0.01-1.73-0.86-1.72-1.88l0.07-4.71
					c0.01-1.02,0.81-1.84,1.77-1.82l4.45,0.07c0.96,0.01,1.74,0.86,1.72,1.88L166.61,95.61z"/>
				<path class="st568" d="M108.22,94.71c-0.01,1.02-0.81,1.84-1.77,1.82l-4.45-0.07c-0.96-0.01-1.73-0.86-1.72-1.88l0.07-4.71
					c0.01-1.02,0.81-1.84,1.77-1.82l4.45,0.07c0.96,0.01,1.74,0.86,1.72,1.88L108.22,94.71z"/>
				<path class="st568" d="M98.48,94.56c-0.01,1.02-0.81,1.84-1.77,1.82l-4.45-0.07c-0.96-0.01-1.73-0.86-1.72-1.88l0.07-4.71
					c0.01-1.02,0.81-1.84,1.77-1.82l4.45,0.07c0.96,0.01,1.73,0.86,1.72,1.88L98.48,94.56z"/>
				<path class="st568" d="M127.68,95.01c-0.01,1.02-0.81,1.84-1.77,1.82l-4.45-0.07c-0.96-0.01-1.73-0.86-1.72-1.88l0.07-4.71
					c0.01-1.02,0.81-1.84,1.77-1.82l4.45,0.07c0.96,0.01,1.73,0.86,1.72,1.88L127.68,95.01z"/>
			</g>
		</g>
		<path class="st568" d="M59.34,109.32c-0.01,1.02-0.81,1.84-1.77,1.82l-4.45-0.07c-0.96-0.01-1.73-0.85-1.72-1.88l0.07-4.71
			c0.01-1.02,0.81-1.84,1.77-1.82l4.45,0.07c0.96,0.01,1.73,0.86,1.72,1.88L59.34,109.32z"/>
		<path class="st568" d="M185.87,111.29c-0.01,1.02-0.81,1.84-1.77,1.82l-4.45-0.07c-0.96-0.01-1.73-0.85-1.72-1.88l0.07-4.71
			c0.01-1.02,0.81-1.84,1.77-1.82l4.45,0.07c0.96,0.01,1.73,0.86,1.72,1.88L185.87,111.29z"/>
		<path class="st568" d="M137.2,110.53c-0.01,1.02-0.81,1.84-1.77,1.82l-4.45-0.07c-0.96-0.01-1.73-0.85-1.72-1.88l0.07-4.71
			c0.01-1.02,0.81-1.84,1.77-1.82l4.45,0.07c0.96,0.01,1.73,0.85,1.72,1.88L137.2,110.53z"/>
		<path class="st568" d="M156.67,110.83c-0.01,1.02-0.81,1.84-1.77,1.82l-4.45-0.07c-0.96-0.01-1.73-0.85-1.72-1.88l0.07-4.71
			c0.01-1.02,0.81-1.84,1.77-1.82l4.45,0.07c0.97,0.01,1.74,0.85,1.72,1.88L156.67,110.83z"/>
		<path class="st568" d="M176.13,111.14c-0.01,1.02-0.81,1.84-1.77,1.82l-4.45-0.07c-0.96-0.01-1.74-0.85-1.72-1.88l0.07-4.71
			c0.01-1.02,0.81-1.84,1.77-1.82l4.45,0.07c0.96,0.01,1.73,0.85,1.72,1.88L176.13,111.14z"/>
		<path class="st568" d="M78.8,109.63c-0.01,1.02-0.81,1.84-1.77,1.82l-4.45-0.07c-0.96-0.01-1.73-0.85-1.72-1.88l0.07-4.71
			c0.01-1.02,0.81-1.84,1.77-1.82l4.45,0.07c0.96,0.01,1.73,0.85,1.72,1.88L78.8,109.63z"/>
		<path class="st568" d="M69.07,109.48c-0.01,1.02-0.81,1.84-1.77,1.82l-4.45-0.07c-0.96-0.01-1.73-0.85-1.72-1.88l0.07-4.71
			c0.01-1.02,0.81-1.84,1.77-1.82l4.45,0.07c0.96,0.01,1.73,0.85,1.72,1.88L69.07,109.48z"/>
		<path class="st568" d="M88.54,109.78c-0.01,1.02-0.81,1.84-1.77,1.82l-4.45-0.07c-0.96-0.01-1.73-0.85-1.72-1.88l0.07-4.71
			c0.01-1.02,0.81-1.84,1.77-1.82l4.45,0.07c0.96,0.01,1.73,0.85,1.72,1.88L88.54,109.78z"/>
		<path class="st568" d="M117.74,110.23c-0.01,1.02-0.81,1.84-1.77,1.82l-4.45-0.07c-0.96-0.01-1.73-0.85-1.72-1.88l0.07-4.71
			c0.01-1.02,0.81-1.84,1.77-1.82l4.45,0.07c0.96,0.01,1.73,0.85,1.72,1.88L117.74,110.23z"/>
		<path class="st568" d="M146.93,110.68c-0.01,1.02-0.81,1.84-1.77,1.82l-4.45-0.07c-0.96-0.01-1.73-0.85-1.72-1.88l0.07-4.71
			c0.01-1.02,0.81-1.84,1.77-1.82l4.45,0.07c0.96,0.01,1.73,0.85,1.72,1.88L146.93,110.68z"/>
		<path class="st568" d="M166.4,110.98c-0.01,1.02-0.81,1.84-1.77,1.82l-4.45-0.07c-0.96-0.01-1.74-0.85-1.72-1.88l0.07-4.71
			c0.01-1.02,0.81-1.84,1.77-1.82l4.45,0.07c0.96,0.01,1.74,0.85,1.72,1.88L166.4,110.98z"/>
		<path class="st568" d="M108,110.08c-0.01,1.02-0.81,1.84-1.77,1.82l-4.45-0.07c-0.96-0.01-1.73-0.85-1.72-1.88l0.07-4.71
			c0.01-1.02,0.81-1.84,1.77-1.82l4.45,0.07c0.96,0.01,1.74,0.85,1.72,1.88L108,110.08z"/>
		<path class="st568" d="M98.27,109.93c-0.01,1.02-0.81,1.84-1.77,1.82l-4.45-0.07c-0.96-0.01-1.73-0.85-1.72-1.88l0.07-4.71
			c0.01-1.02,0.81-1.84,1.77-1.82l4.45,0.07c0.96,0.01,1.73,0.85,1.72,1.88L98.27,109.93z"/>
		<path class="st568" d="M127.47,110.38c-0.01,1.02-0.81,1.84-1.77,1.82l-4.45-0.07c-0.96-0.01-1.73-0.85-1.72-1.88l0.07-4.71
			c0.01-1.02,0.81-1.84,1.77-1.82l4.45,0.07c0.96,0.01,1.73,0.85,1.72,1.88L127.47,110.38z"/>
		<path class="st568" d="M59.68,124.7c-0.01,1.02-0.81,1.84-1.77,1.82l-4.45-0.07c-0.96-0.01-1.73-0.86-1.72-1.88l0.07-4.71
			c0.01-1.02,0.81-1.84,1.77-1.82l4.45,0.07c0.96,0.01,1.73,0.86,1.72,1.88L59.68,124.7z"/>
		<path class="st568" d="M185.65,126.66c-0.01,1.02-0.81,1.84-1.77,1.82l-4.45-0.07c-0.96-0.01-1.73-0.86-1.72-1.88l0.07-4.71
			c0.01-1.02,0.81-1.84,1.77-1.82l4.45,0.07c0.96,0.01,1.73,0.86,1.72,1.88L185.65,126.66z"/>
		<path class="st568" d="M137.2,125.91c-0.01,1.02-0.81,1.84-1.77,1.82l-4.45-0.07c-0.96-0.01-1.73-0.86-1.72-1.88l0.07-4.71
			c0.01-1.02,0.81-1.84,1.77-1.82l4.45,0.07c0.96,0.01,1.73,0.85,1.72,1.88L137.2,125.91z"/>
		<path class="st568" d="M156.58,126.21c-0.01,1.02-0.81,1.84-1.77,1.82l-4.45-0.07c-0.96-0.01-1.74-0.86-1.72-1.88l0.07-4.71
			c0.01-1.02,0.81-1.84,1.77-1.82l4.45,0.07c0.96,0.01,1.73,0.85,1.72,1.88L156.58,126.21z"/>
		<path class="st568" d="M175.96,126.51c-0.01,1.02-0.81,1.84-1.77,1.82l-4.45-0.07c-0.96-0.01-1.73-0.86-1.72-1.88l0.07-4.71
			c0.01-1.02,0.81-1.84,1.77-1.82l4.45,0.07c0.96,0.01,1.73,0.85,1.72,1.88L175.96,126.51z"/>
		<path class="st568" d="M79.06,125c-0.01,1.02-0.81,1.84-1.77,1.82l-4.45-0.07c-0.96-0.01-1.73-0.86-1.72-1.88l0.07-4.71
			c0.01-1.02,0.81-1.84,1.77-1.82l4.45,0.07c0.96,0.01,1.73,0.85,1.72,1.88L79.06,125z"/>
		<path class="st568" d="M69.37,124.85c-0.01,1.02-0.81,1.84-1.77,1.82l-4.45-0.07c-0.96-0.01-1.73-0.86-1.72-1.88l0.07-4.71
			c0.01-1.02,0.81-1.84,1.77-1.82l4.45,0.07c0.96,0.01,1.73,0.85,1.72,1.88L69.37,124.85z"/>
		<path class="st568" d="M88.75,125.15c-0.01,1.02-0.81,1.84-1.77,1.82l-4.45-0.07c-0.96-0.01-1.73-0.86-1.72-1.88l0.07-4.71
			c0.01-1.02,0.81-1.84,1.77-1.82l4.45,0.07c0.96,0.01,1.73,0.85,1.72,1.88L88.75,125.15z"/>
		<path class="st568" d="M117.82,125.61c-0.01,1.02-0.81,1.84-1.77,1.82l-4.45-0.07c-0.97-0.01-1.74-0.86-1.72-1.88l0.07-4.71
			c0.01-1.02,0.81-1.84,1.77-1.82l4.45,0.07c0.96,0.01,1.73,0.85,1.72,1.88L117.82,125.61z"/>
		<path class="st568" d="M146.89,126.06c-0.01,1.02-0.81,1.84-1.77,1.82l-4.45-0.07c-0.97-0.01-1.73-0.86-1.72-1.88l0.07-4.71
			c0.01-1.02,0.81-1.84,1.77-1.82l4.45,0.07c0.96,0.01,1.73,0.85,1.72,1.88L146.89,126.06z"/>
		<path class="st568" d="M166.27,126.36c-0.01,1.02-0.81,1.84-1.77,1.82l-4.45-0.07c-0.96-0.01-1.73-0.86-1.72-1.88l0.07-4.71
			c0.01-1.02,0.81-1.84,1.77-1.82l4.45,0.07c0.96,0.01,1.73,0.85,1.72,1.88L166.27,126.36z"/>
		<path class="st568" d="M108.13,125.45c-0.01,1.02-0.81,1.84-1.77,1.82l-4.45-0.07c-0.96-0.01-1.73-0.86-1.72-1.88l0.07-4.71
			c0.01-1.02,0.81-1.84,1.77-1.82l4.45,0.07c0.96,0.01,1.73,0.85,1.72,1.88L108.13,125.45z"/>
		<path class="st568" d="M98.44,125.3c-0.01,1.02-0.81,1.84-1.77,1.82l-4.45-0.07c-0.96-0.01-1.73-0.86-1.72-1.88l0.07-4.71
			c0.01-1.02,0.81-1.84,1.77-1.82l4.45,0.07c0.96,0.01,1.73,0.85,1.72,1.88L98.44,125.3z"/>
		<path class="st568" d="M127.51,125.76c-0.01,1.02-0.81,1.84-1.77,1.82l-4.45-0.07c-0.96-0.01-1.73-0.86-1.72-1.88l0.07-4.71
			c0.01-1.02,0.81-1.84,1.77-1.82l4.45,0.07c0.96,0.01,1.73,0.85,1.72,1.88L127.51,125.76z"/>
		<path class="st568" d="M147.34,139.48c-0.02,1.33-1.05,2.39-2.3,2.37l-61.8-0.96c-1.25-0.02-2.25-1.11-2.24-2.44l0.05-3.6
			c0.02-1.33,1.05-2.39,2.3-2.37l61.8,0.96c1.25,0.02,2.25,1.11,2.24,2.44L147.34,139.48z"/>
		<path class="st568" d="M58.93,138.67c-0.01,1.02-0.81,1.84-1.77,1.82l-4.45-0.07c-0.96-0.01-1.73-0.86-1.72-1.88l0.07-4.71
			c0.01-1.02,0.81-1.84,1.77-1.82l4.45,0.07c0.96,0.01,1.73,0.86,1.72,1.88L58.93,138.67z"/>
		<path class="st568" d="M78.4,138.97c-0.01,1.02-0.81,1.84-1.77,1.82l-14.18-0.22c-0.96-0.01-1.73-0.86-1.72-1.88l0.07-4.71
			c0.01-1.02,0.81-1.84,1.77-1.82l14.18,0.22c0.96,0.01,1.73,0.86,1.72,1.88L78.4,138.97z"/>
		<path class="st568" d="M175.84,141.88c-0.01,1.02-0.81,1.84-1.77,1.82l-4.45-0.07c-0.96-0.01-1.73-0.85-1.72-1.88l0.07-4.71
			c0.01-1.02,0.81-1.84,1.77-1.82l4.45,0.07c0.96,0.01,1.73,0.85,1.72,1.88L175.84,141.88z"/>
		<path class="st568" d="M185.44,142.03c-0.01,1.02-0.81,1.84-1.77,1.82l-4.45-0.07c-0.96-0.01-1.73-0.85-1.72-1.88l0.07-4.71
			c0.01-1.02,0.81-1.84,1.77-1.82l4.45,0.07c0.96,0.01,1.73,0.85,1.72,1.88L185.44,142.03z"/>
		<path class="st568" d="M156.65,141.58c-0.01,1.02-0.81,1.84-1.77,1.82l-4.45-0.07c-0.96-0.01-1.73-0.85-1.72-1.88l0.07-4.71
			c0.01-1.02,0.81-1.84,1.77-1.82l4.45,0.07c0.96,0.01,1.73,0.85,1.72,1.88L156.65,141.58z"/>
		<path class="st568" d="M166.25,141.73c-0.01,1.02-0.81,1.84-1.77,1.82l-4.45-0.07c-0.96-0.01-1.74-0.85-1.72-1.88l0.07-4.71
			c0.01-1.02,0.81-1.84,1.77-1.82l4.45,0.07c0.96,0.01,1.74,0.85,1.72,1.88L166.25,141.73z"/>
	</g>
	<path class="st569" d="M152.64,49.45c1.08,0.02,1.95,0.96,1.93,2.1l-0.35,25.09c-0.02,1.15-0.91,2.06-1.99,2.04l-64.71-1
		c-1.08-0.02-1.95-0.96-1.93-2.1l0.35-25.09c0.02-1.15,0.91-2.06,1.99-2.04L152.64,49.45z"/>
	<path class="st567" d="M213.49,42.28c3.8-5.65-1.77-6.13-1.77-6.13l-180.83-2.8c-8.18,0.27,12.79,29.53,12.79,29.53l155.37,2.41"/>
	<g>
		<polygon class="st568" points="48.94,59.75 49.01,59.87 193.53,62.04 204.88,43.22 203.8,43.2 		"/>
		<polygon class="st570" points="38.37,40.64 48.94,59.75 203.8,43.2 		"/>
	</g>
	<g>
		<g>
			<g>
				<path class="st556" d="M82.54,162.53l14.54,0.23c1.53,0.02,2.75,1.36,2.73,2.98l-0.16,11.72c-0.02,1.62-1.28,2.92-2.81,2.89
					l-14.54-0.23l0.06-4L82.54,162.53z"/>
				<path class="st566" d="M68,162.31l14.54,0.23l-0.19,13.59l-0.06,4l-14.54-0.23c-1.53-0.02-2.75-1.36-2.73-2.98l0.16-11.72
					C65.21,163.58,66.46,162.28,68,162.31z"/>
			</g>
			<g>
				<path class="st571" d="M179.73,170.69l-16.82-0.26l-0.31,22.34c6.96-3.08,13.55-6.91,19.68-11.41l0.12-8.66
					C182.41,171.61,181.22,170.71,179.73,170.69z"/>
				<path class="st572" d="M162.91,170.43l-16.82-0.26c-1.49-0.02-2.7,0.84-2.72,1.93L143,199.18c6.79-1.48,13.35-3.64,19.61-6.42
					L162.91,170.43z"/>
				<path class="st571" d="M82.64,168.93l-16.82-0.26c-1.49-0.02-2.7,0.84-2.72,1.92l-0.18,12.73c6.06,4.16,12.55,7.69,19.37,10.5
					L82.64,168.93z"/>
				<path class="st572" d="M99.46,169.19l-16.82-0.26l-0.34,24.9c6.22,2.56,12.71,4.52,19.44,5.83l0.39-28.45
					C102.14,170.11,100.94,169.21,99.46,169.19z"/>
			</g>
			<path class="st391" d="M65,178.23c-0.02,1.57,1.17,2.87,2.65,2.89c1.49,0.02,2.71-1.23,2.73-2.81c0.02-1.57-1.17-2.87-2.65-2.89
				C66.25,175.4,65.02,176.66,65,178.23z"/>
		</g>
		<g>
			<g>
				<path class="st573" d="M109.78,128.78c-3.3,2.26-4.43,4.55-7.29,6.82c-0.97,0.77-1.61,0.99-2.01,0.85
					c0.17-1.78,0.38-3.86,0.6-6.09c0.82-8.26,1.88-18.65,2.42-23.95c0.13-1.25,0.23-2.22,0.29-2.81c0.72-6.84-7.28-6.6-7.96-1.92
					c-0.31,2.18-1.39,12.41-2.44,22.56c-0.17,1.69-0.35,3.38-0.52,5.03c-0.37-0.12-0.78-0.24-1.25-0.36
					c0.16-2.57,0.6-22.82,0.87-26.04c0.37-4.35-4.9-5.2-7.08-2.72c-0.49,0.56-0.83,1.29-0.9,2.19c-0.09,1.1-0.39,13.26-0.64,20.66
					c-0.08,2.38-0.15,4.27-0.22,5.14c-0.3,0-0.61,0-0.93,0.01c-0.01-0.65,0-2.32,0.02-4.49c0.05-6.11,0.17-16.17,0.2-18.42
					c0.04-3.18-2.77-4.28-5.08-3.61c-1.57,0.45-2.9,1.73-2.92,3.71c-0.02,1.49-0.22,19.65-0.22,23.34
					c-0.65,0.07-1.32,0.15-2.01,0.24l-0.04-3.36l-0.02-1.5c0.04-0.03,0.08-0.07,0.12-0.1c-0.04-0.28-0.07-0.59-0.09-0.92
					c-0.3-4.21-0.36-5.35-0.57-9.64c-0.03-0.59-0.06-1.17-0.09-1.74c-0.05-0.91-0.23-1.67-0.51-2.29c-1.81-4.09-7.7-2.31-7.64,1.8
					c0.03,1.71,0.11,4.29,0.23,7.23c0.12,2.9,0.15,2.47,0.31,5.6c0,0.02,0.01,3.07,0.24,7.42c0.19,3.55,0.54,7.96,1.16,12.28
					c0,0-0.01,0-0.01,0l0.43,8.4c-0.05,3.61,2.67,6.58,6.08,6.63l24.03,0.37c0.75,0.01,1.44-0.41,1.82-1.09l1.82-4.59
					c1.21-1.54,2.63-3.47,3.75-5.34c3.3-5.53,8.37-11.26,11.25-14.91C116.31,131.54,113.08,126.52,109.78,128.78z"/>
			</g>
		</g>
	</g>
	<g>
		<g>
			<path class="st573" d="M137.55,130.55c3.24,2.36,4.3,4.69,7.1,7.04c0.95,0.8,1.58,1.04,1.98,0.91c-0.12-1.78-0.27-3.87-0.43-6.11
				c-0.59-8.28-1.36-18.7-1.75-24.02c-0.09-1.26-0.17-2.23-0.21-2.82c-0.53-6.86,7.46-6.37,8.01-1.68
				c0.25,2.19,1.05,12.45,1.81,22.63c0.13,1.7,0.25,3.39,0.38,5.05c0.37-0.11,0.79-0.22,1.26-0.32c-0.08-2.58,0.03-22.83-0.15-26.06
				c-0.25-4.36,5.05-5.05,7.15-2.5c0.48,0.58,0.79,1.32,0.84,2.22c0.06,1.11,0.02,13.26,0.07,20.67c0.01,2.38,0.04,4.27,0.07,5.15
				c0.3,0.01,0.61,0.02,0.92,0.04c0.02-0.64,0.06-2.32,0.1-4.49c0.12-6.11,0.28-16.17,0.31-18.42c0.04-3.18,2.89-4.19,5.17-3.45
				c1.55,0.5,2.85,1.81,2.82,3.8c-0.02,1.49-0.32,19.64-0.42,23.33c0.65,0.09,1.31,0.19,2,0.3l0.13-3.35l0.06-1.5
				c-0.04-0.04-0.08-0.07-0.12-0.1c0.04-0.28,0.08-0.58,0.12-0.92c0.41-4.2,0.51-5.34,0.84-9.61c0.05-0.59,0.09-1.17,0.14-1.73
				c0.07-0.91,0.28-1.66,0.57-2.28c1.92-4.03,7.76-2.07,7.59,2.04c-0.07,1.71-0.23,4.28-0.43,7.22c-0.2,2.9-0.21,2.47-0.47,5.59
				c0,0.02-0.09,3.07-0.45,7.4c-0.29,3.54-0.76,7.94-1.5,12.24c0,0,0.01,0,0.01,0l-0.66,8.39c-0.05,3.61-2.85,6.49-6.26,6.44
				l-24.03-0.37c-0.75-0.01-1.43-0.45-1.79-1.15l-1.69-4.65c-1.17-1.58-2.53-3.55-3.6-5.45c-3.15-5.63-8.05-11.52-10.84-15.26
				C130.95,133.11,134.31,128.19,137.55,130.55z"/>
		</g>
	</g>
</g>
</svg>
