<?xml version="1.0" encoding="utf-8"?>
<!-- Generator: Adobe Illustrator 25.0.0, SVG Export Plug-In . SVG Version: 6.00 Build 0)  -->
<svg version="1.1" id="Layer_1" xmlns="http://www.w3.org/2000/svg" xmlns:xlink="http://www.w3.org/1999/xlink" x="0px" y="0px"
	 viewBox="0 0 240 233" style="enable-background:new 0 0 240 233;" xml:space="preserve">
<style type="text/css">
	.st0{clip-path:url(#SVGID_6_);fill:url(#SVGID_8_);}
	.st1{opacity:0.06;clip-path:url(#SVGID_6_);}
	.st2{opacity:0.06;}
	.st3{clip-path:url(#SVGID_25_);}
	.st4{fill:#90C8E2;}
	.st5{fill:#8AC5DF;}
	.st6{fill:#EAEEF0;}
	.st7{fill:#EBEFF0;}
	.st8{fill:#97C9DD;}
	.st9{fill:#E6EEEF;}
	.st10{fill:#B9DCF0;}
	.st11{fill:#B8DAF0;}
	.st12{fill:#56ACCF;}
	.st13{fill:#B8DCF0;}
	.st14{fill:#C7E0EE;}
	.st15{fill:#E8F0F0;}
	.st16{fill:#9CD1EA;}
	.st17{fill:#B8DBF0;}
	.st18{fill:#A1CFFF;}
	.st19{fill:#E8ECED;}
	.st20{fill:#BFDDE8;}
	.st21{fill:#55ACCE;}
	.st22{fill:#55AACB;}
	.st23{fill:#78BAD6;}
	.st24{fill:#74B9D4;}
	.st25{fill:#B8DBEF;}
	.st26{fill:#56ABCE;}
	.st27{fill:#7BB9D4;}
	.st28{fill:#58AACD;}
	.st29{fill:#55ACCF;}
	.st30{fill:#9CD1EB;}
	.st31{fill:#99CFE8;}
	.st32{fill:#A7D4EC;}
	.st33{fill:#E6EAEB;}
	.st34{fill:#EAEFF0;}
	.st35{fill:#BEDFED;}
	.st36{fill:#DEEAF1;}
	.st37{fill:#E9EEF1;}
	.st38{fill:#E8EFED;}
	.st39{fill:#54ABCC;}
	.st40{fill:#CAE4F3;}
	.st41{fill:#C7E3F3;}
	.st42{fill:#F4F4F3;}
	.st43{fill:#F4F4F4;}
	.st44{fill:#BADCF0;}
	.st45{fill:#55AACE;}
	.st46{fill:#56ABCF;}
	.st47{fill:#53ABCF;}
	.st48{fill:#9BD2EB;}
	.st49{fill:#B3DCF0;}
	.st50{fill:#B2D9EF;}
	.st51{fill:#E9EDEE;}
	.st52{fill:#81C0D8;}
	.st53{fill:#EBEEF0;}
	.st54{fill:#54AAD0;}
	.st55{fill:#82BDD6;}
	.st56{fill:#EBEFEF;}
	.st57{fill:#F3F5F2;}
	.st58{fill:#F5F5F4;}
	.st59{fill:#CBE3EF;}
	.st60{fill:#55ABCC;}
	.st61{fill:#B4D8E4;}
	.st62{fill:#54ABCD;}
	.st63{fill:#7EBBD5;}
	.st64{fill:#BEDFEC;}
	.st65{fill:#9BD2EC;}
	.st66{fill:#57A9CE;}
	.st67{fill:#85C2D7;}
	.st68{fill:#BBDAE6;}
	.st69{fill:#F1F2F4;}
	.st70{fill:#E1EDF2;}
	.st71{fill:#E1EBF1;}
	.st72{fill:#9BD1EB;}
	.st73{fill:#8CC6DB;}
	.st74{fill:#A6CFDF;}
	.st75{fill:#E7EEF2;}
	.st76{fill:#9CD2EC;}
	.st77{fill:#95C9DC;}
	.st78{fill:#5AACCC;}
	.st79{fill:#EAEEEF;}
	.st80{fill:#9AD2EC;}
	.st81{fill:#F4F5F5;}
	.st82{fill:#EBEEEF;}
	.st83{fill:#95CADB;}
	.st84{fill:#93C8DC;}
	.st85{fill:#55ABCD;}
	.st86{fill:#D6EAEE;}
	.st87{fill:#54AACE;}
	.st88{fill:#B9DBF0;}
	.st89{fill:#BEDDE8;}
	.st90{fill:#A9D5E8;}
	.st91{fill:#A5CFDF;}
	.st92{fill:#ECF0F1;}
	.st93{fill:#A8D1E2;}
	.st94{fill:#A2D3E9;}
	.st95{fill:#E5EDEE;}
	.st96{fill:#E9EFF1;}
	.st97{fill:#9BD1ED;}
	.st98{fill:#BFDEEC;}
	.st99{fill:#8AC3D7;}
	.st100{fill:#FFFEFE;}
	.st101{fill:#BADBF0;}
	.st102{fill:#53ACCE;}
	.st103{fill:#B8DCEC;}
	.st104{fill:#E2ECF0;}
	.st105{fill:#E9EEEF;}
	.st106{fill:#82BDD4;}
	.st107{fill:#A4D4EB;}
	.st108{fill:#E2EEF3;}
	.st109{fill:#CCE4EF;}
	.st110{fill:#7EC2DD;}
	.st111{fill:#A1E8FF;}
	.st112{fill:#AED8EA;}
	.st113{fill:#E3F0F4;}
	.st114{fill:#58ACCE;}
	.st115{fill:#A9D6EC;}
	.st116{fill:#C2E0EE;}
	.st117{fill:#D7E7EF;}
	.st118{fill:#9BD1EC;}
	.st119{fill:#49C7D0;}
	.st120{fill:#F4F4F2;}
	.st121{fill:#DFEDF3;}
	.st122{fill:#9FD4EA;}
	.st123{fill:#9CD1EC;}
	.st124{fill:#9ED4EE;}
	.st125{fill:#E8F3F7;}
	.st126{fill:#E5F1F4;}
	.st127{fill:#7BBFDC;}
	.st128{fill:#54ABCF;}
	.st129{fill:#F1F7FA;}
	.st130{fill:#B9DBEF;}
	.st131{fill:#EAEEEE;}
	.st132{fill:#A9D5ED;}
	.st133{fill:#94CBE3;}
	.st134{fill:#B8D8EB;}
	.st135{fill:#84C2D7;}
	.st136{fill:#F1F3F3;}
	.st137{fill:#B8D7E8;}
	.st138{fill:#A3D3EC;}
	.st139{fill:#F3F4F4;}
	.st140{fill:#F0F7F9;}
	.st141{fill:#C5E0F0;}
	.st142{fill:#55A9CC;}
	.st143{fill:#B2D9E5;}
	.st144{fill:#56ABCD;}
	.st145{fill:#B7DCEF;}
	.st146{fill:#99C0E5;}
	.st147{fill:#A7D3E9;}
	.st148{fill:#B5D9F1;}
	.st149{fill:#84C1DC;}
	.st150{fill:#80C0DB;}
	.st151{fill:#F0F0F0;}
	.st152{fill:#AED4E6;}
	.st153{fill:#B7DCF0;}
	.st154{fill:#A5D3E7;}
	.st155{fill:#F5F4F5;}
	.st156{fill:#EBEFED;}
	.st157{fill:#BADBEE;}
	.st158{fill:#89C5DD;}
	.st159{fill:#55ABCF;}
	.st160{fill:#53ABCE;}
	.st161{fill:#73BCD9;}
	.st162{fill:#ACD5EC;}
	.st163{fill:#A5D4EA;}
	.st164{fill:#8FC8DF;}
	.st165{fill:#B1D9F2;}
	.st166{fill:#BAD8EB;}
	.st167{fill:#9AD0EB;}
	.st168{fill:#D9EAF1;}
	.st169{fill:#F5F4F2;}
	.st170{fill:#D4E6F1;}
	.st171{fill:#CCE2EF;}
	.st172{fill:#56AACD;}
	.st173{fill:#55ABCE;}
	.st174{fill:#BADAF0;}
	.st175{fill:#B9DAF2;}
	.st176{fill:#C9E2F1;}
	.st177{fill:#DBE9F0;}
	.st178{fill:#C6E1EB;}
	.st179{fill:#B1D9EC;}
	.st180{fill:#A3D2EB;}
	.st181{fill:#9ED2EA;}
	.st182{fill:#9FD3ED;}
	.st183{fill:#E0EAEF;}
	.st184{fill:#BDDCEF;}
	.st185{fill:#E7EDF1;}
	.st186{fill:#57ABCD;}
	.st187{fill:#B8DBF1;}
	.st188{fill:#ACD6EB;}
	.st189{fill:#B7DBEE;}
	.st190{fill:#F3F5F3;}
	.st191{fill:#F5F4F4;}
	.st192{fill:#C4DFEF;}
	.st193{fill:#E9EFEF;}
	.st194{fill:#7BBFD6;}
	.st195{fill:#B9DDED;}
	.st196{fill:#9FD1E9;}
	.st197{fill:#F4F5F4;}
	.st198{fill:#A5D3EA;}
	.st199{fill:#E4EDED;}
	.st200{fill:#E8EFEE;}
	.st201{fill:#EAF0F0;}
	.st202{fill:#ECEEF0;}
	.st203{fill:#85C0D5;}
	.st204{fill:#55ABCB;}
	.st205{fill:#B9DBF1;}
	.st206{fill:#A8D4E8;}
	.st207{fill:#B3DAEF;}
	.st208{fill:#B9DAF1;}
	.st209{fill:#F2F2F3;}
	.st210{fill:#F5F5F5;}
	.st211{fill:#F5F3F7;}
	.st212{fill:#9BCDDB;}
	.st213{fill:#DCEAF1;}
	.st214{fill:#A2D3EB;}
	.st215{fill:#DAEAF0;}
	.st216{fill:#E9EEF0;}
	.st217{fill:#D6E7F1;}
	.st218{fill:#DEE9F0;}
	.st219{fill:#F9F9FA;}
	.st220{fill:#CCE1E9;}
	.st221{fill:#B8DAEF;}
	.st222{fill:#A0D1EB;}
	.st223{fill:#B9DBEE;}
	.st224{fill:#C2E0EF;}
	.st225{fill:#E7EFF1;}
	.st226{fill:#D1E6EF;}
	.st227{fill:#E7EDEF;}
	.st228{fill:#D5E7EE;}
	.st229{fill:#92C7DA;}
	.st230{fill:#EAEEED;}
	.st231{fill:#E3EAF0;}
	.st232{fill:#B4DAEF;}
	.st233{fill:#ECF1F3;}
	.st234{fill:#E8EFF0;}
	.st235{fill:#9ED0E8;}
	.st236{fill:#B8DEEE;}
	.st237{fill:#B8DBEC;}
	.st238{fill:#9FD2EA;}
	.st239{fill:#F2F4F3;}
	.st240{fill:#E0EBF3;}
	.st241{fill:#BCDCF1;}
	.st242{fill:#BDDDEE;}
	.st243{fill:#C6E1EE;}
	.st244{fill:#97CBE3;}
	.st245{fill:#B1D9F0;}
	.st246{fill:#E7EBED;}
	.st247{fill:#F3F4F5;}
	.st248{fill:#99D2ED;}
	.st249{fill:#F1F4F6;}
	.st250{fill:#54ABCE;}
	.st251{fill:#E7EEF1;}
	.st252{fill:#DFECF3;}
	.st253{fill:#ACD9EB;}
	.st254{fill:#9ED1E9;}
	.st255{fill:#E3EBEF;}
	.st256{fill:#86C2D8;}
	.st257{fill:#B8DCEB;}
	.st258{fill:#7EBED8;}
	.st259{fill:#55AACC;}
	.st260{fill:#EAEFEF;}
	.st261{fill:#D5E9F3;}
	.st262{fill:#C8E1EF;}
	.st263{fill:#A0D4EB;}
	.st264{fill:#ABD7EB;}
	.st265{fill:#ECF4F5;}
	.st266{fill:#EEF1F5;}
	.st267{fill:#7CC1DE;}
	.st268{fill:#E3EAEA;}
	.st269{fill:#DDE7EA;}
	.st270{fill:#9AD0EA;}
	.st271{fill:#C9E3EF;}
	.st272{fill:#EBEDEF;}
	.st273{fill:#B7DCF1;}
	.st274{fill:#E5EEF5;}
	.st275{fill:#B7DBEF;}
	.st276{fill:#70BAD5;}
	.st277{fill:#9AD3EC;}
	.st278{fill:#79BFDB;}
	.st279{fill:#E7EBEC;}
	.st280{fill:#8ECAE5;}
	.st281{fill:#AED6ED;}
	.st282{fill:#76BEDA;}
	.st283{fill:#58ACCD;}
	.st284{fill:#CFE4EC;}
	.st285{fill:#E6F1F3;}
	.st286{fill:#A2D2EE;}
	.st287{fill:#91CBE7;}
	.st288{fill:#E1EAEE;}
	.st289{fill:#B6DAED;}
	.st290{fill:#C0DFEE;}
	.st291{fill:#B9DAEE;}
	.st292{fill:#55ABD0;}
	.st293{fill:#7CBFDA;}
	.st294{fill:#87C5E0;}
	.st295{fill:#E9EFEC;}
	.st296{fill:#BBDBF0;}
	.st297{fill:#BADBEF;}
	.st298{fill:#A7D5EE;}
	.st299{fill:#7DC1DF;}
	.st300{fill:#E1ECF2;}
	.st301{fill:#88C6E1;}
	.st302{fill:#DEEFF3;}
	.st303{fill:#86C6E2;}
	.st304{fill:#A6D4EE;}
	.st305{fill:#CDE4EF;}
	.st306{fill:#CEE3F0;}
	.st307{fill:#9BD2EA;}
	.st308{fill:#A2D0E0;}
	.st309{fill:#FDFEFC;}
	.st310{fill:#FEFDFD;}
	.st311{fill:#ABD7EE;}
	.st312{fill:#90CCE9;}
	.st313{fill:#C9E2EF;}
	.st314{fill:#E7EFF2;}
	.st315{fill:#ABD4E4;}
	.st316{fill:#89C2DA;}
	.st317{fill:#71BCD7;}
	.st318{fill:#AFD7ED;}
	.st319{fill:#A5D4E2;}
	.st320{fill:#81C3DC;}
	.st321{fill:#A9D6ED;}
	.st322{fill:#C4DDE7;}
	.st323{fill:#BADBE4;}
	.st324{fill:#D5E5EB;}
	.st325{fill:#85C3DE;}
	.st326{fill:#57AACE;}
	.st327{fill:#BCDDF0;}
	.st328{fill:#C5E1EA;}
	.st329{fill:#9DD0E9;}
	.st330{fill:#AFD9EF;}
	.st331{fill:#B7DBF0;}
	.st332{fill:#C9DFE5;}
	.st333{fill:#BDDDEC;}
	.st334{fill:#A1CDE2;}
	.st335{fill:#57AACD;}
	.st336{fill:#D8E8EE;}
	.st337{fill:#9CD2EB;}
	.st338{fill:#9DCCDF;}
	.st339{fill:#57ABCF;}
	.st340{fill:#8FC9DF;}
	.st341{fill:#B7DAEE;}
	.st342{fill:#FBFDFC;}
	.st343{fill:#BFDCE6;}
	.st344{fill:#A8D5E9;}
	.st345{fill:#E6EDF0;}
	.st346{fill:#D5E6ED;}
	.st347{fill:#BFDDEE;}
	.st348{fill:#B8DCEF;}
	.st349{fill:#9FCEE4;}
	.st350{fill:#AAD6EC;}
	.st351{fill:#8AC6DB;}
	.st352{fill:#89C7E1;}
	.st353{fill:#9BCFE7;}
	.st354{fill:#EBEDF0;}
	.st355{fill:#85C2DE;}
	.st356{fill:#B8D9EC;}
	.st357{fill:#BCDCEC;}
	.st358{fill:#C6E0EE;}
	.st359{fill:#9BD0EE;}
	.st360{fill:#C8DFE6;}
	.st361{clip-path:url(#SVGID_6_);}
	.st362{fill:#D7CCC8;}
	.st363{fill:#BCAAA4;}
	.st364{fill:#A1887F;}
	.st365{clip-path:url(#SVGID_26_);fill:#F2EEED;}
	.st366{fill:#FEFEFE;}
	.st367{fill:#F9F8F7;}
	.st368{fill:#EFEBE9;}
	.st369{fill:#F2EFED;}
	.st370{clip-path:url(#SVGID_27_);fill:#F2EEED;}
	.st371{clip-path:url(#SVGID_28_);fill:#F2EEED;}
	.st372{clip-path:url(#SVGID_29_);fill:#F2EEED;}
	.st373{opacity:0.35;fill:url(#SVGID_30_);}
	.st374{fill:url(#SVGID_31_);}
	.st375{fill:url(#SVGID_32_);}
	.st376{fill:url(#SVGID_40_);}
	.st377{fill:url(#SVGID_42_);}
	.st378{opacity:0.35;fill:url(#SVGID_44_);}
	.st379{fill:url(#SVGID_46_);}
	.st380{opacity:0.35;}
	.st381{filter:url(#Adobe_OpacityMaskFilter);}
	.st382{mask:url(#SVGID_48_);}
	.st383{fill:#231F20;}
	.st384{fill:url(#SVGID_50_);}
	.st385{fill:url(#SVGID_65_);}
	.st386{opacity:0.28;fill:url(#SVGID_66_);}
	.st387{fill:url(#SVGID_67_);}
	.st388{clip-path:url(#SVGID_6_);fill:#E8E8E8;}
	.st389{fill:#E8E8E8;}
	.st390{opacity:0.3;}
	.st391{fill:#FFFFFF;}
	.st392{fill:#FFCC9A;}
	.st393{fill:#FFB100;}
	.st394{fill:#DEDEDE;}
	.st395{fill:#FFE7C8;}
	.st396{fill:#EF4418;}
	.st397{fill:#9DAE5E;}
	.st398{fill:#FFFFFD;}
	.st399{fill:#FFB701;}
	.st400{clip-path:url(#SVGID_68_);}
	.st401{fill:#FABA8C;}
	.st402{fill:#F59687;}
	.st403{fill:#FDD8B8;}
	.st404{fill:#E75025;}
	.st405{fill:#F37B6F;}
	.st406{fill:#161818;}
	.st407{fill:#FFEFE6;}
	.st408{fill:#F47F38;}
	.st409{fill:#F89D4C;}
	.st410{fill:#2C2C2C;}
	.st411{fill:#AB1F27;}
	.st412{fill:#133358;}
	.st413{fill:#26527A;}
	.st414{fill:#052743;}
	.st415{fill:#EBB635;}
	.st416{fill:#FFD354;}
	.st417{fill:#CB922B;}
	.st418{fill:#FF4B00;}
	.st419{fill:#FEFFFF;}
	.st420{fill:#593219;}
	.st421{clip-path:url(#SVGID_74_);}
	.st422{fill:#F6901E;}
	.st423{fill:#414156;}
	.st424{fill:#312F44;}
	.st425{fill:#5F5F74;}
	.st426{fill:#BC202E;}
	.st427{fill:#EA1F27;}
	.st428{fill:#530D2D;}
	.st429{fill:#3C0F27;}
	.st430{fill:#6F0E32;}
	.st431{clip-path:url(#SVGID_76_);}
	.st432{clip-path:url(#SVGID_76_);fill:none;}
	.st433{clip-path:url(#SVGID_77_);}
	.st434{fill:#1E4258;stroke:#1E4258;stroke-width:10;stroke-miterlimit:10;}
	.st435{fill:#FFD13E;}
	.st436{fill:#9A9A87;}
	.st437{fill:#F7F7EE;}
	.st438{fill:#F2B241;}
	.st439{fill:#ADE4EA;}
	.st440{fill:#1E4258;}
	.st441{fill:#A4B3BE;}
	.st442{fill:#E2E2E2;}
	.st443{fill:#FFB352;}
	.st444{fill:url(#SVGID_78_);}
	.st445{fill:url(#SVGID_79_);}
	.st446{fill:url(#SVGID_80_);}
	.st447{fill:url(#SVGID_81_);}
	.st448{fill:url(#SVGID_82_);}
	.st449{fill:url(#SVGID_83_);}
	.st450{fill:url(#SVGID_84_);}
	.st451{fill:url(#SVGID_85_);}
	.st452{fill:#1E4258;stroke:#1E4258;stroke-width:6;stroke-miterlimit:10;}
	.st453{fill:#E6E6E6;}
	.st454{fill:#CB7256;}
	.st455{fill:#B15A47;}
	.st456{fill:#E0826C;}
	.st457{fill:#9F4F39;}
	.st458{fill:#582121;}
	.st459{fill:#F9E8CA;}
	.st460{fill:#E8CCAC;}
	.st461{fill:#F16531;}
	.st462{fill:#007D7F;}
	.st463{fill:#016868;}
	.st464{fill:#181329;}
	.st465{fill:#445D78;}
	.st466{fill:#313233;}
	.st467{fill:#FC636B;}
	.st468{fill:#004D40;}
	.st469{fill:#26C6DA;}
	.st470{fill:#FFA726;}
	.st471{fill:url(#SVGID_86_);}
	.st472{clip-path:url(#SVGID_6_);fill:#FAFAFA;}
	.st473{opacity:0.35;fill:url(#SVGID_87_);}
	.st474{fill:url(#SVGID_88_);}
	.st475{opacity:0.4;fill:url(#SVGID_89_);}
	.st476{fill:url(#SVGID_90_);}
	.st477{opacity:0.35;fill:url(#SVGID_91_);}
	.st478{fill:url(#SVGID_92_);}
	.st479{opacity:0.2;fill:url(#SVGID_93_);}
	.st480{fill:url(#SVGID_94_);}
	.st481{opacity:0.2;fill:url(#SVGID_95_);}
	.st482{fill:url(#SVGID_96_);}
	.st483{opacity:0.35;fill:url(#SVGID_97_);}
	.st484{fill:url(#SVGID_99_);}
	.st485{fill:url(#SVGID_101_);}
	.st486{fill:url(#SVGID_102_);}
	.st487{opacity:0.35;fill:url(#SVGID_103_);}
	.st488{fill:url(#SVGID_104_);}
	.st489{opacity:0.27;}
	.st490{fill:url(#SVGID_105_);}
	.st491{fill:url(#SVGID_106_);}
	.st492{fill:url(#SVGID_107_);}
	.st493{fill:url(#SVGID_108_);}
	.st494{fill:url(#SVGID_109_);}
	.st495{fill:url(#SVGID_110_);}
	.st496{opacity:0.35;fill:url(#SVGID_111_);}
	.st497{opacity:0.25;}
	.st498{fill:url(#SVGID_112_);}
	.st499{fill:url(#SVGID_113_);}
	.st500{fill:url(#SVGID_114_);}
	.st501{fill:url(#SVGID_115_);}
	.st502{fill:url(#SVGID_116_);}
	.st503{fill:#B25A47;}
	.st504{fill:#E1836C;}
	.st505{fill:#A04F39;}
	.st506{fill:#FFEFE7;}
	.st507{fill:#FAE9CB;}
	.st508{fill:#E9CDAD;}
	.st509{fill:#F7B454;}
	.st510{fill:#2B454E;}
	.st511{fill:#1A2E35;}
	.st512{fill:#375A64;}
	.st513{fill:#D268CC;}
	.st514{fill:#DDF9BB;}
	.st515{fill:#99C8E9;}
	.st516{fill:#071B2C;}
	.st517{fill:#575E70;}
	.st518{fill:#4DB596;}
	.st519{fill:#454B55;}
	.st520{fill:#63A945;}
	.st521{fill:#293033;}
	.st522{fill:#F1F1F2;}
	.st523{fill:#192953;}
	.st524{clip-path:url(#SVGID_117_);fill:#071B2C;}
	.st525{fill:#5E5BA8;}
	.st526{fill:#F79678;}
	.st527{opacity:0.2;fill:#293033;}
	.st528{fill:#1A2229;}
	.st529{fill:#4C803B;}
	.st530{fill:#32353D;}
	.st531{fill:#444A56;}
	.st532{fill:#3E8E75;}
	.st533{opacity:0.2;clip-path:url(#SVGID_118_);fill:#293033;}
	.st534{fill:#F05250;}
	.st535{opacity:0.2;clip-path:url(#SVGID_119_);fill:#293033;}
	.st536{fill:#424278;}
	.st537{opacity:0.5;clip-path:url(#SVGID_120_);fill:#071B2C;}
	.st538{fill:#035B87;}
	.st539{opacity:0.2;clip-path:url(#SVGID_121_);fill:#293033;}
	.st540{opacity:0.2;clip-path:url(#SVGID_122_);fill:#293033;}
	.st541{fill:#034761;}
	.st542{fill:#F5BD18;}
	.st543{fill:#010101;}
	.st544{fill:#FB73AA;}
	.st545{fill:#01030A;}
	.st546{fill:#040102;}
	.st547{fill:#030102;}
	.st548{fill:#050203;}
	.st549{fill:#FAE803;}
	.st550{fill:#F8B937;}
	.st551{fill:#2950B8;}
	.st552{fill:#FDFDFD;}
	.st553{fill:#294FB6;}
	.st554{fill:#F89F29;}
	.st555{fill:#FFF9E7;}
	.st556{fill:#99D1D7;}
	.st557{fill:#C1E0DA;}
	.st558{fill:#134F78;}
	.st559{fill:#D94D2E;}
	.st560{fill:#12B6A7;}
	.st561{fill:#313D4D;}
	.st562{fill:#EAB02A;}
	.st563{fill:#FDD5B6;}
	.st564{fill:#B21F2D;}
	.st565{fill:#DB212C;}
	.st566{fill:#85B6BA;}
	.st567{fill:#E4E5E5;}
	.st568{fill:#029C8B;}
	.st569{fill:#B2B1B1;}
	.st570{fill:#0DB2A4;}
	.st571{fill:#DFB559;}
	.st572{fill:#FBD145;}
	.st573{fill:#F2C9A9;}
	.st574{fill:#7B6C53;}
	.st575{fill:#007CFF;}
	.st576{opacity:0.5;fill:#FFFFFF;}
	.st577{fill:#D7656A;}
	.st578{fill:#F0877C;}
	.st579{opacity:0.7;fill:#FFFFFF;}
	.st580{opacity:0.6;fill:#FFFFFF;}
	.st581{opacity:0.1;}
	.st582{opacity:0.2;}
	.st583{fill:#FD5652;}
	.st584{opacity:0.4;}
	.st585{opacity:0.8;}
	.st586{fill:#F8B275;}
	.st587{fill:#FCB373;}
	.st588{opacity:0.7;}
	.st589{opacity:0.5;}
	.st590{fill:#EC873E;}
	.st591{fill:#B84D3C;}
	.st592{opacity:0.4;fill:#FFFFFF;}
	.st593{fill:#FFC19D;}
	.st594{fill:#E1E1E1;}
	.st595{fill:#FF735D;}
	.st596{fill:#ECECEC;}
	.st597{fill:#FF9C6A;}
	.st598{opacity:0.3;fill:#CFC4B8;}
	.st599{enable-background:new    ;}
	.st600{fill:#E4E3EE;}
	.st601{fill:#B7B6E3;}
	.st602{fill:#919DD6;}
	.st603{fill:#12B0F3;}
	.st604{fill:#1393F2;}
	.st605{fill:#05D4F5;}
	.st606{fill:#D4D5F0;}
	.st607{fill:#C4C3EC;}
	.st608{fill:#EEEFF2;}
	.st609{clip-path:url(#SVGID_123_);enable-background:new    ;}
	.st610{clip-path:url(#SVGID_124_);enable-background:new    ;}
	.st611{clip-path:url(#SVGID_125_);enable-background:new    ;}
	.st612{clip-path:url(#SVGID_126_);enable-background:new    ;}
	.st613{clip-path:url(#SVGID_127_);enable-background:new    ;}
	.st614{fill:#DAD9E8;}
	.st615{clip-path:url(#SVGID_128_);enable-background:new    ;}
	.st616{fill:#EBEBF1;}
	.st617{clip-path:url(#SVGID_129_);enable-background:new    ;}
	.st618{clip-path:url(#SVGID_130_);enable-background:new    ;}
	.st619{clip-path:url(#SVGID_131_);enable-background:new    ;}
	.st620{clip-path:url(#SVGID_132_);enable-background:new    ;}
	.st621{fill:#171C29;}
	.st622{fill:#042F8F;}
	.st623{clip-path:url(#SVGID_133_);enable-background:new    ;}
	.st624{clip-path:url(#SVGID_134_);enable-background:new    ;}
	.st625{clip-path:url(#SVGID_135_);enable-background:new    ;}
	.st626{clip-path:url(#SVGID_136_);enable-background:new    ;}
	.st627{clip-path:url(#SVGID_137_);enable-background:new    ;}
	.st628{clip-path:url(#SVGID_138_);enable-background:new    ;}
	.st629{fill:url(#SVGID_139_);}
	.st630{fill:#789CCF;}
	.st631{opacity:0.48;fill:none;stroke:#FFFFFF;stroke-width:0.8689;stroke-miterlimit:10;}
	.st632{opacity:0.48;fill:none;stroke:#FFFFFF;stroke-width:0.7996;stroke-miterlimit:10;}
	.st633{fill:none;stroke:#FFFFFF;stroke-width:4.3598;stroke-linecap:round;stroke-linejoin:round;stroke-miterlimit:10;}
	.st634{fill:#6286D6;}
	.st635{fill:#7798FC;}
	.st636{fill:#FF998B;}
	.st637{fill:#0D0000;}
	.st638{fill:#DDE5F2;}
	.st639{fill:none;stroke:#DDE5F2;stroke-width:1.6024;stroke-miterlimit:10;}
	.st640{fill:#5E757A;}
	.st641{fill:#20120D;}
	.st642{fill:#272727;}
	.st643{fill:#F9796D;}
	.st644{fill:#E87F74;}
	.st645{fill:#F15146;}
	.st646{fill:#D0413B;}
	.st647{fill:#FF604F;}
	.st648{fill:#FD8A77;}
	.st649{fill:#F9FFFC;}
	.st650{fill:none;stroke:#FFFFFF;stroke-width:1.5615;stroke-miterlimit:10;}
	.st651{fill:#FCFBFB;}
	.st652{fill:#2D8584;}
	.st653{fill:#156054;}
	.st654{opacity:0.19;}
	.st655{fill:#97D5D3;}
	.st656{fill:#96CBB9;}
	.st657{fill:url(#SVGID_140_);}
	.st658{fill:#C7DEFD;}
	.st659{fill:#0C0A0A;}
	.st660{fill:#BED9FD;}
	.st661{fill:#FED964;}
	.st662{fill:#8BBBFD;}
	.st663{fill:#25A9E1;}
	.st664{fill:#FF8DA0;}
	.st665{fill:#FD4056;}
	.st666{fill:#000001;}
	.st667{fill:#7F7FFD;}
	.st668{fill:#43BA79;}
	.st669{fill:#FFFFFF;stroke:#1A1A1A;stroke-width:2;stroke-linecap:round;stroke-linejoin:round;stroke-miterlimit:10;}
	.st670{fill:#4E3CDF;}
	.st671{fill:none;}
	.st672{fill:#0B0B0C;}
	.st673{fill:#010102;}
	.st674{clip-path:url(#SVGID_141_);fill:url(#SVGID_142_);}
	.st675{clip-path:url(#SVGID_141_);}
	.st676{fill:#FFA94D;}
	.st677{fill:#FFDBBB;}
	.st678{fill:#FEB07D;}
	.st679{fill:#F87352;}
	.st680{fill:#09293D;}
	.st681{fill:#12B886;}
	.st682{fill:#C37362;}
	.st683{fill:none;stroke:#09293D;stroke-width:1.25;stroke-miterlimit:10;}
	.st684{fill:#C184B0;}
	.st685{fill:#FFDAB2;}
	.st686{clip-path:url(#SVGID_146_);fill:url(#SVGID_147_);}
	.st687{opacity:0.06;clip-path:url(#SVGID_146_);}
	.st688{clip-path:url(#SVGID_148_);}
	.st689{clip-path:url(#SVGID_146_);}
	.st690{clip-path:url(#SVGID_149_);}
	.st691{clip-path:url(#SVGID_150_);}
	.st692{clip-path:url(#SVGID_151_);}
	.st693{clip-path:url(#SVGID_151_);fill:none;}
	.st694{clip-path:url(#SVGID_152_);}
	.st695{fill:url(#SVGID_153_);}
	.st696{fill:url(#SVGID_154_);}
	.st697{fill:url(#SVGID_155_);}
	.st698{fill:url(#SVGID_156_);}
	.st699{fill:url(#SVGID_157_);}
	.st700{fill:url(#SVGID_158_);}
	.st701{fill:url(#SVGID_159_);}
	.st702{fill:url(#SVGID_160_);}
	.st703{fill:url(#SVGID_161_);}
	.st704{clip-path:url(#SVGID_162_);fill:#F2EEED;}
	.st705{clip-path:url(#SVGID_163_);fill:#F2EEED;}
	.st706{clip-path:url(#SVGID_164_);fill:#F2EEED;}
	.st707{clip-path:url(#SVGID_165_);fill:#F2EEED;}
	.st708{clip-path:url(#SVGID_146_);fill:#FAFAFA;}
	.st709{opacity:0.35;fill:url(#SVGID_166_);}
	.st710{fill:url(#SVGID_167_);}
	.st711{fill:url(#SVGID_168_);}
	.st712{fill:url(#SVGID_169_);}
	.st713{fill:url(#SVGID_170_);}
	.st714{opacity:0.35;fill:url(#SVGID_171_);}
	.st715{fill:url(#SVGID_172_);}
	.st716{opacity:0.4;fill:url(#SVGID_173_);}
	.st717{fill:url(#SVGID_174_);}
	.st718{opacity:0.35;fill:url(#SVGID_175_);}
	.st719{fill:url(#SVGID_176_);}
	.st720{opacity:0.2;fill:url(#SVGID_177_);}
	.st721{fill:url(#SVGID_178_);}
	.st722{opacity:0.2;fill:url(#SVGID_179_);}
	.st723{fill:url(#SVGID_180_);}
	.st724{opacity:0.35;fill:url(#SVGID_181_);}
	.st725{fill:url(#SVGID_182_);}
	.st726{fill:url(#SVGID_183_);}
	.st727{fill:url(#SVGID_184_);}
	.st728{opacity:0.35;fill:url(#SVGID_185_);}
	.st729{fill:url(#SVGID_186_);}
	.st730{filter:url(#Adobe_OpacityMaskFilter_1_);}
	.st731{mask:url(#SVGID_187_);}
	.st732{fill:url(#SVGID_188_);}
	.st733{fill:url(#SVGID_189_);}
	.st734{opacity:0.28;fill:url(#SVGID_190_);}
	.st735{fill:url(#SVGID_191_);}
	.st736{opacity:0.35;fill:url(#SVGID_192_);}
	.st737{fill:url(#SVGID_193_);}
	.st738{fill:url(#SVGID_194_);}
	.st739{fill:url(#SVGID_195_);}
	.st740{fill:url(#SVGID_196_);}
	.st741{fill:url(#SVGID_197_);}
	.st742{fill:url(#SVGID_198_);}
	.st743{fill:url(#SVGID_199_);}
	.st744{opacity:0.35;fill:url(#SVGID_200_);}
	.st745{fill:url(#SVGID_201_);}
	.st746{fill:url(#SVGID_202_);}
	.st747{fill:url(#SVGID_203_);}
	.st748{fill:url(#SVGID_204_);}
	.st749{fill:url(#SVGID_205_);}
	.st750{clip-path:url(#SVGID_146_);fill:#E8E8E8;}
	.st751{fill:#FCB619;}
	.st752{fill:#0F141D;}
	.st753{fill:#F0625B;}
	.st754{fill:#088473;}
	.st755{fill:#DD665E;}
	.st756{fill:#3B4450;}
	.st757{fill:#27BDC4;}
	.st758{fill:#C2E1DB;}
	.st759{fill:#99D2D9;}
	.st760{fill:#0F3754;}
	.st761{fill:#154F78;}
	.st762{fill:#68481D;}
	.st763{fill:#C5F4FC;}
	.st764{opacity:0.08;}
	.st765{clip-path:url(#SVGID_206_);}
	.st766{fill-rule:evenodd;clip-rule:evenodd;fill:#7A7A7A;}
	.st767{fill:#7A7A7A;}
	.st768{fill:#585858;}
	.st769{clip-path:url(#SVGID_206_);fill-rule:evenodd;clip-rule:evenodd;fill:#7A7A7A;}
	.st770{clip-path:url(#SVGID_206_);fill:#7A7A7A;}
	.st771{clip-path:url(#SVGID_207_);}
	.st772{clip-path:url(#SVGID_207_);fill-rule:evenodd;clip-rule:evenodd;fill:#7A7A7A;}
	.st773{clip-path:url(#SVGID_207_);fill:#7A7A7A;}
	.st774{clip-path:url(#SVGID_208_);}
	.st775{clip-path:url(#SVGID_208_);fill-rule:evenodd;clip-rule:evenodd;fill:#7A7A7A;}
	.st776{clip-path:url(#SVGID_208_);fill:#7A7A7A;}
	.st777{clip-path:url(#SVGID_209_);}
	.st778{clip-path:url(#SVGID_209_);fill-rule:evenodd;clip-rule:evenodd;fill:#7A7A7A;}
	.st779{clip-path:url(#SVGID_209_);fill:#7A7A7A;}
	.st780{fill:#BED2A4;}
	.st781{opacity:0.18;clip-path:url(#SVGID_210_);}
	.st782{opacity:0.18;}
	.st783{clip-path:url(#SVGID_211_);}
	.st784{fill:#BABABA;}
	.st785{fill:#B6B6B6;}
	.st786{fill:#EDEDED;}
	.st787{fill:#EEEEEE;}
	.st788{fill:#BCBCBC;}
	.st789{fill:#D4D4D4;}
	.st790{fill:#D2D2D2;}
	.st791{fill:#969696;}
	.st792{fill:#D3D3D3;}
	.st793{fill:#DADADA;}
	.st794{fill:#C4C4C4;}
	.st795{fill:#C6C6C6;}
	.st796{fill:#EBEBEB;}
	.st797{fill:#D5D5D5;}
	.st798{fill:#949494;}
	.st799{fill:#A9A9A9;}
	.st800{fill:#A7A7A7;}
	.st801{fill:#959595;}
	.st802{fill:#C2C2C2;}
	.st803{fill:#C9C9C9;}
	.st804{fill:#E9E9E9;}
	.st805{fill:#D7D7D7;}
	.st806{fill:#E7E7E7;}
	.st807{fill:#DCDCDC;}
	.st808{fill:#D0D0D0;}
	.st809{fill:#B0B0B0;}
	.st810{fill:#AEAEAE;}
	.st811{fill:#DDDDDD;}
	.st812{fill:#CFCFCF;}
	.st813{fill:#ACACAC;}
	.st814{fill:#B2B2B2;}
	.st815{fill:#F2F2F2;}
	.st816{fill:#EAEAEA;}
	.st817{fill:#B7B7B7;}
	.st818{fill:#C5C5C5;}
	.st819{fill:#BBBBBB;}
	.st820{fill:#979797;}
	.st821{fill:#E4E4E4;}
	.st822{fill:#CACACA;}
	.st823{fill:#EFEFEF;}
	.st824{fill:#C7C7C7;}
	.st825{fill:#D6D6D6;}
	.st826{fill:#B4B4B4;}
	.st827{fill:#C8C8C8;}
	.st828{fill:#B1B1B1;}
	.st829{fill:#CDCDCD;}
	.st830{fill:#CBCBCB;}
	.st831{fill:#D9D9D9;}
	.st832{fill:#E3E3E3;}
	.st833{fill:#A2A2A2;}
	.st834{fill:#F6F6F6;}
	.st835{fill:#BDBDBD;}
	.st836{fill:#B8B8B8;}
	.st837{fill:#D1D1D1;}
	.st838{fill:#B9B9B9;}
	.st839{fill:#C3C3C3;}
	.st840{fill:#CCCCCC;}
	.st841{fill:#ADADAD;}
	.st842{fill:#C0C0C0;}
	.st843{fill:#F9F9F9;}
	.st844{fill:#F3F3F3;}
	.st845{fill:#BEBEBE;}
	.st846{fill:#DBDBDB;}
	.st847{fill:#F1F1F1;}
	.st848{fill:#AFAFAF;}
	.st849{fill:#ABABAB;}
	.st850{fill:#DFDFDF;}
	.st851{fill:#B5B5B5;}
	.st852{fill:#A8A8A8;}
	.st853{fill:#B3B3B3;}
	.st854{fill:#FCFCFC;}
	.st855{clip-path:url(#SVGID_213_);}
	.st856{fill:#88C9A1;}
	.st857{opacity:0.87;}
	.st858{opacity:0.18;clip-path:url(#SVGID_216_);}
	.st859{clip-path:url(#SVGID_217_);}
	.st860{clip-path:url(#SVGID_219_);}
	.st861{fill:#3169B1;}
	.st862{fill:#9EC96B;}
	.st863{fill:#FFCE6C;}
	.st864{fill:#768B4B;}
	.st865{fill:#BE893D;}
	.st866{fill:#51CDF4;}
</style>
<g>
	<g>
		<polygon class="st598" points="127.64,189.96 141.47,189.96 194.57,159.26 147.96,131.76 114.64,150.06 		"/>
		<g>
			<g>
				<g class="st599">
					<g>
						<polygon class="st600" points="76.89,147.5 79.36,146.06 82.72,148 80.24,149.44 						"/>
					</g>
					<g>
						<polygon class="st601" points="83.23,146.42 85.7,144.98 83.17,149.12 80.69,150.56 						"/>
					</g>
					<g>
						<polygon class="st602" points="89.08,148.94 91.55,147.5 91.55,148.36 89.08,149.8 						"/>
					</g>
					<g>
						<polygon class="st600" points="82.77,145.3 85.25,143.86 91.55,147.5 89.08,148.94 						"/>
					</g>
					<g>
						<polygon class="st602" points="89.08,148.94 89.08,149.8 83.23,146.42 80.69,150.56 76.88,148.36 76.89,147.5 80.24,149.44 
							82.77,145.3 						"/>
					</g>
				</g>
			</g>
			<g>
				<g class="st599">
					<g>
						<polygon class="st600" points="86.08,142.26 88.55,140.83 91.91,142.76 89.43,144.2 						"/>
					</g>
					<g>
						<polygon class="st601" points="92.42,141.19 94.89,139.75 92.36,143.88 89.88,145.32 						"/>
					</g>
					<g>
						<polygon class="st602" points="98.27,143.71 100.74,142.27 100.74,143.13 98.27,144.56 						"/>
					</g>
					<g>
						<polygon class="st600" points="91.96,140.07 94.44,138.63 100.74,142.27 98.27,143.71 						"/>
					</g>
					<g>
						<polygon class="st602" points="98.27,143.71 98.27,144.56 92.42,141.19 89.88,145.32 86.07,143.12 86.08,142.26 89.43,144.2 
							91.96,140.07 						"/>
					</g>
				</g>
			</g>
			<g>
				<g class="st599">
					<g>
						<polygon class="st600" points="94.88,137.02 97.35,135.58 100.71,137.52 98.23,138.96 						"/>
					</g>
					<g>
						<polygon class="st601" points="101.22,135.94 103.69,134.51 101.16,138.64 98.69,140.08 						"/>
					</g>
					<g>
						<polygon class="st602" points="107.07,138.46 109.55,137.03 109.54,137.88 107.07,139.32 						"/>
					</g>
					<g>
						<polygon class="st600" points="100.77,134.82 103.24,133.39 109.55,137.03 107.07,138.46 						"/>
					</g>
					<g>
						<polygon class="st602" points="107.07,138.46 107.07,139.32 101.22,135.94 98.69,140.08 94.88,137.88 94.88,137.02 
							98.23,138.96 100.77,134.82 						"/>
					</g>
				</g>
			</g>
			<g>
				<g class="st599">
					<g>
						<polygon class="st600" points="67.8,153.19 70.28,151.75 73.63,153.69 71.16,155.13 						"/>
					</g>
					<g>
						<polygon class="st601" points="74.14,152.11 76.62,150.68 74.08,154.81 71.61,156.25 						"/>
					</g>
					<g>
						<polygon class="st602" points="79.99,154.63 82.47,153.2 82.47,154.05 79.99,155.49 						"/>
					</g>
					<g>
						<polygon class="st600" points="73.69,150.99 76.16,149.56 82.47,153.2 79.99,154.63 						"/>
					</g>
					<g>
						<polygon class="st602" points="79.99,154.63 79.99,155.49 74.14,152.11 71.61,156.25 67.8,154.05 67.8,153.19 71.16,155.13 
							73.69,150.99 						"/>
					</g>
				</g>
			</g>
			<g>
				<g class="st599">
					<g>
						<polygon class="st600" points="104.66,131.49 107.14,130.05 110.49,131.99 108.02,133.43 						"/>
					</g>
					<g>
						<polygon class="st601" points="111,130.41 113.48,128.98 110.95,133.11 108.47,134.55 						"/>
					</g>
					<g>
						<polygon class="st602" points="116.86,132.93 119.33,131.5 119.33,132.35 116.85,133.79 						"/>
					</g>
					<g>
						<polygon class="st600" points="110.55,129.29 113.02,127.86 119.33,131.5 116.86,132.93 						"/>
					</g>
					<g>
						<polygon class="st602" points="116.86,132.93 116.85,133.79 111,130.41 108.47,134.55 104.66,132.35 104.66,131.49 
							108.02,133.43 110.55,129.29 						"/>
					</g>
				</g>
			</g>
			<g>
				<g class="st599">
					<g>
						<polygon class="st600" points="114.07,126.15 116.54,124.71 119.9,126.65 117.42,128.09 						"/>
					</g>
					<g>
						<polygon class="st601" points="120.41,125.08 122.88,123.64 120.35,127.77 117.87,129.21 						"/>
					</g>
					<g>
						<polygon class="st602" points="126.26,127.6 128.73,126.16 128.73,127.02 126.26,128.45 						"/>
					</g>
					<g>
						<polygon class="st600" points="119.95,123.96 122.43,122.52 128.73,126.16 126.26,127.6 						"/>
					</g>
					<g>
						<polygon class="st602" points="126.26,127.6 126.26,128.45 120.41,125.08 117.87,129.21 114.06,127.01 114.07,126.15 
							117.42,128.09 119.95,123.96 						"/>
					</g>
				</g>
			</g>
		</g>
		<g>
			<g>
				<g class="st599">
					<g>
						<polygon class="st600" points="177.61,147.63 175.14,146.19 171.78,148.13 174.25,149.56 						"/>
					</g>
					<g>
						<polygon class="st601" points="171.27,146.55 168.8,145.11 171.33,149.25 173.8,150.69 						"/>
					</g>
					<g>
						<polygon class="st602" points="165.42,149.07 162.94,147.63 162.94,148.49 165.42,149.93 						"/>
					</g>
					<g>
						<polygon class="st600" points="171.72,145.43 169.25,143.99 162.94,147.63 165.42,149.07 						"/>
					</g>
					<g>
						<polygon class="st602" points="165.42,149.07 165.42,149.93 171.27,146.55 173.8,150.69 177.61,148.49 177.61,147.63 
							174.25,149.56 171.72,145.43 						"/>
					</g>
				</g>
			</g>
			<g>
				<g class="st599">
					<g>
						<polygon class="st600" points="168.42,142.39 165.94,140.95 162.59,142.89 165.06,144.33 						"/>
					</g>
					<g>
						<polygon class="st601" points="162.08,141.31 159.6,139.88 162.14,144.01 164.61,145.45 						"/>
					</g>
					<g>
						<polygon class="st602" points="156.23,143.84 153.75,142.4 153.75,143.25 156.23,144.69 						"/>
					</g>
					<g>
						<polygon class="st600" points="162.53,140.19 160.06,138.76 153.75,142.4 156.23,143.84 						"/>
					</g>
					<g>
						<polygon class="st602" points="156.23,143.84 156.23,144.69 162.08,141.31 164.61,145.45 168.42,143.25 168.42,142.39 
							165.06,144.33 162.53,140.19 						"/>
					</g>
				</g>
			</g>
			<g>
				<g class="st599">
					<g>
						<polygon class="st600" points="159.62,137.15 157.14,135.71 153.79,137.65 156.26,139.09 						"/>
					</g>
					<g>
						<polygon class="st601" points="153.28,136.07 150.8,134.63 153.34,138.77 155.81,140.21 						"/>
					</g>
					<g>
						<polygon class="st602" points="147.42,138.59 144.95,137.15 144.95,138.01 147.43,139.45 						"/>
					</g>
					<g>
						<polygon class="st600" points="153.73,134.95 151.26,133.51 144.95,137.15 147.42,138.59 						"/>
					</g>
					<g>
						<polygon class="st602" points="147.42,138.59 147.43,139.45 153.28,136.07 155.81,140.21 159.62,138.01 159.62,137.15 
							156.26,139.09 153.73,134.95 						"/>
					</g>
				</g>
			</g>
			<g>
				<g class="st599">
					<g>
						<polygon class="st600" points="186.7,153.32 184.22,151.88 180.87,153.82 183.34,155.26 						"/>
					</g>
					<g>
						<polygon class="st601" points="180.35,152.24 177.88,150.8 180.41,154.94 182.89,156.38 						"/>
					</g>
					<g>
						<polygon class="st602" points="174.5,154.76 172.03,153.33 172.03,154.18 174.5,155.62 						"/>
					</g>
					<g>
						<polygon class="st600" points="180.81,151.12 178.33,149.68 172.03,153.33 174.5,154.76 						"/>
					</g>
					<g>
						<polygon class="st602" points="174.5,154.76 174.5,155.62 180.35,152.24 182.89,156.38 186.7,154.18 186.7,153.32 
							183.34,155.26 180.81,151.12 						"/>
					</g>
				</g>
			</g>
			<g>
				<g class="st599">
					<g>
						<polygon class="st600" points="149.83,131.62 147.36,130.18 144,132.12 146.48,133.56 						"/>
					</g>
					<g>
						<polygon class="st601" points="143.49,130.54 141.02,129.11 143.55,133.24 146.02,134.68 						"/>
					</g>
					<g>
						<polygon class="st602" points="137.64,133.06 135.17,131.63 135.17,132.48 137.64,133.92 						"/>
					</g>
					<g>
						<polygon class="st600" points="143.95,129.42 141.47,127.98 135.17,131.63 137.64,133.06 						"/>
					</g>
					<g>
						<polygon class="st602" points="137.64,133.06 137.64,133.92 143.49,130.54 146.02,134.68 149.84,132.48 149.83,131.62 
							146.48,133.56 143.95,129.42 						"/>
					</g>
				</g>
			</g>
			<g>
				<g class="st599">
					<g>
						<polygon class="st600" points="140.43,126.28 137.95,124.84 134.6,126.78 137.07,128.22 						"/>
					</g>
					<g>
						<polygon class="st601" points="134.09,125.2 131.62,123.77 134.15,127.9 136.62,129.34 						"/>
					</g>
					<g>
						<polygon class="st602" points="128.24,127.72 125.76,126.29 125.76,127.14 128.24,128.58 						"/>
					</g>
					<g>
						<polygon class="st600" points="134.54,124.08 132.07,122.65 125.76,126.29 128.24,127.72 						"/>
					</g>
					<g>
						<polygon class="st602" points="128.24,127.72 128.24,128.58 134.09,125.2 136.62,129.34 140.43,127.14 140.43,126.28 
							137.07,128.22 134.54,124.08 						"/>
					</g>
				</g>
			</g>
		</g>
		<g>
			<g class="st599">
				<g>
					<polygon class="st603" points="180.68,153.22 180.67,159.14 127.64,189.96 127.66,184.03 					"/>
				</g>
				<g>
					<polygon class="st604" points="127.66,184.03 127.64,189.96 74.26,159.14 74.28,153.22 					"/>
				</g>
				<g>
					<polygon class="st605" points="180.68,153.22 127.66,184.03 74.28,153.22 127.31,122.4 					"/>
				</g>
			</g>
		</g>
		<g>
			<g>
				<polygon class="st606" points="167.97,151.72 167.97,154.68 127.6,178.13 127.61,175.17 				"/>
			</g>
			<g>
				<polygon class="st607" points="127.61,175.17 127.6,178.13 86.97,154.68 86.98,151.72 				"/>
			</g>
			<g>
				<polygon class="st391" points="167.97,151.72 127.61,175.17 86.98,151.72 127.35,128.26 				"/>
			</g>
		</g>
		<g>
			<g>
				<g class="st599">
					<g>
						<polygon class="st607" points="69.93,168.5 67.45,167.06 69.95,160.02 72.43,161.46 						"/>
					</g>
					<g>
						<polygon class="st600" points="72.43,161.46 69.95,160.02 76.26,156.38 78.73,157.82 						"/>
					</g>
					<g>
						<polygon class="st600" points="66.57,170.44 64.1,169 67.45,167.06 69.93,168.5 						"/>
					</g>
					<g>
						<polygon class="st601" points="66.57,171.3 64.1,169.86 64.1,169 66.57,170.44 						"/>
					</g>
					<g>
						<polygon class="st602" points="78.73,157.82 78.74,158.68 72.88,162.06 70.39,169.1 66.57,171.3 66.57,170.44 69.93,168.5 
							72.43,161.46 						"/>
					</g>
				</g>
			</g>
			<g>
				<g class="st599">
					<g>
						<polygon class="st607" points="79.23,173.83 76.76,172.39 79.26,165.35 81.73,166.79 						"/>
					</g>
					<g>
						<polygon class="st600" points="81.73,166.79 79.26,165.35 85.56,161.71 88.04,163.15 						"/>
					</g>
					<g>
						<polygon class="st600" points="75.87,175.76 73.4,174.33 76.76,172.39 79.23,173.83 						"/>
					</g>
					<g>
						<polygon class="st601" points="75.88,176.62 73.4,175.19 73.4,174.33 75.87,175.76 						"/>
					</g>
					<g>
						<polygon class="st602" points="88.04,163.15 88.04,164 82.19,167.38 79.69,174.42 75.88,176.62 75.87,175.76 79.23,173.83 
							81.73,166.79 						"/>
					</g>
				</g>
			</g>
			<g>
				<g class="st599">
					<g>
						<polygon class="st607" points="88.46,179.21 85.99,177.77 88.49,170.73 90.96,172.17 						"/>
					</g>
					<g>
						<polygon class="st600" points="90.96,172.17 88.49,170.73 94.79,167.09 97.27,168.53 						"/>
					</g>
					<g>
						<polygon class="st600" points="85.1,181.14 82.63,179.71 85.99,177.77 88.46,179.21 						"/>
					</g>
					<g>
						<polygon class="st601" points="85.11,182 82.63,180.57 82.63,179.71 85.1,181.14 						"/>
					</g>
					<g>
						<polygon class="st602" points="97.27,168.53 97.27,169.38 91.42,172.76 88.92,179.8 85.11,182 85.1,181.14 88.46,179.21 
							90.96,172.17 						"/>
					</g>
				</g>
			</g>
			<g>
				<g class="st599">
					<g>
						<polygon class="st607" points="97.69,184.55 95.21,183.11 97.71,176.07 100.19,177.51 						"/>
					</g>
					<g>
						<polygon class="st600" points="100.19,177.51 97.71,176.07 104.02,172.43 106.49,173.87 						"/>
					</g>
					<g>
						<polygon class="st600" points="94.33,186.49 91.85,185.05 95.21,183.11 97.69,184.55 						"/>
					</g>
					<g>
						<polygon class="st601" points="94.33,187.34 91.86,185.91 91.85,185.05 94.33,186.49 						"/>
					</g>
					<g>
						<polygon class="st602" points="106.49,173.87 106.5,174.72 100.64,178.1 98.14,185.14 94.33,187.34 94.33,186.49 
							97.69,184.55 100.19,177.51 						"/>
					</g>
				</g>
			</g>
			<g>
				<g class="st599">
					<g>
						<polygon class="st607" points="107.03,189.85 104.55,188.41 107.06,181.37 109.53,182.81 						"/>
					</g>
					<g>
						<polygon class="st600" points="109.53,182.81 107.06,181.37 113.36,177.73 115.84,179.17 						"/>
					</g>
					<g>
						<polygon class="st600" points="103.67,191.79 101.2,190.35 104.55,188.41 107.03,189.85 						"/>
					</g>
					<g>
						<polygon class="st601" points="103.67,192.65 101.2,191.21 101.2,190.35 103.67,191.79 						"/>
					</g>
					<g>
						<polygon class="st602" points="115.84,179.17 115.84,180.03 109.99,183.41 107.49,190.45 103.67,192.65 103.67,191.79 
							107.03,189.85 109.53,182.81 						"/>
					</g>
				</g>
			</g>
			<g>
				<g class="st599">
					<g>
						<polygon class="st607" points="116.19,195.2 113.72,193.76 116.22,186.72 118.69,188.16 						"/>
					</g>
					<g>
						<polygon class="st600" points="118.69,188.16 116.22,186.72 122.52,183.08 125,184.52 						"/>
					</g>
					<g>
						<polygon class="st600" points="112.84,197.14 110.36,195.7 113.72,193.76 116.19,195.2 						"/>
					</g>
					<g>
						<polygon class="st601" points="112.84,198 110.36,196.56 110.36,195.7 112.84,197.14 						"/>
					</g>
					<g>
						<polygon class="st602" points="125,184.52 125,185.38 119.15,188.76 116.65,195.8 112.84,198 112.84,197.14 116.19,195.2 
							118.69,188.16 						"/>
					</g>
				</g>
			</g>
		</g>
		<g>
			<g>
				<g class="st599">
					<g>
						<polygon class="st607" points="185.22,168.6 187.7,167.16 185.2,160.12 182.72,161.56 						"/>
					</g>
					<g>
						<polygon class="st600" points="182.72,161.56 185.2,160.12 178.89,156.48 176.42,157.92 						"/>
					</g>
					<g>
						<polygon class="st600" points="188.58,170.54 191.05,169.1 187.7,167.16 185.22,168.6 						"/>
					</g>
					<g>
						<polygon class="st601" points="188.58,171.4 191.05,169.96 191.05,169.1 188.58,170.54 						"/>
					</g>
					<g>
						<polygon class="st602" points="176.42,157.92 176.41,158.78 182.27,162.15 184.76,169.2 188.58,171.4 188.58,170.54 
							185.22,168.6 182.72,161.56 						"/>
					</g>
				</g>
			</g>
			<g>
				<g class="st599">
					<g>
						<polygon class="st607" points="175.92,173.92 178.39,172.49 175.89,165.45 173.42,166.88 						"/>
					</g>
					<g>
						<polygon class="st600" points="173.42,166.88 175.89,165.45 169.59,161.8 167.11,163.24 						"/>
					</g>
					<g>
						<polygon class="st600" points="179.28,175.86 181.75,174.42 178.39,172.49 175.92,173.92 						"/>
					</g>
					<g>
						<polygon class="st601" points="179.27,176.72 181.75,175.28 181.75,174.42 179.28,175.86 						"/>
					</g>
					<g>
						<polygon class="st602" points="167.11,163.24 167.11,164.1 172.96,167.48 175.46,174.52 179.27,176.72 179.28,175.86 
							175.92,173.92 173.42,166.88 						"/>
					</g>
				</g>
			</g>
			<g>
				<g class="st599">
					<g>
						<polygon class="st607" points="166.69,179.3 169.16,177.87 166.66,170.83 164.19,172.26 						"/>
					</g>
					<g>
						<polygon class="st600" points="164.19,172.26 166.66,170.83 160.36,167.18 157.88,168.62 						"/>
					</g>
					<g>
						<polygon class="st600" points="170.05,181.24 172.52,179.8 169.16,177.87 166.69,179.3 						"/>
					</g>
					<g>
						<polygon class="st601" points="170.04,182.1 172.52,180.66 172.52,179.8 170.05,181.24 						"/>
					</g>
					<g>
						<polygon class="st602" points="157.88,168.62 157.88,169.48 163.73,172.86 166.23,179.9 170.04,182.1 170.05,181.24 
							166.69,179.3 164.19,172.26 						"/>
					</g>
				</g>
			</g>
			<g>
				<g class="st599">
					<g>
						<polygon class="st607" points="157.46,184.64 159.94,183.21 157.44,176.17 154.96,177.6 						"/>
					</g>
					<g>
						<polygon class="st600" points="154.96,177.6 157.44,176.17 151.13,172.53 148.66,173.96 						"/>
					</g>
					<g>
						<polygon class="st600" points="160.82,186.58 163.29,185.14 159.94,183.21 157.46,184.64 						"/>
					</g>
					<g>
						<polygon class="st601" points="160.82,187.44 163.29,186 163.29,185.14 160.82,186.58 						"/>
					</g>
					<g>
						<polygon class="st602" points="148.66,173.96 148.65,174.82 154.51,178.2 157.01,185.24 160.82,187.44 160.82,186.58 
							157.46,184.64 154.96,177.6 						"/>
					</g>
				</g>
			</g>
			<g>
				<g class="st599">
					<g>
						<polygon class="st607" points="148.12,189.95 150.59,188.51 148.09,181.47 145.62,182.91 						"/>
					</g>
					<g>
						<polygon class="st600" points="145.62,182.91 148.09,181.47 141.79,177.83 139.31,179.27 						"/>
					</g>
					<g>
						<polygon class="st600" points="151.48,191.89 153.95,190.45 150.59,188.51 148.12,189.95 						"/>
					</g>
					<g>
						<polygon class="st601" points="151.47,192.75 153.95,191.31 153.95,190.45 151.48,191.89 						"/>
					</g>
					<g>
						<polygon class="st602" points="139.31,179.27 139.31,180.13 145.16,183.5 147.66,190.55 151.47,192.75 151.48,191.89 
							148.12,189.95 145.62,182.91 						"/>
					</g>
				</g>
			</g>
			<g>
				<g class="st599">
					<g>
						<polygon class="st607" points="138.96,195.3 141.43,193.86 138.93,186.82 136.46,188.26 						"/>
					</g>
					<g>
						<polygon class="st600" points="136.46,188.26 138.93,186.82 132.62,183.18 130.15,184.62 						"/>
					</g>
					<g>
						<polygon class="st600" points="142.31,197.24 144.79,195.8 141.43,193.86 138.96,195.3 						"/>
					</g>
					<g>
						<polygon class="st601" points="142.31,198.1 144.79,196.66 144.79,195.8 142.31,197.24 						"/>
					</g>
					<g>
						<polygon class="st602" points="130.15,184.62 130.15,185.48 136,188.85 138.5,195.9 142.31,198.1 142.31,197.24 138.96,195.3 
							136.46,188.26 						"/>
					</g>
				</g>
			</g>
		</g>
		<g>
			<g>
				<polygon class="st606" points="101,151.72 102.98,152.86 127.39,166.96 127.39,136.38 				"/>
				<polygon class="st607" points="127.39,136.38 127.39,166.96 127.56,167.06 151.98,152.87 153.96,151.72 				"/>
			</g>
			<polygon class="st605" points="151.98,152.87 127.56,167.06 102.98,152.86 127.39,138.67 			"/>
		</g>
		<polygon class="st605" points="151.98,152.87 127.56,167.06 102.98,152.86 127.39,138.67 		"/>
		<g>
			<g class="st599">
				<g>
					<polygon class="st606" points="140.68,150.75 140.67,152.23 137.77,153.92 137.78,152.44 					"/>
				</g>
				<g>
					<polygon class="st607" points="137.78,152.44 137.77,153.92 124.82,146.44 124.83,144.96 					"/>
				</g>
				<g>
					<polygon class="st608" points="140.68,150.75 137.78,152.44 124.83,144.96 127.72,143.27 					"/>
				</g>
			</g>
			<g class="st599">
				<g class="st599">
					<defs>
						<path id="SVGID_33_" class="st599" d="M126.26,153.2l0,1.48c-0.76-0.21-1.49-0.41-2.18-0.6c-0.7-0.19-1.34-0.36-1.93-0.51
							c-0.59-0.15-1.11-0.28-1.56-0.39c-0.45-0.11-0.8-0.2-1.07-0.26l0-1.48c0.26,0.06,0.62,0.15,1.07,0.26
							c0.45,0.11,0.97,0.24,1.56,0.39c0.59,0.15,1.23,0.32,1.93,0.5C124.78,152.79,125.5,152.99,126.26,153.2z"/>
					</defs>
					<use xlink:href="#SVGID_33_"  style="overflow:visible;fill:#1393F2;"/>
					<clipPath id="SVGID_6_">
						<use xlink:href="#SVGID_33_"  style="overflow:visible;"/>
					</clipPath>
					<g style="clip-path:url(#SVGID_6_);enable-background:new    ;">
						<path class="st607" d="M126.26,153.2l0,1.48c-0.76-0.21-1.49-0.41-2.18-0.6c-0.7-0.19-1.34-0.36-1.93-0.51
							c-0.59-0.15-1.11-0.28-1.56-0.39c-0.45-0.11-0.8-0.2-1.07-0.26l0-1.48c0.26,0.06,0.62,0.15,1.07,0.26
							c0.45,0.11,0.97,0.24,1.56,0.39c0.59,0.15,1.23,0.32,1.93,0.5C124.78,152.79,125.5,152.99,126.26,153.2z"/>
					</g>
				</g>
				<g class="st599">
					<defs>
						<path id="SVGID_35_" class="st599" d="M131.18,154.67l0,1.48c-0.64-0.18-1.28-0.36-1.91-0.53l0-1.48
							C129.9,154.31,130.54,154.49,131.18,154.67z"/>
					</defs>
					<use xlink:href="#SVGID_35_"  style="overflow:visible;fill:#1393F2;"/>
					<clipPath id="SVGID_8_">
						<use xlink:href="#SVGID_35_"  style="overflow:visible;"/>
					</clipPath>
					<g style="clip-path:url(#SVGID_8_);enable-background:new    ;">
						<path class="st607" d="M131.18,154.67l0,1.48c-0.64-0.18-1.28-0.36-1.91-0.53l0-1.48
							C129.9,154.31,130.54,154.49,131.18,154.67z"/>
					</g>
				</g>
				<g class="st599">
					<defs>
						<path id="SVGID_37_" class="st599" d="M133.02,155.2l0,1.48c-0.59-0.18-1.21-0.35-1.85-0.53l0-1.48
							C131.82,154.84,132.43,155.02,133.02,155.2z"/>
					</defs>
					<use xlink:href="#SVGID_37_"  style="overflow:visible;fill:#1393F2;"/>
					<clipPath id="SVGID_25_">
						<use xlink:href="#SVGID_37_"  style="overflow:visible;"/>
					</clipPath>
					<g style="clip-path:url(#SVGID_25_);enable-background:new    ;">
						<path class="st607" d="M133.02,155.2l0,1.48c-0.59-0.18-1.21-0.35-1.85-0.53l0-1.48C131.82,154.84,132.43,155.02,133.02,155.2
							z"/>
					</g>
				</g>
				<g>
					<polygon class="st606" points="136.13,153.4 136.12,154.88 133.02,156.68 133.02,155.2 					"/>
				</g>
				<g>
					<polygon class="st606" points="129.27,154.13 129.26,155.62 124.24,158.54 124.24,157.06 					"/>
				</g>
				<g class="st599">
					<defs>
						<path id="SVGID_39_" class="st599" d="M123.09,160.97l0,1.48c-0.91-1.09-1.74-2.1-2.49-3.03c-0.75-0.94-1.44-1.83-2.07-2.67
							c-0.63-0.85-1.21-1.66-1.75-2.44c-0.54-0.78-1.04-1.55-1.5-2.32l0-1.48c0.46,0.77,0.96,1.54,1.5,2.32
							c0.54,0.78,1.12,1.59,1.75,2.44c0.63,0.85,1.32,1.74,2.07,2.67C121.35,158.87,122.18,159.88,123.09,160.97z"/>
					</defs>
					<use xlink:href="#SVGID_39_"  style="overflow:visible;fill:#1393F2;"/>
					<clipPath id="SVGID_26_">
						<use xlink:href="#SVGID_39_"  style="overflow:visible;"/>
					</clipPath>
					<g style="clip-path:url(#SVGID_26_);enable-background:new    ;">
						<path class="st607" d="M123.09,160.97l0,1.48c-0.91-1.09-1.74-2.1-2.49-3.03c-0.75-0.94-1.44-1.83-2.07-2.67
							c-0.63-0.85-1.21-1.66-1.75-2.44c-0.54-0.78-1.04-1.55-1.5-2.32l0-1.48c0.46,0.77,0.96,1.54,1.5,2.32
							c0.54,0.78,1.12,1.59,1.75,2.44c0.63,0.85,1.32,1.74,2.07,2.67C121.35,158.87,122.18,159.88,123.09,160.97z"/>
					</g>
				</g>
				<g>
					<polygon class="st606" points="126.1,159.22 126.1,160.7 123.09,162.45 123.09,160.97 					"/>
				</g>
				<g>
					<path class="st608" d="M131.18,154.67c-0.64-0.18-1.28-0.36-1.91-0.53l-5.03,2.92c0.31,0.37,0.62,0.73,0.93,1.1
						c0.31,0.37,0.62,0.72,0.93,1.06l-3.01,1.75c-0.91-1.09-1.74-2.1-2.49-3.03c-0.75-0.94-1.44-1.83-2.07-2.67
						c-0.63-0.85-1.21-1.66-1.75-2.44c-0.54-0.78-1.04-1.55-1.5-2.32l2.75-1.6c1.32,0.27,2.66,0.56,4.01,0.86
						c1.35,0.3,2.76,0.64,4.22,1c1.46,0.36,3,0.76,4.62,1.19c1.62,0.43,3.37,0.91,5.25,1.43l-3.1,1.8
						C132.43,155.02,131.82,154.84,131.18,154.67z M122.58,155.33l3.68-2.14c-0.76-0.21-1.49-0.41-2.18-0.6
						c-0.7-0.19-1.34-0.36-1.93-0.5c-0.59-0.15-1.11-0.28-1.56-0.39c-0.45-0.11-0.8-0.2-1.07-0.26c0.12,0.15,0.29,0.35,0.48,0.61
						c0.2,0.26,0.43,0.56,0.7,0.89c0.27,0.34,0.55,0.71,0.87,1.12C121.89,154.47,122.23,154.89,122.58,155.33z"/>
				</g>
			</g>
		</g>
		<g>
			<g>
				<path class="st605" d="M127.77,213.37l-87.74-50.66l87.17-50.66l87.74,50.66L127.77,213.37z M42.35,162.71l85.41,49.31
					l84.85-49.31L127.2,113.4L42.35,162.71z"/>
			</g>
		</g>
		<g>
			<g>
				<g>
					<path class="st605" d="M53.63,169.89l-6.49,3.74c-0.1,0.06-0.21,0.06-0.31,0l-6.65-3.84l-21.59,12.47l-2.01,1.16
						c-0.05,0.03-0.1,0.04-0.15,0.04c-0.11,0-0.21-0.06-0.27-0.15c-0.08-0.15-0.03-0.33,0.11-0.42l1.7-0.98l22.06-12.74
						c0.09-0.05,0.21-0.05,0.31,0l6.65,3.84l6.03-3.48L53.63,169.89z"/>
				</g>
				<g>
					<path class="st605" d="M105.94,199.5l-1.02,0.59l-5.9,3.41c-0.09,0.06-0.21,0.06-0.31,0l-6.65-3.84l-8.4,4.85l-0.61,0.35
						l-12.76,7.37l-1.84,1.06c-0.05,0.03-0.1,0.04-0.15,0.04c-0.11,0-0.21-0.06-0.27-0.15c-0.08-0.15-0.03-0.33,0.11-0.42l1.64-0.94
						l12.65-7.3l0.61-0.35l8.86-5.11c0.09-0.06,0.21-0.06,0.31,0l6.65,3.84l5.44-3.14l1.02-0.59L105.94,199.5z"/>
				</g>
				<g>
					<path class="st605" d="M85.76,187.85l-1.02,0.59l-5.74,3.31c-0.09,0.05-0.21,0.05-0.31,0l-6.65-3.84l-8.56,4.94l-0.61,0.35
						l-12.26,7.08l-2.17,1.25c-0.05,0.03-0.1,0.04-0.15,0.04c-0.11,0-0.21-0.06-0.27-0.15c-0.08-0.15-0.03-0.34,0.11-0.42l1.98-1.15
						l12.14-7.01l0.61-0.35l9.02-5.21c0.09-0.06,0.21-0.06,0.31,0l6.65,3.84l5.28-3.05l1.02-0.59L85.76,187.85z"/>
				</g>
				<g>
					<path class="st605" d="M69.65,178.55l-1.03,0.59l-21.7,12.53l-1.63,0.94c-0.05,0.03-0.1,0.04-0.15,0.04
						c-0.11,0-0.21-0.06-0.27-0.15c-0.09-0.15-0.03-0.33,0.11-0.42l1.36-0.78l21.67-12.51l1.03-0.59L69.65,178.55z"/>
				</g>
				<g>
					<path class="st605" d="M113.37,203.79l-1.02,0.59l-21.4,12.35l-1.65,0.96c-0.05,0.03-0.1,0.04-0.15,0.04
						c-0.11,0-0.21-0.06-0.27-0.15c-0.09-0.15-0.04-0.34,0.11-0.42l1.34-0.77l21.4-12.36l1.02-0.59L113.37,203.79z"/>
				</g>
				<g>
					<path class="st605" d="M92.66,191.83l-1.02,0.59l-14.45,8.34l-0.61,0.35l-6.55,3.79c0,0,0,0,0,0l-1.72,0.99
						c-0.05,0.03-0.1,0.04-0.15,0.04c-0.11,0-0.21-0.05-0.27-0.15c-0.08-0.15-0.03-0.33,0.11-0.42l1.42-0.82l6.54-3.78l0.61-0.35
						l14.45-8.34l1.02-0.59L92.66,191.83z"/>
				</g>
				<g>
					<polygon class="st605" points="92.35,209.52 84.24,214.2 81.98,215.51 81.67,214.98 83.71,213.8 91.12,209.52 83.05,204.86 
						82.43,204.51 76.57,201.12 75.96,200.77 62.86,193.21 62.25,192.85 56.92,189.78 71.88,181.02 72.9,180.42 73.51,180.77 
						72.49,181.37 58.14,189.77 62.86,192.5 63.48,192.85 76.57,200.42 77.19,200.77 83.05,204.15 83.66,204.51 					"/>
				</g>
				<g>
					<path class="st605" d="M18.33,182.08c0.92,0.53,0.92,1.39,0,1.91c-0.92,0.53-2.4,0.53-3.31,0c-0.91-0.53-0.91-1.39,0-1.91
						C15.93,181.55,17.42,181.55,18.33,182.08z"/>
				</g>
				<g>
					<g>
						<path class="st605" d="M58.6,181.16c0,0.11-0.06,0.21-0.15,0.27l-18.59,10.74l-1.7,0.98c-0.05,0.03-0.1,0.04-0.15,0.04
							c-0.11,0-0.21-0.05-0.27-0.15c-0.08-0.15-0.03-0.33,0.11-0.42l1.41-0.82l18.42-10.64l-6.84-3.95
							c-0.1-0.05-0.15-0.16-0.15-0.26c0-0.11,0.06-0.21,0.15-0.27l6.77-3.91l1.02-0.59l0.62,0.35l-1.03,0.59l-6.61,3.82l6.84,3.95
							C58.54,180.95,58.6,181.05,58.6,181.16z"/>
					</g>
					<g>
						<path class="st605" d="M39.54,191.94c0.92,0.53,0.92,1.39,0,1.91c-0.92,0.53-2.4,0.53-3.31,0c-0.92-0.53-0.92-1.39,0-1.91
							C37.14,191.41,38.62,191.41,39.54,191.94z"/>
					</g>
				</g>
				<g>
					<g>
						<path class="st605" d="M117.38,214.68c0,0.11-0.06,0.21-0.15,0.27L99.11,225.4l-2.19,1.26c-0.05,0.03-0.1,0.04-0.15,0.04
							c-0.1,0-0.21-0.06-0.27-0.15c-0.08-0.15-0.03-0.34,0.11-0.42l1.9-1.1l17.93-10.35l-6.84-3.95c-0.09-0.06-0.15-0.16-0.15-0.27
							c0-0.11,0.06-0.21,0.15-0.27l6.4-3.7l1.02-0.59l0.61,0.35l-1.02,0.59l-6.25,3.61l6.84,3.95
							C117.32,214.47,117.38,214.57,117.38,214.68z"/>
					</g>
					<g>
						<path class="st605" d="M98.78,225.16c0.92,0.53,0.92,1.39,0,1.91c-0.92,0.53-2.4,0.53-3.31,0c-0.92-0.53-0.92-1.39,0-1.91
							C96.38,224.63,97.87,224.63,98.78,225.16z"/>
					</g>
				</g>
				<g>
					<path class="st605" d="M46.58,191.41c0.92,0.53,0.92,1.39,0,1.91c-0.92,0.53-2.4,0.53-3.31,0c-0.92-0.53-0.92-1.39,0-1.91
						C44.18,190.88,45.66,190.88,46.58,191.41z"/>
				</g>
				<g>
					<path class="st605" d="M50.1,199.86c0.92,0.53,0.92,1.39,0,1.91c-0.92,0.53-2.4,0.53-3.31,0c-0.92-0.53-0.92-1.39,0-1.91
						C47.7,199.33,49.18,199.33,50.1,199.86z"/>
				</g>
				<g>
					<path class="st605" d="M69.72,204.7c0.92,0.53,0.92,1.39,0,1.91c-0.92,0.53-2.4,0.53-3.31,0c-0.92-0.53-0.92-1.39,0-1.91
						C67.32,204.17,68.8,204.17,69.72,204.7z"/>
				</g>
				<g>
					<path class="st605" d="M69.81,211.82c0.92,0.53,0.92,1.39,0,1.91c-0.92,0.53-2.4,0.53-3.31,0c-0.92-0.53-0.92-1.39,0-1.91
						C67.41,211.3,68.89,211.3,69.81,211.82z"/>
				</g>
				<g>
					<path class="st605" d="M83.8,213.85c0.92,0.53,0.92,1.39,0,1.91c-0.92,0.53-2.4,0.53-3.31,0c-0.91-0.53-0.91-1.39,0-1.91
						C81.4,213.32,82.88,213.32,83.8,213.85z"/>
				</g>
				<g>
					<path class="st605" d="M90.69,216.56c0.92,0.53,0.92,1.39,0,1.91c-0.92,0.53-2.4,0.53-3.31,0c-0.92-0.53-0.92-1.39,0-1.91
						C88.29,216.03,89.77,216.03,90.69,216.56z"/>
				</g>
			</g>
			<g>
				<g>
					<path class="st605" d="M219.77,191.08c-0.06,0.1-0.16,0.15-0.27,0.15c-0.05,0-0.1-0.01-0.15-0.04l-1.87-1.08l-18.43-10.64
						c-0.1-0.06-0.15-0.16-0.15-0.27c0-0.11,0.06-0.21,0.15-0.27l6.84-3.95l-6.14-3.54l-1.02-0.59l0.61-0.36l1.02,0.59l6.29,3.63
						c0.1,0.06,0.15,0.16,0.15,0.27c0,0.11-0.06,0.21-0.15,0.27l-6.84,3.95l18.35,10.59l1.49,0.86
						C219.81,190.74,219.86,190.93,219.77,191.08z"/>
				</g>
				<g>
					<path class="st605" d="M156.13,227.91c-0.06,0.1-0.16,0.15-0.27,0.15c-0.05,0-0.1-0.01-0.15-0.04l-1.81-1.05l-18.48-10.67
						c-0.09-0.06-0.15-0.16-0.15-0.27c0-0.11,0.06-0.21,0.15-0.27l6.84-3.95l-6.01-3.47l-1.02-0.59l0.61-0.36l1.02,0.59l6.17,3.56
						c0.1,0.06,0.15,0.16,0.15,0.27c0,0.11-0.06,0.21-0.15,0.27l-6.84,3.95l18.43,10.64l1.4,0.81
						C156.16,227.58,156.21,227.77,156.13,227.91z"/>
				</g>
				<g>
					<path class="st605" d="M187.51,208.13c-0.06,0.1-0.16,0.15-0.27,0.15c-0.05,0-0.11-0.01-0.15-0.04l-1.7-0.98l-13.98-8.07
						c-0.1-0.06-0.15-0.16-0.15-0.27c0-0.11,0.06-0.21,0.15-0.27l5.19-2.99l-4.67-2.75l-0.61-0.36l-3.91-2.3l-1.01-0.6l0.61-0.35
						l1.01,0.6l3.92,2.3l0.61,0.36l4.82,2.84c0.09,0.06,0.15,0.16,0.15,0.27c0,0.11-0.06,0.21-0.15,0.27l-5.18,2.99l14.05,8.11
						c0,0,0,0,0,0l1.17,0.68C187.54,207.8,187.59,207.98,187.51,208.13z"/>
				</g>
				<g>
					<path class="st605" d="M212.91,207.32c-0.06,0.1-0.16,0.15-0.27,0.15c-0.05,0-0.1-0.01-0.15-0.04l-1.81-1.05l-25.5-14.72
						c-0.1-0.06-0.15-0.16-0.15-0.27c0-0.11,0.06-0.21,0.15-0.27l9.36-5.4l-9.71-5.61l-1.02-0.59l0.61-0.35l1.02,0.59l9.87,5.7
						c0.09,0.06,0.15,0.16,0.15,0.27c0,0.11-0.06,0.21-0.15,0.27l-9.36,5.4l25.44,14.69l1.41,0.81
						C212.94,206.98,212.99,207.17,212.91,207.32z"/>
				</g>
				<g>
					<path class="st605" d="M185.55,215.01c-0.06,0.1-0.16,0.15-0.27,0.15c-0.05,0-0.1-0.01-0.15-0.04l-1.56-0.9l-18.05-10.42
						l-9.96,5.75c-0.09,0.06-0.21,0.06-0.31,0l-10.57-6.1l-1.02-0.59l0.61-0.35l1.02,0.59l10.11,5.84l9.96-5.75
						c0.1-0.06,0.21-0.06,0.31,0l18.51,10.69l1.25,0.72C185.58,214.67,185.63,214.86,185.55,215.01z"/>
				</g>
				<g>
					<path class="st605" d="M212.63,190.54c-0.06,0.1-0.16,0.15-0.27,0.15c-0.05,0-0.1-0.01-0.15-0.04l-1.75-1.01l-21.07-12.16
						l-1.02-0.59l0.61-0.35l1.02,0.59l21.12,12.19l1.4,0.81C212.66,190.2,212.71,190.39,212.63,190.54z"/>
				</g>
				<g>
					<path class="st605" d="M228.91,181c-0.06,0.1-0.16,0.15-0.27,0.15c-0.05,0-0.1-0.01-0.15-0.04l-1.93-1.11l-20.83-12.02
						l-1.02-0.59l0.61-0.36l1.02,0.59l20.8,12.01l1.65,0.95C228.95,180.66,228.99,180.85,228.91,181z"/>
				</g>
				<g>
					<path class="st605" d="M193.7,201.31c-0.06,0.1-0.16,0.15-0.27,0.15c-0.05,0-0.11-0.01-0.15-0.04l-1.9-1.1L175.23,191
						l-0.62-0.35l-3.96-2.29l-1.02-0.59l0.61-0.35l1.02,0.59l3.96,2.29l0.61,0.36l16.09,9.29l1.65,0.96
						C193.74,200.97,193.79,201.16,193.7,201.31z"/>
				</g>
				<g>
					<path class="st605" d="M163.14,219.12c-0.06,0.1-0.16,0.15-0.27,0.15c-0.05,0-0.1-0.01-0.15-0.04l-1.77-1.02c0,0,0,0,0,0
						l-20.9-12.07l-1.02-0.59l0.61-0.36l1.02,0.59l20.95,12.09l1.42,0.82C163.18,218.79,163.23,218.98,163.14,219.12z"/>
				</g>
				<g>
					<polygon class="st605" points="185.69,184.96 175.85,190.65 175.23,191 172.53,192.56 171.92,192.92 159.58,200.04 
						157.74,201.1 157.43,200.57 159.07,199.62 171.31,192.56 171.92,192.2 174.62,190.65 175.23,190.29 184.46,184.96 
						180.46,182.66 179.44,182.07 180.05,181.71 181.08,182.3 					"/>
				</g>
				<g>
					<path class="st605" d="M157.25,226.95c0.92,0.53,0.92,1.39,0,1.91c-0.92,0.53-2.4,0.53-3.31,0c-0.92-0.53-0.92-1.39,0-1.91
						C154.85,226.42,156.34,226.42,157.25,226.95z"/>
				</g>
				<g>
					<path class="st605" d="M164.45,218.09c0.92,0.53,0.92,1.39,0,1.91c-0.92,0.53-2.4,0.53-3.31,0c-0.92-0.53-0.92-1.39,0-1.91
						C162.05,217.56,163.54,217.56,164.45,218.09z"/>
				</g>
				<g>
					<path class="st605" d="M159.1,199.64c0.92,0.53,0.92,1.39,0,1.91c-0.92,0.53-2.4,0.53-3.31,0c-0.92-0.53-0.92-1.39,0-1.91
						C156.7,199.11,158.18,199.11,159.1,199.64z"/>
				</g>
				<g>
					<path class="st605" d="M187.15,214.03c0.92,0.53,0.92,1.39,0,1.91c-0.92,0.53-2.4,0.53-3.31,0c-0.92-0.53-0.92-1.39,0-1.91
						C184.75,213.5,186.24,213.5,187.15,214.03z"/>
				</g>
				<g>
					<path class="st605" d="M188.44,207.39c0.92,0.53,0.92,1.39,0,1.91c-0.92,0.53-2.4,0.53-3.31,0c-0.91-0.53-0.91-1.39,0-1.91
						C186.05,206.86,187.53,206.86,188.44,207.39z"/>
				</g>
				<g>
					<path class="st605" d="M195.09,200.01c0.92,0.53,0.92,1.39,0,1.91c-0.92,0.53-2.4,0.53-3.31,0c-0.92-0.53-0.92-1.39,0-1.91
						C192.69,199.48,194.18,199.48,195.09,200.01z"/>
				</g>
				<g>
					<path class="st605" d="M214.05,206.35c0.92,0.53,0.92,1.39,0,1.91c-0.92,0.53-2.4,0.53-3.31,0c-0.92-0.53-0.92-1.39,0-1.91
						C211.65,205.82,213.14,205.82,214.05,206.35z"/>
				</g>
				<g>
					<ellipse class="st605" cx="212.29" cy="190.48" rx="2.34" ry="1.35"/>
				</g>
				<g>
					<path class="st605" d="M220.91,190.04c0.92,0.53,0.92,1.39,0,1.91c-0.92,0.53-2.4,0.53-3.31,0c-0.92-0.53-0.92-1.39,0-1.91
						C218.51,189.51,219.99,189.51,220.91,190.04z"/>
				</g>
				<g>
					<path class="st605" d="M230.2,179.76c0.92,0.53,0.92,1.39,0,1.91c-0.91,0.53-2.4,0.53-3.31,0c-0.91-0.53-0.91-1.39,0-1.91
						C227.81,179.23,229.29,179.23,230.2,179.76z"/>
				</g>
			</g>
			<g>
				<g>
					<path class="st605" d="M105.05,105.85c0,0.11-0.06,0.21-0.15,0.27l-4.87,2.92l-0.6,0.36l-6.11,3.66l-0.6,0.36l-5.73,3.43
						l16.1,9.29l1.02,0.59l-0.61,0.36l-1.02-0.59l-16.24-9.38c-0.09-0.06-0.15-0.16-0.15-0.26c0-0.11,0.06-0.21,0.15-0.27l5.88-3.53
						l0.6-0.36l6.11-3.66l0.6-0.36l4.71-2.82l-9.03-5.21l-1.53-0.88c-0.15-0.08-0.2-0.27-0.11-0.42c0.09-0.15,0.27-0.2,0.42-0.11
						l1.81,1.05l9.2,5.31C104.99,105.64,105.05,105.74,105.05,105.85z"/>
				</g>
				<g>
					<path class="st605" d="M50.02,157.58l-15.81-9.13l6.84-3.95c0.09-0.06,0.15-0.16,0.15-0.27c0-0.11-0.06-0.21-0.15-0.27
						l-9.29-5.36l-1.73-1c-0.15-0.09-0.33-0.04-0.42,0.11c-0.08,0.15-0.04,0.33,0.11,0.42l1.32,0.76l9.24,5.33l-6.84,3.95
						c-0.1,0.06-0.15,0.16-0.15,0.27c0,0.11,0.06,0.21,0.15,0.27l15.96,9.22L50.02,157.58z"/>
				</g>
				<g>
					<path class="st605" d="M82.18,139.48l-0.61,0.35l-1.02-0.59l-11-6.35c-0.09-0.05-0.15-0.16-0.15-0.26
						c0-0.11,0.06-0.21,0.15-0.27l5.19-2.99l-12.69-7.47l-1.2-0.71c-0.15-0.09-0.2-0.27-0.11-0.42c0.09-0.15,0.27-0.19,0.42-0.11
						l1.53,0.9l12.81,7.54c0.09,0.06,0.15,0.16,0.15,0.27c0,0.11-0.06,0.21-0.15,0.26l-5.18,2.99l10.84,6.26L82.18,139.48z"/>
				</g>
				<g>
					<path class="st605" d="M95.92,131.49l-0.61,0.35l-1.02-0.59l-17.1-9.87c-0.09-0.06-0.15-0.16-0.15-0.27
						c0-0.11,0.06-0.21,0.15-0.27l7.55-4.36l-9.59-5.54l-2.03-1.17c-0.15-0.08-0.2-0.27-0.11-0.42c0.08-0.15,0.27-0.2,0.42-0.11
						l2.32,1.34l9.77,5.64c0.1,0.06,0.15,0.16,0.15,0.27c0,0.11-0.06,0.21-0.15,0.27l-7.55,4.36l16.95,9.78L95.92,131.49z"/>
				</g>
				<g>
					<path class="st605" d="M74.44,143.97l-0.61,0.36l-1.02-0.59l-11.17-6.45l-7.99,4.61c-0.09,0.06-0.21,0.06-0.31,0l-10.8-6.24
						l-1.33-0.77c-0.15-0.08-0.2-0.27-0.11-0.42c0.09-0.15,0.27-0.2,0.42-0.11l1.59,0.92l10.39,6l7.99-4.61
						c0.1-0.06,0.21-0.06,0.31,0l11.63,6.71L74.44,143.97z"/>
				</g>
				<g>
					<path class="st605" d="M110.54,123l-0.61,0.36l-1.02-0.59l-16.19-9.35l-0.61-0.35l-5.01-2.9c0,0,0,0,0,0l-1.3-0.75
						c-0.15-0.09-0.2-0.27-0.11-0.42c0.08-0.15,0.27-0.2,0.42-0.11l1.68,0.97l4.94,2.85l0.61,0.35l16.2,9.35L110.54,123z"/>
				</g>
				<g>
					<path class="st605" d="M117.37,119.03l-0.61,0.36l-1.02-0.59l-16.3-9.4l-0.61-0.35L79.97,98.17l-0.98-0.56
						c-0.15-0.08-0.2-0.27-0.11-0.42c0.08-0.15,0.27-0.2,0.42-0.11l1.43,0.83l18.69,10.78l0.61,0.35l16.31,9.41L117.37,119.03z"/>
				</g>
				<g>
					<path class="st605" d="M92.6,133.42l-0.61,0.36l-1.02-0.59l-21.61-12.47c0,0,0,0,0,0l-1.44-0.84c-0.15-0.09-0.2-0.27-0.11-0.42
						c0.08-0.15,0.27-0.2,0.42-0.11l1.81,1.05l21.55,12.44L92.6,133.42z"/>
				</g>
				<g>
					<path class="st605" d="M62.23,151.07l-0.61,0.36l-1.02-0.59l-9.65-5.57l-2.31-1.33c-0.15-0.08-0.2-0.27-0.11-0.42
						c0.08-0.15,0.27-0.2,0.42-0.11l2.65,1.53l9.61,5.55L62.23,151.07z"/>
				</g>
				<g>
					<path class="st605" d="M31.72,136.72c0.92,0.53,0.92,1.39,0,1.91c-0.92,0.53-2.4,0.53-3.31,0c-0.92-0.53-0.92-1.39,0-1.91
						C29.32,136.19,30.8,136.19,31.72,136.72z"/>
				</g>
				<g>
					<path class="st605" d="M51.38,143.16c0.92,0.53,0.92,1.39,0,1.91c-0.91,0.53-2.4,0.53-3.31,0c-0.92-0.53-0.92-1.39,0-1.91
						C48.98,142.63,50.46,142.63,51.38,143.16z"/>
				</g>
				<g>
					<path class="st605" d="M42.73,133.66c0.92,0.53,0.92,1.39,0,1.91c-0.92,0.53-2.4,0.53-3.31,0c-0.92-0.53-0.92-1.39,0-1.91
						C40.33,133.13,41.82,133.13,42.73,133.66z"/>
				</g>
				<g>
					<path class="st605" d="M62.48,119.79c0.92,0.53,0.92,1.39,0,1.91c-0.92,0.53-2.4,0.53-3.31,0c-0.92-0.53-0.92-1.39,0-1.91
						C60.08,119.26,61.57,119.26,62.48,119.79z"/>
				</g>
				<g>
					<path class="st605" d="M46.37,129.11c0.91,0.53,0.91,1.39,0,1.91c-0.92,0.53-2.4,0.53-3.31,0c-0.92-0.53-0.92-1.39,0-1.91
						C43.97,128.58,45.45,128.58,46.37,129.11z"/>
				</g>
				<g>
					<path class="st605" d="M78.49,141.62l-0.61,0.36l-1.02-0.59l-25.58-14.77l-4.64,2.68l-1.75,1.01
						c-0.15,0.09-0.33,0.03-0.42-0.11c-0.08-0.15-0.03-0.33,0.11-0.42l1.44-0.83l5.1-2.95c0.09-0.05,0.21-0.05,0.31,0l26.04,15.04
						L78.49,141.62z"/>
				</g>
				<g>
					<path class="st605" d="M121.23,116.78l-0.61,0.36l-1.02-0.59l-11.12-6.42c-0.1-0.06-0.15-0.16-0.15-0.27
						c0-0.11,0.06-0.21,0.15-0.27l5.19-2.99l-12.69-7.47l-1.21-0.71c-0.15-0.09-0.19-0.27-0.11-0.42c0.09-0.15,0.27-0.2,0.42-0.11
						l1.53,0.9l12.81,7.54c0.09,0.06,0.15,0.16,0.15,0.27c0,0.11-0.06,0.21-0.15,0.27l-5.18,2.99l10.96,6.33L121.23,116.78z"/>
				</g>
				<g>
					<path class="st605" d="M101.41,97.03c0.92,0.53,0.92,1.39,0,1.91c-0.92,0.53-2.4,0.53-3.31,0c-0.92-0.53-0.92-1.39,0-1.91
						C99.01,96.5,100.49,96.5,101.41,97.03z"/>
				</g>
				<g>
					<path class="st605" d="M69.88,118.58c0.92,0.53,0.92,1.39,0,1.91c-0.92,0.53-2.4,0.53-3.31,0c-0.92-0.53-0.92-1.39,0-1.91
						C67.48,118.05,68.96,118.05,69.88,118.58z"/>
				</g>
				<g>
					<path class="st605" d="M75.41,108.9c0.92,0.53,0.92,1.39,0,1.91c-0.92,0.53-2.4,0.53-3.31,0c-0.92-0.53-0.92-1.39,0-1.91
						C73.01,108.38,74.5,108.38,75.41,108.9z"/>
				</g>
				<g>
					<path class="st605" d="M80.8,95.95c0.92,0.53,0.92,1.39,0,1.91c-0.92,0.53-2.4,0.53-3.31,0c-0.92-0.53-0.92-1.39,0-1.91
						C78.4,95.42,79.89,95.42,80.8,95.95z"/>
				</g>
				<g>
					<path class="st605" d="M95.36,98.6c0.92,0.53,0.92,1.39,0,1.91c-0.92,0.53-2.4,0.53-3.31,0c-0.92-0.53-0.92-1.39,0-1.91
						C92.96,98.07,94.44,98.07,95.36,98.6z"/>
				</g>
				<g>
					<path class="st605" d="M87.66,108.01c0.92,0.53,0.92,1.39,0,1.91c-0.91,0.53-2.4,0.53-3.31,0c-0.92-0.53-0.92-1.39,0-1.91
						C85.26,107.49,86.74,107.49,87.66,108.01z"/>
				</g>
			</g>
			<g>
				<g>
					<path class="st605" d="M208.54,141.1c0,0.11-0.06,0.21-0.15,0.26l-15.28,8.82l-1.02,0.59l-0.62-0.35l1.02-0.59l15.13-8.74
						l-13.89-8.32l-0.6-0.36l-3.42-2.05c-0.09-0.06-0.15-0.16-0.15-0.27c0-0.11,0.06-0.21,0.15-0.26l9.2-5.31l1.81-1.05
						c0.15-0.09,0.33-0.03,0.42,0.11c0.09,0.15,0.03,0.33-0.11,0.42l-1.53,0.88l-9.03,5.22l3.27,1.96l0.6,0.36l14.04,8.41
						C208.48,140.89,208.54,140.99,208.54,141.1z"/>
				</g>
				<g>
					<path class="st605" d="M193.91,121.73l-1.2,0.71l-12.69,7.47l5.19,2.99c0.09,0.06,0.15,0.16,0.15,0.27
						c0,0.11-0.06,0.21-0.15,0.27l-10.56,6.1l-1.02,0.59l-0.61-0.35l1.02-0.59l10.4-6.01l-5.18-2.99c-0.09-0.06-0.15-0.16-0.15-0.27
						c0-0.11,0.06-0.21,0.15-0.27l12.81-7.54l1.53-0.9c0.15-0.09,0.34-0.04,0.42,0.11C194.1,121.45,194.05,121.64,193.91,121.73z"/>
				</g>
				<g>
					<path class="st605" d="M180.8,108.4l-1.97,1.14l-9.91,5.72l7.72,4.46c0.1,0.06,0.15,0.16,0.15,0.27c0,0.11-0.06,0.21-0.15,0.27
						l-17.69,10.21l-1.02,0.59l-0.61-0.35l1.02-0.59l17.53-10.13l-7.72-4.46c-0.09-0.06-0.15-0.16-0.15-0.27
						c0-0.11,0.06-0.21,0.15-0.27l10.14-5.85l2.2-1.27c0.15-0.08,0.34-0.04,0.42,0.11C181,108.13,180.94,108.32,180.8,108.4z"/>
				</g>
				<g>
					<path class="st605" d="M225.05,147.17l-1.32,0.76l-8.92,5.15c-0.09,0.06-0.21,0.06-0.31,0l-6.71-3.87l-8.19,4.73l-1.02,0.59
						l-0.61-0.36l1.02-0.59l8.66-5c0.09-0.06,0.21-0.06,0.31,0l6.71,3.87l8.39-4.85l1.68-0.97c0.15-0.08,0.33-0.03,0.42,0.11
						C225.25,146.9,225.2,147.09,225.05,147.17z"/>
				</g>
				<g>
					<path class="st605" d="M168.34,110.06l-1.3,0.75c0,0,0,0,0,0l-21.06,12.16l-1.02,0.59l-0.61-0.35l1.02-0.59l21-12.12l1.68-0.97
						c0.15-0.09,0.34-0.03,0.42,0.11C168.54,109.78,168.49,109.97,168.34,110.06z"/>
				</g>
				<g>
					<path class="st605" d="M175.76,98.14l-0.98,0.56l-35.44,20.44l-1.02,0.59l-0.61-0.35l1.02-0.59l35.29-20.36l1.43-0.83
						c0.15-0.08,0.34-0.03,0.42,0.11C175.96,97.87,175.91,98.06,175.76,98.14z"/>
				</g>
				<g>
					<path class="st605" d="M186.84,120.41l-1.45,0.84l-21.2,12.24l-1.02,0.59l-0.61-0.35l1.02-0.59l21.14-12.21l1.81-1.05
						c0.15-0.08,0.34-0.03,0.42,0.11C187.04,120.14,186.99,120.33,186.84,120.41z"/>
				</g>
				<g>
					<path class="st605" d="M163.87,120.14l-2.31,1.33l-9.09,5.25l-1.02,0.59l-0.61-0.35l1.02-0.59l9.06-5.23l2.65-1.53
						c0.15-0.08,0.34-0.03,0.42,0.11C164.07,119.86,164.02,120.05,163.87,120.14z"/>
				</g>
				<g>
					<ellipse class="st605" cx="162.79" cy="120.32" rx="2.34" ry="1.35"/>
				</g>
				<g>
					<path class="st605" d="M223.2,145.79c-0.92,0.53-0.92,1.39,0,1.91c0.92,0.53,2.4,0.53,3.31,0c0.91-0.53,0.91-1.39,0-1.91
						C225.6,145.26,224.12,145.26,223.2,145.79z"/>
				</g>
				<g>
					<path class="st605" d="M192.27,120.33c-0.92,0.53-0.92,1.39,0,1.91c0.92,0.53,2.4,0.53,3.31,0c0.92-0.53,0.92-1.39,0-1.91
						C194.67,119.8,193.19,119.8,192.27,120.33z"/>
				</g>
				<g>
					<path class="st605" d="M208.39,129.65c-0.92,0.53-0.92,1.39,0,1.91c0.92,0.53,2.4,0.53,3.31,0c0.92-0.53,0.92-1.39,0-1.91
						C210.79,129.12,209.3,129.12,208.39,129.65z"/>
				</g>
				<g>
					<path class="st605" d="M210.29,130.73c-0.09,0.15-0.27,0.2-0.42,0.11l-1.75-1.01l-4.64-2.68l-9.13,5.27l-0.61,0.35l-15.39,8.89
						l-1.02,0.59l-0.61-0.35l1.02-0.59l15.4-8.9l0.61-0.35l9.58-5.53c0.1-0.06,0.21-0.06,0.31,0l5.1,2.95l1.44,0.83
						C210.32,130.39,210.37,130.58,210.29,130.73z"/>
				</g>
				<g>
					<path class="st605" d="M154.98,98.96l-1.2,0.71l-12.69,7.47l5.19,2.99c0.1,0.06,0.15,0.16,0.15,0.27
						c0,0.11-0.06,0.21-0.15,0.27l-10.81,6.24l-1.02,0.59l-3.85,2.22c-0.05,0.03-0.1,0.04-0.15,0.04c-0.11,0-0.21-0.06-0.27-0.15
						c-0.09-0.15-0.03-0.34,0.11-0.42l3.55-2.05l1.02-0.59l10.65-6.15l-5.18-2.99c-0.09-0.06-0.15-0.16-0.15-0.26
						c0-0.11,0.06-0.21,0.15-0.27l12.81-7.54l1.54-0.9c0.15-0.09,0.33-0.04,0.42,0.11C155.18,98.69,155.13,98.88,154.98,98.96z"/>
				</g>
				<g>
					<path class="st605" d="M153.35,97.56c-0.92,0.53-0.92,1.39,0,1.91c0.92,0.53,2.4,0.53,3.31,0c0.92-0.53,0.92-1.39,0-1.91
						C155.74,97.03,154.26,97.03,153.35,97.56z"/>
				</g>
				<g>
					<path class="st605" d="M184.87,119.11c-0.92,0.53-0.92,1.39,0,1.91c0.92,0.53,2.4,0.53,3.31,0c0.91-0.53,0.91-1.39,0-1.91
						C187.27,118.58,185.79,118.58,184.87,119.11z"/>
				</g>
				<g>
					<ellipse class="st605" cx="180.38" cy="108.53" rx="2.34" ry="1.35"/>
				</g>
				<g>
					<path class="st605" d="M173.95,96.48c-0.92,0.53-0.92,1.39,0,1.91c0.92,0.53,2.4,0.53,3.31,0c0.92-0.53,0.92-1.39,0-1.91
						C176.35,95.95,174.86,95.95,173.95,96.48z"/>
				</g>
				<g>
					<path class="st605" d="M199.26,122.85c-0.92,0.53-0.92,1.39,0,1.91c0.92,0.53,2.4,0.53,3.31,0c0.92-0.53,0.92-1.39,0-1.91
						C201.66,122.32,200.17,122.32,199.26,122.85z"/>
				</g>
				<g>
					<path class="st605" d="M166.47,108.65c-0.92,0.53-0.92,1.39,0,1.91c0.92,0.53,2.4,0.53,3.31,0c0.92-0.53,0.92-1.39,0-1.91
						C168.87,108.12,167.39,108.12,166.47,108.65z"/>
				</g>
			</g>
		</g>
	</g>
	<g>
		<g>
			<g class="st599">
				<g class="st599">
					<defs>
						<path id="SVGID_41_" class="st599" d="M96.03,119.05l-5.09-2.96c-0.56-0.33-0.97-0.96-1.13-1.98l5.09,2.96
							C95.06,118.09,95.47,118.73,96.03,119.05z"/>
					</defs>
					<use xlink:href="#SVGID_41_"  style="overflow:visible;fill:#DAD9E8;"/>
					<clipPath id="SVGID_27_">
						<use xlink:href="#SVGID_41_"  style="overflow:visible;"/>
					</clipPath>
					<g style="clip-path:url(#SVGID_27_);enable-background:new    ;">
						<path class="st614" d="M96.03,119.05l-5.09-2.96c-0.56-0.32-0.97-0.96-1.13-1.96l5.09,2.96
							C95.06,118.09,95.47,118.73,96.03,119.05z"/>
						<path class="st614" d="M94.9,117.09l-5.09-2.96c0-0.01,0-0.01,0-0.02l5.09,2.96C94.9,117.08,94.9,117.09,94.9,117.09z"/>
					</g>
				</g>
				<g>
					<defs>
						<path id="SVGID_43_" d="M100.41,65.95l5.09,2.96c-1.49-0.86-3.54-0.76-5.85,0.58l-5.09-2.96
							C96.86,65.19,98.92,65.09,100.41,65.95z"/>
					</defs>
					<use xlink:href="#SVGID_43_"  style="overflow:visible;fill:#DAD9E8;"/>
					<clipPath id="SVGID_28_">
						<use xlink:href="#SVGID_43_"  style="overflow:visible;"/>
					</clipPath>
					<g style="clip-path:url(#SVGID_28_);enable-background:new    ;">
						<path class="st614" d="M99.65,69.48l-5.09-2.96c2.31-1.33,4.36-1.44,5.85-0.58l5.09,2.96
							C104.01,68.04,101.96,68.15,99.65,69.48z"/>
					</g>
				</g>
				<g>
					<polygon class="st614" points="94.9,117.07 89.81,114.12 84.92,83.08 90.01,86.04 					"/>
				</g>
				<g>
					<polygon class="st616" points="98.1,70.38 93.01,67.42 94.56,66.52 99.65,69.48 					"/>
				</g>
				<g class="st599">
					<defs>
						<path id="SVGID_45_" class="st599" d="M90.01,86.04l-5.09-2.96c-0.83-5.28,3.02-12.74,8.09-15.67l5.09,2.96
							C93.03,73.31,89.17,80.76,90.01,86.04z"/>
					</defs>
					<use xlink:href="#SVGID_45_"  style="overflow:visible;fill:#EBEBF1;"/>
					<clipPath id="SVGID_29_">
						<use xlink:href="#SVGID_45_"  style="overflow:visible;"/>
					</clipPath>
					<g style="clip-path:url(#SVGID_29_);enable-background:new    ;">
						<path class="st616" d="M90.01,86.04l-5.09-2.96c-0.25-1.61-0.07-3.41,0.44-5.23l5.09,2.96
							C89.93,82.63,89.75,84.44,90.01,86.04z"/>
						<path class="st616" d="M90.45,80.81l-5.09-2.96c0.58-2.05,1.59-4.11,2.88-5.92l5.09,2.96C92.03,76.7,91.03,78.76,90.45,80.81z
							"/>
						<path class="st616" d="M93.33,74.89l-5.09-2.96c0.99-1.38,2.14-2.62,3.4-3.59l5.09,2.96C95.47,72.27,94.31,73.51,93.33,74.89z
							"/>
						<path class="st616" d="M96.73,71.3l-5.09-2.96c0.44-0.34,0.9-0.65,1.37-0.92l5.09,2.96C97.63,70.65,97.17,70.96,96.73,71.3z"
							/>
					</g>
				</g>
				<g>
					<path class="st607" d="M99.65,69.48c5.07-2.93,8.95,0.06,8.15,6.29l-4.7,36.57c-0.37,2.89-2.23,5.3-4.09,6.38
						c-1.86,1.07-3.73,0.81-4.11-1.64l-4.89-31.03c-0.83-5.28,3.02-12.74,8.09-15.67L99.65,69.48z"/>
				</g>
			</g>
		</g>
		<g>
			<g class="st599">
				<g class="st599">
					<defs>
						<path id="SVGID_47_" class="st599" d="M105.28,69.75l3.55,2.06c-1.5-0.87-3.59-0.75-5.89,0.58l-3.55-2.06
							C101.69,68.99,103.78,68.87,105.28,69.75z"/>
					</defs>
					<use xlink:href="#SVGID_47_"  style="overflow:visible;fill:#05D4F5;"/>
					<clipPath id="SVGID_30_">
						<use xlink:href="#SVGID_47_"  style="overflow:visible;"/>
					</clipPath>
					<g style="clip-path:url(#SVGID_30_);enable-background:new    ;">
						<path class="st605" d="M102.94,72.38l-3.55-2.06c2.3-1.33,4.38-1.45,5.89-0.58l3.55,2.06
							C107.32,70.93,105.24,71.05,102.94,72.38z"/>
					</g>
				</g>
				<g>
					<path class="st605" d="M103.76,75.85c3.13-1.81,5.69-0.35,5.69,3.25c0.01,3.6-2.52,7.99-5.66,9.8
						c-3.13,1.81-5.69,0.36-5.7-3.24C98.09,82.05,100.63,77.65,103.76,75.85z"/>
				</g>
				<g class="st599">
					<defs>
						<path id="SVGID_49_" class="st599" d="M97.1,91.99l-3.55-2.06c-1.49-0.86-2.41-2.7-2.41-5.31c-0.01-5.25,3.68-11.66,8.25-14.3
							l3.55,2.06c-4.57,2.64-8.27,9.04-8.25,14.3C94.69,89.29,95.61,91.12,97.1,91.99z"/>
					</defs>
					<use xlink:href="#SVGID_49_"  style="overflow:visible;fill:#05D4F5;"/>
					<clipPath id="SVGID_31_">
						<use xlink:href="#SVGID_49_"  style="overflow:visible;"/>
					</clipPath>
					<g style="clip-path:url(#SVGID_31_);enable-background:new    ;">
						<path class="st605" d="M97.1,91.99l-3.55-2.06c-1.32-0.77-2.19-2.3-2.38-4.46l3.55,2.06C94.9,89.69,95.78,91.22,97.1,91.99z"
							/>
						<path class="st605" d="M94.72,87.52l-3.55-2.06c-0.02-0.27-0.04-0.55-0.04-0.85c-0.01-4.53,2.73-9.91,6.42-13l3.55,2.06
							c-3.69,3.09-6.43,8.47-6.42,13C94.68,86.97,94.7,87.25,94.72,87.52z"/>
						<path class="st605" d="M101.1,73.67l-3.55-2.06c0.59-0.49,1.2-0.93,1.83-1.29l3.55,2.06
							C102.31,72.75,101.69,73.18,101.1,73.67z"/>
					</g>
				</g>
				<g class="st599">
					<defs>
						<path id="SVGID_51_" class="st599" d="M103.76,75.85l-0.82-3.46c4.57-2.64,8.29-0.52,8.31,4.74
							c0.01,5.25-3.68,11.65-8.25,14.29c-4.57,2.64-8.29,0.52-8.31-4.73c-0.01-5.25,3.68-11.66,8.25-14.3L103.76,75.85
							c-3.13,1.81-5.67,6.2-5.66,9.8c0.01,3.6,2.56,5.05,5.7,3.24c3.13-1.81,5.67-6.2,5.66-9.8
							C109.44,75.49,106.89,74.04,103.76,75.85z"/>
					</defs>
					<use xlink:href="#SVGID_51_"  style="overflow:visible;fill:#05D4F5;"/>
					<clipPath id="SVGID_32_">
						<use xlink:href="#SVGID_51_"  style="overflow:visible;"/>
					</clipPath>
					<g style="clip-path:url(#SVGID_32_);enable-background:new    ;">
						<path class="st603" d="M103.76,75.85l-0.82-3.46c4.57-2.64,8.29-0.52,8.31,4.74c0.01,5.25-3.68,11.65-8.25,14.29
							c-4.57,2.64-8.29,0.52-8.31-4.73c-0.01-5.25,3.68-11.66,8.25-14.3L103.76,75.85c-3.13,1.81-5.67,6.2-5.66,9.8
							c0.01,3.6,2.56,5.05,5.7,3.24c3.13-1.81,5.67-6.2,5.66-9.8C109.44,75.49,106.89,74.04,103.76,75.85z"/>
					</g>
				</g>
			</g>
		</g>
		<g>
			<path class="st604" d="M102.42,42.87l-9.19-30L102.42,42.87z"/>
			
				<rect x="96.92" y="12.18" transform="matrix(0.9562 -0.2928 0.2928 0.9562 -3.8728 29.8683)" class="st621" width="1.81" height="31.38"/>
		</g>
		<g>
			<g>
				<path class="st602" d="M113.36,137.07c-8.43-5.21-10.33-12.2-11.14-15.19c0.66,2.86,2.9,5.71,6.72,8.02
					c9.56,5.75,25.38,5.91,35.34,0.36c4.28-2.39,6.78-5.44,7.48-8.6c-0.65,2.48-1.63,6.22-5.36,10.55
					c-1.41,1.64-4.53,4.69-9.51,6.69C129.32,141.94,120.08,141.22,113.36,137.07z"/>
			</g>
			<g>
				<path class="st600" d="M144.45,68.76c9.32,5.61,9,14.54-0.71,19.96c-9.71,5.41-25.13,5.26-34.45-0.35
					c-9.32-5.61-9-14.54,0.71-19.96C119.71,63,135.13,63.16,144.45,68.76z"/>
			</g>
			<g class="st599">
				<path class="st601" d="M102.21,121.81l-7.51-32.83c0.88,3.83,3.79,7.53,8.76,10.52c12.42,7.47,32.98,7.68,45.92,0.46
					c5.56-3.1,8.81-7.06,9.72-11.17l-7.33,32.87c-0.7,3.16-3.21,6.21-7.48,8.6c-9.96,5.55-25.78,5.39-35.34-0.36
					C105.12,127.6,102.88,124.75,102.21,121.81z"/>
			</g>
			<path class="st614" d="M106,67.89c12.69-6.89,30.65-6.68,42.71,0.49c-1.08-0.65-2.58-0.6-4.27,0.34
				c-9.32-5.61-24.74-5.76-34.45-0.35c-9.71,5.41-10.03,14.35-0.71,19.96c9.32,5.61,24.74,5.76,34.45,0.35
				c9.71-5.41,10.03-14.35,0.71-19.96c1.69-0.94,3.19-0.99,4.27-0.34c2.53,1.63,6.34,4.1,9,9.29c2.48,4.85,1.72,9.19,1.4,11.05
				c-0.94,4.22-4.19,8.18-9.75,11.27c-12.94,7.22-33.5,7.01-45.92-0.46c-4.97-2.99-7.88-6.69-8.76-10.51
				c-0.31-1.67-0.6-3.25-0.31-5.71c0.37-3.1,1.61-5.43,1.66-5.53C96.97,76.05,99.43,71.46,106,67.89z"/>
		</g>
		<g>
			<g>
				<path class="st616" d="M140.39,28.25c7.15,4.3,6.9,11.15-0.55,15.31c-7.45,4.15-19.28,4.03-26.42-0.27
					c-7.15-4.3-6.9-11.15,0.55-15.31C121.41,23.83,133.24,23.95,140.39,28.25z"/>
			</g>
			<g class="st599">
				<path class="st601" d="M103.98,79.52c-11.5-7.12-14.03-16.54-14.12-23.19c0.02,5.34,3.44,10.68,10.33,14.82
					c14.19,8.54,37.67,8.78,52.46,0.53c7.61-4.24,11.43-9.91,11.42-15.57c-0.13,3.48-0.32,5.28-1.72,9.17
					c-1.1,3.05-3.05,5.65-4.1,7.04c-0.49,0.65-5.05,6.46-13.86,9.9C129.1,88.18,113.08,85.16,103.98,79.52z"/>
			</g>
			<path class="st600" d="M105.04,26.91c6.74-3.67,14.3-5.47,22.48-5.37c8.4,0.11,15.94,2.11,22.41,5.94
				c-2.42-1.46-5.8-1.32-9.54,0.77c-7.15-4.3-18.98-4.42-26.42-0.27c-7.45,4.15-7.69,11.01-0.55,15.31
				c7.15,4.3,18.98,4.42,26.42,0.27c7.45-4.15,7.69-11.01,0.55-15.31c3.74-2.08,7.12-2.22,9.54-0.77c3.41,2.2,13.79,8.9,14.12,23.19
				c0.02,5.66-3.81,11.32-11.42,15.57c-14.79,8.24-38.27,8.01-52.46-0.53c-6.89-4.14-10.31-9.48-10.33-14.82
				c0.08-2.08,0.16-4.43,1.07-7.3c1.08-3.41,2-4.87,3.54-7.29C95.66,34.38,99.43,29.96,105.04,26.91z"/>
			<g>
				<path class="st622" d="M134.24,71.83c-12.01,1.41-24.96-0.65-34.07-6.13c-6.85-4.12-10.28-9.42-10.33-14.73
					c-0.01-3.45,1.41-6.63,3.8-9.18c0.05,4.76,3.12,9.52,9.26,13.21c8.17,4.92,19.78,6.77,30.56,5.5
					C133.94,64.4,134.23,68.38,134.24,71.83z"/>
			</g>
			<g class="st599">
				<path class="st614" d="M89.86,56.34l-0.02-5.46c0.02,5.34,3.44,10.68,10.33,14.82c14.19,8.54,37.67,8.78,52.46,0.53
					c7.61-4.24,11.43-9.91,11.42-15.57l0.02,5.46c0.02,5.66-3.81,11.32-11.42,15.57c-14.79,8.24-38.27,8.01-52.46-0.53
					C93.3,67.02,89.87,61.68,89.86,56.34z"/>
			</g>
			<g>
				<path class="st605" d="M95.87,56.5c-0.73,2.06-1.98,2.2-2.84,0.31c-1.45-3.15,0.03-6.95,1.9-6.41c0.34,0.1,0.52,0.29,0.71,0.5
					C96.84,52.61,96.19,55.59,95.87,56.5z"/>
				<path class="st605" d="M116.9,65.83c-0.55,3.09-4.44,3.62-6.4,0.86c-2.05-2.88,0.2-6.2,3.07-5.84c0.11,0.01,0.24,0.04,0.35,0.06
					C116.45,61.64,117.18,64.23,116.9,65.83z"/>
			</g>
		</g>
		<path class="st604" d="M151.55,52.52c0-1.83-1.29-2.57-2.87-1.66c-1.59,0.92-2.87,3.14-2.87,4.98c0,1.83,1.29,2.57,2.87,1.66
			C150.27,56.58,151.55,54.35,151.55,52.52z"/>
		<g>
			<path class="st604" d="M149.05,54.22L170,38.5L149.05,54.22z"/>
			<path class="st621" d="M149.05,55.12c-0.27,0-0.55-0.12-0.72-0.36c-0.3-0.4-0.22-0.96,0.18-1.26l20.94-15.72
				c0.4-0.3,0.96-0.22,1.26,0.18c0.3,0.4,0.22,0.96-0.18,1.26l-20.94,15.72C149.43,55.06,149.24,55.12,149.05,55.12z"/>
		</g>
		<path class="st604" d="M175.31,37.37c0-2.69-2.18-4.87-4.87-4.87s-4.87,2.18-4.87,4.87c0,2.69,2.18,4.87,4.87,4.87
			S175.31,40.06,175.31,37.37z"/>
		<path class="st604" d="M97.66,12.87c0-2.69-2.18-4.87-4.87-4.87c-2.69,0-4.87,2.18-4.87,4.87s2.18,4.87,4.87,4.87
			C95.48,17.74,97.66,15.56,97.66,12.87z"/>
		<g>
			<g class="st599">
				<g class="st599">
					<defs>
						<path id="SVGID_53_" class="st599" d="M155.86,87.23l3.55,2.06c-1.5-0.87-3.59-0.75-5.89,0.58l-3.55-2.06
							C152.27,86.47,154.36,86.35,155.86,87.23z"/>
					</defs>
					<use xlink:href="#SVGID_53_"  style="overflow:visible;fill:#05D4F5;"/>
					<clipPath id="SVGID_40_">
						<use xlink:href="#SVGID_53_"  style="overflow:visible;"/>
					</clipPath>
					<g style="clip-path:url(#SVGID_40_);enable-background:new    ;">
						<path class="st605" d="M153.52,89.86l-3.55-2.06c2.3-1.33,4.38-1.45,5.89-0.58l3.55,2.06
							C157.9,88.41,155.82,88.53,153.52,89.86z"/>
					</g>
				</g>
				<g>
					<path class="st605" d="M154.34,93.33c3.13-1.81,5.69-0.35,5.69,3.25c0.01,3.6-2.52,7.99-5.66,9.8
						c-3.13,1.81-5.69,0.36-5.7-3.24C148.67,99.53,151.21,95.13,154.34,93.33z"/>
				</g>
				<g class="st599">
					<defs>
						<path id="SVGID_55_" class="st599" d="M147.68,109.47l-3.55-2.06c-1.49-0.86-2.41-2.7-2.41-5.31
							c-0.01-5.25,3.68-11.66,8.25-14.3l3.55,2.06c-4.57,2.64-8.27,9.04-8.25,14.3C145.27,106.77,146.19,108.6,147.68,109.47z"/>
					</defs>
					<use xlink:href="#SVGID_55_"  style="overflow:visible;fill:#05D4F5;"/>
					<clipPath id="SVGID_42_">
						<use xlink:href="#SVGID_55_"  style="overflow:visible;"/>
					</clipPath>
					<g style="clip-path:url(#SVGID_42_);enable-background:new    ;">
						<path class="st605" d="M147.68,109.47l-3.55-2.06c-1.32-0.77-2.19-2.3-2.38-4.46l3.55,2.06
							C145.48,107.17,146.36,108.7,147.68,109.47z"/>
						<path class="st605" d="M145.3,105l-3.55-2.06c-0.02-0.27-0.04-0.55-0.04-0.85c-0.01-4.53,2.73-9.91,6.42-13l3.55,2.06
							c-3.69,3.09-6.43,8.47-6.42,13C145.26,104.45,145.28,104.73,145.3,105z"/>
						<path class="st605" d="M151.68,91.15l-3.55-2.06c0.59-0.49,1.2-0.93,1.83-1.29l3.55,2.06
							C152.89,90.23,152.27,90.66,151.68,91.15z"/>
					</g>
				</g>
				<g class="st599">
					<defs>
						<path id="SVGID_57_" class="st599" d="M154.34,93.33l-0.82-3.46c4.57-2.64,8.29-0.52,8.31,4.74
							c0.01,5.25-3.68,11.65-8.25,14.29c-4.57,2.64-8.29,0.52-8.31-4.73c-0.01-5.25,3.68-11.66,8.25-14.3L154.34,93.33
							c-3.13,1.81-5.67,6.2-5.66,9.8c0.01,3.6,2.56,5.05,5.7,3.24c3.13-1.81,5.67-6.2,5.66-9.8
							C160.02,92.97,157.47,91.52,154.34,93.33z"/>
					</defs>
					<use xlink:href="#SVGID_57_"  style="overflow:visible;fill:#05D4F5;"/>
					<clipPath id="SVGID_44_">
						<use xlink:href="#SVGID_57_"  style="overflow:visible;"/>
					</clipPath>
					<g style="clip-path:url(#SVGID_44_);enable-background:new    ;">
						<path class="st603" d="M154.34,93.33l-0.82-3.46c4.57-2.64,8.29-0.52,8.31,4.74c0.01,5.25-3.68,11.65-8.25,14.29
							c-4.57,2.64-8.29,0.52-8.31-4.73c-0.01-5.25,3.68-11.66,8.25-14.3L154.34,93.33c-3.13,1.81-5.67,6.2-5.66,9.8
							c0.01,3.6,2.56,5.05,5.7,3.24c3.13-1.81,5.67-6.2,5.66-9.8C160.02,92.97,157.47,91.52,154.34,93.33z"/>
					</g>
				</g>
			</g>
		</g>
		<g>
			<g class="st599">
				<g class="st599">
					<defs>
						<path id="SVGID_59_" class="st599" d="M155.9,141.92l-5.09-2.96c-0.56-0.33-0.97-0.96-1.13-1.98l5.09,2.96
							C154.93,140.96,155.34,141.6,155.9,141.92z"/>
					</defs>
					<use xlink:href="#SVGID_59_"  style="overflow:visible;fill:#DAD9E8;"/>
					<clipPath id="SVGID_46_">
						<use xlink:href="#SVGID_59_"  style="overflow:visible;"/>
					</clipPath>
					<g style="clip-path:url(#SVGID_46_);enable-background:new    ;">
						<path class="st614" d="M155.9,141.92l-5.09-2.96c-0.56-0.32-0.97-0.96-1.13-1.96l5.09,2.96
							C154.93,140.97,155.34,141.6,155.9,141.92z"/>
						<path class="st614" d="M154.77,139.96l-5.09-2.96c0-0.01,0-0.01,0-0.02l5.09,2.96C154.77,139.95,154.77,139.96,154.77,139.96z
							"/>
					</g>
				</g>
				<g>
					<defs>
						<path id="SVGID_61_" d="M160.28,88.82l5.09,2.96c-1.49-0.86-3.54-0.76-5.85,0.58l-5.09-2.96
							C156.74,88.06,158.8,87.96,160.28,88.82z"/>
					</defs>
					<use xlink:href="#SVGID_61_"  style="overflow:visible;fill:#DAD9E8;"/>
					<clipPath id="SVGID_48_">
						<use xlink:href="#SVGID_61_"  style="overflow:visible;"/>
					</clipPath>
					<g style="clip-path:url(#SVGID_48_);enable-background:new    ;">
						<path class="st614" d="M159.52,92.35l-5.09-2.96c2.31-1.33,4.36-1.44,5.85-0.58l5.09,2.96
							C163.89,90.91,161.83,91.02,159.52,92.35z"/>
					</g>
				</g>
				<g>
					<polygon class="st614" points="154.77,139.94 149.68,136.99 144.79,105.96 149.88,108.91 					"/>
				</g>
				<g>
					<polygon class="st616" points="157.97,93.25 152.88,90.29 154.43,89.4 159.52,92.35 					"/>
				</g>
				<g class="st599">
					<defs>
						<path id="SVGID_63_" class="st599" d="M149.88,108.91l-5.09-2.96c-0.83-5.28,3.02-12.74,8.09-15.67l5.09,2.96
							C152.9,96.18,149.05,103.63,149.88,108.91z"/>
					</defs>
					<use xlink:href="#SVGID_63_"  style="overflow:visible;fill:#EBEBF1;"/>
					<clipPath id="SVGID_50_">
						<use xlink:href="#SVGID_63_"  style="overflow:visible;"/>
					</clipPath>
					<g style="clip-path:url(#SVGID_50_);enable-background:new    ;">
						<path class="st616" d="M149.88,108.91l-5.09-2.96c-0.25-1.61-0.07-3.41,0.44-5.23l5.09,2.96
							C149.8,105.5,149.62,107.31,149.88,108.91z"/>
						<path class="st616" d="M150.32,103.68l-5.09-2.96c0.58-2.05,1.59-4.11,2.88-5.92l5.09,2.96
							C151.91,99.57,150.9,101.64,150.32,103.68z"/>
						<path class="st616" d="M153.2,97.76l-5.09-2.96c0.99-1.38,2.14-2.62,3.4-3.59l5.09,2.96
							C155.34,95.14,154.18,96.38,153.2,97.76z"/>
						<path class="st616" d="M156.6,94.17l-5.09-2.96c0.44-0.34,0.9-0.65,1.37-0.92l5.09,2.96C157.5,93.52,157.04,93.83,156.6,94.17
							z"/>
					</g>
				</g>
				<g>
					<path class="st607" d="M159.52,92.35c5.07-2.93,8.95,0.06,8.15,6.29l-4.7,36.57c-0.37,2.89-2.23,5.3-4.09,6.38
						c-1.86,1.07-3.73,0.81-4.11-1.64l-4.89-31.03c-0.83-5.28,3.02-12.74,8.09-15.67L159.52,92.35z"/>
				</g>
			</g>
		</g>
	</g>
</g>
</svg>
