<?xml version="1.0" encoding="utf-8"?>
<!-- Generator: Adobe Illustrator 25.0.0, SVG Export Plug-In . SVG Version: 6.00 Build 0)  -->
<svg version="1.1" id="Layer_1" xmlns="http://www.w3.org/2000/svg" xmlns:xlink="http://www.w3.org/1999/xlink" x="0px" y="0px"
	 viewBox="0 0 384 260" style="enable-background:new 0 0 384 260;" xml:space="preserve">
<style type="text/css">
	.st0{clip-path:url(#SVGID_6_);fill:url(#SVGID_8_);}
	.st1{opacity:0.06;clip-path:url(#SVGID_6_);}
	.st2{opacity:0.06;}
	.st3{clip-path:url(#SVGID_25_);}
	.st4{fill:#90C8E2;}
	.st5{fill:#8AC5DF;}
	.st6{fill:#EAEEF0;}
	.st7{fill:#EBEFF0;}
	.st8{fill:#97C9DD;}
	.st9{fill:#E6EEEF;}
	.st10{fill:#B9DCF0;}
	.st11{fill:#B8DAF0;}
	.st12{fill:#56ACCF;}
	.st13{fill:#B8DCF0;}
	.st14{fill:#C7E0EE;}
	.st15{fill:#E8F0F0;}
	.st16{fill:#9CD1EA;}
	.st17{fill:#B8DBF0;}
	.st18{fill:#A1CFFF;}
	.st19{fill:#E8ECED;}
	.st20{fill:#BFDDE8;}
	.st21{fill:#55ACCE;}
	.st22{fill:#55AACB;}
	.st23{fill:#78BAD6;}
	.st24{fill:#74B9D4;}
	.st25{fill:#B8DBEF;}
	.st26{fill:#56ABCE;}
	.st27{fill:#7BB9D4;}
	.st28{fill:#58AACD;}
	.st29{fill:#55ACCF;}
	.st30{fill:#9CD1EB;}
	.st31{fill:#99CFE8;}
	.st32{fill:#A7D4EC;}
	.st33{fill:#E6EAEB;}
	.st34{fill:#EAEFF0;}
	.st35{fill:#BEDFED;}
	.st36{fill:#DEEAF1;}
	.st37{fill:#E9EEF1;}
	.st38{fill:#E8EFED;}
	.st39{fill:#54ABCC;}
	.st40{fill:#CAE4F3;}
	.st41{fill:#C7E3F3;}
	.st42{fill:#F4F4F3;}
	.st43{fill:#F4F4F4;}
	.st44{fill:#BADCF0;}
	.st45{fill:#55AACE;}
	.st46{fill:#56ABCF;}
	.st47{fill:#53ABCF;}
	.st48{fill:#9BD2EB;}
	.st49{fill:#B3DCF0;}
	.st50{fill:#B2D9EF;}
	.st51{fill:#E9EDEE;}
	.st52{fill:#81C0D8;}
	.st53{fill:#EBEEF0;}
	.st54{fill:#54AAD0;}
	.st55{fill:#82BDD6;}
	.st56{fill:#EBEFEF;}
	.st57{fill:#F3F5F2;}
	.st58{fill:#F5F5F4;}
	.st59{fill:#CBE3EF;}
	.st60{fill:#55ABCC;}
	.st61{fill:#B4D8E4;}
	.st62{fill:#54ABCD;}
	.st63{fill:#7EBBD5;}
	.st64{fill:#BEDFEC;}
	.st65{fill:#9BD2EC;}
	.st66{fill:#57A9CE;}
	.st67{fill:#85C2D7;}
	.st68{fill:#BBDAE6;}
	.st69{fill:#F1F2F4;}
	.st70{fill:#E1EDF2;}
	.st71{fill:#E1EBF1;}
	.st72{fill:#9BD1EB;}
	.st73{fill:#8CC6DB;}
	.st74{fill:#A6CFDF;}
	.st75{fill:#E7EEF2;}
	.st76{fill:#9CD2EC;}
	.st77{fill:#95C9DC;}
	.st78{fill:#5AACCC;}
	.st79{fill:#EAEEEF;}
	.st80{fill:#9AD2EC;}
	.st81{fill:#F4F5F5;}
	.st82{fill:#EBEEEF;}
	.st83{fill:#95CADB;}
	.st84{fill:#93C8DC;}
	.st85{fill:#55ABCD;}
	.st86{fill:#D6EAEE;}
	.st87{fill:#54AACE;}
	.st88{fill:#B9DBF0;}
	.st89{fill:#BEDDE8;}
	.st90{fill:#A9D5E8;}
	.st91{fill:#A5CFDF;}
	.st92{fill:#ECF0F1;}
	.st93{fill:#A8D1E2;}
	.st94{fill:#A2D3E9;}
	.st95{fill:#E5EDEE;}
	.st96{fill:#E9EFF1;}
	.st97{fill:#9BD1ED;}
	.st98{fill:#BFDEEC;}
	.st99{fill:#8AC3D7;}
	.st100{fill:#FFFEFE;}
	.st101{fill:#BADBF0;}
	.st102{fill:#53ACCE;}
	.st103{fill:#B8DCEC;}
	.st104{fill:#E2ECF0;}
	.st105{fill:#E9EEEF;}
	.st106{fill:#82BDD4;}
	.st107{fill:#A4D4EB;}
	.st108{fill:#E2EEF3;}
	.st109{fill:#CCE4EF;}
	.st110{fill:#7EC2DD;}
	.st111{fill:#A1E8FF;}
	.st112{fill:#AED8EA;}
	.st113{fill:#E3F0F4;}
	.st114{fill:#58ACCE;}
	.st115{fill:#A9D6EC;}
	.st116{fill:#C2E0EE;}
	.st117{fill:#D7E7EF;}
	.st118{fill:#9BD1EC;}
	.st119{fill:#49C7D0;}
	.st120{fill:#F4F4F2;}
	.st121{fill:#DFEDF3;}
	.st122{fill:#9FD4EA;}
	.st123{fill:#9CD1EC;}
	.st124{fill:#9ED4EE;}
	.st125{fill:#E8F3F7;}
	.st126{fill:#E5F1F4;}
	.st127{fill:#7BBFDC;}
	.st128{fill:#54ABCF;}
	.st129{fill:#F1F7FA;}
	.st130{fill:#B9DBEF;}
	.st131{fill:#EAEEEE;}
	.st132{fill:#A9D5ED;}
	.st133{fill:#94CBE3;}
	.st134{fill:#B8D8EB;}
	.st135{fill:#84C2D7;}
	.st136{fill:#F1F3F3;}
	.st137{fill:#B8D7E8;}
	.st138{fill:#A3D3EC;}
	.st139{fill:#F3F4F4;}
	.st140{fill:#F0F7F9;}
	.st141{fill:#C5E0F0;}
	.st142{fill:#55A9CC;}
	.st143{fill:#B2D9E5;}
	.st144{fill:#56ABCD;}
	.st145{fill:#B7DCEF;}
	.st146{fill:#99C0E5;}
	.st147{fill:#A7D3E9;}
	.st148{fill:#B5D9F1;}
	.st149{fill:#84C1DC;}
	.st150{fill:#80C0DB;}
	.st151{fill:#F0F0F0;}
	.st152{fill:#AED4E6;}
	.st153{fill:#B7DCF0;}
	.st154{fill:#A5D3E7;}
	.st155{fill:#F5F4F5;}
	.st156{fill:#EBEFED;}
	.st157{fill:#BADBEE;}
	.st158{fill:#89C5DD;}
	.st159{fill:#55ABCF;}
	.st160{fill:#53ABCE;}
	.st161{fill:#73BCD9;}
	.st162{fill:#ACD5EC;}
	.st163{fill:#A5D4EA;}
	.st164{fill:#8FC8DF;}
	.st165{fill:#B1D9F2;}
	.st166{fill:#BAD8EB;}
	.st167{fill:#9AD0EB;}
	.st168{fill:#D9EAF1;}
	.st169{fill:#F5F4F2;}
	.st170{fill:#D4E6F1;}
	.st171{fill:#CCE2EF;}
	.st172{fill:#56AACD;}
	.st173{fill:#55ABCE;}
	.st174{fill:#BADAF0;}
	.st175{fill:#B9DAF2;}
	.st176{fill:#C9E2F1;}
	.st177{fill:#DBE9F0;}
	.st178{fill:#C6E1EB;}
	.st179{fill:#B1D9EC;}
	.st180{fill:#A3D2EB;}
	.st181{fill:#9ED2EA;}
	.st182{fill:#9FD3ED;}
	.st183{fill:#E0EAEF;}
	.st184{fill:#BDDCEF;}
	.st185{fill:#E7EDF1;}
	.st186{fill:#57ABCD;}
	.st187{fill:#B8DBF1;}
	.st188{fill:#ACD6EB;}
	.st189{fill:#B7DBEE;}
	.st190{fill:#F3F5F3;}
	.st191{fill:#F5F4F4;}
	.st192{fill:#C4DFEF;}
	.st193{fill:#E9EFEF;}
	.st194{fill:#7BBFD6;}
	.st195{fill:#B9DDED;}
	.st196{fill:#9FD1E9;}
	.st197{fill:#F4F5F4;}
	.st198{fill:#A5D3EA;}
	.st199{fill:#E4EDED;}
	.st200{fill:#E8EFEE;}
	.st201{fill:#EAF0F0;}
	.st202{fill:#ECEEF0;}
	.st203{fill:#85C0D5;}
	.st204{fill:#55ABCB;}
	.st205{fill:#B9DBF1;}
	.st206{fill:#A8D4E8;}
	.st207{fill:#B3DAEF;}
	.st208{fill:#B9DAF1;}
	.st209{fill:#F2F2F3;}
	.st210{fill:#F5F5F5;}
	.st211{fill:#F5F3F7;}
	.st212{fill:#9BCDDB;}
	.st213{fill:#DCEAF1;}
	.st214{fill:#A2D3EB;}
	.st215{fill:#DAEAF0;}
	.st216{fill:#E9EEF0;}
	.st217{fill:#D6E7F1;}
	.st218{fill:#DEE9F0;}
	.st219{fill:#F9F9FA;}
	.st220{fill:#CCE1E9;}
	.st221{fill:#B8DAEF;}
	.st222{fill:#A0D1EB;}
	.st223{fill:#B9DBEE;}
	.st224{fill:#C2E0EF;}
	.st225{fill:#E7EFF1;}
	.st226{fill:#D1E6EF;}
	.st227{fill:#E7EDEF;}
	.st228{fill:#D5E7EE;}
	.st229{fill:#92C7DA;}
	.st230{fill:#EAEEED;}
	.st231{fill:#E3EAF0;}
	.st232{fill:#B4DAEF;}
	.st233{fill:#ECF1F3;}
	.st234{fill:#E8EFF0;}
	.st235{fill:#9ED0E8;}
	.st236{fill:#B8DEEE;}
	.st237{fill:#B8DBEC;}
	.st238{fill:#9FD2EA;}
	.st239{fill:#F2F4F3;}
	.st240{fill:#E0EBF3;}
	.st241{fill:#BCDCF1;}
	.st242{fill:#BDDDEE;}
	.st243{fill:#C6E1EE;}
	.st244{fill:#97CBE3;}
	.st245{fill:#B1D9F0;}
	.st246{fill:#E7EBED;}
	.st247{fill:#F3F4F5;}
	.st248{fill:#99D2ED;}
	.st249{fill:#F1F4F6;}
	.st250{fill:#54ABCE;}
	.st251{fill:#E7EEF1;}
	.st252{fill:#DFECF3;}
	.st253{fill:#ACD9EB;}
	.st254{fill:#9ED1E9;}
	.st255{fill:#E3EBEF;}
	.st256{fill:#86C2D8;}
	.st257{fill:#B8DCEB;}
	.st258{fill:#7EBED8;}
	.st259{fill:#55AACC;}
	.st260{fill:#EAEFEF;}
	.st261{fill:#D5E9F3;}
	.st262{fill:#C8E1EF;}
	.st263{fill:#A0D4EB;}
	.st264{fill:#ABD7EB;}
	.st265{fill:#ECF4F5;}
	.st266{fill:#EEF1F5;}
	.st267{fill:#7CC1DE;}
	.st268{fill:#E3EAEA;}
	.st269{fill:#DDE7EA;}
	.st270{fill:#9AD0EA;}
	.st271{fill:#C9E3EF;}
	.st272{fill:#EBEDEF;}
	.st273{fill:#B7DCF1;}
	.st274{fill:#E5EEF5;}
	.st275{fill:#B7DBEF;}
	.st276{fill:#70BAD5;}
	.st277{fill:#9AD3EC;}
	.st278{fill:#79BFDB;}
	.st279{fill:#E7EBEC;}
	.st280{fill:#8ECAE5;}
	.st281{fill:#AED6ED;}
	.st282{fill:#76BEDA;}
	.st283{fill:#58ACCD;}
	.st284{fill:#CFE4EC;}
	.st285{fill:#E6F1F3;}
	.st286{fill:#A2D2EE;}
	.st287{fill:#91CBE7;}
	.st288{fill:#E1EAEE;}
	.st289{fill:#B6DAED;}
	.st290{fill:#C0DFEE;}
	.st291{fill:#B9DAEE;}
	.st292{fill:#55ABD0;}
	.st293{fill:#7CBFDA;}
	.st294{fill:#87C5E0;}
	.st295{fill:#E9EFEC;}
	.st296{fill:#BBDBF0;}
	.st297{fill:#BADBEF;}
	.st298{fill:#A7D5EE;}
	.st299{fill:#7DC1DF;}
	.st300{fill:#E1ECF2;}
	.st301{fill:#88C6E1;}
	.st302{fill:#DEEFF3;}
	.st303{fill:#86C6E2;}
	.st304{fill:#A6D4EE;}
	.st305{fill:#CDE4EF;}
	.st306{fill:#CEE3F0;}
	.st307{fill:#9BD2EA;}
	.st308{fill:#A2D0E0;}
	.st309{fill:#FDFEFC;}
	.st310{fill:#FEFDFD;}
	.st311{fill:#ABD7EE;}
	.st312{fill:#90CCE9;}
	.st313{fill:#C9E2EF;}
	.st314{fill:#E7EFF2;}
	.st315{fill:#ABD4E4;}
	.st316{fill:#89C2DA;}
	.st317{fill:#71BCD7;}
	.st318{fill:#AFD7ED;}
	.st319{fill:#A5D4E2;}
	.st320{fill:#81C3DC;}
	.st321{fill:#A9D6ED;}
	.st322{fill:#C4DDE7;}
	.st323{fill:#BADBE4;}
	.st324{fill:#D5E5EB;}
	.st325{fill:#85C3DE;}
	.st326{fill:#57AACE;}
	.st327{fill:#BCDDF0;}
	.st328{fill:#C5E1EA;}
	.st329{fill:#9DD0E9;}
	.st330{fill:#AFD9EF;}
	.st331{fill:#B7DBF0;}
	.st332{fill:#C9DFE5;}
	.st333{fill:#BDDDEC;}
	.st334{fill:#A1CDE2;}
	.st335{fill:#57AACD;}
	.st336{fill:#D8E8EE;}
	.st337{fill:#9CD2EB;}
	.st338{fill:#9DCCDF;}
	.st339{fill:#57ABCF;}
	.st340{fill:#8FC9DF;}
	.st341{fill:#B7DAEE;}
	.st342{fill:#FBFDFC;}
	.st343{fill:#BFDCE6;}
	.st344{fill:#A8D5E9;}
	.st345{fill:#E6EDF0;}
	.st346{fill:#D5E6ED;}
	.st347{fill:#BFDDEE;}
	.st348{fill:#B8DCEF;}
	.st349{fill:#9FCEE4;}
	.st350{fill:#AAD6EC;}
	.st351{fill:#8AC6DB;}
	.st352{fill:#89C7E1;}
	.st353{fill:#9BCFE7;}
	.st354{fill:#EBEDF0;}
	.st355{fill:#85C2DE;}
	.st356{fill:#B8D9EC;}
	.st357{fill:#BCDCEC;}
	.st358{fill:#C6E0EE;}
	.st359{fill:#9BD0EE;}
	.st360{fill:#C8DFE6;}
	.st361{clip-path:url(#SVGID_6_);}
	.st362{fill:#D7CCC8;}
	.st363{fill:#BCAAA4;}
	.st364{fill:#A1887F;}
	.st365{clip-path:url(#SVGID_26_);fill:#F2EEED;}
	.st366{fill:#FEFEFE;}
	.st367{fill:#F9F8F7;}
	.st368{fill:#EFEBE9;}
	.st369{fill:#F2EFED;}
	.st370{clip-path:url(#SVGID_27_);fill:#F2EEED;}
	.st371{clip-path:url(#SVGID_28_);fill:#F2EEED;}
	.st372{clip-path:url(#SVGID_29_);fill:#F2EEED;}
	.st373{opacity:0.35;fill:url(#SVGID_30_);}
	.st374{fill:url(#SVGID_31_);}
	.st375{fill:url(#SVGID_32_);}
	.st376{fill:url(#SVGID_40_);}
	.st377{fill:url(#SVGID_42_);}
	.st378{opacity:0.35;fill:url(#SVGID_44_);}
	.st379{fill:url(#SVGID_46_);}
	.st380{opacity:0.35;}
	.st381{filter:url(#Adobe_OpacityMaskFilter);}
	.st382{mask:url(#SVGID_48_);}
	.st383{fill:#231F20;}
	.st384{fill:url(#SVGID_50_);}
	.st385{fill:url(#SVGID_65_);}
	.st386{opacity:0.28;fill:url(#SVGID_66_);}
	.st387{fill:url(#SVGID_67_);}
	.st388{clip-path:url(#SVGID_6_);fill:#E8E8E8;}
	.st389{fill:#E8E8E8;}
	.st390{opacity:0.3;}
	.st391{fill:#FFFFFF;}
	.st392{fill:#FFCC9A;}
	.st393{fill:#FFB100;}
	.st394{fill:#DEDEDE;}
	.st395{fill:#FFE7C8;}
	.st396{fill:#EF4418;}
	.st397{fill:#9DAE5E;}
	.st398{fill:#FFFFFD;}
	.st399{fill:#FFB701;}
	.st400{clip-path:url(#SVGID_68_);}
	.st401{fill:#FABA8C;}
	.st402{fill:#F59687;}
	.st403{fill:#FDD8B8;}
	.st404{fill:#E75025;}
	.st405{fill:#F37B6F;}
	.st406{fill:#161818;}
	.st407{fill:#FFEFE6;}
	.st408{fill:#F47F38;}
	.st409{fill:#F89D4C;}
	.st410{fill:#2C2C2C;}
	.st411{fill:#AB1F27;}
	.st412{fill:#133358;}
	.st413{fill:#26527A;}
	.st414{fill:#052743;}
	.st415{fill:#EBB635;}
	.st416{fill:#FFD354;}
	.st417{fill:#CB922B;}
	.st418{fill:#FF4B00;}
	.st419{fill:#FEFFFF;}
	.st420{fill:#593219;}
	.st421{clip-path:url(#SVGID_74_);}
	.st422{fill:#F6901E;}
	.st423{fill:#414156;}
	.st424{fill:#312F44;}
	.st425{fill:#5F5F74;}
	.st426{fill:#BC202E;}
	.st427{fill:#EA1F27;}
	.st428{fill:#530D2D;}
	.st429{fill:#3C0F27;}
	.st430{fill:#6F0E32;}
	.st431{clip-path:url(#SVGID_76_);}
	.st432{clip-path:url(#SVGID_76_);fill:none;}
	.st433{clip-path:url(#SVGID_77_);}
	.st434{fill:#1E4258;stroke:#1E4258;stroke-width:10;stroke-miterlimit:10;}
	.st435{fill:#FFD13E;}
	.st436{fill:#9A9A87;}
	.st437{fill:#F7F7EE;}
	.st438{fill:#F2B241;}
	.st439{fill:#ADE4EA;}
	.st440{fill:#1E4258;}
	.st441{fill:#A4B3BE;}
	.st442{fill:#E2E2E2;}
	.st443{fill:#FFB352;}
	.st444{fill:url(#SVGID_78_);}
	.st445{fill:url(#SVGID_79_);}
	.st446{fill:url(#SVGID_80_);}
	.st447{fill:url(#SVGID_81_);}
	.st448{fill:url(#SVGID_82_);}
	.st449{fill:url(#SVGID_83_);}
	.st450{fill:url(#SVGID_84_);}
	.st451{fill:url(#SVGID_85_);}
	.st452{fill:#1E4258;stroke:#1E4258;stroke-width:6;stroke-miterlimit:10;}
	.st453{fill:#E6E6E6;}
	.st454{fill:#CB7256;}
	.st455{fill:#B15A47;}
	.st456{fill:#E0826C;}
	.st457{fill:#9F4F39;}
	.st458{fill:#582121;}
	.st459{fill:#F9E8CA;}
	.st460{fill:#E8CCAC;}
	.st461{fill:#F16531;}
	.st462{fill:#007D7F;}
	.st463{fill:#016868;}
	.st464{fill:#181329;}
	.st465{fill:#445D78;}
	.st466{fill:#313233;}
	.st467{fill:#FC636B;}
	.st468{fill:#004D40;}
	.st469{fill:#26C6DA;}
	.st470{fill:#FFA726;}
	.st471{fill:url(#SVGID_86_);}
	.st472{clip-path:url(#SVGID_6_);fill:#FAFAFA;}
	.st473{opacity:0.35;fill:url(#SVGID_87_);}
	.st474{fill:url(#SVGID_88_);}
	.st475{opacity:0.4;fill:url(#SVGID_89_);}
	.st476{fill:url(#SVGID_90_);}
	.st477{opacity:0.35;fill:url(#SVGID_91_);}
	.st478{fill:url(#SVGID_92_);}
	.st479{opacity:0.2;fill:url(#SVGID_93_);}
	.st480{fill:url(#SVGID_94_);}
	.st481{opacity:0.2;fill:url(#SVGID_95_);}
	.st482{fill:url(#SVGID_96_);}
	.st483{opacity:0.35;fill:url(#SVGID_97_);}
	.st484{fill:url(#SVGID_99_);}
	.st485{fill:url(#SVGID_101_);}
	.st486{fill:url(#SVGID_102_);}
	.st487{opacity:0.35;fill:url(#SVGID_103_);}
	.st488{fill:url(#SVGID_104_);}
	.st489{opacity:0.27;}
	.st490{fill:url(#SVGID_105_);}
	.st491{fill:url(#SVGID_106_);}
	.st492{fill:url(#SVGID_107_);}
	.st493{fill:url(#SVGID_108_);}
	.st494{fill:url(#SVGID_109_);}
	.st495{fill:url(#SVGID_110_);}
	.st496{opacity:0.35;fill:url(#SVGID_111_);}
	.st497{opacity:0.25;}
	.st498{fill:url(#SVGID_112_);}
	.st499{fill:url(#SVGID_113_);}
	.st500{fill:url(#SVGID_114_);}
	.st501{fill:url(#SVGID_115_);}
	.st502{fill:url(#SVGID_116_);}
	.st503{fill:#B25A47;}
	.st504{fill:#E1836C;}
	.st505{fill:#A04F39;}
	.st506{fill:#FFEFE7;}
	.st507{fill:#FAE9CB;}
	.st508{fill:#E9CDAD;}
	.st509{fill:#F7B454;}
	.st510{fill:#2B454E;}
	.st511{fill:#1A2E35;}
	.st512{fill:#375A64;}
	.st513{fill:#D268CC;}
	.st514{fill:#DDF9BB;}
	.st515{fill:#99C8E9;}
	.st516{fill:#071B2C;}
	.st517{fill:#575E70;}
	.st518{fill:#4DB596;}
	.st519{fill:#454B55;}
	.st520{fill:#63A945;}
	.st521{fill:#293033;}
	.st522{fill:#F1F1F2;}
	.st523{fill:#192953;}
	.st524{clip-path:url(#SVGID_117_);fill:#071B2C;}
	.st525{fill:#5E5BA8;}
	.st526{fill:#F79678;}
	.st527{opacity:0.2;fill:#293033;}
	.st528{fill:#1A2229;}
	.st529{fill:#4C803B;}
	.st530{fill:#32353D;}
	.st531{fill:#444A56;}
	.st532{fill:#3E8E75;}
	.st533{opacity:0.2;clip-path:url(#SVGID_118_);fill:#293033;}
	.st534{fill:#F05250;}
	.st535{opacity:0.2;clip-path:url(#SVGID_119_);fill:#293033;}
	.st536{fill:#424278;}
	.st537{opacity:0.5;clip-path:url(#SVGID_120_);fill:#071B2C;}
	.st538{fill:#035B87;}
	.st539{opacity:0.2;clip-path:url(#SVGID_121_);fill:#293033;}
	.st540{opacity:0.2;clip-path:url(#SVGID_122_);fill:#293033;}
	.st541{fill:#034761;}
	.st542{fill:#F5BD18;}
	.st543{fill:#010101;}
	.st544{fill:#FB73AA;}
	.st545{fill:#01030A;}
	.st546{fill:#040102;}
	.st547{fill:#030102;}
	.st548{fill:#050203;}
	.st549{fill:#FAE803;}
	.st550{fill:#F8B937;}
	.st551{fill:#2950B8;}
	.st552{fill:#FDFDFD;}
	.st553{fill:#294FB6;}
	.st554{fill:#F89F29;}
	.st555{fill:#FFF9E7;}
	.st556{fill:#99D1D7;}
	.st557{fill:#C1E0DA;}
	.st558{fill:#134F78;}
	.st559{fill:#D94D2E;}
	.st560{fill:#12B6A7;}
	.st561{fill:#313D4D;}
	.st562{fill:#EAB02A;}
	.st563{fill:#FDD5B6;}
	.st564{fill:#B21F2D;}
	.st565{fill:#DB212C;}
	.st566{fill:#85B6BA;}
	.st567{fill:#E4E5E5;}
	.st568{fill:#029C8B;}
	.st569{fill:#B2B1B1;}
	.st570{fill:#0DB2A4;}
	.st571{fill:#DFB559;}
	.st572{fill:#FBD145;}
	.st573{fill:#F2C9A9;}
	.st574{fill:#7B6C53;}
	.st575{fill:#007CFF;}
	.st576{opacity:0.5;fill:#FFFFFF;}
	.st577{fill:#D7656A;}
	.st578{fill:#F0877C;}
	.st579{opacity:0.7;fill:#FFFFFF;}
	.st580{opacity:0.6;fill:#FFFFFF;}
	.st581{opacity:0.1;}
	.st582{opacity:0.2;}
	.st583{fill:#FD5652;}
	.st584{opacity:0.4;}
	.st585{opacity:0.8;}
	.st586{fill:#F8B275;}
	.st587{fill:#FCB373;}
	.st588{opacity:0.7;}
	.st589{opacity:0.5;}
	.st590{fill:#EC873E;}
	.st591{fill:#B84D3C;}
	.st592{opacity:0.4;fill:#FFFFFF;}
	.st593{fill:#FFC19D;}
	.st594{fill:#E1E1E1;}
	.st595{fill:#FF735D;}
	.st596{fill:#ECECEC;}
	.st597{fill:#FF9C6A;}
	.st598{opacity:0.3;fill:#CFC4B8;}
	.st599{enable-background:new    ;}
	.st600{fill:#E4E3EE;}
	.st601{fill:#B7B6E3;}
	.st602{fill:#919DD6;}
	.st603{fill:#12B0F3;}
	.st604{fill:#1393F2;}
	.st605{fill:#05D4F5;}
	.st606{fill:#D4D5F0;}
	.st607{fill:#C4C3EC;}
	.st608{fill:#EEEFF2;}
	.st609{clip-path:url(#SVGID_123_);enable-background:new    ;}
	.st610{clip-path:url(#SVGID_124_);enable-background:new    ;}
	.st611{clip-path:url(#SVGID_125_);enable-background:new    ;}
	.st612{clip-path:url(#SVGID_126_);enable-background:new    ;}
	.st613{clip-path:url(#SVGID_127_);enable-background:new    ;}
	.st614{fill:#DAD9E8;}
	.st615{clip-path:url(#SVGID_128_);enable-background:new    ;}
	.st616{fill:#EBEBF1;}
	.st617{clip-path:url(#SVGID_129_);enable-background:new    ;}
	.st618{clip-path:url(#SVGID_130_);enable-background:new    ;}
	.st619{clip-path:url(#SVGID_131_);enable-background:new    ;}
	.st620{clip-path:url(#SVGID_132_);enable-background:new    ;}
	.st621{fill:#171C29;}
	.st622{fill:#042F8F;}
	.st623{clip-path:url(#SVGID_133_);enable-background:new    ;}
	.st624{clip-path:url(#SVGID_134_);enable-background:new    ;}
	.st625{clip-path:url(#SVGID_135_);enable-background:new    ;}
	.st626{clip-path:url(#SVGID_136_);enable-background:new    ;}
	.st627{clip-path:url(#SVGID_137_);enable-background:new    ;}
	.st628{clip-path:url(#SVGID_138_);enable-background:new    ;}
	.st629{fill:url(#SVGID_139_);}
	.st630{fill:#789CCF;}
	.st631{opacity:0.48;fill:none;stroke:#FFFFFF;stroke-width:0.8689;stroke-miterlimit:10;}
	.st632{opacity:0.48;fill:none;stroke:#FFFFFF;stroke-width:0.7996;stroke-miterlimit:10;}
	.st633{fill:none;stroke:#FFFFFF;stroke-width:4.3598;stroke-linecap:round;stroke-linejoin:round;stroke-miterlimit:10;}
	.st634{fill:#6286D6;}
	.st635{fill:#7798FC;}
	.st636{fill:#FF998B;}
	.st637{fill:#0D0000;}
	.st638{fill:#DDE5F2;}
	.st639{fill:none;stroke:#DDE5F2;stroke-width:1.6024;stroke-miterlimit:10;}
	.st640{fill:#5E757A;}
	.st641{fill:#20120D;}
	.st642{fill:#272727;}
	.st643{fill:#F9796D;}
	.st644{fill:#E87F74;}
	.st645{fill:#F15146;}
	.st646{fill:#D0413B;}
	.st647{fill:#FF604F;}
	.st648{fill:#FD8A77;}
	.st649{fill:#F9FFFC;}
	.st650{fill:none;stroke:#FFFFFF;stroke-width:1.5615;stroke-miterlimit:10;}
	.st651{fill:#FCFBFB;}
	.st652{fill:#2D8584;}
	.st653{fill:#156054;}
	.st654{opacity:0.19;}
	.st655{fill:#97D5D3;}
	.st656{fill:#96CBB9;}
	.st657{fill:url(#SVGID_140_);}
	.st658{fill:#C7DEFD;}
	.st659{fill:#0C0A0A;}
	.st660{fill:#BED9FD;}
	.st661{fill:#FED964;}
	.st662{fill:#8BBBFD;}
	.st663{fill:#25A9E1;}
	.st664{fill:#FF8DA0;}
	.st665{fill:#FD4056;}
	.st666{fill:#000001;}
	.st667{fill:#7F7FFD;}
	.st668{fill:#43BA79;}
	.st669{fill:#FFFFFF;stroke:#1A1A1A;stroke-width:2;stroke-linecap:round;stroke-linejoin:round;stroke-miterlimit:10;}
	.st670{fill:#4E3CDF;}
	.st671{fill:none;}
	.st672{fill:#0B0B0C;}
	.st673{fill:#010102;}
	.st674{clip-path:url(#SVGID_141_);fill:url(#SVGID_142_);}
	.st675{clip-path:url(#SVGID_141_);}
	.st676{fill:#FFA94D;}
	.st677{fill:#FFDBBB;}
	.st678{fill:#FEB07D;}
	.st679{fill:#F87352;}
	.st680{fill:#09293D;}
	.st681{fill:#12B886;}
	.st682{fill:#C37362;}
	.st683{fill:none;stroke:#09293D;stroke-width:1.25;stroke-miterlimit:10;}
	.st684{fill:#C184B0;}
	.st685{fill:#FFDAB2;}
	.st686{clip-path:url(#SVGID_146_);fill:url(#SVGID_147_);}
	.st687{opacity:0.06;clip-path:url(#SVGID_146_);}
	.st688{clip-path:url(#SVGID_148_);}
	.st689{clip-path:url(#SVGID_146_);}
	.st690{clip-path:url(#SVGID_149_);}
	.st691{clip-path:url(#SVGID_150_);}
	.st692{clip-path:url(#SVGID_151_);}
	.st693{clip-path:url(#SVGID_151_);fill:none;}
	.st694{clip-path:url(#SVGID_152_);}
	.st695{fill:url(#SVGID_153_);}
	.st696{fill:url(#SVGID_154_);}
	.st697{fill:url(#SVGID_155_);}
	.st698{fill:url(#SVGID_156_);}
	.st699{fill:url(#SVGID_157_);}
	.st700{fill:url(#SVGID_158_);}
	.st701{fill:url(#SVGID_159_);}
	.st702{fill:url(#SVGID_160_);}
	.st703{fill:url(#SVGID_161_);}
	.st704{clip-path:url(#SVGID_162_);fill:#F2EEED;}
	.st705{clip-path:url(#SVGID_163_);fill:#F2EEED;}
	.st706{clip-path:url(#SVGID_164_);fill:#F2EEED;}
	.st707{clip-path:url(#SVGID_165_);fill:#F2EEED;}
	.st708{clip-path:url(#SVGID_146_);fill:#FAFAFA;}
	.st709{opacity:0.35;fill:url(#SVGID_166_);}
	.st710{fill:url(#SVGID_167_);}
	.st711{fill:url(#SVGID_168_);}
	.st712{fill:url(#SVGID_169_);}
	.st713{fill:url(#SVGID_170_);}
	.st714{opacity:0.35;fill:url(#SVGID_171_);}
	.st715{fill:url(#SVGID_172_);}
	.st716{opacity:0.4;fill:url(#SVGID_173_);}
	.st717{fill:url(#SVGID_174_);}
	.st718{opacity:0.35;fill:url(#SVGID_175_);}
	.st719{fill:url(#SVGID_176_);}
	.st720{opacity:0.2;fill:url(#SVGID_177_);}
	.st721{fill:url(#SVGID_178_);}
	.st722{opacity:0.2;fill:url(#SVGID_179_);}
	.st723{fill:url(#SVGID_180_);}
	.st724{opacity:0.35;fill:url(#SVGID_181_);}
	.st725{fill:url(#SVGID_182_);}
	.st726{fill:url(#SVGID_183_);}
	.st727{fill:url(#SVGID_184_);}
	.st728{opacity:0.35;fill:url(#SVGID_185_);}
	.st729{fill:url(#SVGID_186_);}
	.st730{filter:url(#Adobe_OpacityMaskFilter_1_);}
	.st731{mask:url(#SVGID_187_);}
	.st732{fill:url(#SVGID_188_);}
	.st733{fill:url(#SVGID_189_);}
	.st734{opacity:0.28;fill:url(#SVGID_190_);}
	.st735{fill:url(#SVGID_191_);}
	.st736{opacity:0.35;fill:url(#SVGID_192_);}
	.st737{fill:url(#SVGID_193_);}
	.st738{fill:url(#SVGID_194_);}
	.st739{fill:url(#SVGID_195_);}
	.st740{fill:url(#SVGID_196_);}
	.st741{fill:url(#SVGID_197_);}
	.st742{fill:url(#SVGID_198_);}
	.st743{fill:url(#SVGID_199_);}
	.st744{opacity:0.35;fill:url(#SVGID_200_);}
	.st745{fill:url(#SVGID_201_);}
	.st746{fill:url(#SVGID_202_);}
	.st747{fill:url(#SVGID_203_);}
	.st748{fill:url(#SVGID_204_);}
	.st749{fill:url(#SVGID_205_);}
	.st750{clip-path:url(#SVGID_146_);fill:#E8E8E8;}
	.st751{fill:#FCB619;}
	.st752{fill:#0F141D;}
	.st753{fill:#F0625B;}
	.st754{fill:#088473;}
	.st755{fill:#DD665E;}
	.st756{fill:#3B4450;}
	.st757{fill:#27BDC4;}
	.st758{fill:#C2E1DB;}
	.st759{fill:#99D2D9;}
	.st760{fill:#0F3754;}
	.st761{fill:#154F78;}
	.st762{fill:#68481D;}
	.st763{font-family:'DJADOEL';}
	.st764{font-size:32.9246px;}
	.st765{fill:#C5F4FC;}
	.st766{opacity:0.08;}
	.st767{clip-path:url(#SVGID_206_);}
	.st768{fill-rule:evenodd;clip-rule:evenodd;fill:#7A7A7A;}
	.st769{fill:#7A7A7A;}
	.st770{fill:#585858;}
	.st771{clip-path:url(#SVGID_206_);fill-rule:evenodd;clip-rule:evenodd;fill:#7A7A7A;}
	.st772{clip-path:url(#SVGID_206_);fill:#7A7A7A;}
	.st773{clip-path:url(#SVGID_207_);}
	.st774{clip-path:url(#SVGID_207_);fill-rule:evenodd;clip-rule:evenodd;fill:#7A7A7A;}
	.st775{clip-path:url(#SVGID_207_);fill:#7A7A7A;}
	.st776{clip-path:url(#SVGID_208_);}
	.st777{clip-path:url(#SVGID_208_);fill-rule:evenodd;clip-rule:evenodd;fill:#7A7A7A;}
	.st778{clip-path:url(#SVGID_208_);fill:#7A7A7A;}
	.st779{clip-path:url(#SVGID_209_);}
	.st780{clip-path:url(#SVGID_209_);fill-rule:evenodd;clip-rule:evenodd;fill:#7A7A7A;}
	.st781{clip-path:url(#SVGID_209_);fill:#7A7A7A;}
	.st782{fill:#BED2A4;}
	.st783{opacity:0.18;clip-path:url(#SVGID_210_);}
	.st784{opacity:0.18;}
	.st785{clip-path:url(#SVGID_211_);}
	.st786{fill:#BABABA;}
	.st787{fill:#B6B6B6;}
	.st788{fill:#EDEDED;}
	.st789{fill:#EEEEEE;}
	.st790{fill:#BCBCBC;}
	.st791{fill:#D4D4D4;}
	.st792{fill:#D2D2D2;}
	.st793{fill:#969696;}
	.st794{fill:#D3D3D3;}
	.st795{fill:#DADADA;}
	.st796{fill:#C4C4C4;}
	.st797{fill:#C6C6C6;}
	.st798{fill:#EBEBEB;}
	.st799{fill:#D5D5D5;}
	.st800{fill:#949494;}
	.st801{fill:#A9A9A9;}
	.st802{fill:#A7A7A7;}
	.st803{fill:#959595;}
	.st804{fill:#C2C2C2;}
	.st805{fill:#C9C9C9;}
	.st806{fill:#E9E9E9;}
	.st807{fill:#D7D7D7;}
	.st808{fill:#E7E7E7;}
	.st809{fill:#DCDCDC;}
	.st810{fill:#D0D0D0;}
	.st811{fill:#B0B0B0;}
	.st812{fill:#AEAEAE;}
	.st813{fill:#DDDDDD;}
	.st814{fill:#CFCFCF;}
	.st815{fill:#ACACAC;}
	.st816{fill:#B2B2B2;}
	.st817{fill:#F2F2F2;}
	.st818{fill:#EAEAEA;}
	.st819{fill:#B7B7B7;}
	.st820{fill:#C5C5C5;}
	.st821{fill:#BBBBBB;}
	.st822{fill:#979797;}
	.st823{fill:#E4E4E4;}
	.st824{fill:#CACACA;}
	.st825{fill:#EFEFEF;}
	.st826{fill:#C7C7C7;}
	.st827{fill:#D6D6D6;}
	.st828{fill:#B4B4B4;}
	.st829{fill:#C8C8C8;}
	.st830{fill:#B1B1B1;}
	.st831{fill:#CDCDCD;}
	.st832{fill:#CBCBCB;}
	.st833{fill:#D9D9D9;}
	.st834{fill:#E3E3E3;}
	.st835{fill:#A2A2A2;}
	.st836{fill:#F6F6F6;}
	.st837{fill:#BDBDBD;}
	.st838{fill:#B8B8B8;}
	.st839{fill:#D1D1D1;}
	.st840{fill:#B9B9B9;}
	.st841{fill:#C3C3C3;}
	.st842{fill:#CCCCCC;}
	.st843{fill:#ADADAD;}
	.st844{fill:#C0C0C0;}
	.st845{fill:#F9F9F9;}
	.st846{fill:#F3F3F3;}
	.st847{fill:#BEBEBE;}
	.st848{fill:#DBDBDB;}
	.st849{fill:#F1F1F1;}
	.st850{fill:#AFAFAF;}
	.st851{fill:#ABABAB;}
	.st852{fill:#DFDFDF;}
	.st853{fill:#B5B5B5;}
	.st854{fill:#A8A8A8;}
	.st855{fill:#B3B3B3;}
	.st856{fill:#FCFCFC;}
	.st857{clip-path:url(#SVGID_213_);}
	.st858{fill:#88C9A1;}
	.st859{opacity:0.87;}
	.st860{opacity:0.18;clip-path:url(#SVGID_216_);}
	.st861{clip-path:url(#SVGID_217_);}
	.st862{clip-path:url(#SVGID_219_);}
	.st863{fill:#3169B1;}
	.st864{fill:#9EC96B;}
	.st865{fill:#FFCE6C;}
	.st866{fill:#768B4B;}
	.st867{fill:#BE893D;}
	.st868{fill:#51CDF4;}
</style>
<g>
	<g>
		
			<ellipse transform="matrix(0.1445 -0.9895 0.9895 0.1445 34.0101 299.3352)" class="st751" cx="190.11" cy="130" rx="112.97" ry="112.97"/>
		<path class="st752" d="M232.08,67.4l0.09-0.16H144.2l0.09,0.16c-15.27,1.55-27.18,14.44-27.18,30.11
			c0,16.72,13.55,30.27,30.27,30.27c12.79,0,23.71-7.95,28.14-19.17h25.32c4.43,11.22,15.35,19.17,28.14,19.17
			c16.72,0,30.27-13.55,30.27-30.27C259.26,81.84,247.35,68.95,232.08,67.4z"/>
		<g>
			<g>
				<g>
					<polygon class="st753" points="158.84,90.62 151.78,90.62 151.78,83.56 140.68,83.56 140.68,90.62 133.62,90.62 133.62,101.72 
						140.68,101.72 140.68,108.78 151.78,108.78 151.78,101.72 158.84,101.72 					"/>
					<g>
						<path class="st754" d="M237.14,85.9c0,3.93-3.19,7.12-7.12,7.12c-3.93,0-7.12-3.19-7.12-7.12c0-3.93,3.19-7.12,7.12-7.12
							C233.95,78.78,237.14,81.97,237.14,85.9z"/>
						<path class="st755" d="M237.14,111.14c0,3.93-3.19,7.12-7.12,7.12c-3.93,0-7.12-3.19-7.12-7.12c0-3.93,3.19-7.12,7.12-7.12
							C233.95,104.02,237.14,107.21,237.14,111.14z"/>
					</g>
					<g>
						<path class="st756" d="M242.64,105.64c-3.93,0-7.12-3.18-7.12-7.12c0-3.93,3.19-7.12,7.12-7.12c3.93,0,7.12,3.19,7.12,7.12
							C249.76,102.45,246.57,105.64,242.64,105.64z"/>
						<path class="st757" d="M217.4,105.64c-3.93,0-7.12-3.18-7.12-7.12c0-3.93,3.19-7.12,7.12-7.12c3.93,0,7.12,3.19,7.12,7.12
							C224.52,102.45,221.33,105.64,217.4,105.64z"/>
					</g>
				</g>
				<g>
					<path class="st755" d="M184.4,95.08c0,1.39-1.13,2.53-2.53,2.53h-7.26c-1.39,0-2.52-1.13-2.52-2.53l0,0
						c0-1.4,1.13-2.53,2.52-2.53h7.26C183.27,92.56,184.4,93.69,184.4,95.08L184.4,95.08z"/>
					<path class="st754" d="M204.29,95.08c0,1.39-1.13,2.53-2.53,2.53h-7.26c-1.39,0-2.53-1.13-2.53-2.53l0,0
						c0-1.4,1.13-2.53,2.53-2.53h7.26C203.16,92.56,204.29,93.69,204.29,95.08L204.29,95.08z"/>
				</g>
				<path class="st752" d="M200.12,66.1c0,2.86-2.32,5.17-5.17,5.17h-13.52c-2.86,0-5.17-2.32-5.17-5.17l0,0
					c0-2.86,2.31-5.17,5.17-5.17h13.52C197.81,60.93,200.12,63.25,200.12,66.1L200.12,66.1z"/>
			</g>
		</g>
		<path class="st758" d="M102.21,172.18l0.17,0.16l5.45-5.44l-13.57-12.73c-1.43-1.34-3.71-1.31-5.09,0.07l-2.96,2.96
			c0.1,0.08,0.2,0.17,0.3,0.26L102.21,172.18z"/>
		<path class="st759" d="M117.91,186.9c0.22,0.2,0.41,0.42,0.58,0.65l3-3c1.38-1.38,1.34-3.59-0.09-4.93l-13.57-12.73l-5.45,5.44
			L117.91,186.9z"/>
		<path class="st758" d="M273.63,173.95l-0.18,0.16l-5.56-5.62l14.1-12.88c1.48-1.36,3.83-1.3,5.24,0.13l3.02,3.05
			c-0.11,0.08-0.21,0.17-0.31,0.26L273.63,173.95z"/>
		<path class="st759" d="M257.32,188.85c-0.23,0.21-0.43,0.43-0.6,0.66l-3.07-3.1c-1.41-1.43-1.35-3.68,0.13-5.04l14.1-12.88
			l5.56,5.62L257.32,188.85z"/>
		<g>
			<path class="st671" d="M257.43,107.91c-0.12,0.34-0.26,0.67-0.39,1C257.34,108.8,257.46,108.45,257.43,107.91z"/>
			<path class="st671" d="M119.32,108.85c0.01,0.14,0.05,0.24,0.12,0.31C119.4,109.06,119.36,108.95,119.32,108.85z"/>
			<path class="st563" d="M146.09,70.22c-7.67-1.88-9.68,6.64-9.68,6.64l-8.12,30.62c0,0-5.18,2.89-8.72,1.76
				c-0.05-0.02-0.09-0.04-0.12-0.07c-0.08-0.07-0.12-0.17-0.12-0.31c-1.42-3.5-2.2-7.33-2.2-11.34c0-4.28,0.89-8.34,2.49-12.03
				c-6.89,5.72-15.71,12.99-16.87,16.18c-1.15,3.15-1.56,9.62-1.79,18.09c-0.18,6.39-0.26,13.92-0.47,22.03
				c-0.09,3.53-1.64,7.81-4.1,12.45c5.19,4.85,15.56,14.55,22.27,20.82c2.39,2.24,5.72,2.84,8.63,1.86
				c11.62-8.44,8.78-12.12,12.14-18.37c2.91-5.39,7.68-17.63,8.55-30.78c0.18-2.78,0.2-5.6-0.02-8.4
				c-1.23-15.68,0.15-11.75,2.78-29.23c0.07-0.45,0.14-0.91,0.21-1.39C153.69,69.65,146.09,70.22,146.09,70.22z"/>
			<path class="st563" d="M276.77,141.79c-0.22-8.11-0.3-15.64-0.47-22.03c-0.24-8.47-0.65-14.94-1.79-18.09
				c-1.24-3.41-11.24-11.5-18.27-17.35c1.94,3.99,3.03,8.46,3.03,13.2c0,3.65-0.65,7.16-1.83,10.4c0.03,0.54-0.09,0.88-0.39,1
				c-0.01,0-0.02,0.01-0.03,0.01c-3.54,1.13-8.05-1.45-8.05-1.45l-8.12-30.62c0,0-2.01-8.52-9.68-6.64c0,0-7.6-0.57-4.84,18.53
				c0.07,0.48,0.14,0.94,0.21,1.39c2.63,17.48,4,13.56,2.78,29.23c-0.22,2.81-0.2,5.62-0.02,8.4c0.87,13.15,5.65,25.39,8.55,30.78
				c3.36,6.25,0.53,9.93,12.14,18.37c2.9,0.98,6.23,0.38,8.63-1.86c6.71-6.28,17.08-15.97,22.27-20.82
				C278.42,149.6,276.87,145.32,276.77,141.79z"/>
		</g>
		<g>
			<polygon class="st757" points="279.84,180.23 283.38,183.8 273.63,173.95 			"/>
			<path class="st760" d="M118.48,187.55c-0.17-0.23-0.36-0.45-0.58-0.65l-15.7-14.73l-9.54,9.53l-1.98,1.98
				c4.05,7.48,8.92,14.45,14.49,20.8l13.56-13.55C119.52,190.15,119.38,188.75,118.48,187.55z"/>
			<path class="st761" d="M92.67,181.71l3.46-3.46l6.08-6.08l-15.7-14.73c-0.1-0.09-0.2-0.18-0.3-0.26
				c-1.35-1.08-3.03-1.28-3.89-0.42l-1.59,1.59c2.31,8.92,5.67,17.41,9.96,25.33L92.67,181.71z"/>
			<polygon class="st761" points="92.67,181.71 102.21,172.18 96.13,178.25 			"/>
			<path class="st760" d="M283.38,183.8l-3.53-3.57l-6.21-6.27l-16.31,14.9c-0.23,0.21-0.43,0.43-0.6,0.66
				c-0.93,1.22-1.09,2.65-0.3,3.45l15.14,15.3c5.97-6.21,11.23-13.11,15.67-20.56L283.38,183.8z"/>
			<path class="st761" d="M290.25,158.8c-0.11,0.08-0.21,0.17-0.31,0.26l-16.31,14.89l9.74,9.85l3.86,3.9
				c4.67-7.84,8.41-16.28,11.08-25.19l-4.06-4.1C293.38,157.52,291.65,157.71,290.25,158.8z"/>
			<path class="st752" d="M173.35,26.41c-1.15,0.57-2.33,1.16-3.59,1.81c-5.32,2.75-5.62,6.2-5.33,8.01
				c0.83,5.17,8.15,9.46,14.45,10.47c7.15,1.14,7,8.83,6.99,9.15l0,8.63h3.73v-8.53c0.13-3.91-1.81-11.6-10.13-12.94
				c-5.47-0.87-10.88-4.39-11.36-7.38c-0.23-1.45,0.9-2.83,3.36-4.11c1.23-0.64,2.41-1.22,3.54-1.79c6.9-3.44,12.2-6.09,13.34-12.7
				c-1.28,0.02-2.56,0.05-3.83,0.12C183.45,21.38,179.76,23.22,173.35,26.41z"/>
		</g>
	</g>
	<g>
		<path class="st762" d="M290.61,241.73H93.39c-15.13,0-27.39-12.26-27.39-27.39v-17.41c0-15.13,12.26-27.39,27.39-27.39h197.23
			c15.13,0,27.39,12.26,27.39,27.39v17.41C318,229.47,305.74,241.73,290.61,241.73z"/>
		<text transform="matrix(1 0 0 1 130.1768 218.166)" class="st391 st763 st764">play game</text>
	</g>
</g>
<g>
	<g>
		<g>
			<g>
				<defs>
					<path id="SVGID_212_" d="M710.54,780.68H-78.51c-13.75,0-24.89-11.14-24.89-24.89V337.89c0-13.75,11.14-24.89,24.89-24.89
						h789.04c13.75,0,24.89,11.14,24.89,24.89v417.89C735.43,769.53,724.28,780.68,710.54,780.68z"/>
				</defs>
				<clipPath id="SVGID_6_">
					<use xlink:href="#SVGID_212_"  style="overflow:visible;"/>
				</clipPath>
				<g class="st361">
					<defs>
						<rect id="SVGID_38_" x="-170.57" y="231.73" width="1100.39" height="677.52"/>
					</defs>
					<clipPath id="SVGID_8_">
						<use xlink:href="#SVGID_38_"  style="overflow:visible;"/>
					</clipPath>
				</g>
			</g>
		</g>
		<g>
			<g class="st859">
				<defs>
					<path id="SVGID_215_" class="st859" d="M710.54,780.68H-78.51c-13.75,0-24.89-11.14-24.89-24.89V337.89
						c0-13.75,11.14-24.89,24.89-24.89h789.04c13.75,0,24.89,11.14,24.89,24.89v417.89C735.43,769.53,724.28,780.68,710.54,780.68z"
						/>
				</defs>
				<clipPath id="SVGID_25_">
					<use xlink:href="#SVGID_215_"  style="overflow:visible;"/>
				</clipPath>
				<g style="opacity:0.18;clip-path:url(#SVGID_25_);">
					<defs>
						<rect id="SVGID_36_" x="-170.57" y="231.73" class="st784" width="1100.39" height="677.52"/>
					</defs>
					<clipPath id="SVGID_26_">
						<use xlink:href="#SVGID_36_"  style="overflow:visible;"/>
					</clipPath>
					<g style="clip-path:url(#SVGID_26_);">
						<path class="st789" d="M17.23,211.73c4.25,0,7.69-3.18,7.69-7.1c0-3.92-3.44-7.1-7.69-7.1c-4.25,0-7.69,3.18-7.69,7.1
							C9.54,208.55,12.98,211.73,17.23,211.73z"/>
						<path class="st790" d="M43.64,213.62c5.38,0,9.74-4.03,9.74-9c0-4.97-4.36-9-9.74-9s-9.74,4.03-9.74,9
							C33.9,209.59,38.26,213.62,43.64,213.62z"/>
						<path class="st596" d="M70.05,212c4.41,0,7.98-3.3,7.98-7.37c0-4.07-3.57-7.37-7.98-7.37s-7.98,3.3-7.98,7.37
							C62.06,208.7,65.64,212,70.05,212z"/>
						<path class="st791" d="M96.46,205.1c0.28,0,0.51-0.21,0.51-0.47c0-0.26-0.23-0.47-0.51-0.47c-0.28,0-0.51,0.21-0.51,0.47
							C95.94,204.89,96.17,205.1,96.46,205.1z"/>
						<path class="st791" d="M122.87,205.1c0.28,0,0.51-0.21,0.51-0.47c0-0.26-0.23-0.47-0.51-0.47c-0.28,0-0.51,0.21-0.51,0.47
							C122.35,204.89,122.58,205.1,122.87,205.1z"/>
						<path class="st792" d="M149.27,205.1c0.28,0,0.51-0.21,0.51-0.47c0-0.26-0.23-0.47-0.51-0.47c-0.28,0-0.51,0.21-0.51,0.47
							C148.76,204.89,148.99,205.1,149.27,205.1z"/>
						<path class="st793" d="M175.68,206.45c1.09,0,1.98-0.82,1.98-1.83c0-1.01-0.89-1.83-1.98-1.83c-1.09,0-1.98,0.82-1.98,1.83
							C173.71,205.64,174.59,206.45,175.68,206.45z"/>
						<path class="st793" d="M202.09,206.45c1.09,0,1.98-0.82,1.98-1.83c0-1.01-0.89-1.83-1.98-1.83c-1.09,0-1.98,0.82-1.98,1.83
							C200.12,205.64,201,206.45,202.09,206.45z"/>
						<path class="st794" d="M228.5,205.03c0.24,0,0.44-0.18,0.44-0.4c0-0.23-0.2-0.41-0.44-0.41c-0.24,0-0.44,0.18-0.44,0.41
							C228.06,204.85,228.26,205.03,228.5,205.03z"/>
						<path class="st791" d="M254.91,205.1c0.28,0,0.51-0.21,0.51-0.47c0-0.26-0.23-0.47-0.51-0.47c-0.28,0-0.51,0.21-0.51,0.47
							C254.4,204.89,254.63,205.1,254.91,205.1z"/>
						<ellipse class="st791" cx="281.32" cy="204.63" rx="0.51" ry="0.47"/>
						<ellipse class="st791" cx="307.73" cy="204.63" rx="0.51" ry="0.47"/>
						<ellipse class="st791" cx="334.14" cy="204.63" rx="0.51" ry="0.47"/>
						<path class="st795" d="M360.55,206.66c1.21,0,2.2-0.91,2.2-2.03c0-1.12-0.98-2.03-2.2-2.03c-1.21,0-2.2,0.91-2.2,2.03
							C358.35,205.75,359.34,206.66,360.55,206.66z"/>
						<path class="st789" d="M386.96,211.73c4.25,0,7.69-3.18,7.69-7.1c0-3.92-3.44-7.1-7.69-7.1c-4.25,0-7.69,3.18-7.69,7.1
							C379.27,208.55,382.71,211.73,386.96,211.73z"/>
						<path class="st789" d="M17.23,236.12c4.25,0,7.69-3.18,7.69-7.1c0-3.92-3.44-7.1-7.69-7.1c-4.25,0-7.69,3.18-7.69,7.1
							C9.54,232.94,12.98,236.12,17.23,236.12z"/>
						<path class="st790" d="M43.64,238.01c5.38,0,9.74-4.03,9.74-9c0-4.97-4.36-9-9.74-9s-9.74,4.03-9.74,9
							C33.9,233.99,38.26,238.01,43.64,238.01z"/>
						<path class="st596" d="M70.05,236.39c4.41,0,7.98-3.3,7.98-7.37c0-4.07-3.57-7.37-7.98-7.37s-7.98,3.3-7.98,7.37
							C62.06,233.09,65.64,236.39,70.05,236.39z"/>
						<path class="st791" d="M96.46,229.49c0.28,0,0.51-0.21,0.51-0.47c0-0.26-0.23-0.47-0.51-0.47c-0.28,0-0.51,0.21-0.51,0.47
							C95.94,229.28,96.17,229.49,96.46,229.49z"/>
						<path class="st791" d="M122.87,229.49c0.28,0,0.51-0.21,0.51-0.47c0-0.26-0.23-0.47-0.51-0.47c-0.28,0-0.51,0.21-0.51,0.47
							C122.35,229.28,122.58,229.49,122.87,229.49z"/>
						<path class="st792" d="M149.27,229.49c0.28,0,0.51-0.21,0.51-0.47c0-0.26-0.23-0.47-0.51-0.47c-0.28,0-0.51,0.21-0.51,0.47
							C148.76,229.28,148.99,229.49,149.27,229.49z"/>
						<path class="st793" d="M175.68,230.84c1.09,0,1.98-0.82,1.98-1.83c0-1.01-0.89-1.83-1.98-1.83c-1.09,0-1.98,0.82-1.98,1.83
							C173.71,230.03,174.59,230.84,175.68,230.84z"/>
						<path class="st793" d="M202.09,230.84c1.09,0,1.98-0.82,1.98-1.83c0-1.01-0.89-1.83-1.98-1.83c-1.09,0-1.98,0.82-1.98,1.83
							C200.12,230.03,201,230.84,202.09,230.84z"/>
						<path class="st794" d="M228.5,229.42c0.24,0,0.44-0.18,0.44-0.4c0-0.23-0.2-0.41-0.44-0.41c-0.24,0-0.44,0.18-0.44,0.41
							C228.06,229.24,228.26,229.42,228.5,229.42z"/>
						<path class="st791" d="M254.91,229.49c0.28,0,0.51-0.21,0.51-0.47c0-0.26-0.23-0.47-0.51-0.47c-0.28,0-0.51,0.21-0.51,0.47
							C254.4,229.28,254.63,229.49,254.91,229.49z"/>
						<ellipse class="st791" cx="281.32" cy="229.02" rx="0.51" ry="0.47"/>
						<ellipse class="st791" cx="307.73" cy="229.02" rx="0.51" ry="0.47"/>
						<ellipse class="st791" cx="334.14" cy="229.02" rx="0.51" ry="0.47"/>
						<path class="st795" d="M360.55,231.05c1.21,0,2.2-0.91,2.2-2.03c0-1.12-0.98-2.03-2.2-2.03c-1.21,0-2.2,0.91-2.2,2.03
							C358.35,230.14,359.34,231.05,360.55,231.05z"/>
						<path class="st789" d="M386.96,236.12c4.25,0,7.69-3.18,7.69-7.1c0-3.92-3.44-7.1-7.69-7.1c-4.25,0-7.69,3.18-7.69,7.1
							C379.27,232.94,382.71,236.12,386.96,236.12z"/>
						<path class="st799" d="M17.23,254.02c0.36,0,0.66-0.27,0.66-0.61c0-0.34-0.3-0.61-0.66-0.61c-0.36,0-0.66,0.27-0.66,0.61
							C16.57,253.74,16.86,254.02,17.23,254.02z"/>
						<path class="st793" d="M96.46,255.23c1.09,0,1.98-0.82,1.98-1.83c0-1.01-0.89-1.83-1.98-1.83c-1.09,0-1.98,0.82-1.98,1.83
							C94.48,254.42,95.36,255.23,96.46,255.23z"/>
						<ellipse class="st800" cx="122.87" cy="253.41" rx="3.88" ry="3.58"/>
						<path class="st801" d="M149.27,254.69c0.77,0,1.39-0.58,1.39-1.28c0-0.71-0.62-1.28-1.39-1.28c-0.77,0-1.39,0.57-1.39,1.28
							C147.88,254.12,148.51,254.69,149.27,254.69z"/>
						<path class="st802" d="M175.68,253.81c0.24,0,0.44-0.18,0.44-0.4c0-0.23-0.2-0.41-0.44-0.41c-0.24,0-0.44,0.18-0.44,0.41
							C175.24,253.63,175.44,253.81,175.68,253.81z"/>
						<path class="st791" d="M202.09,253.88c0.28,0,0.51-0.21,0.51-0.47c0-0.26-0.23-0.47-0.51-0.47c-0.28,0-0.51,0.21-0.51,0.47
							C201.58,253.67,201.81,253.88,202.09,253.88z"/>
						<path class="st794" d="M228.5,253.81c0.24,0,0.44-0.18,0.44-0.4c0-0.23-0.2-0.41-0.44-0.41c-0.24,0-0.44,0.18-0.44,0.41
							C228.06,253.63,228.26,253.81,228.5,253.81z"/>
						<path class="st791" d="M254.91,253.88c0.28,0,0.51-0.21,0.51-0.47c0-0.26-0.23-0.47-0.51-0.47c-0.28,0-0.51,0.21-0.51,0.47
							C254.4,253.67,254.63,253.88,254.91,253.88z"/>
						<ellipse class="st791" cx="281.32" cy="253.41" rx="0.51" ry="0.47"/>
						<ellipse class="st791" cx="307.73" cy="253.41" rx="0.51" ry="0.47"/>
						<path class="st803" d="M334.14,256.05c1.58,0,2.86-1.18,2.86-2.64s-1.28-2.64-2.86-2.64s-2.86,1.18-2.86,2.64
							S332.56,256.05,334.14,256.05z"/>
						<path class="st801" d="M360.55,254.69c0.77,0,1.39-0.58,1.39-1.28c0-0.71-0.62-1.28-1.39-1.28c-0.77,0-1.39,0.57-1.39,1.28
							C359.16,254.12,359.78,254.69,360.55,254.69z"/>
					</g>
				</g>
			</g>
		</g>
		<g>
			<g>
				<defs>
					<path id="SVGID_218_" d="M710.54,780.68H-78.51c-13.75,0-24.89-11.14-24.89-24.89V337.89c0-13.75,11.14-24.89,24.89-24.89
						h789.04c13.75,0,24.89,11.14,24.89,24.89v417.89C735.43,769.53,724.28,780.68,710.54,780.68z"/>
				</defs>
				<clipPath id="SVGID_27_">
					<use xlink:href="#SVGID_218_"  style="overflow:visible;"/>
				</clipPath>
				<g style="clip-path:url(#SVGID_27_);">
					<defs>
						<rect id="SVGID_34_" x="-170.57" y="231.73" width="1100.39" height="677.52"/>
					</defs>
					<clipPath id="SVGID_28_">
						<use xlink:href="#SVGID_34_"  style="overflow:visible;"/>
					</clipPath>
				</g>
			</g>
		</g>
	</g>
</g>
</svg>
